<svg width="13" height="23" viewBox="0 0 13 23" fill="none" xmlns="http://www.w3.org/2000/svg">
<path d="M12.7505 12.0482C12.7505 8.55669 9.94373 5.72069 6.46336 5.67356C2.96804 5.62622 0.0620472 8.43909 0.000998462 11.9342C-0.038398 14.1871 1.09125 16.1784 2.82335 17.3426C3.09117 17.5226 3.25365 17.8224 3.25365 18.1451V19.0711L4.16341 19.9967H8.17614L9.49689 19.0711V18.145C9.49689 17.823 9.65838 17.5232 9.92571 17.3437C11.6293 16.1992 12.7505 14.2548 12.7505 12.0482V12.0482Z" fill="#F6E266"/>
<path d="M6.4634 5.67356C6.20654 5.6701 5.95295 5.68245 5.70337 5.709C8.90567 6.04744 11.4009 8.75623 11.4009 12.0482C11.4009 14.2548 10.2797 16.1992 8.57612 17.3436C8.30879 17.5232 8.1473 17.823 8.1473 18.145V19.9967L9.49693 19.0711V18.145C9.49693 17.8229 9.65842 17.5232 9.92575 17.3436C11.6294 16.1992 12.7506 14.2548 12.7506 12.0482C12.7506 8.55669 9.94376 5.72073 6.4634 5.67356V5.67356Z" fill="#ECBE6B"/>
<path d="M9.32106 7.95927C7.3573 8.78112 5.39359 8.78112 3.42983 7.95927C3.24039 7.87999 3.11646 7.69513 3.11646 7.48975V2.77031H9.63439V7.4898C9.63443 7.69518 9.51049 7.88003 9.32106 7.95927Z" fill="#4A80AA"/>
<path d="M8.92496 2.77031V7.18738C8.92496 7.39277 8.80107 7.57762 8.61159 7.65691C6.83781 8.39924 5.06407 8.47085 3.29028 7.87213C3.33107 7.90784 3.37775 7.93762 3.42954 7.95932C5.3933 8.78117 7.35701 8.78117 9.32077 7.95932C9.51021 7.88003 9.63414 7.69518 9.63414 7.4898V2.77031H8.92496Z" fill="#407093"/>
<path d="M11.4245 2.96154L5.72117 5.38L1.32619 2.96154C1.24771 2.91837 1.24771 2.80557 1.32619 2.7624L6.32056 0.014083C6.35465 -0.00469433 6.39603 -0.00469433 6.43012 0.014083L11.4245 2.7624C11.503 2.80557 11.503 2.91837 11.4245 2.96154Z" fill="#365E7D"/>
<path d="M11.4245 2.7624L6.43015 0.014083C6.39605 -0.00469433 6.35468 -0.00469433 6.32058 0.014083L5.72119 0.343899L10.1162 2.76236C10.1946 2.80553 10.1946 2.91832 10.1162 2.96149L5.72119 5.37995L6.32058 5.70977C6.35468 5.72854 6.39605 5.72854 6.43015 5.70977L11.4245 2.96145C11.5029 2.91837 11.5029 2.80557 11.4245 2.7624V2.7624Z" fill="#2B4D66"/>
<path d="M8.16193 7.46496C7.97021 7.46496 7.81487 7.30957 7.81487 7.11789V4.83002L5.99818 3.11428C5.85879 2.98266 5.85255 2.76299 5.98417 2.62364C6.11579 2.4842 6.33546 2.47805 6.4748 2.60962L8.40024 4.42811C8.46965 4.49365 8.50904 4.58493 8.50904 4.68043V7.11789C8.50904 7.30957 8.35366 7.46496 8.16193 7.46496V7.46496Z" fill="#407093"/>
<path d="M6.37514 19.881C6.18342 19.881 6.02808 19.7256 6.02808 19.534V14.6645C6.02808 14.4728 6.18346 14.3175 6.37514 14.3175C6.56682 14.3175 6.72221 14.4728 6.72221 14.6645V19.5339C6.72221 19.7256 6.56682 19.881 6.37514 19.881Z" fill="#4A80AA"/>
<path d="M7.5017 23H5.24891C4.14698 23 3.25366 22.1067 3.25366 21.0048V19.0711H9.4969V21.0048C9.49694 22.1067 8.60367 23 7.5017 23Z" fill="#365E7D"/>
<path d="M8.14735 19.0711V21.0048C8.14735 22.1067 7.25403 23 6.1521 23H7.50173C8.60366 23 9.49693 22.1067 9.49693 21.0048V19.0711H8.14735Z" fill="#2B4D66"/>
<path d="M7.42078 21.5531H5.32949C5.13776 21.5531 4.98242 21.3977 4.98242 21.206C4.98242 21.0143 5.13781 20.8589 5.32949 20.8589H7.42078C7.61251 20.8589 7.76784 21.0143 7.76784 21.206C7.76784 21.3977 7.61251 21.5531 7.42078 21.5531Z" fill="#2B4D66"/>
</svg>
