<svg width="18" height="18" viewBox="0 0 18 18" fill="none" xmlns="http://www.w3.org/2000/svg">
<path d="M7.18945 16.158V17.981L6.74863 17.625C6.68051 17.5699 5.05989 16.2541 3.41647 14.3674C1.14944 11.7646 0 9.42819 0 7.42332V7.22461C0 3.26033 3.22517 0.0351562 7.18945 0.0351562C11.1537 0.0351562 14.3789 3.26033 14.3789 7.22461V7.42332C14.3789 7.59169 14.37 7.76266 14.3538 7.9357L12.9478 6.65305C12.6598 3.72958 10.1873 1.43797 7.18945 1.43797C3.99875 1.43797 1.40282 4.03391 1.40282 7.22461V7.42332C1.40282 10.8112 5.76796 14.9126 7.18945 16.158ZM11.5031 15.1504H13.6073V13.0463H11.5031V15.1504ZM7.18945 4.24361C8.83315 4.24361 10.1705 5.58092 10.1705 7.22461C10.1705 8.8683 8.83315 10.2056 7.18945 10.2056C5.54576 10.2056 4.20845 8.8683 4.20845 7.22461C4.20845 5.58092 5.54576 4.24361 7.18945 4.24361ZM7.18945 5.64642C6.3192 5.64642 5.61127 6.35435 5.61127 7.22461C5.61127 8.09473 6.3192 8.8028 7.18945 8.8028C8.05957 8.8028 8.76764 8.09473 8.76764 7.22461C8.76764 6.35435 8.05957 5.64642 7.18945 5.64642ZM17.0546 14.1972L16.6602 13.8374V16.0895C16.6602 17.1381 15.807 17.9912 14.7583 17.9912H10.317C9.26834 17.9912 8.41512 17.1381 8.41512 16.0895V13.8374L8.02071 14.1972L7.07533 13.1609L12.5376 8.17767L18 13.1609L17.0546 14.1972ZM15.2574 12.5576L12.5376 10.0765L9.81793 12.5576V16.0893C9.81793 16.3645 10.0418 16.5884 10.317 16.5884H14.7583C15.0336 16.5884 15.2574 16.3645 15.2574 16.0893V12.5576Z" fill="#EA4436"/>
</svg>
