<svg width="45" height="45" viewBox="0 0 45 45" fill="none" xmlns="http://www.w3.org/2000/svg">
<rect width="45" height="45" rx="10" fill="#EA4436" fill-opacity="0.3"/>
<rect x="0.5" y="0.5" width="44" height="44" rx="9.5" stroke="#EA4436" stroke-opacity="0.3"/>
<path d="M35.3454 41.7325L34.4943 34.9233C34.3658 33.8955 33.6586 33.0328 32.6761 32.7052L29.3941 31.6112C28.9434 31.4609 28.449 31.5567 28.1015 31.8528L27.1347 31.5305C26.5856 31.3475 26.2152 30.8336 26.2152 30.2547V28.086L29.1117 26.8791C30.6151 26.2529 31.5944 24.7839 31.5944 23.1551V22.4827C32.7085 22.4827 33.6116 21.5796 33.6116 20.4655C33.6116 19.9629 33.4275 19.5037 33.1235 19.1505C33.6943 17.0729 35.2985 10.5011 33.6116 7.68965L34.284 5C34.284 5 27.2237 5.1681 23.5254 6.34482L24.8703 5C24.8703 5 15.4145 5 13.4399 8.36147L13.4393 8.36206C13.4393 8.36206 10.0772 8.33407 10.0772 12.3965C10.0772 13.8834 10.9065 17.5961 11.2626 19.1219C10.9438 19.4786 10.7496 19.9493 10.7496 20.4655C10.7496 21.5796 11.6527 22.4827 12.7669 22.4827V23.1551C12.7669 24.7838 13.7461 26.2528 15.2496 26.8793L18.1461 28.0862V30.2548C18.1461 30.8337 17.7757 31.3476 17.2266 31.5306L16.2599 31.8529C15.9123 31.5568 15.4179 31.461 14.9672 31.6113L11.6853 32.7053C10.7026 33.0329 9.99542 33.8956 9.86699 34.9234L9.01588 41.7325C8.86535 42.9365 9.80412 43.9999 11.0175 43.9999H11.0364H33.3249H33.3438C34.5571 43.9999 35.496 42.9365 35.3454 41.7325Z" fill="#FFD7A3"/>
<path d="M26.215 28.0862L18.146 28.0863V30.2549C18.146 30.7389 17.8782 31.1652 17.4722 31.4029C23.1115 32.39 26.215 28.0862 26.215 28.0862Z" fill="#FDC88E"/>
<path d="M11.422 19.7931C11.422 19.7931 10.0771 14.2899 10.0771 12.3965C10.0771 8.33407 13.4392 8.36206 13.4392 8.36206L13.4398 8.36147C15.4144 5 24.8702 5 24.8702 5L23.5254 6.34482C27.2237 5.1681 34.284 5 34.284 5L33.6116 7.68965C35.6288 11.0517 32.9392 19.7931 32.9392 19.7931H11.422Z" fill="#734A3E"/>
<path d="M24.8702 5C24.8702 5 15.4144 5 13.4398 8.36147L13.4392 8.36206C13.4392 8.36206 10.0771 8.33407 10.0771 12.3965C10.0771 14.2899 11.422 19.7931 11.422 19.7931C11.422 19.7931 25.4026 13.5453 34.284 5C34.284 5 27.2237 5.1681 23.5254 6.34482L24.8702 5Z" fill="#623F33"/>
<path d="M31.5943 18.4483V17.1035C31.5943 15.2467 30.089 13.7415 28.2322 13.7415H16.1288C14.272 13.7415 12.7667 15.2467 12.7667 17.1035V18.4483C11.6526 18.4483 10.7495 19.3515 10.7495 20.4656C10.7495 21.5797 11.6526 22.4828 12.7667 22.4828V23.1552C12.7667 24.7839 13.746 26.2529 15.2495 26.8794L19.5942 28.6897C20.4137 29.0312 21.2927 29.2069 22.1804 29.2069C23.0682 29.2069 23.9471 29.0311 24.7666 28.6897L29.1116 26.8793C30.615 26.2529 31.5943 24.784 31.5943 23.1552V22.4828C32.7084 22.4828 33.6115 21.5797 33.6115 20.4656C33.6115 19.3515 32.7084 18.4483 31.5943 18.4483Z" fill="#FFE1B2"/>
<path d="M17.4737 21.1378C17.1039 21.1378 16.8013 20.8353 16.8013 20.4654V19.793C16.8013 19.4232 17.1039 19.1206 17.4737 19.1206C17.8435 19.1206 18.1461 19.4232 18.1461 19.793V20.4654C18.1461 20.8353 17.8435 21.1378 17.4737 21.1378Z" fill="#623F33"/>
<path d="M26.8875 21.1378C26.5177 21.1378 26.2151 20.8353 26.2151 20.4654V19.793C26.2151 19.4232 26.5177 19.1206 26.8875 19.1206C27.2573 19.1206 27.5599 19.4232 27.5599 19.793V20.4654C27.5599 20.8353 27.2573 21.1378 26.8875 21.1378Z" fill="#623F33"/>
<path d="M22.1805 25.8632C20.9851 25.8632 19.8668 25.569 19.1126 25.0558C18.8057 24.8471 18.7258 24.4287 18.935 24.1218C19.1435 23.8152 19.5621 23.7353 19.8691 23.9442C20.3977 24.3037 21.2618 24.5184 22.1805 24.5184C23.0992 24.5184 23.9633 24.3037 24.4919 23.9442C24.7996 23.7347 25.2172 23.8148 25.426 24.1218C25.6351 24.4287 25.5554 24.8471 25.2484 25.0558C24.4943 25.569 23.376 25.8632 22.1805 25.8632Z" fill="#E4B07B"/>
<path d="M35.3454 41.7324L34.4943 34.9232C34.3659 33.8955 33.6586 33.0328 32.6761 32.7052L29.3941 31.6112C28.8225 31.4206 28.1796 31.6241 27.8567 32.1328C26.6647 34.0109 24.5697 35.2584 22.1806 35.2584C19.7915 35.2584 17.6966 34.0108 16.5046 32.1328C16.1818 31.6241 15.5388 31.4206 14.9672 31.6112L11.6853 32.7052C10.7026 33.0328 9.99542 33.8955 9.86699 34.9232L9.01588 41.7324C8.86534 42.9364 9.8042 43.9999 11.0176 43.9999H33.3438C34.5571 43.9999 35.496 42.9364 35.3454 41.7324Z" fill="#00BEA4"/>
<path d="M10.4275 33.5916C10.129 33.9695 9.9291 34.4262 9.86699 34.9232L9.01588 41.7324C8.86534 42.9364 9.8042 43.9998 11.0176 43.9998H14.7841V39.6235C14.7841 38.9766 14.5509 38.3514 14.1274 37.8624L10.4275 33.5916Z" fill="#00AB9A"/>
<path d="M33.9337 33.5916C34.2323 33.9695 34.4321 34.4262 34.4942 34.9232L35.3454 41.7324C35.4959 42.9364 34.557 43.9998 33.3437 43.9998H29.5771V39.6235C29.5771 38.9766 29.8103 38.3514 30.2338 37.8624L33.9337 33.5916Z" fill="#00AB9A"/>
<path d="M16.2966 25.4854C15.7518 24.9012 15.4565 24.1304 15.4565 23.3316V15.7115C17.5967 15.551 24.3444 14.9674 28.2323 13.7415H16.1288C15.8973 13.7415 15.6732 13.7684 15.4564 13.8155V13.8092C13.9219 14.1208 12.7667 15.477 12.7667 17.1035V18.4483C11.6526 18.4483 10.7495 19.3515 10.7495 20.4656C10.7495 21.5797 11.6526 22.4828 12.7667 22.4828V23.1552C12.7667 24.784 13.746 26.2529 15.2495 26.8794L19.5941 28.6897C19.8067 28.7783 20.0238 28.8546 20.2436 28.9207C18.3235 27.5161 17.0454 26.2882 16.2966 25.4854Z" fill="#FFD7A3"/>
</svg>
