<svg id="Layer_1_1_" enable-background="new 0 0 64 64" height="512" viewBox="0 0 64 64" width="512" xmlns="http://www.w3.org/2000/svg"><path d="m43.48645 58.33643 2.66357 2.66357h4.23999l10.60999-10.60999v-2.83001l-3.79425-3.79065c-2.54724 7.27392-7.59326 12.74444-13.7193 14.56708z" fill="#f09d3a"/><path d="m24.2132 47.56497c.38891-.38891.89803-.5869 1.41421-.57983.51619-.00707 1.0253.19092 1.41421.57983.77782.77782.77782 2.05061 0 2.82843l-10.60659 10.6066h-2.82843l-10.6066-10.6066v-4.24264l4.24264-4.24264 6.36396-.7071 9.19239-9.19239c.77782-.77782 2.05061-.77782 2.82843 0 .38891.38891.5869.89803.57983 1.41422.00707.51619-.19092 1.0253-.57983 1.41421l-7.07107 7.07107c.77782-.77782 2.05061-.77782 2.82843 0 .38891.38891.5869.89803.57983 1.41422.00707.51619-.19092 1.02531-.57983 1.41422.77782-.77782 2.05061-.77782 2.82843 0 .38891.38891.5869.89803.57983 1.41421.00706.51617-.19093 1.02528-.57984 1.41419z" fill="#50b6cf"/><path d="m13.60999 61h2.83001l10.59998-10.60999c.78003-.78003.78003-2.04004 0-2.83002-.31573-.3158-.71106-.49396-1.12579-.5528-3.74158 3.44476-10.60333 6.11047-18.99231 7.30469z" fill="#3cadc9"/><path d="m13.6066 41.20101-1.59099.17678-2.65165 2.65165c-.39052.39052-.39052 1.02369 0 1.41421.39052.39052 1.02369.39052 1.41421 0l3.53553-3.53554z" fill="#2ea3bf"/><path d="m15.02082 45.44365c-.39052-.39053-.39052-1.02369 0-1.41422l2.82843-2.82843c.39052-.39052 1.02369-.39052 1.41421 0 .39052.39052.39052 1.02369 0 1.41421l-2.82843 2.82843c-.39053.39054-1.02369.39054-1.41421.00001z" fill="#2ea3bf"/><path d="m17.84924 48.27208c-.39053-.39053-.39053-1.02369 0-1.41422l2.82843-2.82843c.39052-.39053 1.02369-.39053 1.41421 0 .39052.39052.39052 1.02369 0 1.41421l-2.82843 2.82843c-.39052.39053-1.02368.39053-1.41421.00001z" fill="#2ea3bf"/><path d="m20.67767 51.10051c-.39052-.39053-.39052-1.02369 0-1.41422l2.82843-2.82843c.39052-.39053 1.02369-.39053 1.41421 0 .39052.39053.39052 1.02369 0 1.41421l-2.82843 2.82843c-.39052.39053-1.02369.39053-1.41421.00001z" fill="#2ea3bf"/><path d="m24 20c0 .55-.22 1.05-.59 1.41-.36.37-.86.59-1.41.59-1.1 0-2-.9-2-2v-15l2-2h15l3 3v6l-4 5v13c0 1.1-.9 2-2 2-.55 0-1.05-.22-1.41-.59-.37-.36-.59-.86-.59-1.41v-10c0 1.1-.9 2-2 2-.55 0-1.05-.22-1.41-.59-.37-.36-.59-.86-.59-1.41 0 1.1-.9 2-2 2-.55 0-1.05-.22-1.41-.59-.37-.36-.59-.86-.59-1.41z" fill="#e34e4b"/><path d="m20 14.64001v5.35999c0 1.09998.90002 2 2 2 .54999 0 1.04999-.22003 1.40997-.59003.37006-.35998.59003-.85998.59003-1.40997 0 .54999.21997 1.04999.59003 1.40997.35998.37.85998.59003 1.40997.59003 1.09998 0 2-.90002 2-2 0 .54999.21997 1.04999.59003 1.40997.35998.37.85998.59003 1.40997.59003 1.09998 0 2-.90002 2-2v10c0 .54999.21997 1.04999.59003 1.40997.35998.37.85998.59003 1.40997.59003 1.09998 0 2-.90002 2-2v-13l4-5v-6l-.00873-.00873c-4.22412 4.39008-11.44159 7.60944-19.99127 8.64874z" fill="#de4542"/><path d="m8.03223 39.13184c-.19238-.64453-.35938-1.30469-.49707-1.96191l1.95703-.41016c.12695.60254.28027 1.20898.45703 1.80176zm-.83203-3.95411c-.08398-.66406-.14258-1.3418-.17285-2.01465l1.99805-.08984c.02734.61816.08105 1.24121.15918 1.85254zm1.8125-3.96679-1.99805-.06641c.02148-.67285.07129-1.35059.14844-2.0166l1.98633.22852c-.07032.61132-.11622 1.23535-.13672 1.85449zm.42382-3.69336-1.96289-.38672c.13086-.66113.29004-1.32324.47266-1.96777l1.92383.54688c-.16797.59179-.31446 1.20019-.4336 1.80761zm1.01368-3.57422-1.87305-.70117c.23438-.625.49805-1.25293.78516-1.86328l1.81055.84961c-.26466.5625-.50782 1.13964-.72266 1.71484zm1.58203-3.36426-1.73633-.99414c.33301-.58008.69531-1.15723 1.07715-1.71289l1.64844 1.13281c-.35059.51074-.6836 1.04102-.98926 1.57422zm2.10156-3.06543-1.55273-1.25977c.42285-.52148.87305-1.03223 1.33691-1.51758l1.44531 1.38281c-.42676.44532-.83984.91505-1.22949 1.39454zm2.56836-2.68847-1.33203-1.49219c.50293-.44922 1.0293-.88086 1.56348-1.28418l1.20508 1.5957c-.49122.37109-.97462.76758-1.43653 1.18067z" fill="#223b5a"/><path d="m31.35938 56.99219c-.6582-.0166-1.32227-.05957-1.97559-.12793l.20898-1.98828c.59961.0625 1.20996.10156 1.81543.11621zm1.97753-.02637-.10742-1.99805c.60547-.03223 1.21582-.08887 1.81348-.16699l.26172 1.98242c-.64942.08594-1.31153.14649-1.96778.18262zm-5.91015-.38379c-.64258-.11914-1.29199-.2666-1.92871-.4375l.51758-1.93164c.58691.15723 1.18457.29297 1.77637.40234zm9.8291-.13574-.41992-1.95508c.59473-.12793 1.1875-.28027 1.7627-.45215l.57422 1.91602c-.62598.1875-1.27149.35254-1.917.49121z" fill="#223b5a"/><path d="m56.15527 38.46289-1.93164-.51562c.1582-.59668.29492-1.20508.40527-1.80859l1.9668.35742c-.11914.65624-.26758 1.31835-.44043 1.96679zm.72168-3.96289-1.99023-.19531c.05957-.6123.09668-1.23535.1084-1.85254l2 .03906c-.01367.66895-.05274 1.34473-.11817 2.00879zm-1.91797-3.90234c-.03711-.62012-.09961-1.24023-.18555-1.84375l1.98047-.28125c.09277.65723.16113 1.33203.20117 2.00391zm-.51855-3.66797c-.13574-.60449-.29785-1.20703-.47949-1.78906l1.9082-.59766c.19824.63477.37402 1.29004.52246 1.94727zm-1.10254-3.53418c-.23145-.57129-.48828-1.13965-.7627-1.6875l1.78711-.89648c.2998.5957.57812 1.21387.8291 1.83594zm-1.65918-3.3086c-.32031-.52734-.66602-1.04785-1.02539-1.54492l1.62109-1.17188c.39062.54102.76562 1.10547 1.11328 1.67773zm-2.16992-3.00293c-.39844-.46582-.82129-.92383-1.25879-1.36035l1.41211-1.41602c.47559.47461.93555.97168 1.36816 1.47949zm-2.62402-2.61816c-.46582-.39746-.95703-.78125-1.45801-1.14258l1.16797-1.62305c.54492.39258 1.0791.81055 1.58691 1.24219zm-3.00586-2.16406c-.52539-.31738-1.07129-.61816-1.62402-.89453l.89453-1.78906c.59961.2998 1.19336.62695 1.76465.97266z" fill="#223b5a"/><path d="m36 17 1-1.25v-3.75c0-.55228-.44772-1-1-1-.55228 0-1 .44771-1 1v5z" fill="#d43e3b"/><path d="m32 15c.55229 0 1 .44771 1 1v4c0 .55228-.44772 1-1 1-.55228 0-1-.44771-1-1v-4c0-.55229.44771-1 1-1z" fill="#d43e3b"/><path d="m28 15c.55229 0 1 .44771 1 1v4c0 .55228-.44771 1-1 1-.55228 0-1-.44771-1-1v-4c0-.55229.44771-1 1-1z" fill="#d43e3b"/><path d="m24 15c.55229 0 1 .44771 1 1v4c0 .55228-.44771 1-1 1-.55228 0-1-.44771-1-1v-4c0-.55229.44771-1 1-1z" fill="#d43e3b"/><path d="m47.56497 39.7868c-.38891-.38891-.5869-.89803-.57983-1.41422-.00707-.51619.19092-1.0253.57983-1.41421.77782-.77782 2.05061-.77782 2.82843 0l10.6066 10.6066v2.82843l-10.6066 10.6066h-4.24264l-4.24264-4.24264-.7071-6.36396-9.19239-9.19239c-.77782-.77782-.77782-2.05061 0-2.82843.38891-.38891.89803-.5869 1.41422-.57983.51619-.00707 1.0253.19092 1.41421.57983l7.07107 7.07107c-.77782-.77782-.77782-2.05061 0-2.82843.38891-.38891.89803-.5869 1.41422-.57983.51619-.00707 1.02531.19092 1.41422.57983-.77782-.77782-.77782-2.05061 0-2.82843.38891-.38891.89803-.5869 1.41421-.57983.51617-.00706 1.02528.19093 1.41419.57984z" fill="#f5a947"/><g fill="#f09d3a"><path d="m41.20101 50.3934.17678 1.59099 2.65165 2.65165c.39052.39052 1.02369.39052 1.41421 0 .39052-.39053.39052-1.02369 0-1.41422l-3.53554-3.53553z"/><path d="m45.44365 48.97918c-.39053.39053-1.02369.39053-1.41422 0l-2.82843-2.82843c-.39052-.39052-.39052-1.02369 0-1.41421.39052-.39052 1.02369-.39052 1.41421 0l2.82843 2.82843c.39054.39052.39054 1.02369.00001 1.41421z"/><path d="m48.27208 46.15076c-.39053.39053-1.02369.39053-1.41422 0l-2.82843-2.82843c-.39053-.39053-.39053-1.02369 0-1.41421.39052-.39052 1.02369-.39052 1.41421 0l2.82843 2.82843c.39053.39052.39053 1.02368.00001 1.41421z"/><path d="m51.10051 43.32233c-.39053.39053-1.02369.39053-1.41422 0l-2.82843-2.82843c-.39053-.39053-.39053-1.02369 0-1.41422.39053-.39052 1.02369-.39052 1.41421 0l2.82843 2.82843c.39053.39053.39053 1.02369.00001 1.41422z"/></g></svg>