<svg width="123" height="151" viewBox="0 0 123 151" fill="none" xmlns="http://www.w3.org/2000/svg">
<mask id="mask0" mask-type="alpha" maskUnits="userSpaceOnUse" x="0" y="0" width="123" height="150">
<rect width="123" height="150" rx="10" fill="white"/>
</mask>
<g mask="url(#mask0)">
<circle cx="56" cy="115" r="49" fill="white" fill-opacity="0.45"/>
<circle cx="88.5" cy="71.5" r="28.5" fill="white" fill-opacity="0.45"/>
<circle cx="25" cy="38" r="15" fill="white" fill-opacity="0.45"/>
</g>
<g clip-path="url(#clip0)">
<path d="M76.3629 45.4681C76.5087 45.4314 81.5785 44.0756 81.2867 49.2423C80.9949 54.409 75.8887 53.0165 75.8887 52.87C75.8522 52.7234 76.3629 45.4681 76.3629 45.4681Z" fill="#FFBBA0"/>
<path d="M77.5665 51.0378C77.603 51.0378 77.6394 51.1111 77.7853 51.1844C77.9312 51.2577 78.1865 51.3309 78.4419 51.221C78.9889 51.0378 79.4996 50.2317 79.5725 49.2789C79.609 48.8026 79.536 48.3629 79.3901 47.9598C79.2443 47.5567 79.0254 47.3002 78.7701 47.2269C78.5148 47.1536 78.296 47.3002 78.223 47.4468C78.1501 47.5934 78.1865 47.7033 78.1501 47.7033C78.1501 47.7033 78.0406 47.5934 78.1136 47.4101C78.1501 47.3002 78.223 47.1903 78.3324 47.0804C78.4783 46.9704 78.6607 46.9338 78.843 46.9704C79.2443 47.0071 79.5725 47.4101 79.7184 47.8132C79.9008 48.2163 79.9737 48.7293 79.9372 49.2789C79.8278 50.3049 79.2443 51.2577 78.5148 51.4409C78.1501 51.5142 77.8583 51.4042 77.7124 51.2577C77.5665 51.1477 77.53 51.0378 77.5665 51.0378Z" fill="#EE9471"/>
<path d="M63.5244 27C60.8984 27 58.2359 27 54.9898 28.7222C52.9109 29.8215 51.6343 31.5071 50.5766 33.5957C49.7377 35.1714 49.2636 37.26 49.373 39.0556C49.4824 40.8511 49.4824 42.0969 50.1754 43.7459" fill="#4D3B31"/>
<path d="M64.5821 27.4031C56.8134 26.8534 50.1389 32.7896 49.7377 40.5579C49.4095 47.0437 49.1177 54.0426 49.1906 57.5603C49.3365 65.1454 56.8864 66.2447 56.8864 66.2447C56.8864 66.2447 56.704 68.4799 56.5216 71.2648C56.1569 76.8712 60.4607 81.6714 66.041 81.8913C71.5119 82.1111 76.144 77.7872 76.3263 72.2908L77.457 41.7671C77.7488 34.3286 72.0226 27.9161 64.5821 27.4031Z" fill="#FFBBA0"/>
<path d="M56.8864 66.2813C56.8864 66.2813 61.5184 66.5378 66.5517 63.2766C66.5517 63.2766 64.2903 68.7731 56.7405 68.1501L56.8864 66.2813Z" fill="#EE9471"/>
<path d="M52.619 44.7719C52.619 45.3582 53.0567 45.8345 53.6767 45.8712C54.2603 45.9078 54.7709 45.4681 54.7709 44.8818C54.7709 44.2955 54.3332 43.8192 53.7132 43.7825C53.1296 43.7825 52.6555 44.2222 52.619 44.7719Z" fill="#263238"/>
<path d="M51.5977 43.2695C51.7436 43.4161 52.546 42.7932 53.7132 42.7932C54.8803 42.7565 55.7192 43.3795 55.8651 43.2329C55.938 43.1596 55.7921 42.9031 55.4274 42.6466C55.0627 42.3901 54.4426 42.1336 53.7132 42.1336C52.9837 42.1336 52.4001 42.4267 52.0354 42.6832C51.6342 42.9397 51.5248 43.1962 51.5977 43.2695Z" fill="#263238"/>
<path d="M63.9985 44.7719C63.9985 45.3582 64.4362 45.8345 65.0562 45.8712C65.6398 45.9078 66.1504 45.4681 66.1504 44.8818C66.1504 44.2955 65.7128 43.8192 65.0927 43.7825C64.5092 43.7825 63.9985 44.2222 63.9985 44.7719Z" fill="#263238"/>
<path d="M62.9773 43.3794C63.1231 43.526 63.9255 42.9031 65.0927 42.9031C66.2598 42.8664 67.0987 43.4894 67.2446 43.3428C67.3175 43.2695 67.1716 43.013 66.8069 42.7565C66.4422 42.5 65.8221 42.2435 65.0927 42.2435C64.3632 42.2435 63.7797 42.5367 63.4149 42.7932C63.0137 43.0497 62.9043 43.3062 62.9773 43.3794Z" fill="#263238"/>
<path d="M58.8193 52.0272C58.8193 51.9539 58.0899 51.844 56.9227 51.6974C56.6309 51.6608 56.3392 51.6241 56.3027 51.4043C56.2297 51.1844 56.3392 50.8546 56.4851 50.5248C56.7404 49.792 57.0321 49.0591 57.3239 48.253C58.5275 45.0284 59.3664 42.3535 59.257 42.3168C59.1111 42.2802 58.0534 44.8452 56.8863 48.0698C56.5945 48.8759 56.3392 49.6088 56.0839 50.3416C55.9744 50.6714 55.7921 51.0745 55.938 51.5142C56.0109 51.7341 56.2297 51.8806 56.4121 51.9539C56.5945 52.0272 56.7768 52.0272 56.9227 52.0272C58.0899 52.1005 58.8193 52.1005 58.8193 52.0272Z" fill="#263238"/>
<path d="M62.2479 52.8333C62.0655 52.8333 62.0655 54.0792 61.0078 54.9953C59.9501 55.9113 58.6006 55.7648 58.6006 55.948C58.6006 56.0213 58.8924 56.2045 59.4759 56.2045C60.023 56.2045 60.8254 56.0213 61.4819 55.4716C62.1384 54.922 62.3938 54.1891 62.4667 53.6761C62.4667 53.1265 62.3208 52.7967 62.2479 52.8333Z" fill="#263238"/>
<path d="M62.649 38.8357C62.7584 39.1655 63.9255 38.9823 65.275 39.1288C66.6245 39.2388 67.7187 39.6418 67.9011 39.3487C67.974 39.2021 67.7916 38.909 67.354 38.6158C66.9163 38.3227 66.2233 38.0296 65.3844 37.9563C64.582 37.883 63.8161 37.9929 63.342 38.2128C62.8313 38.4326 62.576 38.6891 62.649 38.8357Z" fill="#263238"/>
<path d="M51.7436 39.1289C51.9625 39.3854 52.7284 39.1289 53.7132 39.0922C54.6615 39.0556 55.5003 39.2388 55.6827 38.9823C55.7557 38.8357 55.6462 38.5792 55.2815 38.3227C54.9168 38.0662 54.3332 37.883 53.6767 37.9196C53.0202 37.9563 52.4366 38.1761 52.1084 38.4693C51.7801 38.7258 51.6707 38.9823 51.7436 39.1289Z" fill="#263238"/>
<path d="M77.3841 44.1856C77.3841 44.1856 77.0559 45.9444 76.9829 46.7139C76.9464 47.0071 76.9829 50.195 76.217 50.3782C75.5605 50.5248 74.211 49.9019 73.6274 48.5827C73.0439 47.2636 71.9132 44.0756 72.0226 42.6099C72.205 40.6312 72.2779 38.6158 71.8767 36.6738C71.4755 34.7317 70.5637 32.8262 68.9954 31.617C67.4271 30.4078 65.2022 29.9681 63.4515 30.8475C62.3573 31.3972 61.5549 32.3499 60.5337 33.0461C59.6219 33.669 58.4912 34.0355 57.4335 33.8522C56.3393 33.7057 55.3181 32.9362 55.0263 31.8735C54.6981 30.7009 55.2816 29.4551 56.2299 28.6856C57.1417 27.9161 58.3453 27.5863 59.5125 27.3298C62.7585 26.6702 66.2235 26.8168 69.2872 28.026C72.3874 29.2352 75.1228 31.5437 76.4358 34.5851C77.9677 38.1761 77.7853 40.3381 77.3841 44.1856Z" fill="#4D3B31"/>
<path d="M60.1688 44.8451C60.2053 44.8451 60.1688 44.3688 60.3512 43.5993C60.5336 42.8298 61.0442 41.6938 62.2113 40.8144C62.7949 40.3747 63.5243 40.0083 64.3267 39.8617C65.1656 39.7151 66.0774 39.7518 66.9892 40.0816C67.4269 40.2281 67.8646 40.4846 68.2658 40.7778C68.667 41.0709 69.0317 41.4373 69.3235 41.8404C69.9435 42.6832 70.3083 43.7459 70.3083 44.8085C70.3083 45.9078 69.9435 46.9704 69.3235 47.7766C69.0317 48.1797 68.667 48.5461 68.2658 48.8392C67.8646 49.1324 67.4269 49.3889 66.9892 49.5355C66.1139 49.8652 65.1656 49.9019 64.3267 49.7553C63.4879 49.6087 62.7584 49.2423 62.2113 48.8026C61.0442 47.9232 60.5336 46.7872 60.3512 46.0177C60.1324 45.2849 60.1688 44.8451 60.1688 44.8451C60.1688 44.8451 60.1688 44.8818 60.1688 44.9184C60.1688 44.9917 60.1688 45.065 60.1688 45.1749C60.1688 45.2849 60.1688 45.4314 60.2053 45.578C60.2418 45.7246 60.2418 45.9078 60.3147 46.1277C60.4971 46.9338 61.0077 48.1064 62.1748 49.0225C62.7584 49.4622 63.4879 49.8652 64.3632 50.0118C65.2021 50.1584 66.1868 50.1584 67.0987 49.792C67.5728 49.6454 68.0105 49.3889 68.4117 49.0957C68.8129 48.8026 69.2141 48.4362 69.5059 47.9964C70.1624 47.1537 70.5271 46.0544 70.5271 44.9184C70.5271 43.7825 70.1624 42.6832 69.5059 41.8404C69.1776 41.4007 68.8129 41.0343 68.4117 40.7411C68.0105 40.448 67.5363 40.1915 67.0987 40.0449C66.1868 39.7151 65.2021 39.6785 64.3632 39.8251C63.5243 39.9716 62.7584 40.3747 62.1748 40.8144C61.0077 41.7305 60.4971 42.9031 60.3147 43.7092C60.2418 43.8924 60.2418 44.0756 60.2053 44.2589C60.1688 44.4054 60.1688 44.552 60.1688 44.6619C60.1688 44.7719 60.1688 44.8451 60.1688 44.9184C60.1324 44.8085 60.1324 44.8451 60.1688 44.8451Z" fill="#263238"/>
<path d="M46.8928 44.8451C46.9293 44.8451 46.8928 44.3688 47.0752 43.5993C47.2575 42.8298 47.7682 41.6938 48.9353 40.8144C49.5189 40.3747 50.2118 40.0083 51.0507 39.8617C51.8896 39.7151 52.8014 39.7518 53.7132 40.0816C54.1509 40.2281 54.5886 40.4846 54.9898 40.7778C55.391 41.0709 55.7557 41.4373 56.0475 41.8404C56.6675 42.6832 57.0322 43.7459 57.0322 44.8085C57.0322 45.9078 56.6675 46.9704 56.0475 47.7766C55.7557 48.253 55.391 48.6194 54.9898 48.8759C54.5886 49.169 54.1509 49.4255 53.7132 49.5721C52.8379 49.9019 51.8896 49.9385 51.0507 49.792C50.2118 49.6454 49.4824 49.279 48.9353 48.8392C47.7682 47.9598 47.2575 46.8239 47.0752 46.0544C46.8928 45.2849 46.9293 44.8451 46.8928 44.8451C46.8928 44.8451 46.8928 44.8818 46.8928 44.9184C46.8928 44.9917 46.8928 45.065 46.8928 45.1749C46.8928 45.2849 46.8928 45.4314 46.9293 45.578C46.9658 45.7246 46.9658 45.9078 47.0387 46.1277C47.2211 46.9338 47.7317 48.1064 48.8988 49.0225C49.4824 49.4622 50.2118 49.8652 51.0872 50.0118C51.9261 50.1584 52.9108 50.1584 53.8226 49.792C54.2968 49.6454 54.7345 49.3889 55.1357 49.0957C55.5369 48.8026 55.9381 48.4362 56.2298 47.9964C56.8864 47.1537 57.2511 46.0544 57.2511 44.9184C57.2511 43.7825 56.8864 42.6832 56.2298 41.8404C55.9016 41.4007 55.5369 41.0343 55.1357 40.7411C54.7345 40.448 54.2603 40.1915 53.8226 40.0449C52.9108 39.7151 51.9261 39.6785 51.0872 39.8251C50.2483 39.9716 49.4824 40.3747 48.8988 40.8144C47.7317 41.7305 47.2211 42.9031 47.0387 43.7092C46.9658 43.8924 46.9658 44.0756 46.9293 44.2589C46.8928 44.4054 46.8928 44.552 46.8928 44.6619C46.8928 44.7719 46.8928 44.8451 46.8928 44.9184C46.8928 44.8085 46.8928 44.8451 46.8928 44.8451Z" fill="#263238"/>
<path d="M56.9957 44.2955C56.9957 44.3321 57.1781 44.2222 57.4699 44.1489C57.7617 44.039 58.1629 43.9657 58.637 44.0024C59.1111 44.039 59.5123 44.1856 59.7677 44.2955C60.023 44.4421 60.2053 44.552 60.2053 44.5154C60.2053 44.5154 60.0959 44.3321 59.8406 44.1856C59.5853 44.0024 59.1476 43.8558 58.6735 43.8191C58.1993 43.7825 57.7252 43.8924 57.4334 44.039C57.1416 44.1489 56.9957 44.2589 56.9957 44.2955Z" fill="#263238"/>
<g opacity="0.8">
<path d="M62.0513 40.6571C60.8474 41.602 60.316 42.8105 60.123 43.6504C60.0822 43.7577 60.0624 43.8615 60.0485 43.9545C60.0429 43.9923 60.0384 44.0261 60.0342 44.0579C60.027 44.113 60.0205 44.1621 60.01 44.2155C59.9688 44.3843 59.9688 44.5491 59.9688 44.6562L59.9688 44.6619V44.6626V44.6632V44.6639V44.6645V44.6651V44.6658V44.6664V44.6671V44.6677V44.6683V44.669V44.6696V44.6702V44.6709V44.6715V44.6721V44.6728V44.6734V44.674V44.6747V44.6753V44.6759V44.6765V44.6772V44.6778V44.6784V44.679V44.6796V44.6803V44.6809V44.6815V44.6821V44.6827V44.6834V44.684V44.6846V44.6852V44.6858V44.6864V44.687V44.6877V44.6883V44.6889V44.6895V44.6901V44.6907V44.6913V44.6919V44.6925V44.6931V44.6937V44.6943V44.6949V44.6955V44.6961V44.6967V44.6973V44.6979V44.6985V44.6991V44.6997V44.7003V44.7009V44.7015V44.7021V44.7027V44.7033V44.7039V44.7045V44.7051V44.7056V44.7062V44.7068V44.7074V44.708V44.7086V44.7092V44.7098V44.7103V44.7109V44.7115V44.7121V44.7127V44.7132V44.7138V44.7144V44.715V44.7156V44.7161V44.7167V44.7173V44.7179V44.7184V44.719V44.7196V44.7201V44.7207V44.7213V44.7219V44.7224V44.723V44.7236V44.7241V44.7247V44.7253V44.7258V44.7264V44.727V44.7275V44.7281V44.7286V44.7292V44.7298V44.7303V44.7309V44.7314V44.732V44.7325V44.7331V44.7337V44.7342V44.7348V44.7353V44.7359V44.7364V44.737V44.7375V44.7381V44.7386C59.944 44.7816 59.9415 44.824 59.9415 44.8406C59.9415 44.8682 59.9474 44.8897 59.9489 44.8952L59.9489 44.8955C59.9512 44.9037 59.9535 44.9105 59.9546 44.9137C59.9564 44.9187 59.9589 44.9251 59.9605 44.9293C59.9608 44.9301 59.9611 44.9309 59.9613 44.9315C59.9628 44.9355 59.9646 44.9402 59.9667 44.9459C59.9669 44.9696 59.9675 44.9968 59.9688 45.0273V45.0277V45.0281V45.0286V45.0291V45.0296V45.0301V45.0305V45.031V45.0315V45.032V45.0325V45.0329V45.0334V45.0339V45.0344V45.0349V45.0354V45.0359V45.0363V45.0368V45.0373V45.0378V45.0383V45.0388V45.0393V45.0397V45.0402V45.0407V45.0412V45.0417V45.0422V45.0427V45.0432V45.0437V45.0442V45.0447V45.0452V45.0457V45.0461V45.0466V45.0471V45.0476V45.0481V45.0486V45.0491V45.0496V45.0501V45.0506V45.0511V45.0516V45.0521V45.0526V45.0531V45.0536V45.0541V45.0546V45.0551V45.0556V45.0561V45.0566V45.0572V45.0577V45.0582V45.0587V45.0592V45.0597V45.0602V45.0607V45.0612V45.0617V45.0622V45.0627V45.0633V45.0638V45.0643V45.0648V45.0653V45.0658V45.0663V45.0668V45.0674V45.0679V45.0684V45.0689V45.0694V45.07V45.0705V45.071V45.0715V45.072V45.0726V45.0731V45.0736V45.0741V45.0746V45.0752V45.0757V45.0762V45.0767V45.0773V45.0778V45.0783V45.0788V45.0794V45.0799V45.0804V45.081V45.0815V45.082V45.0826V45.0831V45.0836V45.0842V45.0847V45.0852V45.0858V45.0863V45.0868V45.0874V45.0879V45.0884V45.089V45.0895V45.0901V45.0906V45.0911V45.0917V45.0922V45.0928V45.0933V45.0939V45.0944V45.095V45.0955V45.096V45.0966V45.0971V45.0977V45.0982V45.0988V45.0993V45.0999V45.1004V45.101V45.1015V45.1021V45.1027V45.1032V45.1038V45.1043V45.1049V45.1054V45.106V45.1066V45.1071V45.1077V45.1082V45.1088V45.1094V45.1099V45.1105V45.111V45.1116V45.1122V45.1127V45.1133V45.1139V45.1144V45.115V45.1156V45.1162V45.1167V45.1173V45.1179V45.1184V45.119V45.1196V45.1202V45.1207V45.1213V45.1219V45.1225V45.123V45.1236V45.1242V45.1248V45.1254V45.126V45.1265V45.1271V45.1277V45.1283V45.1289V45.1295V45.13V45.1306V45.1312V45.1318V45.1324V45.133V45.1336V45.1342V45.1348V45.1354V45.136V45.1365V45.1371V45.1377V45.1383V45.1389V45.1395V45.1401V45.1407V45.1413V45.1419V45.1425V45.1431V45.1437V45.1443V45.145V45.1456V45.1462V45.1468V45.1474V45.148V45.1486V45.1492V45.1498V45.1504V45.151V45.1517V45.1523V45.1529V45.1535V45.1541V45.1547V45.1554V45.156V45.1566V45.1572V45.1578V45.1585V45.1591V45.1597V45.1603V45.161V45.1616V45.1622V45.1628V45.1635V45.1641V45.1647V45.1654V45.166V45.1666V45.1673V45.1679V45.1685V45.1692V45.1698V45.1704V45.1711V45.1717V45.1724V45.173V45.1736V45.1743V45.1749L59.9688 45.1807C59.9688 45.2888 59.9688 45.4558 60.0112 45.6263C60.0224 45.6711 60.029 45.7181 60.0379 45.7808C60.041 45.8033 60.0445 45.8277 60.0485 45.8549C60.0625 45.9487 60.0821 46.0591 60.1218 46.1811C60.3137 47.0213 60.8449 48.2328 62.0513 49.1798L62.0513 49.1798L62.0545 49.1822C62.6542 49.6341 63.4129 50.0553 64.3295 50.209C65.1892 50.3591 66.2109 50.3621 67.1656 49.9806C67.6655 49.8247 68.1207 49.5561 68.5297 49.2572C68.9403 48.9572 69.3594 48.5766 69.6683 48.1134C70.351 47.234 70.7271 46.0932 70.7271 44.9184C70.7271 43.7417 70.3498 42.5992 69.6649 41.7192C69.3263 41.2658 68.948 40.8853 68.5297 40.5796C68.1154 40.277 67.6241 40.0103 67.1644 39.856C66.2159 39.5135 65.1962 39.4765 64.3288 39.628C63.4509 39.7814 62.6561 40.2014 62.0545 40.6547L62.0545 40.6547L62.0513 40.6571ZM60.3688 44.8907V44.8907C60.3726 44.8782 60.3747 44.8679 60.3759 44.8617C60.3812 44.8346 60.3842 44.8025 60.3864 44.7747C60.3888 44.7455 60.3906 44.7182 60.3926 44.6884C60.3955 44.645 60.3988 44.5961 60.4046 44.5277C60.4223 44.3192 60.4575 44.018 60.5458 43.6454C60.7198 42.9111 61.2093 41.8198 62.3317 40.9741C62.895 40.5497 63.5958 40.1987 64.3619 40.0586C65.1705 39.9174 66.0463 39.9532 66.9212 40.2696L66.9212 40.2697L66.9257 40.2712C67.3369 40.4089 67.756 40.653 68.1478 40.9393C68.5321 41.22 68.882 41.5715 69.1615 41.9577L69.1624 41.9589C69.7582 42.7687 70.1083 43.7901 70.1083 44.8085C70.1083 45.865 69.7573 46.8845 69.165 47.6547L69.1649 47.6546L69.1615 47.6593C68.882 48.0455 68.5321 48.397 68.1478 48.6778C67.756 48.964 67.3369 49.2081 66.9257 49.3458L66.9257 49.3457L66.9187 49.3483C66.0825 49.6634 65.1712 49.6998 64.3611 49.5583C63.558 49.418 62.8594 49.0669 62.3366 48.6467L62.3367 48.6466L62.3317 48.6429C61.2093 47.7972 60.7198 46.7059 60.5458 45.9716L60.5461 45.9715L60.5428 45.9605C60.4374 45.6076 60.3942 45.3276 60.3771 45.1386C60.373 45.0932 60.3704 45.0531 60.3688 45.0184V45.0182V45.0177V45.0172V45.0168V45.0163V45.0158V45.0153V45.0149V45.0144V45.0139V45.0135V45.013V45.0125V45.0121V45.0116V45.0111V45.0107V45.0102V45.0097V45.0093V45.0088V45.0084V45.0079V45.0074V45.007V45.0065V45.006V45.0056V45.0051V45.0047V45.0042V45.0037V45.0033V45.0028V45.0024V45.0019V45.0014V45.001V45.0005V45.0001V44.9996V44.9991V44.9987V44.9982V44.9978V44.9973V44.9969V44.9964V44.996V44.9955V44.995V44.9946V44.9941V44.9937V44.9932V44.9928V44.9923V44.9919V44.9914V44.991V44.9905V44.9901V44.9896V44.9892V44.9887V44.9883V44.9878V44.9874V44.9869V44.9865V44.986V44.9856V44.9851V44.9847V44.9842V44.9838V44.9833V44.9829V44.9824V44.982V44.9815V44.9811V44.9806V44.9802V44.9797V44.9793V44.9789V44.9784V44.978V44.9775V44.9771V44.9766V44.9762V44.9757V44.9753V44.9749V44.9744V44.974V44.9735V44.9731V44.9726V44.9722V44.9718V44.9713V44.9709V44.9704V44.97V44.9696V44.9691V44.9687V44.9682V44.9678V44.9674V44.9669V44.9665V44.966V44.9656V44.9652V44.9647V44.9643V44.9638V44.9634V44.963V44.9625V44.9621V44.9616V44.9612V44.9608V44.9603V44.9599V44.9595V44.959V44.9586V44.9582V44.9577V44.9573V44.9568V44.9564V44.956V44.9555V44.9551V44.9547V44.9542V44.9538V44.9534V44.9529V44.9525V44.9521V44.9516V44.9512V44.9508V44.9503V44.9499V44.9495V44.949V44.9486V44.9482V44.9477V44.9473V44.9469V44.9464V44.946V44.9456V44.9451V44.9447V44.9443V44.9438V44.9434V44.943V44.9425V44.9421V44.9417V44.9412V44.9408V44.9404V44.9399V44.9395V44.9391V44.9386V44.9382V44.9378V44.9374V44.9369V44.9365V44.9361V44.9356V44.9352V44.9348V44.9343V44.9339V44.9335V44.933V44.9326V44.9322V44.9318V44.9313V44.9309V44.9305V44.93V44.9296V44.9292V44.9287V44.9283V44.9279V44.9275V44.927V44.9266V44.9262V44.9257V44.9253V44.9249V44.9244V44.924V44.9236V44.9232V44.9227V44.9223V44.9219V44.9214V44.921V44.9206V44.9202V44.9197V44.9193V44.9189V44.9184V44.9182V44.918V44.9178V44.9176V44.9174V44.9171V44.9169V44.9167V44.9165V44.9163V44.9161V44.9159V44.9156V44.9154V44.9152V44.915V44.9148V44.9146V44.9144V44.9141V44.9139V44.9137V44.9135V44.9133V44.9133V44.9131V44.9129V44.9129V44.9126V44.9124V44.9124V44.9122V44.912V44.912V44.9118V44.9116V44.9116V44.9114V44.9111V44.9111V44.9109V44.9107V44.9107V44.9105V44.9103V44.9103V44.9101V44.9099V44.9098V44.9097V44.9094V44.9094V44.9092V44.909V44.909V44.9088V44.9086V44.9086V44.9084V44.9082V44.9081V44.9079V44.9077V44.9077V44.9075V44.9073V44.9073V44.9071V44.9069V44.9068V44.9067V44.9065V44.9064V44.9062V44.906V44.906V44.9058V44.9056V44.9055V44.9054V44.9052V44.9051V44.905V44.9048V44.9047V44.9046V44.9043V44.9043V44.9041V44.9039V44.9038V44.9037V44.9035V44.9034V44.9033V44.9031V44.903V44.9029V44.9027V44.9025V44.9024V44.9022V44.9021V44.902V44.9018V44.9017V44.9016V44.9014V44.9012V44.9012V44.901V44.9008V44.9008V44.9006V44.9004V44.9004V44.9001V44.8999V44.8999V44.8997V44.8995V44.8993V44.8991V44.8991V44.8989V44.8987V44.8987V44.8985V44.8983V44.8982V44.8981V44.8979V44.8978V44.8977V44.8974V44.8974V44.8972V44.897V44.8969V44.8968V44.8966V44.8965V44.8964V44.8962V44.8961V44.896V44.8958V44.8956V44.8956V44.8954V44.8952V44.8952V44.895V44.8948V44.8946V44.8944V44.8943V44.8942V44.894V44.8939V44.8938V44.8935V44.8935V44.8933V44.8931V44.893V44.8929V44.8927V44.8926V44.8925V44.8923V44.8922V44.8921V44.8919V44.8917V44.8917V44.8915V44.8913V44.8913V44.8911V44.8909V44.8909V44.8907Z" fill="#263238" stroke="#263238" stroke-width="0.4"/>
<path d="M53.6452 40.2696L53.6452 40.2697L53.6497 40.2712C54.0609 40.4089 54.48 40.653 54.8718 40.9393C55.2561 41.22 55.6059 41.5715 55.8855 41.9577L55.8864 41.9589C56.4821 42.7687 56.8322 43.7901 56.8322 44.8085C56.8322 45.865 56.4813 46.8845 55.889 47.6547L55.8825 47.6631L55.8769 47.6721C55.6002 48.1239 55.2565 48.468 54.882 48.7074L54.8818 48.7071L54.8718 48.7144C54.48 49.0007 54.0609 49.2447 53.6497 49.3825L53.6497 49.3823L53.6427 49.3849C52.8065 49.7 51.8952 49.7365 51.0851 49.5949C50.282 49.4546 49.5834 49.1035 49.0606 48.6833L49.0607 48.6833L49.0557 48.6795C47.9333 47.8338 47.4438 46.7425 47.2698 46.0082C47.1814 45.6351 47.1461 45.3427 47.1285 45.1436C47.1241 45.0936 47.1208 45.0493 47.1179 45.0104C47.1174 45.0026 47.1168 44.995 47.1163 44.9875C47.1142 44.9583 47.1123 44.9314 47.1103 44.9088C47.1086 44.8889 47.1064 44.8658 47.103 44.844C47.1064 44.8213 47.1086 44.7967 47.1104 44.7747C47.1128 44.7455 47.1146 44.7182 47.1166 44.6884C47.1195 44.645 47.1228 44.5961 47.1286 44.5277C47.1462 44.3192 47.1815 44.018 47.2698 43.6454C47.4438 42.9111 47.9333 41.8198 49.0557 40.9741C49.6209 40.5483 50.285 40.1985 51.0851 40.0587C51.894 39.9174 52.7701 39.9531 53.6452 40.2696ZM46.7725 45.8549C46.7865 45.9487 46.8061 46.0591 46.8458 46.1811C47.0377 47.0213 47.5689 48.2328 48.7753 49.1798L48.7753 49.1798L48.7785 49.1822C49.3782 49.6341 50.1369 50.0553 51.0535 50.209C51.9132 50.3591 52.9349 50.3621 53.8896 49.9806C54.3895 49.8247 54.8446 49.5561 55.2537 49.2572C55.6643 48.9572 56.0834 48.5766 56.3923 48.1134C57.075 47.234 57.4511 46.0932 57.4511 44.9184C57.4511 43.7417 57.0738 42.5992 56.3889 41.7192C56.0503 41.2658 55.672 40.8853 55.2537 40.5796C54.8394 40.277 54.3481 40.0103 53.8884 39.856C52.9399 39.5135 51.9202 39.4765 51.0528 39.628C50.1748 39.7814 49.3801 40.2014 48.7785 40.6547L48.7784 40.6547L48.7753 40.6571C47.5714 41.602 47.04 42.8105 46.847 43.6504C46.8062 43.7577 46.7864 43.8615 46.7725 43.9545C46.7669 43.9923 46.7624 44.0261 46.7582 44.0579C46.7509 44.113 46.7445 44.1621 46.734 44.2155C46.6928 44.3843 46.6928 44.5491 46.6928 44.6561L46.6928 44.6619V44.6626V44.6632V44.6639V44.6645V44.6651V44.6658V44.6664V44.6671V44.6677V44.6683V44.669V44.6696V44.6702V44.6709V44.6715V44.6721V44.6728V44.6734V44.674V44.6747V44.6753V44.6759V44.6765V44.6772V44.6778V44.6784V44.679V44.6796V44.6803V44.6809V44.6815V44.6821V44.6827V44.6834V44.684V44.6846V44.6852V44.6858V44.6864V44.687V44.6877V44.6883V44.6889V44.6895V44.6901V44.6907V44.6913V44.6919V44.6925V44.6931V44.6937V44.6943V44.6949V44.6955V44.6961V44.6967V44.6973V44.6979V44.6985V44.6991V44.6997V44.7003V44.7009V44.7015V44.7021V44.7027V44.7033V44.7039V44.7045V44.7051V44.7056V44.7062V44.7068V44.7074V44.708V44.7086V44.7092V44.7098V44.7103V44.7109V44.7115V44.7121V44.7127V44.7132V44.7138V44.7144V44.715V44.7156V44.7161V44.7167V44.7173V44.7179V44.7184V44.719V44.7196V44.7201V44.7207V44.7213V44.7219V44.7224V44.723V44.7236V44.7241V44.7247V44.7253V44.7258V44.7264V44.727V44.7275V44.7281V44.7286V44.7292V44.7298V44.7303V44.7309V44.7314V44.732V44.7325V44.7331V44.7337V44.7342V44.7348V44.7353V44.7359V44.7364V44.737V44.7375V44.7381V44.7386V44.7392V44.7397V44.7403V44.7408V44.7414V44.7419V44.7425V44.743V44.7436V44.7441V44.7446V44.7452V44.7457V44.7463V44.7468V44.7473V44.7479V44.7484V44.749V44.7495V44.75V44.7506V44.7511V44.7516V44.7522V44.7527V44.7532V44.7538V44.7543V44.7548V44.7554V44.7559V44.7564V44.757V44.7575V44.758V44.7586V44.7591V44.7596V44.7601V44.7607V44.7612V44.7617V44.7622V44.7628V44.7633V44.7638V44.7643V44.7648V44.7654V44.7659V44.7664V44.7669V44.7674V44.768V44.7685V44.769V44.7695V44.77V44.7705V44.7711V44.7716V44.7721V44.7726V44.7731V44.7736V44.7741V44.7746V44.7751V44.7757V44.7762V44.7767V44.7772V44.7777V44.7782V44.7787V44.7792V44.7797V44.7802V44.7807V44.7812V44.7817V44.7822V44.7827V44.7832V44.7837V44.7842V44.7848V44.7853V44.7858V44.7863V44.7867V44.7872V44.7877V44.7882V44.7887V44.7892V44.7897V44.7902V44.7907V44.7912V44.7917V44.7922V44.7927V44.7932V44.7937V44.7942V44.7947V44.7952V44.7957V44.7961V44.7966V44.7971V44.7976V44.7981V44.7986V44.7991V44.7996V44.8V44.8005V44.801V44.8015V44.802V44.8025V44.803V44.8034V44.8039V44.8044V44.8049V44.8054V44.8059V44.8063V44.8068V44.8073V44.8078V44.8083V44.8087V44.8092V44.8097V44.8102V44.8106V44.8111V44.8116V44.8121V44.8126V44.813V44.8135V44.814V44.8145V44.8149V44.8154V44.8159V44.8163V44.8168V44.8173V44.8178V44.8182V44.8187V44.8192V44.8196V44.8201V44.8206V44.8211V44.8215V44.822V44.8225V44.8229V44.8234V44.8239V44.8243V44.8248V44.8253V44.8257V44.8262V44.8267V44.8271V44.8276V44.8281V44.8285V44.829V44.8294V44.8299V44.8304V44.8308V44.8313V44.8318V44.8322V44.8327V44.8331V44.8336V44.8341V44.8345V44.835V44.8354V44.8359V44.8364V44.8368V44.8373V44.8377V44.8382V44.8386V44.8391V44.8393V44.8393V44.8393V44.8393V44.8393V44.8393V44.8393V44.8394V44.8394V44.8394V44.8394V44.8394V44.8394V44.8394V44.8394V44.8394V44.8394V44.8394V44.8395V44.8395V44.8395V44.8395V44.8395V44.8395V44.8395V44.8395V44.8395V44.8396V44.8396V44.8396V44.8396V44.8396V44.8396V44.8397V44.8397V44.8397V44.8397V44.8397V44.8397V44.8397V44.8398V44.8398V44.8398V44.8398V44.8398V44.8398V44.8398V44.8399V44.8399V44.8399V44.8399V44.8399V44.8399V44.84V44.84V44.84V44.84V44.8401V44.8401V44.8401V44.8401V44.8401V44.8402V44.8402V44.8402V44.8402V44.8403V44.8403V44.8403V44.8403V44.8403V44.8404V44.8404V44.8404V44.8404V44.8404V44.8405V44.8405V44.8405V44.8405V44.8406V44.8406V44.8406V44.8406V44.8407V44.8407V44.8407V44.8408V44.8408V44.8408V44.8408V44.8409V44.8409V44.8409V44.8409V44.8409V44.841V44.841V44.841V44.841V44.8411V44.8411V44.8411V44.8412V44.8412V44.8412V44.8412V44.8413V44.8413V44.8413V44.8414V44.8414V44.8414V44.8414V44.8414V44.8415V44.8415V44.8415V44.8416V44.8416V44.8416V44.8417V44.8417V44.8417V44.8417V44.8418V44.8418V44.8418V44.8418V44.8419V44.8419V44.8419V44.842V44.842V44.842V44.8421V44.8421V44.8421V44.8421V44.8422V44.8422V44.8422V44.8422V44.8423V44.8423V44.8423V44.8424V44.8424V44.8424V44.8424V44.8425V44.8425V44.8425V44.8426V44.8426V44.8426V44.8427V44.8427V44.8427V44.8427V44.8427V44.8428V44.8428V44.8428V44.8429V44.8429V44.8429V44.843V44.843V44.843V44.843V44.8431V44.8431V44.8431V44.8432V44.8432V44.8432V44.8432V44.8432V44.8433V44.8433V44.8433V44.8434V44.8434V44.8434V44.8434V44.8435V44.8435V44.8436V44.8436V44.8436V44.8436V44.8437V44.8437V44.8437V44.8438V44.8438V44.8438V44.8438V44.8439V44.8439V44.8439V44.8439V44.844V44.844V44.844V44.844V44.8441V44.8441V44.8441V44.8441V44.8441V44.8442V44.8442V44.8442V44.8443V44.8443V44.8443V44.8443V44.8444V44.8444V44.8444V44.8444V44.8445V44.8445V44.8445V44.8445V44.8445V44.8445V44.8446V44.8446V44.8446V44.8446V44.8446V44.8447V44.8447V44.8447V44.8447V44.8447V44.8448V44.8448V44.8448V44.8448V44.8449V44.8449V44.8449V44.8449V44.8449V44.8449V44.845V44.845V44.845V44.845V44.845V44.845V44.845V44.845V44.845V44.8451V44.8451V44.8451V44.8451V44.8451V44.8451V44.8451V44.8451V44.8451V44.8451V44.8451V44.8451V44.8451V44.8452V44.8452V44.8452V44.8452V44.8452V44.8452V44.8452V44.8452V44.8452V44.8452V44.8452V44.8452V44.8453V44.8453V44.8453V44.8453V44.8453V44.8453V44.8453V44.8454V44.8454V44.8454V44.8454V44.8454V44.8455V44.8455V44.8455V44.8455V44.8456V44.8456V44.8456V44.8457V44.8457V44.8457V44.8457V44.8458V44.8458V44.8458V44.8458V44.8459V44.8459V44.8459V44.8459V44.846V44.846V44.846V44.8461V44.8461V44.8461V44.8462V44.8462V44.8462V44.8463V44.8463V44.8463V44.8464V44.8464V44.8464V44.8465V44.8465V44.8465V44.8466V44.8466V44.8466V44.8466V44.8467V44.8467V44.8468V44.8468V44.8468V44.8468V44.8469V44.8469V44.8469V44.847V44.8471V44.8471V44.8471V44.8472V44.8472V44.8472V44.8473V44.8473V44.8473V44.8474V44.8474V44.8475V44.8475V44.8476V44.8476V44.8476V44.8477V44.8477V44.8477V44.8478V44.8478V44.8479V44.8479V44.8479V44.848V44.848V44.8481V44.8481V44.8482V44.8482V44.8482V44.8483V44.8483V44.8484V44.8484V44.8485V44.8485V44.8486V44.8486V44.8486V44.8487V44.8487V44.8488V44.8488V44.8489V44.8489V44.849V44.8491V44.8491V44.8491V44.8491V44.8492V44.8492V44.8493V44.8494V44.8494V44.8495V44.8495V44.8495V44.8496V44.8496V44.8497V44.8498V44.8498V44.8499V44.8499V44.85V44.85V44.85V44.8501V44.8501V44.8502V44.8503V44.8503V44.8504V44.8504V44.8505V44.8505V44.8505V44.8506V44.8507V44.8507V44.8508V44.8509V44.8509V44.8509V44.851V44.8511V44.8511V44.8512V44.8513V44.8513V44.8513V44.8514V44.8514V44.8515V44.8515V44.8516V44.8517V44.8517V44.8518V44.8518V44.8519V44.8519V44.852V44.8521V44.8521V44.8522V44.8522V44.8523V44.8523V44.8524V44.8525V44.8526V44.8527V44.8527V44.8527V44.8528V44.8529V44.8529V44.853V44.8531V44.8531V44.8532V44.8532V44.8533V44.8534V44.8534V44.8536V44.8536V44.8536V44.8537V44.8538V44.8538V44.8539V44.854V44.854V44.854V44.8541V44.8542V44.8543V44.8543V44.8544V44.8544V44.8545V44.8545V44.8547V44.8547V44.8548V44.8549V44.8549V44.855V44.855V44.8551V44.8552V44.8552V44.8553V44.8554V44.8555V44.8556V44.8557V44.8557V44.8558V44.8558V44.8559V44.8559V44.856V44.8561V44.8562V44.8562V44.8563V44.8564V44.8564V44.8565V44.8566V44.8567V44.8567V44.8568V44.8569V44.8569V44.857V44.8571V44.8571V44.8571V44.8573V44.8574V44.8575V44.8576V44.8576V44.8578V44.8579V44.8579V44.858V44.858V44.8582V44.8582V44.8583V44.8584V44.8584V44.8585V44.8585V44.8587V44.8587V44.8588V44.8589V44.8589V44.859V44.8591V44.8592V44.8592V44.8593V44.8593V44.8595V44.8595V44.8596V44.8597V44.8598V44.8598V44.8599V44.86V44.86V44.8601V44.8602V44.8603V44.8603V44.8604V44.8606V44.8606V44.8607V44.8607V44.8608V44.8609V44.861V44.8611V44.8611V44.8612V44.8613V44.8614V44.8615V44.8615V44.8616V44.8617V44.8618V44.8618V44.862V44.862V44.862V44.8621V44.8622V44.8623V44.8624V44.8625V44.8625V44.8626V44.8627V44.8628V44.8629V44.8629V44.863V44.8631V44.8632V44.8633V44.8633V44.8634V44.8635V44.8636V44.8637V44.8638V44.8638V44.8639V44.864V44.8642V44.8642V44.8643V44.8645V44.8645V44.8646V44.8647V44.8648V44.8648V44.8649V44.8651V44.8651V44.8651V44.8652V44.8654V44.8654V44.8655V44.8656V44.8657V44.8657V44.8658V44.866V44.8661V44.8661V44.8663V44.8664V44.8664V44.8665V44.8666V44.8667V44.8668V44.8669V44.8669V44.867V44.8671V44.8673V44.8673V44.8674V44.8674V44.8676V44.8677V44.8677V44.8678V44.8679V44.8681V44.8682V44.8682V44.8684V44.8684V44.8685V44.8686V44.8687V44.8687V44.8689V44.869V44.8691V44.8691V44.8692V44.8694V44.8694V44.8695V44.8697V44.8698V44.8698V44.87V44.87V44.8701V44.8702V44.8703V44.8704V44.8705V44.8705V44.8707V44.8708V44.8708V44.871V44.8712V44.8712V44.8713V44.8714V44.8715V44.8716V44.8717V44.8717V44.8719V44.8719V44.872V44.8722V44.8722V44.8723V44.8724V44.8725V44.8726V44.8727V44.8727V44.8729V44.873V44.8731V44.8731V44.8732V44.8734V44.8734V44.8735V44.8736V44.8738V44.8738V44.8739V44.8739V44.8741V44.8742V44.8743V44.8743V44.8745V44.8746V44.8746V44.8748V44.8748V44.875V44.875V44.8752V44.8752V44.8753V44.8754V44.8755V44.8757V44.8757V44.8757V44.8759V44.8761V44.8761V44.8761V44.8762V44.8764V44.8765V44.8765V44.8766V44.8768V44.8769V44.877V44.877V44.8771V44.8773V44.8773V44.8774V44.8775V44.8777V44.8778V44.8778V44.8779V44.878V44.8782V44.8782V44.8783V44.8784V44.8786V44.8786V44.8787V44.8788V44.879V44.879V44.8791V44.8792V44.8793V44.8794V44.8795V44.8796V44.8797V44.8798V44.8799V44.88V44.8801V44.8802V44.8803V44.8804V44.8805V44.8806V44.8807V44.8808V44.8809V44.881V44.8811V44.8812V44.8813V44.8814V44.8815V44.8816V44.8818V44.8818V44.8819V44.882V44.8821V44.8822V44.8823V44.8824V44.8825V44.8826V44.8827V44.8828V44.8829V44.8831V44.8831V44.8833V44.8835V44.8835V44.8837V44.8837V44.8839V44.8839V44.884V44.8842V44.8842V44.8844V44.8844V44.8846V44.8848V44.885V44.8851V44.8852V44.8852V44.8854V44.8855V44.8856V44.8857V44.8858V44.886V44.886V44.8861V44.8862V44.8864V44.8865V44.8865V44.8866V44.8868V44.8869V44.887V44.887V44.8872V44.8873V44.8874V44.8874V44.8875V44.8877V44.8878V44.8879V44.8879V44.8881V44.8883V44.8883V44.8883V44.8885V44.8887V44.8887V44.8888V44.8889V44.8891V44.8891V44.8893V44.8893V44.8895V44.8896V44.8897V44.8898V44.8899V44.89V44.8901V44.8903V44.8903V44.8904V44.8905V44.8907V44.8907V44.8909V44.8909V44.8911V44.8912V44.8913V44.8913V44.8915V44.8917V44.8917V44.8919V44.8921V44.8922V44.8922V44.8923V44.8925V44.8926V44.8927V44.8927V44.8929V44.893V44.8931V44.8932V44.8933V44.8935V44.8935V44.8937V44.8938V44.8939V44.894V44.8942V44.8942V44.8943V44.8944V44.8946V44.8948V44.8948V44.895V44.8952V44.8952V44.8953V44.8954V44.8956V44.8956V44.8958V44.8958V44.896V44.8961V44.8962V44.8963V44.8964V44.8965V44.8966V44.8968V44.8968V44.8969V44.897V44.8972V44.8974V44.8974V44.8974V44.8977V44.8978V44.8979V44.8979V44.8981V44.8982V44.8983V44.8984V44.8985V44.8987V44.8987V44.8989V44.899V44.8991V44.8991V44.8993V44.8995V44.8995V44.8997V44.8999V44.8999V44.9V44.9001V44.9004V44.9004V44.9006V44.9006V44.9008V44.9008V44.901V44.9011V44.9012V44.9012V44.9014V44.9016V44.9017V44.9017V44.9018V44.902V44.9021V44.9022V44.9024V44.9025V44.9027V44.9028V44.9029V44.903V44.9031V44.9033V44.9034V44.9034V44.9035V44.9037V44.9038V44.9039V44.9041V44.9043V44.9043V44.9045V44.9046V44.9047V44.9048V44.905V44.9051V44.9051V44.9052V44.9054V44.9055V44.9056V44.9056V44.9058V44.906V44.906V44.9062V44.9062V44.9064V44.9065V44.9067V44.9068V44.9068V44.9069V44.9071V44.9073V44.9073V44.9074V44.9075V44.9077V44.9077V44.9079V44.908V44.9081V44.9082V44.9084V44.9086V44.9086V44.9088V44.909V44.909V44.9091V44.9092V44.9094V44.9094V44.9097V44.9097V44.9098V44.9099V44.9101V44.9103V44.9103V44.9103V44.9105V44.9107V44.9107V44.9109V44.9109V44.9111V44.9111V44.9114V44.9116V44.9116V44.9116V44.9118V44.912V44.912V44.9122V44.9122V44.9124V44.9124V44.9126V44.9128V44.9129V44.9129V44.9131V44.9133V44.9133V44.9134V44.9135V44.9137V44.9139V44.914V44.9141V44.9144V44.9146V44.9146V44.9148V44.915V44.9152V44.9153V44.9154V44.9156V44.9159V44.9159V44.9161V44.9163V44.9165V44.9165V44.9167V44.9169V44.9171V44.9172V44.9174V44.9176V44.9178V44.918V44.9182V44.9184V44.9189V44.9193V44.9197V44.9202V44.9206V44.921V44.9214V44.9219V44.9223V44.9227V44.9232V44.9236V44.924V44.9244V44.9249V44.9253V44.9257V44.9262V44.9266V44.927V44.9275V44.9279V44.9283V44.9287V44.9292V44.9296V44.93V44.9305V44.9309V44.9313V44.9318V44.9322V44.9326V44.933V44.9335V44.9339V44.9343V44.9348V44.9352V44.9356V44.9361V44.9365V44.9369V44.9374V44.9378V44.9382V44.9386V44.9391V44.9395V44.9399V44.9404V44.9408V44.9412V44.9417V44.9421V44.9425V44.943V44.9434V44.9438V44.9443V44.9447V44.9451V44.9456V44.946V44.9464V44.9469V44.9473V44.9477V44.9482V44.9486V44.949V44.9495V44.9499V44.9503V44.9508V44.9512V44.9516V44.9521V44.9525V44.9529V44.9534V44.9538V44.9542V44.9547V44.9551V44.9555V44.956V44.9564V44.9568V44.9573V44.9577V44.9582V44.9586V44.959V44.9595V44.9599V44.9603V44.9608V44.9612V44.9616V44.9621V44.9625V44.963V44.9634V44.9638V44.9643V44.9647V44.9652V44.9656V44.966V44.9665V44.9669V44.9674V44.9678V44.9682V44.9687V44.9691V44.9696V44.97V44.9704V44.9709V44.9713V44.9718V44.9722V44.9726V44.9731V44.9735V44.974V44.9744V44.9749V44.9753V44.9757V44.9762V44.9766V44.9771V44.9775V44.978V44.9784V44.9789V44.9793V44.9797V44.9802V44.9806V44.9811V44.9815V44.982V44.9824V44.9829V44.9833V44.9838V44.9842V44.9847V44.9851V44.9856V44.986V44.9865V44.9869V44.9874V44.9878V44.9883V44.9887V44.9892V44.9896V44.9901V44.9905V44.991V44.9914V44.9919V44.9923V44.9928V44.9932V44.9937V44.9941V44.9946V44.995V44.9955V44.996V44.9964V44.9969V44.9973V44.9978V44.9982V44.9987V44.9991V44.9996V45.0001V45.0005V45.001V45.0014V45.0019V45.0024V45.0028V45.0033V45.0037V45.0042V45.0047V45.0051V45.0056V45.006V45.0065V45.007V45.0074V45.0079V45.0084V45.0088V45.0093V45.0097V45.0102V45.0107V45.0111V45.0116V45.0121V45.0125V45.013V45.0135V45.0139V45.0144V45.0149V45.0153V45.0158V45.0163V45.0168V45.0172V45.0177V45.0182V45.0186V45.0191V45.0196V45.02V45.0205V45.021V45.0215V45.0219V45.0224V45.0229V45.0234V45.0238V45.0243V45.0248V45.0253V45.0257V45.0262V45.0267V45.0272V45.0277V45.0281V45.0286V45.0291V45.0296V45.0301V45.0305V45.031V45.0315V45.032V45.0325V45.0329V45.0334V45.0339V45.0344V45.0349V45.0354V45.0359V45.0363V45.0368V45.0373V45.0378V45.0383V45.0388V45.0393V45.0397V45.0402V45.0407V45.0412V45.0417V45.0422V45.0427V45.0432V45.0437V45.0442V45.0447V45.0452V45.0457V45.0461V45.0466V45.0471V45.0476V45.0481V45.0486V45.0491V45.0496V45.0501V45.0506V45.0511V45.0516V45.0521V45.0526V45.0531V45.0536V45.0541V45.0546V45.0551V45.0556V45.0561V45.0566V45.0572V45.0577V45.0582V45.0587V45.0592V45.0597V45.0602V45.0607V45.0612V45.0617V45.0622V45.0627V45.0633V45.0638V45.0643V45.0648V45.0653V45.0658V45.0663V45.0668V45.0674V45.0679V45.0684V45.0689V45.0694V45.07V45.0705V45.071V45.0715V45.072V45.0726V45.0731V45.0736V45.0741V45.0746V45.0752V45.0757V45.0762V45.0767V45.0773V45.0778V45.0783V45.0788V45.0794V45.0799V45.0804V45.081V45.0815V45.082V45.0826V45.0831V45.0836V45.0842V45.0847V45.0852V45.0858V45.0863V45.0868V45.0874V45.0879V45.0884V45.089V45.0895V45.0901V45.0906V45.0911V45.0917V45.0922V45.0928V45.0933V45.0939V45.0944V45.095V45.0955V45.096V45.0966V45.0971V45.0977V45.0982V45.0988V45.0993V45.0999V45.1004V45.101V45.1015V45.1021V45.1027V45.1032V45.1038V45.1043V45.1049V45.1054V45.106V45.1066V45.1071V45.1077V45.1082V45.1088V45.1094V45.1099V45.1105V45.111V45.1116V45.1122V45.1127V45.1133V45.1139V45.1144V45.115V45.1156V45.1162V45.1167V45.1173V45.1179V45.1184V45.119V45.1196V45.1202V45.1207V45.1213V45.1219V45.1225V45.123V45.1236V45.1242V45.1248V45.1254V45.126V45.1265V45.1271V45.1277V45.1283V45.1289V45.1295V45.13V45.1306V45.1312V45.1318V45.1324V45.133V45.1336V45.1342V45.1348V45.1354V45.136V45.1365V45.1371V45.1377V45.1383V45.1389V45.1395V45.1401V45.1407V45.1413V45.1419V45.1425V45.1431V45.1437V45.1443V45.145V45.1456V45.1462V45.1468V45.1474V45.148V45.1486V45.1492V45.1498V45.1504V45.151V45.1517V45.1523V45.1529V45.1535V45.1541V45.1547V45.1554V45.156V45.1566V45.1572V45.1578V45.1585V45.1591V45.1597V45.1603V45.161V45.1616V45.1622V45.1628V45.1635V45.1641V45.1647V45.1654V45.166V45.1666V45.1673V45.1679V45.1685V45.1692V45.1698V45.1704V45.1711V45.1717V45.1724V45.173V45.1736V45.1743V45.1749L46.6928 45.1807C46.6928 45.2888 46.6928 45.4558 46.7352 45.6263C46.7464 45.6711 46.753 45.7181 46.7618 45.7808C46.765 45.8033 46.7685 45.8277 46.7725 45.8549Z" fill="#263238" stroke="#263238" stroke-width="0.4"/>
<path d="M57.5186 44.3429L57.5297 44.3401L57.5404 44.3361C57.8042 44.2367 58.176 44.1673 58.6216 44.2018C59.0585 44.2355 59.4324 44.3696 59.6781 44.4747C59.7028 44.4889 59.7271 44.5029 59.7507 44.5165C59.8426 44.5695 59.9254 44.6173 59.9883 44.6507C60.0272 44.6714 60.0697 44.6927 60.1063 44.7057C60.1194 44.7103 60.1585 44.7241 60.2048 44.7223C60.2292 44.7213 60.2824 44.7152 60.3317 44.6738C60.3887 44.626 60.4053 44.5619 60.4053 44.5154V44.4602L60.377 44.4128L60.2053 44.5154C60.377 44.4128 60.377 44.4128 60.377 44.4127L60.3769 44.4126L60.3767 44.4123L60.3764 44.4118L60.3756 44.4105L60.3735 44.407L60.3671 44.3971C60.3619 44.3892 60.3548 44.3788 60.3456 44.3663C60.3274 44.3413 60.3009 44.3079 60.2656 44.2697C60.1964 44.1949 60.0925 44.101 59.9489 44.0172C59.6548 43.8096 59.1829 43.6579 58.6889 43.6197C58.1846 43.5808 57.6789 43.6946 57.3532 43.8555C57.2025 43.9129 57.0838 43.972 56.9988 44.0254C56.9561 44.0522 56.917 44.0806 56.886 44.1098C56.8707 44.1242 56.8527 44.1432 56.837 44.1663C56.8248 44.1843 56.7957 44.2309 56.7957 44.2955C56.7957 44.3425 56.8126 44.406 56.8687 44.4534C56.9167 44.494 56.9683 44.5008 56.9913 44.5023C57.0342 44.5051 57.0717 44.4942 57.084 44.4906L57.0846 44.4904C57.1143 44.4818 57.1525 44.4668 57.1863 44.4536C57.1896 44.4523 57.1929 44.451 57.1962 44.4497C57.277 44.4181 57.3857 44.3763 57.5186 44.3429ZM56.9729 44.1063C56.9692 44.1074 56.9698 44.107 56.9739 44.106L56.9729 44.1063Z" fill="#263238" stroke="#263238" stroke-width="0.4"/>
</g>
<path d="M54.9534 31.5071C54.8804 31.104 54.9898 30.8842 54.771 30.7376C54.5157 30.5544 54.0415 31.0307 53.8592 31.214C53.7862 31.2872 53.6403 31.0307 53.5674 30.9941C53.4945 30.9575 53.4215 30.5544 53.4215 30.4811C53.458 30.2246 53.8957 30.1513 54.078 29.9314C54.2969 29.7482 54.5157 29.6017 54.771 29.5284C54.9898 29.4551 55.2816 29.4184 55.464 29.565C55.6099 29.6749 55.6099 29.8948 55.6099 30.078C55.6099 30.2612 55.5734 30.4444 55.5005 30.6277C55.4275 30.8109 55.3181 30.9575 55.1357 31.0307" fill="#263238"/>
<path d="M77.6394 40.1548C77.6394 40.1548 73.9556 41.5106 72.0226 42.3168L72.132 40.4113L77.4935 38.286C77.53 38.3227 77.6759 39.7151 77.6394 40.1548Z" fill="#EBEBEB"/>
<path d="M77.3111 37.2234C77.2746 37.1868 76.1075 37.6265 74.6851 38.2128C73.2626 38.8357 72.132 39.3487 72.132 39.3853C72.1684 39.422 73.3356 38.9823 74.758 38.396C76.1804 37.8097 77.3476 37.26 77.3111 37.2234Z" fill="#EBEBEB"/>
<path d="M76.1804 77.2009L76.4722 68.2234C76.4722 68.2234 74.685 76.4314 65.3845 76.3215C56.4851 76.2116 56.6675 69.0662 56.6675 69.0662L56.3392 72.6938V87.3144L62.1384 111.169L69.5424 112.122L77.7123 79.5094L76.1804 77.2009Z" fill="#6E85C1"/>
<path d="M57.5063 74.3428C57.5063 74.3428 57.5428 74.4161 57.6158 74.526C57.6887 74.6359 57.7981 74.8191 57.9805 75.039C58.3087 75.4787 58.8558 76.065 59.6218 76.6513C60.4242 77.2376 61.4819 77.7506 62.722 78.117C63.962 78.4468 65.4209 78.5934 66.8798 78.4102C68.3752 78.2269 69.7247 77.7506 70.8919 77.2009C72.059 76.6513 73.0437 76.0284 73.8097 75.4421C74.5756 74.8558 75.1956 74.3428 75.5968 73.9763C75.8157 73.7931 75.9616 73.6466 76.0345 73.5366C76.1439 73.4267 76.1804 73.3901 76.1804 73.3901C76.1804 73.3901 76.1075 73.4267 75.998 73.5366C75.8886 73.6466 75.7063 73.7931 75.5239 73.9397C75.1227 74.3061 74.5027 74.7825 73.7367 75.3688C72.9343 75.9184 71.986 76.5414 70.8189 77.091C69.6518 77.6407 68.3023 78.0804 66.8434 78.2636C65.3845 78.4468 63.962 78.3369 62.722 78.0071C61.4819 77.6773 60.4606 77.1643 59.6582 76.6146C58.8558 76.065 58.3087 75.4787 57.9805 75.0756C57.6887 74.5626 57.5063 74.3061 57.5063 74.3428Z" fill="#6E85C1"/>
<path d="M63.962 151L64.1079 108.604L76.1075 77.6773L76.5087 68.37L83.8032 73.9031C83.8032 73.9031 94.4533 110.656 94.5992 109.374C94.7451 108.091 94.5992 151 94.5992 151H63.962Z" fill="#EBEBEB"/>
<path d="M64.2538 150.89C64.2903 150.89 64.3632 141.326 64.3632 129.564C64.3632 117.765 64.3268 108.238 64.2538 108.238C64.2174 108.238 64.1444 117.801 64.1444 129.564C64.1444 141.326 64.1809 150.89 64.2538 150.89Z" fill="#263238"/>
<path d="M83.6574 79.9491L82.1985 81.0851L83.2197 87.9373L65.7493 106.369L81.6149 85.409L80.2654 79.9491H83.6574Z" fill="#E0E0E0"/>
<path d="M63.3057 129.271L90.1496 121.356L91.025 100.872L83.6575 73.903C83.6575 73.903 101.201 82.6974 102.404 88.3038C103.608 93.9101 106.489 107.505 106.781 117.362C107.073 126.156 107.109 132.019 105.103 134.84C99.3773 142.865 61.6644 144.331 46.5647 134.84" fill="#EBEBEB"/>
<path d="M65.421 106.809C65.421 106.809 65.4575 106.772 65.494 106.699C65.5669 106.625 65.6399 106.515 65.7493 106.405C65.9681 106.112 66.2599 105.746 66.6611 105.233C67.4635 104.207 68.5942 102.704 69.9801 100.909C72.7885 97.2447 76.6182 92.1513 80.8855 86.5449C81.1773 86.1785 81.4326 85.8121 81.7244 85.4456L81.7608 85.409V85.3723C81.2867 83.5036 80.849 81.6714 80.4114 79.9492L80.3384 80.0591C81.5055 80.0591 82.6362 80.0591 83.7304 80.0591H83.8033V79.9858C83.8033 77.7506 83.8033 75.7352 83.8033 73.9397V73.9031L83.7668 73.8664C81.542 72.1809 79.7548 70.7884 78.4783 69.8357C77.8583 69.3593 77.3841 68.9929 77.0194 68.7364C76.8735 68.6265 76.7276 68.5166 76.6547 68.4433C76.5817 68.37 76.5088 68.3333 76.5088 68.37C76.5088 68.37 76.5452 68.4066 76.6182 68.4799C76.6911 68.5532 76.837 68.6631 76.9829 68.7731C77.3112 69.0296 77.7853 69.4326 78.4053 69.909C79.6454 70.8983 81.4326 72.2908 83.6574 73.9764L83.621 73.9031C83.621 75.6986 83.621 77.7506 83.621 79.9492L83.6939 79.8759C82.5997 79.8759 81.4691 79.8759 80.3019 79.8759H80.1925L80.229 79.9858C80.6667 81.708 81.1043 83.5402 81.5785 85.409V85.3357C81.3232 85.7021 81.0314 86.0686 80.7396 86.435C76.5088 92.0414 72.6427 97.1348 69.8707 100.836C68.4848 102.668 67.3906 104.17 66.5882 105.196C66.2234 105.709 65.9317 106.112 65.7128 106.405C65.6034 106.552 65.5305 106.625 65.494 106.735C65.421 106.772 65.3846 106.809 65.421 106.809Z" fill="#263238"/>
<path d="M53.4214 72.2908C55.5733 68.5166 56.6675 68.9196 56.6675 68.9196L56.5581 70.2754V73.0969L57.5793 85.1891L64.1079 111.462L63.962 151H39.3794L36.3157 102.705L36.6075 81.8913L53.4214 72.2908Z" fill="#EBEBEB"/>
<path d="M36.6075 81.9279C36.6075 81.9279 30.2613 86.6549 29.6777 94.24C29.24 100.396 28.2188 117.288 28 120.989C27.7082 126.706 32.1579 140.117 43.7197 136.306C50.6496 134.034 76.2534 125.277 76.2534 125.277L74.5392 114.357L44.1574 116.189L43.5374 90.7222L36.6075 81.9279Z" fill="#EBEBEB"/>
<path d="M74.8674 115.639C74.8674 115.639 83.475 114.723 85.4445 115.2C87.3411 115.676 90.0766 118.021 90.0766 118.021L90.0401 121.429L76.2169 125.313L74.8674 115.639Z" fill="#FFBBA0"/>
<path d="M64.1081 107.505C64.1081 107.505 64.1081 107.468 64.0716 107.395C64.0351 107.322 63.9986 107.212 63.9257 107.065C63.8163 106.772 63.6339 106.332 63.4151 105.783C62.9409 104.647 62.2844 103.034 61.482 101.056C60.6796 99.0402 59.6949 96.695 58.6007 94.0567C58.3454 93.3972 58.0536 92.7009 57.7253 92.0414C57.3971 91.3818 57.0323 90.6856 56.6311 90.026C55.8287 88.7069 54.9169 87.3877 53.8957 86.0686C53.3851 85.409 52.9109 84.7861 52.4003 84.1998V84.3097C52.765 83.3936 53.1298 82.4775 53.458 81.5615L53.4945 81.4882L53.3851 81.4515C51.8167 80.9019 50.3214 80.3889 48.8989 79.9125L48.9354 80.0225C51.0143 76.5414 52.765 73.5733 54.0051 71.4846C54.6251 70.4586 55.1358 69.6158 55.7193 69.286C55.9746 69.1028 56.2299 69.0662 56.4123 68.9929C56.5582 68.9563 56.6676 68.9563 56.6676 68.9196C56.6676 68.9196 56.5947 68.9196 56.4123 68.9563C56.2299 68.9929 56.0111 69.0295 55.7193 69.2128C55.4275 69.396 55.1358 69.6891 54.844 70.0556C54.5522 70.422 54.2604 70.8983 53.9322 71.4113C52.6556 73.5 50.9049 76.4314 48.7895 79.9125L48.7166 79.9858L48.826 80.0225C50.2484 80.4988 51.7438 81.0118 53.3121 81.5615L53.2392 81.4515C52.8744 82.331 52.5462 83.247 52.1815 84.1998L52.145 84.2364L52.1815 84.273C52.6921 84.8593 53.2027 85.4823 53.6768 86.1418C54.6616 87.4243 55.6099 88.7435 56.4123 90.0993C56.8135 90.7589 57.1782 91.4184 57.5065 92.078C57.8347 92.7376 58.1265 93.4338 58.3818 94.0934C59.476 96.7317 60.4608 99.1135 61.2997 101.092C62.1385 103.071 62.795 104.683 63.2692 105.819C63.488 106.369 63.6704 106.809 63.8163 107.102C63.8892 107.248 63.9257 107.358 63.9622 107.431C64.0716 107.468 64.0716 107.505 64.1081 107.505Z" fill="#263238"/>
<path d="M33.1062 134.181C33.1062 134.181 33.1427 134.217 33.2156 134.291C33.2886 134.364 33.398 134.474 33.5439 134.621C33.8357 134.914 34.3098 135.28 34.9298 135.683C35.5863 136.086 36.4252 136.489 37.4829 136.746C38.5406 137.002 39.7807 137.112 41.1302 136.966C41.8232 136.892 42.5162 136.746 43.2092 136.526C43.9386 136.306 44.6316 136.013 45.3975 135.756C46.8929 135.207 48.4977 134.657 50.2119 134.034C53.6039 132.825 57.3241 131.579 61.2632 130.26C69.1413 127.658 76.3264 125.46 81.542 123.921C84.1316 123.151 86.247 122.528 87.7059 122.089C88.4354 121.869 88.9825 121.722 89.3837 121.576C89.566 121.502 89.7119 121.466 89.8213 121.429C89.9308 121.392 89.9672 121.392 89.9672 121.392C89.9672 121.392 89.9308 121.392 89.8213 121.429C89.7119 121.466 89.566 121.502 89.3837 121.539C88.9825 121.649 88.4354 121.795 87.7059 122.015C86.247 122.418 84.1316 123.041 81.5056 123.774C76.2899 125.313 69.1048 127.475 61.2267 130.077C57.2876 131.359 53.5309 132.642 50.1755 133.851C48.4977 134.437 46.8564 135.024 45.361 135.573C44.5951 135.83 43.9021 136.123 43.1727 136.343C42.4797 136.563 41.7867 136.709 41.0937 136.782C39.7442 136.929 38.5042 136.856 37.4829 136.563C36.4252 136.306 35.5863 135.903 34.9298 135.537C34.2733 135.134 33.8357 134.767 33.5074 134.511C33.3615 134.364 33.2521 134.291 33.1791 134.217C33.1427 134.217 33.1062 134.181 33.1062 134.181Z" fill="#263238"/>
<path d="M90.0765 121.466C90.0765 121.502 90.5507 121.392 91.3166 121.429C91.7178 121.429 92.1555 121.502 92.6296 121.649C93.1038 121.796 93.6144 122.015 94.125 122.345C95.1098 122.968 95.8028 123.848 96.204 124.507C96.6052 125.167 96.7875 125.606 96.824 125.606C96.824 125.606 96.7875 125.496 96.7146 125.277C96.6416 125.057 96.4957 124.764 96.3134 124.434C95.9122 123.738 95.2557 122.858 94.2344 122.199C93.7238 121.869 93.1767 121.649 92.6661 121.502C92.1555 121.356 91.6813 121.319 91.2801 121.319C90.8789 121.319 90.5507 121.356 90.3683 121.392C90.186 121.429 90.0765 121.466 90.0765 121.466Z" fill="#263238"/>
<path d="M98.5384 118.791C98.5384 118.791 98.5384 118.754 98.5019 118.681C98.4654 118.608 98.429 118.534 98.3195 118.424C98.1372 118.241 97.8089 118.021 97.3713 117.948C96.9336 117.838 96.3865 117.875 95.8029 117.948C95.2194 118.021 94.5629 118.168 93.9428 118.388C92.6663 118.864 91.6086 119.597 90.9885 120.22C90.6603 120.55 90.4414 120.806 90.2955 121.026C90.1496 121.246 90.0767 121.356 90.1132 121.356C90.1496 121.392 90.4414 120.916 91.0979 120.293C91.7544 119.707 92.7757 119.011 94.0522 118.534C94.6723 118.314 95.2923 118.168 95.8759 118.058C96.4594 117.985 96.9701 117.948 97.4077 118.021C97.8454 118.095 98.1737 118.241 98.3195 118.424C98.4654 118.681 98.5019 118.791 98.5384 118.791Z" fill="#263238"/>
<path d="M88.5084 95.266C88.5084 95.266 88.5814 95.0828 88.6178 94.7163C88.6543 94.5331 88.7637 94.3499 88.8367 94.0934C88.9461 93.8735 89.0555 93.5804 89.2379 93.3239C89.5661 92.7743 90.0403 92.1513 90.6238 91.4917C91.2074 90.8688 91.9004 90.2092 92.7028 89.6229C94.3076 88.4504 96.0218 87.7908 97.2984 87.4977C97.9549 87.3877 98.4655 87.3144 98.8302 87.3144C99.1949 87.3144 99.4138 87.2778 99.4138 87.2778C99.4138 87.2778 99.1949 87.2411 98.8302 87.2411C98.4655 87.2045 97.9184 87.2778 97.2619 87.3877C95.9489 87.6076 94.2346 88.3038 92.5934 89.4764C91.7545 90.0627 91.0615 90.7222 90.478 91.3818C89.8944 92.0414 89.4567 92.6643 89.1285 93.2506C88.9826 93.5438 88.8732 93.8369 88.7637 94.0568C88.6908 94.3133 88.6178 94.5331 88.5814 94.7163C88.5084 95.0461 88.5084 95.266 88.5084 95.266Z" fill="#263238"/>
<path d="M37.5557 126.596C37.5557 126.596 37.5557 126.559 37.5557 126.449C37.5557 126.339 37.5557 126.229 37.5557 126.083C37.5557 125.753 37.5922 125.24 37.6287 124.617C37.7381 123.334 37.9569 121.502 38.7229 119.34C38.9052 118.791 39.1241 118.241 39.4523 117.728C39.7806 117.215 40.2547 116.775 40.8748 116.519C42.0784 116.006 43.5738 116.043 45.0691 115.969C48.0964 115.859 51.3789 115.713 54.8438 115.566C62.9408 115.2 70.1259 114.907 74.6485 114.65L74.5756 114.613C74.8309 116.299 75.0497 117.618 75.2321 118.534C75.305 118.974 75.378 119.34 75.4145 119.56C75.4509 119.67 75.4509 119.743 75.4509 119.817C75.4509 119.89 75.4874 119.89 75.4874 119.89C75.4874 119.89 75.4874 119.853 75.4874 119.817C75.4874 119.743 75.4509 119.67 75.4509 119.56C75.4145 119.304 75.378 118.974 75.305 118.534C75.1592 117.618 74.9768 116.299 74.7215 114.613V114.577H74.685C70.1624 114.76 62.9408 115.053 54.8803 115.42C51.4154 115.566 48.0964 115.713 45.1056 115.859C44.3397 115.896 43.6102 115.933 42.9172 115.969C42.1878 116.043 41.4948 116.152 40.8748 116.446C40.2547 116.702 39.7441 117.178 39.3794 117.728C39.0511 118.278 38.8323 118.827 38.6499 119.377C37.884 121.539 37.7016 123.408 37.6287 124.69C37.5922 125.313 37.5922 125.826 37.5922 126.156C37.5922 126.303 37.5922 126.449 37.5922 126.522C37.5193 126.522 37.5557 126.596 37.5557 126.596Z" fill="#263238"/>
<path d="M43.3185 102.668C43.2821 102.668 43.2091 105.636 43.2091 109.264C43.2091 112.928 43.2456 115.859 43.3185 115.859C43.355 115.859 43.4279 112.891 43.4279 109.264C43.4279 105.636 43.3915 102.668 43.3185 102.668Z" fill="#263238"/>
<path d="M102.222 87.6442C102.222 87.6442 102.258 87.7175 102.295 87.9007C102.331 88.0473 102.441 88.3038 102.514 88.6336C102.696 89.2565 102.915 90.2092 103.17 91.4551C103.681 93.9102 104.301 97.5378 104.994 102.045C105.359 104.317 105.723 106.809 106.088 109.483C106.27 110.839 106.38 112.232 106.489 113.661C106.599 115.126 106.672 116.592 106.708 118.131C106.817 121.209 106.89 124.47 106.781 127.842C106.744 128.684 106.708 129.527 106.672 130.407C106.635 130.846 106.562 131.249 106.526 131.689C106.453 132.129 106.343 132.532 106.197 132.972C105.942 133.814 105.541 134.584 104.994 135.28C104.447 135.976 103.717 136.563 102.915 136.892C101.237 137.772 99.377 138.395 97.5169 138.981C95.6203 139.531 93.6872 140.007 91.7177 140.41C87.3045 141.326 82.8913 141.839 78.6605 142.022C76.5451 142.096 74.4661 142.022 72.4236 141.876C70.3812 141.729 68.4116 141.509 66.5151 141.253C62.6854 140.703 59.1111 139.824 55.865 138.761C52.6189 137.699 49.7741 136.379 47.2574 135.06V135.17C52.2542 133.375 56.2662 131.946 59.0381 130.956C60.4241 130.443 61.4818 130.077 62.2113 129.82C62.576 129.674 62.8313 129.6 63.0501 129.527C63.2325 129.454 63.3419 129.417 63.3419 129.417C63.3419 129.417 63.2325 129.454 63.0501 129.491C62.8678 129.564 62.576 129.637 62.2113 129.784C61.4818 130.04 60.4241 130.407 59.0381 130.883C56.2662 131.872 52.2177 133.265 47.221 135.024L47.0751 135.06L47.221 135.134C49.7011 136.489 52.5825 137.809 55.8285 138.871C59.0746 139.97 62.6489 140.813 66.4786 141.363C68.4116 141.656 70.3812 141.876 72.4236 142.022C74.4661 142.169 76.5451 142.242 78.6605 142.206C82.9278 142.059 87.3045 141.509 91.7542 140.593C93.7237 140.19 95.6933 139.714 97.5898 139.164C99.4864 138.578 101.31 137.955 103.024 137.076C103.9 136.709 104.629 136.123 105.176 135.427C105.76 134.73 106.161 133.888 106.416 133.045C106.562 132.605 106.635 132.202 106.744 131.762C106.781 131.323 106.854 130.883 106.89 130.443C106.963 129.564 107 128.721 107 127.878C107.073 124.47 107 121.209 106.89 118.131C106.817 116.592 106.744 115.09 106.672 113.624C106.562 112.158 106.453 110.766 106.27 109.41C105.906 106.735 105.504 104.243 105.176 101.972C104.447 97.4645 103.827 93.8369 103.28 91.3818C103.024 90.1359 102.769 89.1832 102.587 88.5603C102.514 88.2305 102.404 88.0106 102.368 87.8641C102.258 87.7175 102.222 87.6442 102.222 87.6442Z" fill="#263238"/>
<path d="M90.1131 118.937C85.627 113.954 85.8093 105.05 88.3989 98.7471C88.6542 105.563 89.4201 111.609 90.0402 118.241" fill="#E0E0E0"/>
<path d="M88.3988 100.03C88.3988 100.03 88.3988 100.103 88.3988 100.249C88.3988 100.396 88.4353 100.616 88.4353 100.872C88.4717 101.422 88.5447 102.228 88.6176 103.144C88.7635 105.086 88.9824 107.761 89.2377 110.693C89.4565 113.624 89.6754 116.299 89.8212 118.241C89.8942 119.194 89.9671 119.963 90.0036 120.513C90.0401 120.77 90.0401 120.989 90.0401 121.136C90.0401 121.283 90.0766 121.356 90.0766 121.356C90.0766 121.356 90.0766 121.283 90.0766 121.136C90.0766 120.989 90.0766 120.77 90.0766 120.513C90.0766 119.963 90.0036 119.194 89.9671 118.205C89.8577 116.262 89.6754 113.587 89.42 110.656C89.1647 107.725 88.9459 105.05 88.7635 103.108C88.6541 102.155 88.5812 101.385 88.5082 100.836C88.4717 100.579 88.4353 100.396 88.4353 100.213C88.3988 100.103 88.3988 100.03 88.3988 100.03Z" fill="#263238"/>
<path d="M77.3112 91.0154C77.2747 91.0154 77.2018 92.7376 77.2018 94.8995C77.2018 97.0248 77.2383 98.7837 77.3112 98.7837C77.3841 98.7837 77.4206 97.0615 77.4206 94.8995C77.4206 92.7376 77.3841 91.0154 77.3112 91.0154Z" fill="#263238"/>
<path d="M80.2653 103.877C80.1924 104.683 79.8641 105.379 79.4264 105.929C78.9887 106.479 78.1499 107.028 77.4569 106.992C77.4569 106.992 75.7427 107.138 74.7944 105.673C73.9555 104.317 73.7367 101.532 74.4296 99.883C74.9038 98.747 75.925 97.6844 77.1651 97.6477C78.7699 97.6111 79.7911 98.7837 80.1194 99.9563" fill="#E0E0E0"/>
<path d="M80.1195 99.9196C80.1195 99.9196 80.083 99.6265 79.8277 99.1135C79.6818 98.857 79.4995 98.6005 79.2077 98.3073C78.9159 98.0508 78.5512 97.7943 78.077 97.6477C77.8582 97.5745 77.5664 97.5378 77.3111 97.5378C77.0558 97.5378 76.764 97.5378 76.4722 97.6477C75.9251 97.831 75.3781 98.234 74.9769 98.7104C74.5757 99.2234 74.2474 99.8463 74.1015 100.543C73.9556 101.239 73.8827 101.972 73.9556 102.704C74.0286 103.84 74.2474 104.976 74.9039 105.856C75.2322 106.295 75.6698 106.589 76.1075 106.772C76.5817 106.955 77.0193 107.028 77.4935 106.992C77.8582 106.992 78.1865 106.882 78.4782 106.735C78.77 106.589 79.0253 106.405 79.2077 106.222C79.6089 105.819 79.8642 105.379 80.0101 105.013C80.156 104.647 80.2289 104.317 80.2654 104.134C80.2654 104.024 80.3019 103.95 80.3019 103.877C80.3019 103.84 80.3019 103.804 80.3019 103.804C80.2654 103.804 80.2654 104.28 79.9371 104.976C79.7548 105.343 79.5359 105.746 79.1347 106.112C78.9159 106.295 78.6971 106.479 78.4053 106.589C78.15 106.735 77.8217 106.809 77.4935 106.809C76.6546 106.845 75.6698 106.515 75.0863 105.709C74.5027 104.903 74.2839 103.767 74.2109 102.631C74.138 101.165 74.3568 99.7364 75.1957 98.747C75.5969 98.2707 76.071 97.9042 76.5817 97.721C76.837 97.6477 77.0923 97.6111 77.3476 97.6111C77.6029 97.6111 77.8582 97.6477 78.077 97.721C78.5147 97.8676 78.9159 98.0875 79.1712 98.344C79.463 98.6005 79.6454 98.857 79.7913 99.1135C80.0101 99.6265 80.083 99.9563 80.1195 99.9196Z" fill="#263238"/>
<path d="M81.1043 103.95C81.0313 104.756 80.7031 105.453 80.2654 106.002C79.8277 106.552 78.9889 107.102 78.2959 107.065C78.2959 107.065 76.5817 107.212 75.6334 105.746C74.7945 104.39 74.5757 101.605 75.2686 99.9563C75.7428 98.8203 76.764 97.7577 78.0041 97.721C79.6089 97.6844 80.6301 98.857 80.9584 100.03" fill="#E0E0E0"/>
<path d="M80.9585 99.9929C80.9585 99.9929 80.922 99.6998 80.6667 99.1867C80.5208 98.9302 80.3385 98.6737 80.0467 98.3806C79.7549 98.1241 79.3902 97.8676 78.916 97.721C78.6972 97.6477 78.4054 97.6111 78.1501 97.6111C77.8948 97.6111 77.603 97.6111 77.3112 97.721C76.7641 97.9042 76.217 98.3073 75.8158 98.7837C75.4146 99.2967 75.0864 99.9196 74.9405 100.616C74.7946 101.312 74.7217 102.045 74.7946 102.778C74.8676 103.914 75.0864 105.05 75.7429 105.929C76.0712 106.369 76.5088 106.662 76.9465 106.845C77.4206 107.028 77.8583 107.102 78.3325 107.065C78.6972 107.065 79.0254 106.955 79.3172 106.808C79.609 106.662 79.8643 106.479 80.0467 106.295C80.4479 105.892 80.7032 105.453 80.8491 105.086C80.995 104.72 81.0679 104.39 81.1044 104.207C81.1044 104.097 81.1409 104.024 81.1409 103.95C81.1409 103.914 81.1409 103.877 81.1409 103.877C81.1044 103.877 81.1044 104.353 80.7761 105.05C80.5938 105.416 80.3749 105.819 79.9737 106.186C79.7549 106.369 79.5361 106.552 79.2443 106.662C78.989 106.808 78.6607 106.882 78.3325 106.882C77.4936 106.918 76.5088 106.589 75.9253 105.782C75.3417 104.976 75.1229 103.84 75.0499 102.704C74.977 101.239 75.1958 99.8097 76.0347 98.8203C76.4359 98.344 76.91 97.9775 77.4206 97.7943C77.676 97.721 77.9313 97.6844 78.1866 97.6844C78.4419 97.6844 78.6972 97.721 78.916 97.7943C79.3537 97.9409 79.7549 98.1607 80.0102 98.4172C80.302 98.6737 80.4844 98.9302 80.6303 99.1867C80.8856 99.6998 80.9585 100.03 80.9585 99.9929Z" fill="#263238"/>
<path d="M79.5725 99.5898C80.3749 99.4432 81.1773 99.9929 81.5421 100.726C81.8703 101.459 81.7974 102.338 81.5421 103.108C81.3962 103.511 81.2138 103.877 80.922 104.17C80.6302 104.463 80.2655 104.683 79.8278 104.72C79.2078 104.756 78.6607 104.317 78.3325 103.84C77.7489 103.034 77.5665 101.972 77.8218 101.019C78.0042 100.396 78.4419 99.7364 79.0984 99.6997" fill="#E0E0E0"/>
<path d="M79.062 99.7364C79.062 99.7364 79.0255 99.7364 78.9161 99.7364C78.8066 99.7364 78.6972 99.773 78.5149 99.883C78.1866 100.066 77.8219 100.506 77.676 101.129C77.5301 101.752 77.5301 102.595 77.8948 103.364C78.0772 103.767 78.3325 104.134 78.6972 104.427C79.062 104.72 79.609 104.903 80.1197 104.756C80.6303 104.61 80.995 104.243 81.2503 103.84C81.5056 103.437 81.615 102.998 81.7245 102.558C81.9068 101.715 81.7609 100.872 81.3597 100.359C80.9585 99.8097 80.4479 99.5898 80.0832 99.5532C79.9008 99.5165 79.7549 99.5532 79.682 99.5532C79.5726 99.5898 79.5361 99.5898 79.5361 99.5898C79.5361 99.6265 79.7185 99.5532 80.0832 99.6265C80.4114 99.6997 80.9221 99.9196 81.2503 100.433C81.615 100.946 81.7245 101.715 81.5421 102.521C81.4692 102.924 81.3233 103.327 81.068 103.73C80.8491 104.097 80.4844 104.427 80.0467 104.573C79.609 104.72 79.1349 104.537 78.8066 104.28C78.4419 104.024 78.2231 103.657 78.0407 103.291C77.676 102.558 77.6395 101.752 77.7854 101.165C77.8948 100.543 78.2231 100.139 78.5149 99.9196C78.8796 99.7364 79.0984 99.7364 79.062 99.7364Z" fill="#263238"/>
<path d="M77.7122 105.636C77.7487 105.636 77.7851 105.526 77.8946 105.379C78.004 105.233 78.2228 105.05 78.5146 104.976C78.8064 104.903 79.0617 104.866 79.2805 104.866C79.4994 104.866 79.6088 104.83 79.6088 104.793C79.6088 104.756 79.4994 104.72 79.2805 104.72C79.0617 104.72 78.7699 104.683 78.4416 104.793C78.1134 104.903 77.8946 105.123 77.7487 105.306C77.6757 105.489 77.6757 105.599 77.7122 105.636Z" fill="#263238"/>
<path d="M77.4204 99.1134C77.4204 99.1134 77.4934 99.26 77.6392 99.3699C77.8216 99.5165 78.0769 99.6631 78.4052 99.6997C78.7334 99.773 79.0252 99.7364 79.244 99.6631C79.4629 99.5898 79.5723 99.5165 79.5358 99.4799C79.4994 99.4432 79.0252 99.6264 78.4416 99.5165C77.8581 99.4066 77.4569 99.0402 77.4204 99.1134Z" fill="#263238"/>
<path d="M52.3638 72.8404C52.3638 72.8404 52.3273 72.8404 52.2544 72.8771C52.1814 72.9137 52.072 72.9504 51.9261 73.0603C51.6343 73.2069 51.2696 73.4634 50.8319 73.8298C49.9566 74.5626 48.9718 75.8818 48.4977 77.5674C47.9871 79.2163 47.7318 80.792 47.5859 81.9279C47.5129 82.4775 47.4765 82.9539 47.4765 83.2837C47.44 83.6135 47.44 83.76 47.4765 83.76C47.4765 83.76 47.5129 83.5768 47.5494 83.2837C47.5859 82.9173 47.6588 82.4775 47.7318 81.9645C47.8777 80.8286 48.1694 79.3262 48.6801 77.6407C49.1542 75.9917 50.1025 74.7092 50.9414 73.9397C51.7438 73.1702 52.4003 72.8771 52.3638 72.8404Z" fill="#263238"/>
<path d="M56.9229 113.184C55.8652 113.148 55.0264 112.085 53.9686 112.158C53.2027 112.195 52.5097 112.965 52.5827 113.771C52.6556 114.54 53.4216 115.2 54.224 115.126C55.3181 114.98 55.9746 113.697 57.0688 113.441" fill="#263238"/>
<path d="M47.9506 114.1C48.2789 114.1 48.6071 114.064 48.9354 114.027L48.8624 113.661C47.5494 113.881 46.4552 113.661 45.6164 113.038C44.5222 112.232 43.8292 110.803 43.5374 108.787V108.714C43.428 107.908 43.2456 92.2246 43.2456 89.2565C43.2456 84.6028 47.2941 83.9799 47.4765 83.9433C47.6588 83.9066 51.3426 83.2837 53.2757 88.3771C55.3546 93.6903 58.6371 103.914 58.856 105.123C58.8925 105.27 58.9289 105.453 58.9654 105.673C59.2937 107.212 60.0231 110.4 57.9077 112.268C55.537 114.32 53.6769 113.514 53.6039 113.478L53.458 113.807C53.531 113.844 55.6099 114.723 58.163 112.525C60.4608 110.546 59.6949 107.212 59.3666 105.599C59.3301 105.379 59.2937 105.233 59.2572 105.086C59.0383 103.877 55.7558 93.5804 53.6769 88.2671C51.5979 82.8806 47.513 83.6135 47.4765 83.6135C47.44 83.6135 42.9539 84.3097 42.9539 89.2931C42.9539 91.7482 43.0997 107.944 43.2456 108.787V108.861C43.5374 110.986 44.3034 112.488 45.4705 113.331C46.127 113.844 46.9659 114.1 47.9506 114.1Z" fill="#263238"/>
<path d="M43.0634 92.2246C43.0998 92.2246 43.1728 91.4551 43.8293 90.3925C44.1575 89.8795 44.6317 89.3298 45.2882 88.8168C45.9447 88.3404 46.7106 87.9007 47.6224 87.7175C49.4461 87.3144 51.1603 87.7542 52.2545 88.3404C53.3487 88.9267 53.8228 89.5497 53.8593 89.513C53.8593 89.513 53.8228 89.4764 53.7863 89.4031C53.7134 89.3298 53.6405 89.2199 53.531 89.11C53.2757 88.8535 52.8745 88.5603 52.3274 88.2305C51.7803 87.9374 51.0874 87.6442 50.285 87.4977C49.4826 87.3511 48.5343 87.3511 47.6224 87.5709C46.6742 87.7908 45.8718 88.2305 45.2152 88.7435C44.5587 89.2565 44.0846 89.8428 43.7563 90.3925C43.4281 90.9421 43.2822 91.4185 43.2092 91.7482C43.1728 91.9315 43.1363 92.0414 43.1363 92.1513C43.0634 92.188 43.0634 92.2246 43.0634 92.2246Z" fill="#263238"/>
<path d="M33.7992 121.539C33.8356 121.539 33.9086 120.916 34.3098 119.963C34.711 119.047 35.4769 117.838 36.7899 116.995C37.4464 116.592 38.1394 116.372 38.7959 116.262C39.4524 116.153 40.0725 116.116 40.5466 116.079C41.0208 116.043 41.422 116.006 41.7502 116.006C42.042 115.969 42.1879 115.969 42.1879 115.933C42.1879 115.933 42.042 115.933 41.7502 115.933C41.422 115.933 41.0208 115.933 40.5466 115.969C40.036 115.969 39.416 116.006 38.7595 116.116C38.1029 116.226 37.337 116.409 36.6805 116.849C35.331 117.728 34.5651 118.974 34.2004 119.927C34.018 120.403 33.9086 120.806 33.8721 121.099C33.7627 121.392 33.7627 121.539 33.7992 121.539Z" fill="#263238"/>
<path d="M52.1815 115.42C52.1815 115.42 48.6072 109.96 47.6954 109.264C46.7835 108.531 38.9419 105.013 38.0301 105.563C37.1183 106.149 37.6653 107.358 37.6653 107.358C37.6653 107.358 34.3463 106.186 33.9816 106.662C33.6169 107.138 33.5439 107.908 33.9816 108.531C33.9816 108.531 32.158 108.238 32.158 108.824C32.158 109.374 32.3768 110.106 33.2157 110.729C34.0545 111.352 39.5619 115.053 39.9996 116.079L41.7868 115.969L52.1815 115.42Z" fill="#FFBBA0"/>
<path d="M41.8598 113.844C41.8598 113.844 41.8233 113.697 41.7139 113.514C41.6045 113.294 41.3856 113.001 41.1303 112.671C40.5832 111.975 39.6714 111.169 38.5408 110.473C37.4101 109.777 36.2795 109.337 35.4771 109.007C35.0759 108.86 34.7476 108.751 34.4923 108.641C34.2735 108.567 34.1276 108.531 34.1276 108.531C34.1276 108.531 34.237 108.604 34.4558 108.714C34.7111 108.824 35.0394 108.97 35.4041 109.117C36.2065 109.447 37.3007 109.923 38.4313 110.619C39.562 111.279 40.4738 112.085 41.0209 112.745C41.568 113.404 41.8233 113.881 41.8598 113.844Z" fill="#EE9471"/>
<path d="M46.4189 113.771C46.4189 113.771 46.3825 113.624 46.2366 113.368C46.1271 113.111 45.9448 112.745 45.6895 112.305C45.4342 111.865 45.1424 111.352 44.7047 110.839C44.4859 110.583 44.267 110.326 43.9388 110.106C43.647 109.887 43.3187 109.703 42.9905 109.52C41.6775 108.751 40.4374 108.128 39.4891 107.761C39.015 107.578 38.6502 107.468 38.3584 107.395C38.0667 107.322 37.9208 107.322 37.9208 107.322C37.9208 107.358 38.5043 107.505 39.4162 107.908C40.328 108.311 41.5681 108.934 42.8811 109.703C43.2093 109.887 43.5376 110.106 43.8294 110.29C44.0847 110.473 44.34 110.766 44.5588 110.986C44.9965 111.499 45.2883 111.975 45.5801 112.415C45.8354 112.818 46.0177 113.148 46.2001 113.441C46.3095 113.661 46.3825 113.771 46.4189 113.771Z" fill="#EE9471"/>
</g>
<defs>
<clipPath id="clip0">
<rect width="79" height="124" fill="white" transform="translate(28 27)"/>
</clipPath>
</defs>
</svg>
