<svg width="360" height="182" viewBox="0 0 360 182" fill="none" xmlns="http://www.w3.org/2000/svg">
<mask id="mask0" mask-type="alpha" maskUnits="userSpaceOnUse" x="0" y="0" width="360" height="182">
<rect width="360" height="182" fill="white"/>
</mask>
<g mask="url(#mask0)">
<path d="M360 -100H0V179H360V-100Z" fill="#AFE2DB"/>
<path d="M359.815 76.0676C349.055 67.3014 338.361 56.1303 325.74 51.1654C319.895 48.8381 313.784 47.9848 307.673 49.5363C302.16 50.9327 296.979 53.7255 292.13 57.1388C282.166 64.1983 273.199 73.6627 262.439 79.0155C251.545 84.5235 240.32 84.4459 229.426 78.9379C218.533 73.43 209.234 64.5086 199.469 56.8285C189.639 48.9933 177.749 41.2356 165.394 43.8732C154.634 46.1229 145.733 54.3461 137.43 62.1037C127.533 71.3354 117.569 82.9719 104.55 85.1441C92.9263 87.1611 81.9664 80.9549 71.6044 75.5245C60.3788 69.6287 48.8876 63.8104 36.6657 61.7159C26.3036 59.9316 15.4102 60.8625 5.77883 65.8274C3.78613 66.8359 1.85985 67.9996 0 69.3184V182.348H364V79.5586C362.605 78.3949 361.21 77.2313 359.815 76.0676Z" fill="#97D3C9"/>
<path d="M325.239 88.3039C315.415 87.2963 301.938 85.092 294.065 78.5423C288.586 73.882 284.934 67.4582 281.722 61.3494C279.077 56.4371 275.676 51.9657 273.031 46.9904C297.088 43.4636 325.176 61.4124 325.239 88.3039Z" fill="#11564F"/>
<path d="M325.302 86.7295C320.012 79.9909 312.707 75.1416 305.905 70.0403C298.033 64.1834 291.168 57.1929 283.044 51.6508C282.414 51.21 281.848 52.2176 282.477 52.6584C290.161 57.9486 296.773 64.5613 304.142 70.1663C311.258 75.5824 318.879 80.4947 324.484 87.5482C324.924 88.115 325.743 87.2963 325.302 86.7295Z" fill="#46AA9E"/>
<path d="M311.447 83.2027C314.659 83.4546 317.808 83.3287 321.02 83.5176C321.335 83.5176 321.65 83.2657 321.587 82.9508C321.209 79.9278 322.153 76.653 320.327 73.945C319.886 73.3152 318.942 73.882 319.319 74.5118C321.02 77.0309 320.075 80.1168 320.453 82.9508C320.642 82.7619 320.831 82.5729 321.02 82.384C317.808 82.1951 314.659 82.321 311.447 82.0691C310.691 82.0061 310.691 83.1397 311.447 83.2027Z" fill="#46AA9E"/>
<path d="M302.315 78.0385C306.85 77.8496 311.384 78.4793 315.856 79.424C316.234 79.487 316.548 79.2351 316.611 78.8572C316.737 75.0785 315.856 70.922 314.029 67.5842C313.651 66.9544 312.707 67.5212 313.022 68.151C314.722 71.2999 315.541 75.2675 315.415 78.7942C315.667 78.6053 315.919 78.4164 316.171 78.2274C311.636 77.2198 306.976 76.59 302.315 76.779C301.623 76.9049 301.623 78.0385 302.315 78.0385Z" fill="#46AA9E"/>
<path d="M296.396 72.1816C299.796 72.0556 303.134 71.9297 306.535 71.9927C306.787 71.9927 307.039 71.8037 307.102 71.5518C307.669 67.7731 306.535 63.0498 304.898 59.586C304.583 58.8932 303.575 59.523 303.89 60.1528C305.149 62.8609 305.779 66.0727 306.031 69.0957C306.094 69.5995 306.094 70.1033 306.031 70.5442C306.031 70.922 303.449 70.7331 303.134 70.7331C300.867 70.7331 298.6 70.8591 296.333 70.922C295.64 71.048 295.64 72.2446 296.396 72.1816Z" fill="#46AA9E"/>
<path d="M290.098 65.8838C293.184 65.8838 296.27 65.6948 299.355 65.8838C299.67 65.8838 299.922 65.6319 299.922 65.317C299.985 62.6089 299.922 59.8379 299.859 57.1299C299.859 56.3741 298.663 56.3741 298.726 57.1299C298.789 59.8379 298.915 62.6089 298.789 65.317C298.978 65.128 299.167 64.9391 299.355 64.7502C296.27 64.5612 293.184 64.7502 290.098 64.7502C289.342 64.7502 289.342 65.8838 290.098 65.8838Z" fill="#46AA9E"/>
<path d="M284.178 59.0192C286.382 58.7673 288.523 58.7673 290.728 59.1451C290.979 59.2081 291.357 59.0822 291.42 58.7673C291.798 55.9962 290.665 53.4771 290.413 50.7691C290.35 50.0133 289.216 50.0133 289.279 50.7691C289.531 53.3512 290.665 55.8703 290.287 58.4524C290.539 58.3264 290.728 58.2005 290.979 58.0745C288.712 57.6966 286.445 57.6966 284.178 57.8856C283.485 57.9486 283.485 59.0822 284.178 59.0192Z" fill="#46AA9E"/>
<path d="M296.333 56.5001C297.466 56.5001 297.466 54.7997 296.333 54.7997C295.199 54.7997 295.199 56.5001 296.333 56.5001Z" fill="#46AA9E"/>
<path d="M294.254 54.6737C295.388 54.6737 295.388 52.9733 294.254 52.9733C293.121 52.9733 293.184 54.6737 294.254 54.6737Z" fill="#46AA9E"/>
<path d="M296.773 54.1069C297.907 54.1069 297.907 52.4065 296.773 52.4065C295.64 52.4065 295.64 54.1069 296.773 54.1069Z" fill="#46AA9E"/>
<path d="M292.554 72.4965C293.687 72.4965 293.687 70.7961 292.554 70.7961C291.483 70.7961 291.483 72.4965 292.554 72.4965Z" fill="#46AA9E"/>
<path d="M290.287 70.859C291.42 70.859 291.42 69.1586 290.287 69.1586C289.216 69.0957 289.216 70.859 290.287 70.859Z" fill="#46AA9E"/>
<path d="M293.247 69.9774C294.38 69.9774 294.38 68.277 293.247 68.277C292.176 68.214 292.176 69.9774 293.247 69.9774Z" fill="#46AA9E"/>
<path d="M279.454 52.1546C280.588 52.1546 280.588 50.4542 279.454 50.4542C278.321 50.4542 278.321 52.1546 279.454 52.1546Z" fill="#46AA9E"/>
<path d="M280.84 50.8321C281.974 50.8321 281.974 49.1317 280.84 49.1317C279.706 49.1317 279.706 50.8321 280.84 50.8321Z" fill="#46AA9E"/>
<path d="M307.228 59.46C308.361 59.46 308.361 57.7596 307.228 57.7596C306.157 57.7596 306.157 59.46 307.228 59.46Z" fill="#46AA9E"/>
<path d="M305.338 57.9486C306.472 57.9486 306.472 56.2482 305.338 56.2482C304.205 56.2482 304.268 57.9486 305.338 57.9486Z" fill="#46AA9E"/>
<path d="M301.056 80.6836C302.19 80.6836 302.19 78.9832 301.056 78.9832C299.922 78.9832 299.922 80.6836 301.056 80.6836Z" fill="#46AA9E"/>
<path d="M298.789 79.8649C299.922 79.8649 299.922 78.1645 298.789 78.1645C297.655 78.1645 297.655 79.8649 298.789 79.8649Z" fill="#46AA9E"/>
<path d="M365.419 44.7232C344.259 55.7444 322.594 51.147 306.976 45.6679C286.76 38.2995 280.273 22.1771 266.922 7.94412C285.815 2.40207 310.629 3.78759 329.018 11.156C346.022 18.0836 353.391 29.5455 363.971 43.4007" fill="#0B443D"/>
<path d="M279.643 13.5491C294.38 17.0759 307.606 24.9481 321.02 31.6868C333.804 38.1105 347.534 44.0305 362.207 43.4636C362.963 43.4636 362.963 42.2671 362.207 42.33C347.282 42.9598 333.364 36.662 320.327 30.0494C307.291 23.4367 294.38 15.8793 280.021 12.4155C279.266 12.2896 278.951 13.3602 279.643 13.5491Z" fill="#459B97"/>
<path d="M286.256 23.6886C291.798 24.0665 297.277 22.8069 302.819 22.7439C303.26 22.7439 303.512 22.2401 303.323 21.8623C300.993 17.7057 298.348 13.7381 295.514 9.89646C295.073 9.32966 294.065 9.89646 294.506 10.4633C297.34 14.3049 299.985 18.2725 302.315 22.4291C302.504 22.1142 302.63 21.8623 302.819 21.5474C297.277 21.6103 291.798 22.8069 286.256 22.492C285.5 22.492 285.5 23.6256 286.256 23.6886Z" fill="#459B97"/>
<path d="M294.38 31.057C300.867 32.5055 307.795 29.8604 314.029 28.286C314.407 28.223 314.596 27.7821 314.344 27.4672C311.762 23.4367 311.006 18.6503 309.369 14.2419C309.117 13.5491 307.983 13.864 308.235 14.5568C309.999 19.0912 310.754 23.8775 313.337 28.0341C313.463 27.7821 313.588 27.4673 313.651 27.2153C307.606 28.7268 300.93 31.3719 294.632 29.9864C293.939 29.7345 293.624 30.8681 294.38 31.057Z" fill="#459B97"/>
<path d="M309.432 39.748C316.485 38.7403 323.35 36.5991 330.467 36.0953C330.907 36.0953 331.222 35.6544 330.97 35.2136C327.696 29.6085 324.106 24.1295 321.335 18.2095C321.02 17.5168 320.012 18.1466 320.327 18.7763C323.098 24.6963 326.688 30.1753 329.963 35.7804C330.152 35.4655 330.278 35.2136 330.467 34.8987C323.224 35.4025 316.297 37.6067 309.117 38.6144C308.361 38.7403 308.676 39.8739 309.432 39.748Z" fill="#459B97"/>
<path d="M324.925 47.6202C332.356 47.9351 338.906 43.6526 345.77 41.6373C346.148 41.5113 346.337 41.0075 346.022 40.6926C341.74 36.5991 340.417 30.6791 336.89 26.0818C336.449 25.515 335.442 26.0818 335.883 26.6486C339.472 31.3089 340.795 37.3548 345.203 41.5113C345.266 41.1965 345.392 40.8816 345.455 40.5667C338.654 42.582 332.23 46.8645 324.925 46.5496C324.169 46.4236 324.169 47.6202 324.925 47.6202Z" fill="#459B97"/>
<path d="M268.118 86.4776C265.032 84.3363 255.838 75.7713 261.191 72.3705C267.615 68.4029 269 83.0768 268.37 86.4776" fill="#EDF4C3"/>
<path d="M271.708 87.2333C272.338 84.1474 268.496 72.3705 273.849 72.6854C278.321 73.0003 276.746 79.2981 275.676 81.4393C274.479 83.5806 272.59 85.4069 271.519 87.4222" fill="#EDF4C3"/>
<path d="M265.473 102.348C262.576 101.655 254.767 100.018 255.019 95.9872C255.397 90.949 261.632 94.7277 263.143 96.9319C264.214 98.3174 265.221 100.648 265.473 102.222" fill="#EDF4C3"/>
<path d="M272.275 110.85C272.905 109.024 277.187 98.2544 280.084 103.041C282.666 107.197 274.731 111.165 271.96 111.165" fill="#EDF4C3"/>
<path d="M279.203 127.35C274.542 126.091 269.945 120.8 268.874 116.203C267.741 111.417 271.267 106.505 271.96 101.907C272.527 97.7506 271.519 93.72 270.008 89.8784C269.189 87.8631 268.244 85.9107 267.3 83.9584C266.103 81.5023 265.221 78.8572 263.962 76.4011C263.647 75.7083 262.639 76.3381 262.954 76.9679C264.088 79.1721 264.907 81.6282 265.977 83.8325C267.174 86.3516 268.433 88.8077 269.378 91.3898C271.456 96.8059 271.33 102.222 269.189 107.638C267.615 111.606 266.922 115.384 268.874 119.352C270.763 123.194 274.731 127.35 278.951 128.421C279.58 128.61 279.895 127.539 279.203 127.35Z" fill="#0E514A"/>
<path d="M272.653 78.6683C272.086 82.8878 271.771 87.1703 269.945 91.1379C269.63 91.8307 270.638 92.3975 270.952 91.7047C272.842 87.6741 273.157 83.3287 273.786 78.9832C273.849 78.2275 272.779 77.9126 272.653 78.6683Z" fill="#0E514A"/>
<path d="M258.231 97.1208C261.632 100.648 265.536 103.608 270.449 104.489C271.204 104.615 271.456 103.482 270.764 103.356C266.04 102.537 262.324 99.7029 259.05 96.3021C258.546 95.7983 257.727 96.617 258.231 97.1208Z" fill="#0E514A"/>
<path d="M268.307 112.487C272.905 113.117 276.494 108.142 278.636 104.678C279.014 104.048 278.006 103.482 277.628 104.111C275.865 106.945 272.527 111.921 268.622 111.354C267.867 111.291 267.552 112.361 268.307 112.487Z" fill="#0E514A"/>
<path d="M362.207 182.232C330.341 179.335 315.793 147.343 314.911 127.001C314.596 117.617 314.407 72.7767 316.171 71.5172C316.234 71.2023 316.234 71.2023 316.234 71.2023C335.442 79.0745 352.635 96.8973 364.16 113.775C376.314 132.291 371.843 153.325 365.671 173.163C364.789 176.123 363.719 178.706 362.207 182.232Z" fill="#459B97"/>
<path d="M320.201 79.7043C323.791 87.8284 329.207 94.9449 333.301 102.817C337.835 111.571 340.543 121.27 343.629 130.527C346.589 139.407 349.549 148.161 352.131 157.167C354.65 165.669 357.232 174.171 360.759 182.358C361.074 182.169 361.452 181.98 361.767 181.791C361.704 181.666 361.578 181.54 361.515 181.414C361.074 180.784 360.066 181.414 360.507 181.98C360.57 182.106 360.696 182.232 360.759 182.358C361.2 182.988 362.018 182.484 361.767 181.791C358.051 173.226 355.406 164.221 352.761 155.278C350.116 146.272 347.093 137.455 344.133 128.575C341.173 119.695 338.465 110.626 334.245 102.25C330.278 94.3151 324.736 87.2616 321.146 79.1375C320.894 78.4447 319.949 79.0115 320.201 79.7043Z" fill="#11564F"/>
<path d="M318.69 92.048C322.468 94.5671 326.625 96.3934 330.907 97.8419C331.285 97.9679 331.663 97.653 331.663 97.2751C331.663 93.6854 332.23 90.0956 332.545 86.5059C332.608 85.7502 331.474 85.7502 331.411 86.5059C331.096 90.0956 330.53 93.6224 330.53 97.2751C330.781 97.0862 331.033 96.8972 331.285 96.7083C327.066 95.2598 323.035 93.4335 319.319 90.9773C318.627 90.6624 318.06 91.6701 318.69 92.048Z" fill="#11564F"/>
<path d="M318.879 102.061C324.547 105.588 331.033 107.478 337.142 110.123C337.457 110.249 337.898 110.186 337.961 109.808C338.906 105.84 339.598 101.81 340.291 97.7789C340.417 97.0232 339.283 96.7713 339.157 97.4641C338.465 101.495 337.772 105.525 336.827 109.493C337.079 109.367 337.394 109.241 337.646 109.178C331.537 106.533 325.113 104.644 319.382 101.117C318.816 100.676 318.249 101.684 318.879 102.061Z" fill="#11564F"/>
<path d="M318.249 114.09C326.625 116.546 333.993 121.585 342.369 124.041C342.684 124.104 342.999 123.915 343.062 123.663C345.014 117.869 347.408 112.264 348.478 106.218C348.604 105.462 347.471 105.21 347.345 105.903C346.274 111.949 343.881 117.554 341.928 123.348C342.18 123.222 342.369 123.096 342.621 122.97C334.245 120.514 326.877 115.476 318.501 113.02C317.808 112.768 317.556 113.901 318.249 114.09Z" fill="#11564F"/>
<path d="M321.083 126.056C325.239 128.575 329.774 130.087 334.119 132.039C337.457 133.55 340.795 135.755 344.511 136.195C347.597 136.573 349.234 133.55 350.242 131.22C352.194 126.686 354.524 122.466 356.791 118.058C357.106 117.428 356.162 116.798 355.784 117.491C353.894 121.207 351.69 124.733 350.116 128.512C348.667 131.913 347.534 135.944 342.999 134.81C339.661 133.928 336.701 131.85 333.552 130.59C329.522 128.953 325.428 127.379 321.65 125.111C321.02 124.671 320.453 125.678 321.083 126.056Z" fill="#11564F"/>
<path d="M322.783 140.919C326.121 143.627 330.404 144.509 334.434 145.705C339.976 147.343 345.266 149.925 350.808 151.625C351.06 151.688 351.312 151.562 351.438 151.373C355.721 145.201 360.255 138.589 362.333 131.283C362.522 130.59 361.452 130.276 361.2 130.968C360.066 134.936 358.114 138.589 356.036 142.115C354.965 144.005 353.768 145.831 352.572 147.594C352.068 148.35 351.627 149.043 351.123 149.736C350.431 150.806 348.919 149.799 347.974 149.421C343.755 147.909 339.661 146.146 335.379 144.697C331.411 143.375 326.94 142.745 323.602 140.037C323.035 139.596 322.216 140.415 322.783 140.919Z" fill="#11564F"/>
<path d="M327.381 157.671C337.205 160.064 346.211 164.787 355.847 167.747C356.099 167.81 356.35 167.684 356.476 167.495C359.751 161.198 362.081 154.522 364.16 147.783C364.412 147.091 363.278 146.776 363.026 147.469C361.83 151.31 360.507 155.215 359.059 158.993C358.303 160.946 357.421 162.898 356.539 164.787C355.973 165.984 355.91 166.614 354.524 166.173C353.453 165.858 352.446 165.48 351.375 165.102C343.44 162.268 335.82 158.553 327.633 156.6C327.003 156.348 326.688 157.482 327.381 157.671Z" fill="#11564F"/>
<path d="M109.225 153.675C113.067 145.677 115.964 137.427 119.68 129.428C120.435 127.917 122.136 123.446 124.466 123.446C126.922 123.446 125.537 126.972 125.096 128.484C123.584 132.451 122.325 136.608 120.057 141.079C124.214 138.308 131.582 124.201 135.676 126.783C138.888 128.799 133.661 133.207 132.275 134.908C129.819 137.993 127.678 141.331 125.096 144.291C128.496 143.095 133.094 139.568 136.432 137.868C139.014 136.482 142.1 134.026 144.997 134.971C150.035 136.356 142.666 140.639 140.84 141.898C137.754 143.724 133.157 146.81 128.874 148.637C132.842 149.267 139.455 146.181 143.611 146.055C150.035 145.929 150.35 150.337 144.367 152.478C136.873 155.249 129.189 155.564 121.065 155.879C117.538 156.005 112.941 155.879 109.414 155.879" fill="#FFDB69"/>
<path d="M142.1 137.175C135.928 140.639 129.693 143.913 123.584 147.566C120.687 149.267 117.664 150.904 114.578 152.163C112.752 152.919 110.674 153.549 109.162 154.872C108.595 155.375 109.414 156.194 109.981 155.69C111.681 154.179 114.075 153.675 116.153 152.793C119.176 151.471 122.136 149.833 124.97 148.133C130.827 144.669 136.81 141.52 142.729 138.182C143.296 137.805 142.729 136.86 142.1 137.175Z" fill="#FFA522"/>
<path d="M132.464 129.617C128.559 133.837 124.844 138.245 121.317 142.78C117.727 147.503 113.571 151.03 109.036 154.746C108.469 155.186 109.288 156.005 109.855 155.564C113.697 152.415 117.79 149.392 120.813 145.362C124.718 140.135 128.874 135.159 133.346 130.436C133.787 129.869 132.968 129.051 132.464 129.617Z" fill="#FFA522"/>
<path d="M122.828 126.217C121.38 131.192 118.672 135.6 116.72 140.387C114.641 145.362 112.5 150.211 109.036 154.368C108.595 154.935 109.351 155.753 109.855 155.186C113.067 151.282 115.271 146.81 117.223 142.15C119.428 136.923 122.388 132.011 123.962 126.532C124.088 125.776 123.017 125.461 122.828 126.217Z" fill="#FFA522"/>
<path d="M110.17 155.312C112.689 155.438 115.145 154.683 117.601 154.053C120.498 153.297 123.584 152.982 126.544 152.541C129.504 152.038 132.464 151.408 135.424 150.904C138.447 150.4 141.47 149.959 144.367 149.015C145.06 148.763 144.745 147.692 144.052 147.881C138.888 149.644 133.22 150.148 127.93 151.093C124.844 151.66 121.758 152.038 118.672 152.604C115.775 153.108 113.13 154.305 110.17 154.179C109.414 154.116 109.414 155.249 110.17 155.312Z" fill="#FFA522"/>
<path d="M354.776 100.573C346.652 97.0461 338.276 94.464 330.152 91.0632C328.577 90.3705 324.106 88.859 323.98 86.5288C323.854 84.0727 327.444 85.3322 329.018 85.7101C333.049 87.0956 337.268 88.1663 341.803 90.3075C338.906 86.2769 324.484 79.4753 326.94 75.2558C328.829 71.9809 333.427 77.0192 335.19 78.3417C338.339 80.6719 341.803 82.6872 344.825 85.2063C343.44 81.8685 339.787 77.397 337.961 74.1222C336.449 71.5401 333.93 68.5801 334.686 65.6832C335.883 60.5819 340.417 67.7614 341.74 69.5248C343.692 72.5477 346.967 77.0192 348.919 81.2387C349.36 77.2081 346.085 70.7844 345.77 66.6278C345.392 60.2041 349.801 59.7002 352.194 65.6202C355.217 73.0516 355.847 80.6719 356.476 88.796C356.791 92.3228 356.791 96.9202 356.917 100.447" fill="#FFDB69"/>
<path d="M337.016 68.3912C340.732 74.4371 344.259 80.5459 348.1 86.4659C349.864 89.1109 351.564 92.0079 352.887 94.9049C353.768 96.8572 354.461 99.0614 355.973 100.636C356.476 101.203 357.295 100.384 356.791 99.8172C355.28 98.1798 354.587 95.7866 353.642 93.7713C352.257 90.8113 350.431 87.9143 348.604 85.1433C344.888 79.4753 341.551 73.5554 337.961 67.7614C337.646 67.1316 336.638 67.7614 337.016 68.3912Z" fill="#FFA522"/>
<path d="M329.837 78.2788C334.182 82.0574 338.717 85.5842 343.44 88.922C348.289 92.3858 352.005 96.3534 355.91 100.762C356.413 101.329 357.232 100.51 356.728 99.9431C353.391 96.1645 350.179 92.3858 346.085 89.3629C340.795 85.5212 335.631 81.6796 330.655 77.46C330.089 76.9562 329.27 77.7749 329.837 78.2788Z" fill="#FFA522"/>
<path d="M326.751 88.1033C331.789 89.3628 336.324 91.819 341.11 93.7083C346.211 95.6606 351.123 97.55 355.532 100.888C356.099 101.329 356.665 100.321 356.099 99.8801C352.131 96.8572 347.597 94.8419 342.936 93.0785C337.646 91.1262 332.608 88.2922 327.066 86.9697C326.373 86.7807 326.058 87.9144 326.751 88.1033Z" fill="#FFA522"/>
<path d="M356.35 99.6282C356.413 97.0462 355.532 94.716 354.839 92.2598C353.957 89.3629 353.579 86.3399 352.95 83.38C352.32 80.42 351.627 77.523 350.997 74.563C350.368 71.5401 349.864 68.5801 348.73 65.6832C348.478 64.9904 347.345 65.3053 347.597 65.998C349.549 71.0363 350.305 76.7043 351.438 81.9944C352.068 85.0174 352.635 88.1033 353.265 91.1262C353.894 93.9602 355.217 96.6053 355.154 99.5653C355.217 100.321 356.35 100.321 356.35 99.6282Z" fill="#FFA522"/>
<path d="M8.77547 179.627C6.31933 163.379 6.31933 147.446 7.8308 133.276C8.77547 124.962 9.97205 114.571 12.7431 103.802C13.3729 101.283 16.3958 95.2369 19.7966 95.2369C24.394 94.6071 21.9378 107.832 21.623 110.604C20.6783 120.113 17.9702 130.253 18.537 139.762C22.8195 129.056 34.7853 95.8667 42.7835 101.724C48.8924 106.636 36.6747 121.373 33.9036 127.167C31.1326 133.59 28.3616 140.329 26.8501 147.131C32.959 138.566 36.0449 129.308 44.358 122.254C49.5851 117.657 58.465 112.745 54.1825 123.766C48.9554 136.928 41.0201 147.698 38.564 161.49C37.3674 167.032 36.4228 172.511 36.7377 178.053C31.1956 179.627 14.3175 179.312 8.77547 179.627Z" fill="#FF8888"/>
<path d="M39.6346 105.817C31.4475 116.334 26.4093 128.804 23.0085 141.652C21.2451 148.327 20.0485 155.066 19.0409 161.868C18.2222 167.724 17.9073 173.644 16.8996 179.438C16.7737 180.194 17.9073 180.446 18.0332 179.753C18.9779 174.4 19.2298 168.984 19.9855 163.568C20.8672 157.018 22.0638 150.469 23.6383 144.045C26.8501 130.693 31.9513 117.531 40.4534 106.573C40.8942 106.069 40.1385 105.25 39.6346 105.817Z" fill="#A55151"/>
<path d="M50.2149 121.499C36.6747 137.558 30.125 158.53 28.4246 179.186C28.3616 179.942 29.4952 179.942 29.5582 179.186C31.2586 158.845 37.6823 138.125 51.0337 122.317C51.5375 121.751 50.7188 120.932 50.2149 121.499Z" fill="#A55151"/>
<path d="M18.3481 99.8972C14.8843 114.697 12.6801 129.686 11.2946 144.8C10.6019 152.484 10.098 160.167 9.78314 167.787C9.65718 170.307 9.59421 172.763 9.40527 175.282C9.27932 176.541 8.77549 178.557 9.21634 179.753C9.46825 180.446 10.6019 180.131 10.3499 179.438C9.90909 178.242 10.5389 175.975 10.6019 174.715C10.7908 172.07 10.8538 169.488 10.9797 166.843C11.2946 159.474 11.7984 152.106 12.4912 144.738C13.8767 129.749 16.0809 114.823 19.5447 100.149C19.6077 99.4564 18.5371 99.1415 18.3481 99.8972Z" fill="#A55151"/>
<path d="M9.65718 180.572C7.83082 169.551 7.83082 158.719 8.96442 149.146C9.65718 143.541 10.5389 136.424 12.6171 129.182C13.121 127.482 15.0733 121.814 17.8443 123.325C20.8672 124.962 19.4188 131.89 19.2298 133.716C18.5371 140.14 16.4588 147.005 16.9626 153.491C20.1745 146.186 27.8578 121.688 33.7777 125.655C36.8636 127.671 30.4399 141.022 28.3616 144.989C26.2833 149.335 24.268 153.932 23.1344 158.53C27.7318 152.673 30.7548 145.241 35.793 139.321C39.3198 135.165 44.6729 134.913 41.461 142.407C37.5564 151.35 33.6518 158.971 31.8254 168.354C30.8807 172.07 30.251 175.849 30.4399 179.564C26.2833 180.572 13.7507 180.383 9.65718 180.572Z" fill="#A53A3A"/>
<path d="M-2.24568 4.41735C0.525346 -5.09231 2.98148 -19.1994 5.43762 -27.1976C6.0674 -29.6537 9.40523 -40.108 13.1209 -38.2187C15.2622 -37.274 14.3175 -29.3388 14.3175 -27.5124C18.9149 -30.9132 20.1744 -41.9344 25.0237 -45.5871C32.707 -51.444 28.6765 -37.9038 28.9914 -33.6213C35.1002 -38.2187 43.0984 -47.0986 50.1519 -47.4135C59.0318 -47.7283 45.8694 -33.9362 39.1308 -29.3388C42.5316 -29.3388 57.5203 -34.8809 54.1825 -27.8273C51.7264 -21.9704 41.272 -19.8291 33.9666 -17.1211C38.564 -15.2947 54.4974 -12.8386 43.1614 -8.808C37.9342 -6.66676 33.9666 -6.35187 26.9131 -5.4072C28.7394 -2.32129 36.7376 0.449745 31.1956 3.78757C28.4246 5.29905 19.5447 4.41735 16.4588 4.10247C10.6018 3.78757 3.23339 3.47269 -2.24568 4.41735Z" fill="#CFD690"/>
<path d="M-2.49759 5.11011C13.058 -10.3825 30.7547 -23.5448 45.6805 -39.6672C46.1843 -40.234 45.3656 -41.0527 44.8618 -40.4859C29.936 -24.3635 12.2392 -11.2012 -3.3163 4.2914C-3.82012 4.85821 -3.00141 5.61393 -2.49759 5.11011Z" fill="#0E514A"/>
<path d="M276.243 154.053C269.504 153.675 259.742 154.242 254.074 153.864C252.374 153.864 244.88 153.234 245.572 150.463C245.824 148.889 251.303 148.259 252.5 148.007C249.54 145.488 242.046 146.37 238.834 143.661C233.795 139.505 243.368 140.009 246.139 139.19C242.109 135.852 234.992 131.885 233.67 127.287C232.095 121.43 243.305 128.043 247.399 131.822C246.895 129.554 240.912 120.486 246.076 121.619C250.296 122.375 253.382 128.925 256.342 133.396C256.845 130.058 256.027 119.1 260.435 126.028C262.639 129.177 263.458 131.759 265.221 136.293C266.985 134.593 267.552 128.862 270.638 132.011C272.086 133.585 272.842 139.631 273.094 141.709C273.849 145.614 274.794 150.526 276.243 154.053Z" fill="#CFD690"/>
<path d="M276.872 153.927C264.214 145.992 252.689 136.356 239.715 128.925C239.086 128.547 238.519 129.554 239.149 129.932C252.122 137.364 263.647 147.062 276.306 154.935C276.872 155.312 277.502 154.305 276.872 153.927Z" fill="#0E514A"/>
<path d="M244.061 143.032C248.217 141.898 252.563 141.646 256.845 141.52C257.16 141.52 257.538 141.142 257.412 140.764C255.397 135.789 251.807 131.444 248.973 126.909C248.595 126.28 247.588 126.846 247.966 127.476C250.737 131.885 254.326 136.23 256.279 141.079C256.468 140.827 256.656 140.576 256.845 140.324C252.437 140.45 248.029 140.702 243.746 141.835C243.053 142.15 243.368 143.221 244.061 143.032Z" fill="#0E514A"/>
<path d="M253.696 146.621C256.782 145.992 259.994 146.118 263.143 145.677C263.395 145.614 263.584 145.362 263.584 145.11C263.458 140.45 261.506 135.978 260.435 131.507C260.246 130.814 259.176 131.066 259.302 131.822C260.12 135.222 261.254 138.497 262.01 141.898C262.199 142.717 262.324 143.599 262.387 144.48C262.387 144.795 258.987 144.858 258.672 144.858C256.908 144.921 255.145 145.047 253.382 145.425C252.689 145.614 253.004 146.747 253.696 146.621Z" fill="#0E514A"/>
<path d="M259.05 151.786C262.765 151.786 266.481 151.723 270.134 151.534C270.512 151.534 270.764 151.156 270.701 150.778C269.882 146.37 269.504 141.898 268.874 137.49C268.748 136.734 267.678 137.049 267.741 137.805C268.37 142.276 268.748 146.684 269.567 151.093C269.756 150.841 269.945 150.589 270.134 150.337C266.418 150.526 262.702 150.589 259.05 150.589C258.294 150.652 258.294 151.786 259.05 151.786Z" fill="#0E514A"/>
<path d="M34.5964 89.5542C26.0314 93.9627 13.6877 93.9627 7.32697 85.7125C-1.48994 74.4395 10.3499 62.2848 21.1191 58.695C17.5294 54.8534 12.5541 53.153 10.3499 47.6739C8.39759 42.6986 8.14568 35.8341 11.4835 31.4256C20.3004 20.6564 32.3922 24.8129 41.524 31.6775C44.5469 18.4522 60.7952 12.4063 72.635 18.2002C84.223 23.9942 83.9081 36.6528 78.1141 46.2884C87.7497 47.359 100.408 50.4449 98.2041 63.3554C95.7479 76.3288 84.4119 79.3518 73.1389 79.3518C73.3908 86.5313 74.7763 90.9397 72.0053 96.1669C69.5491 100.827 64.0071 104.165 59.0318 104.732C49.1443 106.369 39.4457 98.3711 35.3521 90.4359" fill="#459B97"/>
<path d="M7.89377 182.132C13.1209 118.524 37.8712 75.1952 40.0755 66.9451C42.5316 59.2618 43.9171 42.4467 46.1214 42.9506C49.1443 44.588 46.9401 61.9699 43.9171 72.1723C57.9612 59.5137 67.5968 57.3095 68.7304 59.1989C68.7304 61.4031 55.2531 66.8822 46.9401 76.014C35.9189 86.2164 31.7624 112.1 29.0543 126.711C25.9054 143.337 24.1421 170.229 27.4169 181.754" fill="#724120"/>
<path d="M40.7053 74.6285C37.6193 80.2335 34.7224 85.9015 32.3922 91.8214C32.1403 92.5142 33.2109 92.8291 33.5258 92.1363C35.793 86.2794 38.69 80.6743 41.7129 75.1953C42.0908 74.5655 41.0831 73.9987 40.7053 74.6285Z" fill="#BC8662"/>
<path d="M32.1403 97.1116C31.8254 98.3082 31.3845 99.5047 31.0696 100.701C30.8807 101.394 32.0143 101.709 32.2032 101.016C32.5181 99.8196 32.959 98.623 33.3369 97.4265C33.4628 96.6707 32.3292 96.3558 32.1403 97.1116Z" fill="#BC8662"/>
<path d="M29.6841 95.978C28.6765 99.3158 27.7948 102.591 26.6612 105.865C26.4093 106.558 27.5429 106.873 27.7948 106.18C28.9284 102.906 29.8731 99.5677 30.8177 96.2299C31.0067 95.6001 29.8731 95.2852 29.6841 95.978Z" fill="#BC8662"/>
<path d="M30.6288 104.354C29.1803 109.959 27.9207 115.627 26.6612 121.295C26.4723 121.988 27.6059 122.303 27.7948 121.61C29.0543 115.942 30.3139 110.274 31.7624 104.669C31.8884 103.976 30.8177 103.661 30.6288 104.354Z" fill="#BC8662"/>
<path d="M24.7089 109.77C23.7012 113.801 22.1898 117.705 21.371 121.736C21.2451 122.492 22.3157 122.744 22.5047 122.051C23.3234 117.957 24.7719 114.053 25.7795 110.085C25.9684 109.329 24.8978 109.014 24.7089 109.77Z" fill="#BC8662"/>
<path d="M23.3234 124.633C22.7566 127.404 22.2527 130.112 21.6859 132.883C21.56 133.639 22.6306 133.891 22.8195 133.198C23.3863 130.427 23.8902 127.719 24.457 124.948C24.5829 124.192 23.4493 123.877 23.3234 124.633Z" fill="#BC8662"/>
<path d="M18.663 131.812C16.5217 141.07 15.0733 150.265 14.7584 159.775C14.7584 160.53 15.892 160.53 15.892 159.775C16.1439 150.391 17.5924 141.259 19.7336 132.127C19.9226 131.372 18.7889 131.057 18.663 131.812Z" fill="#BC8662"/>
<path d="M22.8825 136.914C22.1268 142.708 21.497 148.565 20.9302 154.421C20.8672 155.177 22.0008 155.177 22.0638 154.421C22.6306 148.565 23.2604 142.771 24.0161 136.914C24.1421 136.158 22.9455 136.158 22.8825 136.914Z" fill="#BC8662"/>
<path d="M18.9149 160.593C18.9149 162.986 18.9149 165.38 18.9149 167.773C18.9149 168.529 20.0485 168.529 20.0485 167.773C20.0485 165.38 20.0485 162.986 20.0485 160.593C20.0485 159.838 18.9149 159.838 18.9149 160.593Z" fill="#BC8662"/>
<path d="M44.5469 56.05C43.9801 58.6321 43.4763 61.2141 42.9095 63.7962C42.7206 64.489 43.8542 64.8039 44.0431 64.1111C44.6099 61.529 45.1137 58.9469 45.6805 56.3648C45.8065 55.6091 44.6729 55.2942 44.5469 56.05Z" fill="#BC8662"/>
<path d="M48.8294 71.7315C50.4039 70.4089 51.9153 69.0234 53.6787 67.9528C54.3085 67.5749 53.7417 66.5673 53.1119 66.9452C51.2226 68.0158 49.7111 69.5272 48.0107 70.9128C47.4439 71.4166 48.2626 72.2353 48.8294 71.7315Z" fill="#BC8662"/>
<g opacity="0.6">
<path opacity="0.6" d="M11.7354 68.8975C12.1133 68.8975 12.1133 68.3307 11.7354 68.3307C11.3575 68.3307 11.3575 68.8975 11.7354 68.8975Z" fill="#724120"/>
</g>
<g opacity="0.6">
<path opacity="0.6" d="M11.7354 69.1494C12.1133 69.1494 12.1133 68.5826 11.7354 68.5826C11.3575 68.5826 11.3575 69.1494 11.7354 69.1494Z" fill="#724120"/>
</g>
<g opacity="0.6">
<path opacity="0.6" d="M46.3103 91.3176C50.0889 96.1669 57.3944 99.0009 62.3067 94.0886C66.2743 90.121 65.2666 82.8156 63.5032 78.0922C63.2513 78.3441 63.0624 78.5331 62.8105 78.785C69.801 80.2964 76.7286 72.0463 71.0606 66.2524C70.5568 65.7486 69.7381 66.5043 70.2419 67.0711C75.0912 72.0463 68.9823 78.9739 63.0624 77.6514C62.6845 77.5884 62.1807 77.9033 62.3696 78.3441C63.9441 82.6266 64.6998 87.9168 62.3067 92.0733C58.7169 98.3711 50.5298 94.9073 47.066 90.4359C46.6881 89.9321 45.8694 90.7508 46.3103 91.3176Z" fill="#0E514A"/>
</g>
<g opacity="0.6">
<path opacity="0.6" d="M48.5145 84.453C50.4038 85.9645 52.923 86.7202 54.9382 84.9568C57.0165 83.1934 57.5203 80.4224 56.8906 77.8403C56.7016 77.1476 55.631 77.3995 55.757 78.1552C56.7646 82.2488 53.3638 87.0351 49.2702 83.6343C48.7664 83.1305 47.9477 83.9492 48.5145 84.453Z" fill="#0E514A"/>
</g>
<g opacity="0.6">
<path opacity="0.6" d="M57.4573 54.6645C58.9688 46.4144 70.0529 46.0365 71.7533 54.4125C71.8163 54.7274 72.3201 54.9793 72.572 54.7274C75.2801 52.6492 78.492 51.3266 81.8928 52.3972C84.7897 53.2789 86.868 55.924 88.0016 58.5691C89.0722 61.2142 89.3242 64.3631 88.1276 67.0711C86.6791 70.346 83.1523 71.6685 79.7515 71.8574C78.9958 71.9204 78.9958 73.054 79.7515 72.991C83.4042 72.8021 86.868 71.4796 88.8203 68.2047C90.5207 65.3077 90.3318 61.655 89.2612 58.5691C88.1905 55.5461 85.9233 52.6492 82.8374 51.5156C78.9958 50.0041 75.1541 51.3896 72.0052 53.7828C72.2571 53.9087 72.572 54.0347 72.8239 54.0977C72.0052 50.0041 68.9823 47.0441 64.6368 46.9811C60.3543 46.9182 57.0165 50.319 56.2608 54.3496C56.2608 55.1053 57.3314 55.4202 57.4573 54.6645Z" fill="#0E514A"/>
</g>
<g opacity="0.6">
<path opacity="0.6" d="M78.1141 58.8839C79.7515 60.0175 81.0741 62.2218 79.6256 64.0481C79.1847 64.6149 80.0034 65.4336 80.4443 64.8668C82.3336 62.4107 81.0111 59.4507 78.6809 57.8763C78.1141 57.4984 77.4843 58.5061 78.1141 58.8839Z" fill="#0E514A"/>
</g>
<g opacity="0.6">
<path opacity="0.6" d="M51.3485 37.7234C52.797 35.2673 54.8753 33.5039 57.8352 34.3856C60.1654 35.0783 61.9918 37.4085 63.3143 39.3608C63.5662 39.7387 64.07 39.7387 64.3219 39.3608C66.6521 36.149 73.0759 34.0077 73.7057 39.6127C73.7686 40.3685 74.9652 40.3685 74.8393 39.6127C74.0205 32.8111 66.4002 34.5745 63.3143 38.794C63.6292 38.794 64.0071 38.794 64.3219 38.794C62.6215 36.2119 60.3543 33.7558 57.2684 33.063C54.1825 32.3703 51.8523 34.7634 50.4038 37.1566C49.963 37.7864 50.9706 38.3532 51.3485 37.7234Z" fill="#0E514A"/>
</g>
<g opacity="0.6">
<path opacity="0.6" d="M59.7875 27.395C61.6769 25.8206 64.259 25.1908 65.7704 27.584C66.1483 28.2137 67.1559 27.6469 66.7781 27.0172C64.8258 23.9942 61.4879 24.561 58.9688 26.6393C58.402 27.0801 59.2207 27.8359 59.7875 27.395Z" fill="#0E514A"/>
</g>
<g opacity="0.6">
<path opacity="0.6" d="M17.8443 48.0518C15.3881 41.3761 20.6153 35.0154 27.6058 37.7234C27.9837 37.8494 28.4875 37.4085 28.2986 37.0307C27.102 34.0707 29.1173 30.6069 32.5181 31.4256C33.2109 31.6146 33.5258 30.4809 32.833 30.292C28.6765 29.3473 25.5905 33.5039 27.165 37.3455C27.4169 37.0936 27.6058 36.9047 27.8578 36.6528C20.0485 33.5669 13.9396 40.8723 16.7107 48.3667C16.9626 49.0594 18.0962 48.7445 17.8443 48.0518Z" fill="#0E514A"/>
</g>
<g opacity="0.6">
<path opacity="0.6" d="M30.5028 48.7445C30.5658 44.8399 32.7071 42.0059 36.8006 42.1319C37.5564 42.1319 37.5564 40.9983 36.8006 40.9983C32.0773 40.8093 29.4322 44.2101 29.3692 48.7445C29.3692 49.5003 30.5028 49.5003 30.5028 48.7445Z" fill="#0E514A"/>
</g>
<g opacity="0.6">
<path opacity="0.6" d="M35.1632 54.2236C31.6994 54.4125 28.9913 56.4278 27.9207 59.7027C26.8501 62.9146 30.062 65.3707 32.0143 67.323C32.1402 67.0081 32.2662 66.6932 32.3921 66.3154C24.0791 67.197 22.1267 78.4071 28.5505 83.0675C29.1803 83.5083 29.7471 82.5007 29.1173 82.0598C23.7012 78.0922 25.2756 68.1417 32.3921 67.449C32.896 67.386 33.2109 66.8192 32.77 66.4413C31.3845 65.0558 29.6211 63.7333 28.9284 61.8439C27.6688 58.3172 32.2032 55.4832 35.1002 55.3572C35.9189 55.3572 35.9189 54.1606 35.1632 54.2236Z" fill="#0E514A"/>
</g>
<g opacity="0.6">
<path opacity="0.6" d="M16.7736 70.4719C14.5694 73.9987 14.2545 78.2812 17.4034 81.3671C17.9072 81.8709 18.7259 81.0522 18.2221 80.5484C15.4511 77.7773 15.829 74.1876 17.7813 71.0387C18.1591 70.4719 17.1515 69.9051 16.7736 70.4719Z" fill="#0E514A"/>
</g>
<path d="M178.816 139.379C179.949 135.852 179.32 132.074 180.894 128.547C182.028 125.965 184.799 122.06 187.633 125.02C189.522 126.909 189.522 129.995 188.577 132.262C187.57 134.782 184.988 137.49 182.657 138.875C181.272 139.757 179.446 139.631 178.249 140.261" fill="#EDF4C3"/>
<path d="M171.825 141.457C171.384 138.245 170.188 129.995 174.911 129.366C178.501 128.925 177.178 134.089 176.234 135.852C175.604 137.049 174.911 138.434 174.155 139.505C173.463 140.387 172.518 140.89 171.888 141.646" fill="#EDF4C3"/>
<path d="M171.069 146.81C174.596 150.148 180.579 153.045 184.673 148.952C186.625 147.062 187.444 143.347 184.043 142.465C181.398 141.772 178.879 143.473 176.737 144.858C175.037 145.866 173.4 146.936 171.321 146.747" fill="#EDF4C3"/>
<path d="M154.191 147.944C153.058 144.354 154.506 137.175 159.545 137.49C163.827 137.805 160.678 143.032 159.104 144.48C157.781 145.677 155.136 146.37 154.254 147.818" fill="#EDF4C3"/>
<path d="M149.783 162.492C149.72 156.824 152.932 151.471 157.907 148.826C162.064 146.558 167.039 145.929 171.384 144.354C174.722 143.095 177.808 141.394 180.264 138.812C183.035 135.978 184.169 132.388 185.428 128.736C185.68 128.043 184.547 127.728 184.295 128.421C182.846 132.703 181.398 136.419 177.934 139.442C174.722 142.213 170.44 143.599 166.346 144.732C162.19 145.929 157.844 146.936 154.38 149.77C150.665 152.793 148.46 157.832 148.586 162.555C148.649 163.248 149.783 163.248 149.783 162.492Z" fill="#0E514A"/>
<path d="M172.329 143.347C172.896 140.261 173.903 137.238 174.722 134.215C174.911 133.522 173.841 133.207 173.589 133.9C172.707 136.923 171.762 139.946 171.195 143.032C171.069 143.724 172.203 144.039 172.329 143.347Z" fill="#0E514A"/>
<path d="M167.669 145.236C172.014 148.574 179.131 149.141 183.791 146.118C184.421 145.74 183.854 144.732 183.224 145.11C178.879 147.944 172.329 147.377 168.298 144.228C167.669 143.787 167.102 144.795 167.669 145.236Z" fill="#0E514A"/>
<path d="M155.136 150.085C155.01 146.999 156.018 144.102 158.411 142.024C158.978 141.52 158.159 140.702 157.592 141.205C154.947 143.41 153.877 146.684 154.002 150.085C154.002 150.841 155.136 150.841 155.136 150.085Z" fill="#0E514A"/>
<path d="M122.01 110.283C118.987 110.409 114.137 106.882 115.775 103.608C117.097 101.025 119.743 101.844 120.876 104.048C121.821 105.749 122.262 108.079 122.073 110.094" fill="#459B97"/>
<path d="M123.773 107.449C123.08 104.867 122.451 97.2468 127.489 98.9472C132.59 100.711 125.662 106.693 123.899 107.575" fill="#459B97"/>
<path d="M123.647 116.959C124.907 116.707 125.599 115.321 126.292 114.314C127.489 112.676 129.189 109.779 131.456 109.653C134.794 109.527 134.227 113.432 132.527 115.132C131.016 116.707 128.559 117.652 126.418 117.841C125.348 117.904 124.466 117.652 123.521 117.274" fill="#459B97"/>
<path d="M109.162 128.547C114.012 127.728 118.168 124.642 120.624 120.36C123.71 114.944 123.143 108.268 126.418 102.852C126.796 102.222 125.788 101.655 125.411 102.285C122.639 106.945 122.325 112.235 120.687 117.274C118.987 122.564 114.326 126.469 108.847 127.413C108.155 127.602 108.469 128.673 109.162 128.547Z" fill="#0E514A"/>
<path d="M129.567 112.991C128.308 114.881 124.34 117.463 122.01 116.14C121.38 115.762 120.813 116.77 121.443 117.148C124.34 118.848 128.937 116.014 130.575 113.621C131.016 112.991 130.008 112.424 129.567 112.991Z" fill="#0E514A"/>
<path d="M118.042 106.693C119.05 108.583 120.561 110.472 122.702 111.039C123.395 111.228 123.71 110.094 123.017 109.905C121.128 109.401 119.868 107.764 119.05 106.064C118.672 105.497 117.664 106.064 118.042 106.693Z" fill="#0E514A"/>
<path d="M214.209 139.757C211.627 142.528 204.133 143.787 202.684 139.379C201.551 135.852 204.637 134.278 207.66 135.222C210.053 135.915 212.509 137.616 214.146 139.568" fill="#459B97"/>
<path d="M213.328 135.6C210.431 133.9 202.999 127.665 209.045 124.705C215.154 121.682 214.398 133.27 213.58 135.6" fill="#459B97"/>
<path d="M221.704 144.291C222.648 142.969 221.956 141.079 221.704 139.568C221.326 137.049 220.192 132.892 222.145 130.814C224.979 127.665 228.002 131.696 228.002 134.719C228.064 137.49 226.742 140.513 224.979 142.591C224.097 143.599 223.089 144.165 221.893 144.669" fill="#459B97"/>
<path d="M219.059 167.53C222.963 162.051 223.845 154.809 221.452 148.511C218.807 141.646 213.265 136.482 211.438 129.177C211.249 128.484 210.179 128.736 210.305 129.491C211.879 135.852 216.099 140.702 219.122 146.37C222.648 152.919 222.333 160.854 218.051 166.963C217.61 167.593 218.618 168.16 219.059 167.53Z" fill="#0E514A"/>
<path d="M223.656 135.411C224.223 138.308 222.963 144.291 219.562 145.11C218.87 145.299 219.122 146.37 219.877 146.244C223.908 145.236 225.482 138.623 224.727 135.096C224.601 134.404 223.53 134.656 223.656 135.411Z" fill="#0E514A"/>
<path d="M207.534 140.009C210.116 140.827 213.076 141.142 215.532 139.694C216.162 139.316 215.595 138.308 214.965 138.686C212.761 139.946 210.179 139.568 207.849 138.875C207.156 138.686 206.841 139.82 207.534 140.009Z" fill="#0E514A"/>
<path d="M70.3049 122.942C68.6674 113.243 67.2819 99.6399 71.5014 90.3192C74.5244 83.8325 79.8145 78.5423 84.8528 73.882C88.8833 70.0403 92.3471 65.5689 96.3777 61.7272C106.202 84.0214 96.2518 115.825 70.3049 122.942Z" fill="#459B97"/>
<path d="M71.8163 122.627C76.7916 115.888 79.5626 107.827 82.5856 100.081C86.2383 90.7601 91.2765 82.0691 94.5514 72.6224C94.8033 71.9297 93.6697 71.6148 93.4178 72.3075C90.2689 81.3134 85.4825 89.5635 81.9558 98.3804C78.7439 106.442 75.9729 114.944 70.7457 121.997C70.4308 122.627 71.3755 123.194 71.8163 122.627Z" fill="#11564F"/>
<path d="M71.5644 108.331C72.1942 111.48 73.1388 114.503 73.7686 117.652C73.8316 117.904 74.2095 118.155 74.4614 118.03C77.2954 116.833 80.6962 116.959 82.8375 114.44C83.3413 113.873 82.5226 113.054 82.0187 113.621C80.0664 115.888 76.7916 115.825 74.1465 116.896C74.3984 117.022 74.5873 117.148 74.8393 117.274C74.2095 114.125 73.2018 111.102 72.635 107.953C72.572 107.26 71.4384 107.575 71.5644 108.331Z" fill="#11564F"/>
<path d="M74.2095 98.1914C75.595 102.537 76.1618 107.071 76.4137 111.606C76.4137 111.984 76.7916 112.235 77.1694 112.173C80.8222 111.291 84.6008 109.339 87.3719 106.756C87.9387 106.253 87.1199 105.434 86.5531 105.938C83.971 108.394 80.3183 110.22 76.8545 111.039C77.1065 111.228 77.3584 111.417 77.6103 111.606C77.3584 106.945 76.7916 102.348 75.3431 97.8766C75.0912 97.1838 74.0205 97.4357 74.2095 98.1914Z" fill="#11564F"/>
<path d="M78.3031 90.886C79.3107 94.0979 80.3183 97.3097 81.1371 100.585C81.2 100.837 81.452 101.025 81.7039 101.025C85.5455 100.585 89.765 98.2544 92.662 95.7983C93.2288 95.2944 92.4101 94.4757 91.8433 94.9796C89.5761 96.9319 86.6161 98.3804 83.7821 99.388C83.3413 99.577 82.8375 99.7029 82.3336 99.7659C81.9558 99.8289 81.452 97.3097 81.389 97.0578C80.7592 94.8536 80.0664 92.7124 79.4367 90.5711C79.1847 89.8784 78.0511 90.1932 78.3031 90.886Z" fill="#11564F"/>
<path d="M82.7115 83.2027C83.5302 86.1627 84.4749 89.1226 85.1676 92.1456C85.2306 92.4605 85.6085 92.5864 85.8604 92.5234C88.5055 91.8937 91.1505 91.075 93.7326 90.3192C94.4254 90.1303 94.1105 88.9967 93.4177 89.1856C90.7727 90.0043 88.1906 90.7601 85.5455 91.3898C85.7974 91.5158 85.9864 91.6417 86.2383 91.7677C85.6085 88.7448 84.6008 85.8478 83.7821 82.8248C83.6562 82.1951 82.5226 82.447 82.7115 83.2027Z" fill="#11564F"/>
<path d="M87.8127 75.7083C88.6314 77.7866 89.1982 79.8649 89.3871 82.0061C89.3871 82.258 89.6391 82.6359 89.9539 82.5729C92.725 82.1951 94.8662 80.4317 97.3853 79.487C98.0781 79.2351 97.7632 78.1015 97.0704 78.3534C94.6773 79.2351 92.536 81.0615 89.9539 81.3764C90.1429 81.5653 90.3318 81.7542 90.5207 81.9432C90.2688 79.676 89.702 77.4717 88.8833 75.3305C88.6314 74.7007 87.5608 75.0156 87.8127 75.7083Z" fill="#11564F"/>
<path d="M94.2364 87.3592C95.37 87.3592 95.37 85.6588 94.2364 85.6588C93.1028 85.5959 93.1028 87.3592 94.2364 87.3592Z" fill="#11564F"/>
<path d="M95.433 84.9031C96.5666 84.9031 96.5666 83.2027 95.433 83.2027C94.3624 83.2027 94.3624 84.9031 95.433 84.9031Z" fill="#11564F"/>
<path d="M96.6296 87.1073C97.7632 87.1073 97.7632 85.4069 96.6296 85.4069C95.559 85.4069 95.559 87.1073 96.6296 87.1073Z" fill="#11564F"/>
<path d="M77.7992 87.926C78.9328 87.926 78.9328 86.2256 77.7992 86.2256C76.7286 86.2256 76.7286 87.926 77.7992 87.926Z" fill="#11564F"/>
<path d="M78.8069 85.3439C79.9405 85.3439 79.9405 83.6435 78.8069 83.6435C77.7362 83.5806 77.7362 85.3439 78.8069 85.3439Z" fill="#11564F"/>
<path d="M80.4443 87.926C81.5779 87.926 81.5779 86.2256 80.4443 86.2256C79.3107 86.2256 79.3107 87.926 80.4443 87.926Z" fill="#11564F"/>
<path d="M94.0475 69.9144C95.1811 69.9144 95.1811 68.214 94.0475 68.214C92.9139 68.214 92.9139 69.9144 94.0475 69.9144Z" fill="#11564F"/>
<path d="M95.6219 70.922C96.7555 70.922 96.7555 69.2216 95.6219 69.2216C94.5513 69.2216 94.5513 70.922 95.6219 70.922Z" fill="#11564F"/>
<path d="M94.2364 98.6953C95.37 98.6953 95.37 96.9948 94.2364 96.9948C93.1028 96.9319 93.1028 98.6953 94.2364 98.6953Z" fill="#11564F"/>
<path d="M95.2441 96.4281C96.3777 96.4281 96.3777 94.7277 95.2441 94.7277C94.1105 94.7277 94.1105 96.4281 95.2441 96.4281Z" fill="#11564F"/>
<path d="M72.1312 98.2544C73.2648 98.2544 73.2648 96.554 72.1312 96.554C71.0606 96.554 71.0606 98.2544 72.1312 98.2544Z" fill="#11564F"/>
<path d="M72.3831 95.8613C73.5167 95.8613 73.5167 94.1608 72.3831 94.1608C71.2495 94.0979 71.2495 95.8613 72.3831 95.8613Z" fill="#11564F"/>
<path d="M45.3657 118.155C43.0985 118.659 40.7053 118.974 38.69 117.589C36.0449 115.699 36.2968 111.354 37.4304 108.709C38.8789 105.245 41.461 103.356 45.3027 103.167C47.9478 102.978 50.7188 104.552 51.4115 107.323C51.7264 108.331 51.9154 109.779 51.2856 110.598" fill="#BC8662"/>
<path d="M45.6805 115.258C44.358 115.573 42.9725 115.699 41.7759 114.944C40.2014 113.873 40.3904 111.291 41.0202 109.779C41.9018 107.764 43.4133 106.693 45.6175 106.568C47.192 106.442 48.7664 107.386 49.2073 108.961C49.3962 109.527 49.5222 110.409 49.1443 110.85" fill="#EAC4AC"/>
<path d="M103.935 118.155C106.202 118.659 108.595 118.974 110.611 117.589C113.256 115.699 113.004 111.354 111.87 108.709C110.422 105.245 107.84 103.356 103.998 103.167C101.353 102.978 98.582 104.552 97.8892 107.323C97.5743 108.331 97.3854 109.779 98.0152 110.598" fill="#BC8662"/>
<path d="M103.62 115.258C104.943 115.573 106.328 115.699 107.525 114.944C109.099 113.873 108.91 111.291 108.281 109.779C107.399 107.764 105.887 106.693 103.683 106.568C102.109 106.442 100.534 107.386 100.093 108.961C99.9045 109.527 99.7785 110.409 100.156 110.85" fill="#EAC4AC"/>
<path d="M43.0984 112.613C44.7358 113.054 46.3733 113.432 47.9477 114.062C48.1996 114.125 48.3886 113.81 48.2626 113.621C47.192 112.047 46.2473 110.283 46.0584 108.394C45.9954 108.016 45.4286 108.016 45.4916 108.394C45.6805 110.409 46.6252 112.299 47.7588 113.936C47.8847 113.81 47.9477 113.684 48.0737 113.495C46.4992 112.865 44.8618 112.487 43.2244 112.047C42.9095 111.921 42.7206 112.487 43.0984 112.613Z" fill="#BC8662"/>
<path d="M103.242 108.709C102.927 110.535 102.361 112.235 101.794 113.999C101.731 114.188 101.92 114.377 102.172 114.377C103.998 113.873 105.635 112.991 107.399 112.236C107.714 112.11 107.462 111.606 107.084 111.732C105.384 112.424 103.809 113.306 102.046 113.81C102.172 113.936 102.298 114.062 102.424 114.188C102.99 112.424 103.557 110.724 103.872 108.961C103.872 108.457 103.305 108.331 103.242 108.709Z" fill="#BC8662"/>
<path d="M79.0588 101.718C66.7781 100.711 56.4497 104.111 50.8447 109.213C46.3733 113.306 42.9095 116.707 39.5087 121.745C37.9972 123.949 31.6364 133.144 32.7071 135.663C33.1479 136.419 36.8636 136.356 37.6823 136.923C33.8407 140.009 32.1403 143.598 29.5582 148.385C30.5658 148.385 32.1403 148.322 33.5258 148.259C29.8101 155.501 28.9284 165.767 28.9284 173.828C28.9284 186.864 40.2644 197.759 52.4191 200.971C64.7628 203.931 76.3507 203.427 88.6944 200.908C98.7079 198.641 110.611 194.17 115.46 184.723C122.577 171.309 121.632 160.288 114.956 147.251C116.342 146.999 118.105 147.188 119.491 146.936C118.231 144.228 114.2 140.764 111.744 138.875C112.689 138.056 116.216 137.364 116.783 136.356C117.16 135.348 115.019 130.877 114.452 129.932C110.674 123.068 102.801 104.174 79.0588 101.718Z" fill="#DDB597"/>
<path d="M76.7916 124.327C71.6904 123.949 65.7705 125.902 62.3697 127.476C56.8276 130.247 51.7264 134.971 48.7664 140.072C42.6576 150.526 39.8866 164.948 43.6652 176.536C48.0107 190.139 58.7799 194.296 71.0606 194.296C84.6638 194.296 99.8415 192.721 105.384 174.961C109.288 162.492 100.471 125.902 76.7916 124.327Z" fill="#FFE5D4"/>
<path d="M68.1007 132.577C67.6598 132.577 67.6598 133.27 68.1007 133.27C68.5415 133.27 68.5415 132.577 68.1007 132.577Z" fill="#724120"/>
<path d="M70.8717 130.121C70.4309 130.121 70.4309 130.814 70.8717 130.814C71.3755 130.877 71.3755 130.121 70.8717 130.121Z" fill="#724120"/>
<path d="M71.1866 133.27C70.7457 133.27 70.7457 133.963 71.1866 133.963C71.6274 134.026 71.6274 133.27 71.1866 133.27Z" fill="#724120"/>
<path d="M83.1524 132.577C83.5932 132.577 83.5932 133.27 83.1524 133.27C82.6486 133.27 82.6486 132.577 83.1524 132.577Z" fill="#724120"/>
<path d="M80.3184 130.121C80.7592 130.121 80.7592 130.814 80.3184 130.814C79.8775 130.877 79.8775 130.121 80.3184 130.121Z" fill="#724120"/>
<path d="M80.0035 133.27C80.4443 133.27 80.4443 133.963 80.0035 133.963C79.5626 134.026 79.5626 133.27 80.0035 133.27Z" fill="#724120"/>
<path d="M60.6063 122.753C60.6063 121.556 60.6693 118.155 62.6216 118.47C64.0071 118.659 64.1331 121.43 64.196 122.438C64.259 123.572 65.9594 123.572 65.8964 122.438C65.7705 120.423 65.3296 117.148 62.8735 116.77C59.5357 116.266 58.8429 120.297 58.8429 122.753C58.9059 123.886 60.6063 123.886 60.6063 122.753Z" fill="#562D11"/>
<path d="M85.2936 122.753C85.2936 121.556 85.3566 118.155 87.3089 118.47C88.6944 118.659 88.8204 121.43 88.8833 122.438C88.9463 123.572 90.6467 123.572 90.5837 122.438C90.4578 120.423 90.0169 117.148 87.5608 116.77C84.223 116.266 83.5302 120.297 83.5302 122.753C83.5302 123.886 85.2936 123.886 85.2936 122.753Z" fill="#562D11"/>
<path d="M47.066 127.98C49.6481 127.98 52.1672 127.98 54.7493 127.98C55.1272 127.98 55.1272 127.413 54.7493 127.413C52.1672 127.413 49.6481 127.413 47.066 127.413C46.6882 127.413 46.6882 127.98 47.066 127.98Z" fill="#724120"/>
<path d="M49.4592 123.446C51.2226 124.264 52.9859 125.146 54.7493 125.965C55.0642 126.154 55.3791 125.65 55.0642 125.461C53.3008 124.642 51.5375 123.76 49.7741 122.942C49.4592 122.753 49.1443 123.257 49.4592 123.446Z" fill="#724120"/>
<path d="M50.3409 132.325C51.8523 131.444 53.3638 130.499 54.8753 129.617C55.1902 129.428 54.8753 128.925 54.5604 129.114C53.0489 129.995 51.5375 130.94 50.026 131.822C49.7111 132.074 50.026 132.514 50.3409 132.325Z" fill="#724120"/>
<path d="M100.093 127.413C97.5113 127.413 94.9922 127.413 92.4101 127.413C92.0322 127.413 92.0322 127.98 92.4101 127.98C94.9922 127.98 97.5113 127.98 100.093 127.98C100.471 127.98 100.471 127.413 100.093 127.413Z" fill="#724120"/>
<path d="M97.3224 122.942C95.559 123.76 93.7956 124.642 92.0323 125.461C91.7174 125.65 91.9693 126.091 92.3472 125.965C94.1105 125.146 95.8739 124.264 97.6373 123.446C97.9522 123.257 97.7003 122.753 97.3224 122.942Z" fill="#724120"/>
<path d="M97.0705 131.885C95.559 131.003 94.0475 130.058 92.5361 129.177C92.2212 128.988 91.9063 129.491 92.2212 129.68C93.7326 130.562 95.2441 131.507 96.7556 132.388C97.0705 132.514 97.3854 132.074 97.0705 131.885Z" fill="#724120"/>
<path d="M76.1618 128.484C76.2248 130.94 76.2878 133.774 74.1465 135.411C73.8316 137.93 74.1465 138.749 74.3355 140.513C74.9023 140.639 76.7286 140.639 78.7439 140.513C78.9328 139.064 78.9958 137.868 78.9958 135.789C75.9099 133.963 76.3508 129.743 76.2248 128.295" fill="#FFFEFD"/>
<path d="M75.4061 127.665C75.847 130.436 75.721 133.837 73.0129 135.474C70.4309 137.049 65.8964 135.537 65.7705 132.262C65.7705 131.507 64.5739 131.507 64.6369 132.262C64.7628 136.104 68.7934 137.616 72.1313 137.049C76.6027 136.23 77.0435 131.003 76.5397 127.413C76.3508 126.594 75.2802 126.909 75.4061 127.665Z" fill="#724120"/>
<path d="M75.658 128.295C75.847 132.2 76.0989 135.663 80.3814 136.923C83.9711 137.993 87.057 135.159 87.6238 131.759C87.7498 131.003 86.6162 130.751 86.4902 131.444C85.9234 134.719 83.3413 136.608 80.0665 135.6C76.7287 134.593 76.9176 131.003 76.7286 128.232C76.7916 127.539 75.595 127.539 75.658 128.295Z" fill="#724120"/>
<path d="M76.0359 128.988C74.5874 128.295 66.1484 125.272 69.2343 123.446C70.6198 122.564 74.0836 122.942 75.658 122.942C77.1065 122.942 80.5073 122.438 81.7039 123.131C84.286 124.642 77.4844 128.673 76.0359 128.988Z" fill="#562D11"/>
<path d="M38.564 130.688C38.564 131.318 38.564 131.885 38.564 132.514C38.564 132.892 39.1308 132.892 39.1308 132.514C39.1308 131.885 39.1308 131.318 39.1308 130.688C39.1308 130.373 38.564 130.373 38.564 130.688Z" fill="#BC8662"/>
<path d="M40.2644 130.688C40.2644 131.192 40.2644 131.759 40.2644 132.262C40.2644 132.64 40.8312 132.64 40.8312 132.262C40.8312 131.759 40.8312 131.192 40.8312 130.688C40.8312 130.373 40.2644 130.373 40.2644 130.688Z" fill="#BC8662"/>
<path d="M39.1938 133.585C39.1938 134.026 39.1938 134.467 39.1938 134.908C39.1938 135.285 39.7606 135.285 39.7606 134.908C39.7606 134.467 39.7606 134.026 39.7606 133.585C39.7606 133.207 39.1938 133.207 39.1938 133.585Z" fill="#BC8662"/>
<path d="M53.3639 110.22C53.3639 110.724 53.3639 111.291 53.3639 111.795C53.3639 112.173 53.9307 112.173 53.9307 111.795C53.9307 111.291 53.9307 110.724 53.9307 110.22C53.9936 109.842 53.3639 109.842 53.3639 110.22Z" fill="#BC8662"/>
<path d="M55.2532 109.842C55.2532 110.346 55.2532 110.787 55.2532 111.291C55.2532 111.669 55.82 111.669 55.82 111.291C55.82 110.787 55.82 110.346 55.82 109.842C55.82 109.464 55.2532 109.464 55.2532 109.842Z" fill="#BC8662"/>
<path d="M54.3085 112.991C54.3085 113.369 54.3085 113.81 54.3085 114.188C54.3085 114.566 54.8753 114.566 54.8753 114.188C54.8753 113.81 54.8753 113.369 54.8753 112.991C54.8753 112.613 54.3085 112.613 54.3085 112.991Z" fill="#BC8662"/>
<path d="M87.057 108.205C87.057 108.835 87.057 109.402 87.057 110.031C87.057 110.409 87.6238 110.409 87.6238 110.031C87.6238 109.402 87.6238 108.835 87.6238 108.205C87.6238 107.89 87.057 107.89 87.057 108.205Z" fill="#BC8662"/>
<path d="M89.1353 108.52C89.1353 109.087 89.1353 109.653 89.1353 110.22C89.1353 110.598 89.7021 110.598 89.7021 110.22C89.7021 109.653 89.7021 109.087 89.7021 108.52C89.7021 108.142 89.1353 108.142 89.1353 108.52Z" fill="#BC8662"/>
<path d="M88.3795 111.795C88.3795 112.173 88.3795 112.613 88.3795 112.991C88.3795 113.369 88.9463 113.369 88.9463 112.991C88.9463 112.613 88.9463 112.173 88.9463 111.795C88.9463 111.417 88.3795 111.417 88.3795 111.795Z" fill="#BC8662"/>
<path d="M104.943 129.24C104.943 129.932 104.943 130.625 104.943 131.318C104.943 131.696 105.51 131.696 105.51 131.318C105.51 130.625 105.51 129.932 105.51 129.24C105.51 128.925 104.943 128.925 104.943 129.24Z" fill="#BC8662"/>
<path d="M106.769 129.68C106.769 130.184 106.769 130.751 106.769 131.255C106.769 131.633 107.336 131.633 107.336 131.255C107.336 130.751 107.336 130.184 107.336 129.68C107.336 129.303 106.769 129.303 106.769 129.68Z" fill="#BC8662"/>
<path d="M106.265 132.829C106.265 133.333 106.265 133.9 106.265 134.404C106.265 134.782 106.832 134.782 106.832 134.404C106.832 133.9 106.832 133.333 106.832 132.829C106.832 132.451 106.265 132.451 106.265 132.829Z" fill="#BC8662"/>
<path d="M106.769 147.944C106.769 148.511 106.769 149.078 106.769 149.644C106.769 150.022 107.336 150.022 107.336 149.644C107.336 149.078 107.336 148.511 107.336 147.944C107.336 147.566 106.769 147.566 106.769 147.944Z" fill="#BC8662"/>
<path d="M108.595 148.07C108.595 148.637 108.595 149.204 108.595 149.77C108.595 150.148 109.162 150.148 109.162 149.77C109.162 149.204 109.162 148.637 109.162 148.07C109.162 147.692 108.595 147.692 108.595 148.07Z" fill="#BC8662"/>
<path d="M39.4457 147.566C39.4457 148.196 39.4457 148.889 39.4457 149.518C39.4457 149.896 40.0125 149.896 40.0125 149.518C40.0125 148.889 40.0125 148.196 40.0125 147.566C40.0125 147.188 39.4457 147.188 39.4457 147.566Z" fill="#BC8662"/>
<path d="M41.2721 147.944C41.2721 148.574 41.2721 149.267 41.2721 149.896C41.2721 150.274 41.8389 150.274 41.8389 149.896C41.8389 149.267 41.8389 148.574 41.8389 147.944C41.9018 147.566 41.2721 147.566 41.2721 147.944Z" fill="#BC8662"/>
<path d="M32.2032 161.61C32.2032 162.366 32.2032 163.122 32.2032 163.814C32.2032 164.192 32.77 164.192 32.77 163.814C32.77 163.059 32.77 162.303 32.77 161.61C32.833 161.232 32.2032 161.232 32.2032 161.61Z" fill="#BC8662"/>
<path d="M33.9666 161.862C33.9666 162.492 33.9666 163.185 33.9666 163.814C33.9666 164.192 34.5334 164.192 34.5334 163.814C34.5334 163.185 34.5334 162.492 34.5334 161.862C34.5334 161.484 33.9666 161.484 33.9666 161.862Z" fill="#BC8662"/>
<path d="M38.2491 176.347C38.2491 176.977 38.2491 177.67 38.2491 178.299C38.2491 178.677 38.8159 178.677 38.8159 178.299C38.8159 177.67 38.8159 176.977 38.8159 176.347C38.8789 175.969 38.2491 175.969 38.2491 176.347Z" fill="#BC8662"/>
<path d="M40.2644 176.347C40.2644 176.977 40.2644 177.544 40.2644 178.173C40.2644 178.551 40.8312 178.551 40.8312 178.173C40.8312 177.544 40.8312 176.977 40.8312 176.347C40.8312 175.969 40.2644 175.969 40.2644 176.347Z" fill="#BC8662"/>
<path d="M110.989 167.782C110.989 168.412 110.989 169.105 110.989 169.734C110.989 170.112 111.555 170.112 111.555 169.734C111.555 169.105 111.555 168.412 111.555 167.782C111.555 167.404 110.989 167.404 110.989 167.782Z" fill="#BC8662"/>
<path d="M113.067 167.908C113.067 168.475 113.067 169.042 113.067 169.608C113.067 169.986 113.634 169.986 113.634 169.608C113.634 169.042 113.634 168.475 113.634 167.908C113.634 167.53 113.067 167.53 113.067 167.908Z" fill="#BC8662"/>
<path d="M73.8946 112.991C73.8946 113.621 73.8946 114.188 73.8946 114.818C73.8946 115.195 74.4614 115.195 74.4614 114.818C74.4614 114.188 74.4614 113.621 74.4614 112.991C74.4614 112.613 73.8946 112.613 73.8946 112.991Z" fill="#BC8662"/>
<path d="M75.3431 113.495C75.3431 113.936 75.3431 114.377 75.3431 114.818C75.3431 115.195 75.9099 115.195 75.9099 114.818C75.9099 114.377 75.9099 113.936 75.9099 113.495C75.9099 113.117 75.3431 113.117 75.3431 113.495Z" fill="#BC8662"/>
<path d="M291.987 93.2792C286.445 96.0502 279.077 90.7601 282.792 84.5252C287.138 76.9049 298.915 78.9832 297.718 87.7371" fill="#9B633D"/>
<path d="M292.176 91.7677C289.153 93.2792 285.122 90.3822 287.138 86.9814C289.531 82.8248 295.892 83.9584 295.262 88.7448" fill="#DDB597"/>
<path d="M325.554 92.3975C331.096 95.1685 338.465 89.8784 334.749 83.6436C330.404 76.0232 318.627 78.1015 319.823 86.8554" fill="#9B633D"/>
<path d="M325.428 90.949C328.451 92.4605 332.482 89.5635 330.467 86.1627C328.073 82.0061 321.713 83.1397 322.342 87.926" fill="#DDB597"/>
<path d="M312.959 83.7065C286.76 79.613 273.535 118.218 272.401 144.984C272.086 155.753 274.794 165.452 281.155 173.198C288.082 181.511 297.466 183.275 306.661 184.408C319.571 185.731 341.299 179.874 345.14 162.177C350.305 136.419 338.591 86.9184 312.959 83.7065Z" fill="#BC8662"/>
<path d="M308.55 99.9548C300.489 99.7029 291.546 114.188 294.947 122.942C298.411 131.696 322.342 132.388 324.862 122.501C326.247 117.652 323.728 112.361 321.902 108.457C318.69 102.033 315.478 99.9548 308.55 99.9548Z" fill="#F4C19F"/>
<path d="M313.526 98.3804C311.069 98.1285 308.55 97.8766 306.157 98.6953C305.464 98.9472 305.338 100.018 305.842 100.459C306.724 101.403 307.795 101.844 308.928 102.348C309.621 102.789 310.377 103.104 311.258 102.852C312.581 102.411 314.092 101.214 314.596 99.8918C314.848 99.1991 314.218 98.4434 313.526 98.3804Z" fill="#723F1C"/>
<path d="M301.308 95.2945C299.167 95.1685 298.6 98.5064 299.167 100.018C299.418 100.711 300.552 100.396 300.3 99.7029C299.985 98.8212 300.111 96.4911 301.371 96.4281C302.441 96.3651 302.567 98.8212 302.567 99.514C302.567 100.27 303.701 100.27 303.701 99.514C303.575 98.0025 303.26 95.4204 301.308 95.2945Z" fill="#723F1C"/>
<path d="M318.438 95.2945C316.297 95.1685 315.73 98.5064 316.297 100.018C316.548 100.711 317.682 100.396 317.43 99.7029C317.115 98.8212 317.241 96.4911 318.501 96.4281C319.571 96.3651 319.697 98.8212 319.697 99.514C319.697 100.27 320.831 100.27 320.831 99.514C320.768 98.0025 320.453 95.4204 318.438 95.2945Z" fill="#723F1C"/>
<path d="M310.44 101.214C310.44 103.356 310.692 105.56 310.566 107.701C310.44 109.905 309.18 112.676 306.472 112.298C304.772 112.047 304.457 109.905 304.268 108.583C304.205 108.205 303.638 108.394 303.701 108.709C304.079 111.417 305.779 113.936 308.802 112.424C312.455 110.598 311.006 104.363 311.069 101.214C311.006 100.837 310.44 100.837 310.44 101.214Z" fill="#723F1C"/>
<path d="M310.503 108.646C310.566 110.787 311.951 112.991 314.344 112.613C316.737 112.173 317.43 109.59 316.8 107.512C316.674 107.134 316.108 107.323 316.234 107.638C316.737 109.276 316.422 111.417 314.533 111.984C312.392 112.613 311.132 110.472 311.069 108.646C311.069 108.268 310.503 108.268 310.503 108.646Z" fill="#723F1C"/>
<path d="M304.898 105.875C304.331 105.875 304.331 106.819 304.898 106.819C305.464 106.756 305.464 105.875 304.898 105.875Z" fill="#723F1C"/>
<path d="M307.291 103.922C306.724 103.922 306.724 104.867 307.291 104.867C307.857 104.867 307.857 103.922 307.291 103.922Z" fill="#723F1C"/>
<path d="M307.48 107.008C306.913 107.008 306.913 107.953 307.48 107.953C308.109 107.953 308.109 107.008 307.48 107.008Z" fill="#723F1C"/>
<path d="M313.463 107.26C312.896 107.26 312.896 108.205 313.463 108.205C314.092 108.142 314.092 107.26 313.463 107.26Z" fill="#723F1C"/>
<path d="M313.714 103.671C313.148 103.671 313.148 104.615 313.714 104.615C314.281 104.552 314.281 103.671 313.714 103.671Z" fill="#723F1C"/>
<path d="M316.36 104.867C315.793 104.867 315.793 105.812 316.36 105.812C316.989 105.812 316.989 104.867 316.36 104.867Z" fill="#723F1C"/>
<path d="M288.46 100.396C288.46 101.088 288.46 101.844 288.46 102.537C288.46 102.852 288.901 102.852 288.901 102.537C288.901 101.844 288.901 101.088 288.901 100.396C288.964 100.144 288.46 100.144 288.46 100.396Z" fill="#9B633D"/>
<path d="M290.413 100.585C290.413 101.151 290.413 101.655 290.413 102.222C290.413 102.537 290.853 102.537 290.853 102.222C290.853 101.655 290.853 101.151 290.853 100.585C290.853 100.27 290.413 100.27 290.413 100.585Z" fill="#9B633D"/>
<path d="M289.405 103.796C289.405 104.174 289.405 104.615 289.405 104.993C289.405 105.308 289.846 105.308 289.846 104.993C289.846 104.552 289.846 104.174 289.846 103.796C289.846 103.482 289.405 103.482 289.405 103.796Z" fill="#9B633D"/>
<path d="M307.669 88.8707C307.669 89.4375 307.669 89.9413 307.669 90.5081C307.669 90.823 308.109 90.823 308.109 90.5081C308.109 89.9413 308.109 89.4375 308.109 88.8707C308.109 88.5558 307.669 88.5558 307.669 88.8707Z" fill="#9B633D"/>
<path d="M309.621 88.5558C309.621 89.0596 309.621 89.5635 309.621 90.0673C309.621 90.3822 310.062 90.3822 310.062 90.0673C310.062 89.5635 310.062 89.0596 310.062 88.5558C310.125 88.2409 309.621 88.2409 309.621 88.5558Z" fill="#9B633D"/>
<path d="M308.928 91.5158C308.928 91.8937 308.928 92.2085 308.928 92.5864C308.928 92.9013 309.369 92.9013 309.369 92.5864C309.369 92.2085 309.369 91.8937 309.369 91.5158C309.432 91.2009 308.928 91.2009 308.928 91.5158Z" fill="#9B633D"/>
<path d="M330.026 102.663C330.026 103.23 330.026 103.733 330.026 104.3C330.026 104.615 330.467 104.615 330.467 104.3C330.467 103.733 330.467 103.23 330.467 102.663C330.529 102.348 330.026 102.348 330.026 102.663Z" fill="#9B633D"/>
<path d="M332.167 102.663C332.167 103.167 332.167 103.671 332.167 104.174C332.167 104.489 332.608 104.489 332.608 104.174C332.608 103.671 332.608 103.167 332.608 102.663C332.671 102.348 332.167 102.348 332.167 102.663Z" fill="#9B633D"/>
<path d="M331.348 105.56C331.348 105.875 331.348 106.19 331.348 106.505C331.348 106.819 331.789 106.819 331.789 106.505C331.789 106.19 331.789 105.875 331.789 105.56C331.789 105.245 331.348 105.245 331.348 105.56Z" fill="#9B633D"/>
<path d="M281.659 117.148C281.659 117.715 281.659 118.344 281.659 118.911C281.659 119.226 282.1 119.226 282.1 118.911C282.1 118.344 282.1 117.715 282.1 117.148C282.1 116.833 281.659 116.833 281.659 117.148Z" fill="#9B633D"/>
<path d="M284.997 117.085C284.997 117.589 284.997 118.029 284.997 118.533C284.997 118.848 285.437 118.848 285.437 118.533C285.437 118.029 285.437 117.589 285.437 117.085C285.5 116.77 284.997 116.77 284.997 117.085Z" fill="#9B633D"/>
<path d="M284.115 122.879C284.115 123.32 284.115 123.823 284.115 124.264C284.115 124.579 284.556 124.579 284.556 124.264C284.556 123.823 284.556 123.32 284.556 122.879C284.556 122.627 284.115 122.627 284.115 122.879Z" fill="#9B633D"/>
<path d="M335.001 118.722C335.001 119.415 335.001 120.108 335.001 120.801C335.001 121.115 335.442 121.115 335.442 120.801C335.442 120.108 335.442 119.415 335.442 118.722C335.505 118.47 335.001 118.47 335.001 118.722Z" fill="#9B633D"/>
<path d="M337.835 119.73C337.835 120.234 337.835 120.675 337.835 121.178C337.835 121.493 338.276 121.493 338.276 121.178C338.276 120.675 338.276 120.234 338.276 119.73C338.339 119.478 337.835 119.478 337.835 119.73Z" fill="#9B633D"/>
<path d="M337.016 123.068C337.016 123.383 337.016 123.76 337.016 124.075C337.016 124.39 337.457 124.39 337.457 124.075C337.457 123.76 337.457 123.383 337.457 123.068C337.457 122.753 337.016 122.753 337.016 123.068Z" fill="#9B633D"/>
<path d="M296.144 136.167C296.144 136.671 296.144 137.175 296.144 137.679C296.144 137.993 296.584 137.993 296.584 137.679C296.584 137.175 296.584 136.671 296.584 136.167C296.584 135.852 296.144 135.852 296.144 136.167Z" fill="#9B633D"/>
<path d="M299.041 136.167C299.041 136.734 299.041 137.364 299.041 137.93C299.041 138.245 299.481 138.245 299.481 137.93C299.481 137.364 299.481 136.734 299.481 136.167C299.544 135.852 299.041 135.852 299.041 136.167Z" fill="#9B633D"/>
<path d="M323.602 137.616C323.602 138.119 323.602 138.56 323.602 139.064C323.602 139.379 324.043 139.379 324.043 139.064C324.043 138.56 324.043 138.119 324.043 137.616C324.043 137.301 323.602 137.301 323.602 137.616Z" fill="#9B633D"/>
<path d="M326.184 137.679C326.184 138.182 326.184 138.623 326.184 139.127C326.184 139.442 326.625 139.442 326.625 139.127C326.625 138.623 326.625 138.182 326.625 137.679C326.688 137.427 326.184 137.427 326.184 137.679Z" fill="#9B633D"/>
<path d="M309.999 147.188C309.999 147.629 309.999 148.133 309.999 148.574C309.999 148.889 310.44 148.889 310.44 148.574C310.44 148.133 310.44 147.629 310.44 147.188C310.503 146.936 309.999 146.936 309.999 147.188Z" fill="#9B633D"/>
<path d="M311.951 147.125C311.951 147.566 311.951 148.07 311.951 148.511C311.951 148.826 312.392 148.826 312.392 148.511C312.392 148.07 312.392 147.566 312.392 147.125C312.392 146.81 311.951 146.81 311.951 147.125Z" fill="#9B633D"/>
<path d="M276.054 144.984C276.054 145.551 276.054 146.118 276.054 146.684C276.054 146.999 276.495 146.999 276.495 146.684C276.495 146.118 276.495 145.551 276.495 144.984C276.495 144.669 276.054 144.669 276.054 144.984Z" fill="#9B633D"/>
<path d="M278.321 144.984C278.321 145.425 278.321 145.866 278.321 146.307C278.321 146.621 278.762 146.621 278.762 146.307C278.762 145.866 278.762 145.425 278.762 144.984C278.825 144.669 278.321 144.669 278.321 144.984Z" fill="#9B633D"/>
<path d="M339.535 145.803C339.535 146.307 339.535 146.747 339.535 147.251C339.535 147.566 339.976 147.566 339.976 147.251C339.976 146.747 339.976 146.307 339.976 145.803C340.039 145.551 339.535 145.551 339.535 145.803Z" fill="#9B633D"/>
<path d="M341.173 145.803C341.173 146.244 341.173 146.684 341.173 147.125C341.173 147.44 341.614 147.44 341.614 147.125C341.614 146.684 341.614 146.244 341.614 145.803C341.614 145.551 341.173 145.551 341.173 145.803Z" fill="#9B633D"/>
<path d="M359.373 16.9499C351.438 12.8564 340.921 9.77046 332.356 6.99943C328.325 5.86583 316.296 4.41735 323.224 11.03C326.94 14.4938 333.804 17.0129 338.654 18.4614C334.938 18.1465 308.676 13.4862 309.747 22.492C310.314 27.3413 332.671 27.6562 340.669 27.0894C332.923 29.9234 324.358 30.8051 319.193 31.9387C310.314 33.6391 311.447 39.685 321.209 39.1182C332.797 38.4254 347.533 35.4025 358.681 32.8204L359.373 25.263V16.9499Z" fill="#FF8888"/>
<path d="M359.373 19.721C347.974 18.2725 336.009 14.8087 326.31 8.57389C325.68 8.19602 325.113 9.1407 325.743 9.58154C335.568 15.9423 347.722 19.4691 359.373 20.9176V19.721Z" fill="#A55151"/>
<path d="M359.373 23.7516C344.762 19.595 329.018 21.1065 314.029 21.1065C313.273 21.1065 313.273 22.2401 314.029 22.2401C329.018 22.2401 344.762 20.6656 359.373 24.9481V23.7516Z" fill="#A55151"/>
<path d="M359.373 29.9234C346.085 29.9864 333.175 32.8834 320.138 35.4025C319.382 35.5284 319.697 36.662 320.453 36.5361C333.363 34.0799 346.148 31.183 359.373 31.12V29.9234Z" fill="#A55151"/>
<path d="M359.373 20.4137C354.524 17.9576 348.226 16.1312 343.062 14.4938C340.606 13.8011 333.238 12.9194 337.457 16.9499C339.724 19.0282 343.944 20.6656 346.967 21.5473C344.7 21.3584 328.577 18.4614 329.207 24.0035C329.585 26.9634 343.251 27.1524 348.163 26.8375C343.44 28.6009 338.15 29.1047 335.001 29.7974C329.585 30.8681 330.278 34.5208 336.26 34.2059C343.377 33.7651 352.446 31.9387 359.247 30.3642L359.373 28.7898V20.4137Z" fill="#A53A3A"/>
<path d="M194.308 100.558C194.308 107.674 188.514 113.468 181.398 113.468C174.281 113.468 168.487 107.674 168.487 100.558C168.487 93.4411 174.281 87.6472 181.398 87.6472C188.514 87.7101 194.308 93.4411 194.308 100.558Z" fill="#FFDB69"/>
<path d="M190.026 100.558C189.837 105.407 186.247 108.997 181.398 109.186C176.549 109.375 172.896 105.155 172.77 100.558C172.581 95.7083 176.8 92.0556 181.398 91.9296C186.247 91.8037 189.9 96.0232 190.026 100.558C190.026 101.313 191.222 101.313 191.159 100.558C190.97 95.0785 186.814 90.985 181.398 90.796C175.919 90.6071 171.762 95.3934 171.636 100.558C171.447 106.037 176.234 110.13 181.398 110.319C186.877 110.508 190.97 105.722 191.159 100.558C191.222 99.8649 190.089 99.8649 190.026 100.558Z" fill="#FFA522"/>
<path d="M181.272 95.2045L182.909 98.4794L186.499 98.9832L183.854 101.502L184.484 105.092L181.272 103.392L178.06 105.092L178.69 101.502L176.108 98.9832L179.697 98.4794L181.272 95.2045Z" fill="#FFA522"/>
<path d="M200.984 103.14H240.849" stroke="white" stroke-width="2" stroke-miterlimit="10"/>
<path d="M123.71 103.14H163.512" stroke="white" stroke-width="2" stroke-miterlimit="10"/>
<path d="M263.332 -6.09995L264.403 -3.89572L266.859 -3.58083L265.095 -1.81746L265.536 0.575706L263.332 -0.557898L261.191 0.575706L261.569 -1.81746L259.805 -3.58083L262.261 -3.89572L263.332 -6.09995Z" fill="#F0FFFC"/>
<path d="M108.658 39.8739L110.422 43.4637L114.326 44.0305L111.492 46.8015L112.185 50.7061L108.658 48.8798L105.132 50.7061L105.761 46.8015L102.927 44.0305L106.895 43.4637L108.658 39.8739Z" fill="white"/>
<path d="M247.147 63.8055L248.91 67.3952L252.815 67.9621L249.981 70.7331L250.674 74.6377L247.147 72.8113L243.62 74.6377L244.313 70.7331L241.416 67.9621L245.383 67.3952L247.147 63.8055Z" fill="white"/>
<path d="M99.0858 -6.09995L100.156 -3.89572L102.613 -3.58083L100.849 -1.81746L101.29 0.575706L99.0858 -0.557898L96.9445 0.575706L97.3224 -1.81746L95.559 -3.58083L98.0151 -3.89572L99.0858 -6.09995Z" fill="#F0FFFC"/>
<path d="M152.743 109.653L153.814 111.858L156.207 112.236L154.443 113.936L154.884 116.329L152.743 115.195L150.539 116.329L150.98 113.936L149.216 112.236L151.609 111.858L152.743 109.653Z" fill="#F0FFFC"/>
<path d="M232.662 109.653L233.733 111.858L236.189 112.236L234.425 113.936L234.866 116.329L232.662 115.195L230.521 116.329L230.899 113.936L229.198 112.236L231.591 111.858L232.662 109.653Z" fill="#F0FFFC"/>
<path d="M111.996 84.3363C110.548 84.3363 110.548 86.5405 111.996 86.5405C113.445 86.5405 113.445 84.3363 111.996 84.3363Z" fill="white"/>
<path d="M114.2 79.8649C112.752 79.8649 112.752 82.0691 114.2 82.0691C115.649 82.0691 115.649 79.8649 114.2 79.8649Z" fill="white"/>
<path d="M116.468 84.3363C115.019 84.3363 115.019 86.5405 116.468 86.5405C117.916 86.5405 117.916 84.3363 116.468 84.3363Z" fill="white"/>
<path d="M254.515 40.3777C252.311 40.3777 252.311 43.8415 254.515 43.8415C256.719 43.8415 256.719 40.3777 254.515 40.3777Z" fill="white"/>
<path d="M257.979 33.4502C255.775 33.4502 255.775 36.9139 257.979 36.9139C260.183 36.9139 260.183 33.4502 257.979 33.4502Z" fill="white"/>
<path d="M261.38 40.3777C259.176 40.3777 259.176 43.8415 261.38 43.8415C263.647 43.8415 263.647 40.3777 261.38 40.3777Z" fill="white"/>
</g>
</svg>
