<svg width="18" height="18" viewBox="0 0 18 18" fill="none" xmlns="http://www.w3.org/2000/svg">
<path d="M16.2422 1.54688H14.5664V1.05469C14.5664 0.473133 14.0933 0 13.5117 0C12.9302 0 12.457 0.473133 12.457 1.05469V1.54688H6.55077V1.05469C6.55077 0.473133 6.07764 0 5.49608 0C4.91453 0 4.44139 0.473133 4.44139 1.05469V1.55988C4.41151 1.55162 4.38019 1.54688 4.34767 1.54688H2.9469C1.97764 1.54688 1.18909 2.33543 1.18909 3.30469V9.29296C1.18909 9.48713 1.34652 9.64452 1.54065 9.64452C1.73479 9.64452 1.89221 9.48713 1.89221 9.29296V5.16797H14.5664C14.7605 5.16797 14.918 5.01057 14.918 4.81641C14.918 4.62224 14.7605 4.46484 14.5664 4.46484H1.89221V3.30469C1.89221 2.72313 2.36535 2.25 2.9469 2.25H4.34767C4.38019 2.25 4.41151 2.24522 4.44139 2.23699V2.68945C4.44139 3.27101 4.91453 3.74414 5.49608 3.74414C6.07764 3.74414 6.55077 3.27101 6.55077 2.68945V2.25H12.457V2.68945C12.457 3.27101 12.9302 3.74414 13.5117 3.74414C14.0933 3.74414 14.5664 3.27101 14.5664 2.68945V2.25H16.2422C16.8237 2.25 17.2969 2.72313 17.2969 3.30469V16.6639C17.2969 17.0129 17.0129 17.2969 16.6639 17.2969C16.3148 17.2969 16.0308 17.0129 16.0308 16.6639V15.7544C16.0308 15.5602 15.8734 15.4028 15.6793 15.4028H11.5899C11.3957 15.4028 11.2383 15.5602 11.2383 15.7544C11.2383 15.9486 11.3957 16.106 11.5899 16.106H15.3277V16.6639C15.3277 16.8928 15.3856 17.1083 15.4875 17.2969H1.33594C0.987012 17.2969 0.703125 17.013 0.703125 16.6641V16.106H8.57197C8.76611 16.106 8.92354 15.9486 8.92354 15.7544C8.92354 15.5602 8.76611 15.4028 8.57197 15.4028H5.0593C5.67362 14.8738 6.06371 14.0912 6.06371 13.2188C6.06371 11.6292 4.77049 10.3359 3.1809 10.3359C1.59131 10.3359 0.29809 11.6292 0.29809 13.2188C0.29809 14.0912 0.688184 14.8738 1.3025 15.4028H0.351562C0.15743 15.4028 0 15.5602 0 15.7544V16.6641C0 17.4007 0.599309 18 1.33594 18H16.6639C17.4006 18 18 17.4006 18 16.6639V3.30469C18 2.33543 17.2114 1.54688 16.2422 1.54688ZM5.84764 2.68945C5.84764 2.8833 5.68993 3.04102 5.49608 3.04102C5.30223 3.04102 5.14452 2.8833 5.14452 2.68945V1.05469C5.14452 0.860836 5.30223 0.703125 5.49608 0.703125C5.68993 0.703125 5.84764 0.860836 5.84764 1.05469V2.68945ZM13.8633 2.68945C13.8633 2.8833 13.7056 3.04102 13.5117 3.04102C13.3179 3.04102 13.1601 2.8833 13.1601 2.68945V1.05469C13.1601 0.860836 13.3179 0.703125 13.5117 0.703125C13.7056 0.703125 13.8633 0.860836 13.8633 1.05469V2.68945ZM1.00121 13.2188C1.00121 12.0169 1.97902 11.0391 3.1809 11.0391C4.38279 11.0391 5.36059 12.0169 5.36059 13.2188C5.36059 14.4206 4.38279 15.3984 3.1809 15.3984C1.97902 15.3984 1.00121 14.4206 1.00121 13.2188Z" fill="#EA4436"/>
<path d="M16.464 4.56785C16.3986 4.50246 16.3079 4.46484 16.2155 4.46484C16.123 4.46484 16.0323 4.50246 15.9669 4.56785C15.9015 4.63324 15.8639 4.72395 15.8639 4.81641C15.8639 4.90887 15.9015 4.99957 15.9669 5.06496C16.0324 5.13035 16.123 5.16797 16.2155 5.16797C16.3079 5.16797 16.3986 5.13035 16.464 5.06496C16.5294 4.99957 16.567 4.90887 16.567 4.81641C16.567 4.72395 16.5294 4.63324 16.464 4.56785Z" fill="#EA4436"/>
<path d="M10.4994 15.5057C10.434 15.4403 10.3433 15.403 10.2509 15.403C10.1584 15.403 10.0677 15.4403 10.0023 15.5057C9.93694 15.5714 9.89932 15.6618 9.89932 15.7542C9.89932 15.847 9.93691 15.9374 10.0023 16.0031C10.0677 16.0685 10.1584 16.1058 10.2509 16.1058C10.3433 16.1058 10.434 16.0685 10.4994 16.0031C10.5648 15.9374 10.6024 15.8467 10.6024 15.7542C10.6024 15.6618 10.5648 15.5714 10.4994 15.5057Z" fill="#EA4436"/>
<path d="M7.95392 10.6875C7.21729 10.6875 6.61798 11.2868 6.61798 12.0234C6.61798 12.7601 7.21729 13.3594 7.95392 13.3594C8.69054 13.3594 9.28985 12.7601 9.28985 12.0234C9.28985 11.2868 8.69054 10.6875 7.95392 10.6875ZM7.95392 12.6562C7.60499 12.6562 7.32111 12.3724 7.32111 12.0234C7.32111 11.6745 7.60499 11.3906 7.95392 11.3906C8.30284 11.3906 8.58673 11.6745 8.58673 12.0234C8.58673 12.3724 8.30284 12.6562 7.95392 12.6562Z" fill="#EA4436"/>
<path d="M11.2352 10.6875C10.4985 10.6875 9.89923 11.2868 9.89923 12.0234C9.89923 12.7601 10.4985 13.3594 11.2352 13.3594C11.9718 13.3594 12.5711 12.7601 12.5711 12.0234C12.5711 11.2868 11.9718 10.6875 11.2352 10.6875ZM11.2352 12.6562C10.8862 12.6562 10.6024 12.3724 10.6024 12.0234C10.6024 11.6745 10.8862 11.3906 11.2352 11.3906C11.5841 11.3906 11.868 11.6745 11.868 12.0234C11.868 12.3724 11.5841 12.6562 11.2352 12.6562Z" fill="#EA4436"/>
<path d="M14.5164 10.6875C13.7798 10.6875 13.1805 11.2868 13.1805 12.0234C13.1805 12.7601 13.7798 13.3594 14.5164 13.3594C15.2531 13.3594 15.8524 12.7601 15.8524 12.0234C15.8524 11.2868 15.2531 10.6875 14.5164 10.6875ZM14.5164 12.6562C14.1675 12.6562 13.8836 12.3724 13.8836 12.0234C13.8836 11.6745 14.1675 11.3906 14.5164 11.3906C14.8654 11.3906 15.1493 11.6745 15.1493 12.0234C15.1493 12.3724 14.8654 12.6562 14.5164 12.6562Z" fill="#EA4436"/>
<path d="M4.67267 7.03125C3.93604 7.03125 3.33673 7.63056 3.33673 8.36719C3.33673 9.10382 3.93604 9.70312 4.67267 9.70312C5.4093 9.70312 6.00861 9.10382 6.00861 8.36719C6.00861 7.63056 5.4093 7.03125 4.67267 7.03125ZM4.67267 9C4.32374 9 4.03986 8.71611 4.03986 8.36719C4.03986 8.01826 4.32374 7.73438 4.67267 7.73438C5.02159 7.73438 5.30548 8.01826 5.30548 8.36719C5.30548 8.71611 5.02159 9 4.67267 9Z" fill="#EA4436"/>
<path d="M11.2352 7.03125C10.4985 7.03125 9.89923 7.63056 9.89923 8.36719C9.89923 9.10382 10.4985 9.70312 11.2352 9.70312C11.9718 9.70312 12.5711 9.10382 12.5711 8.36719C12.5711 7.63056 11.9718 7.03125 11.2352 7.03125ZM11.2352 9C10.8862 9 10.6024 8.71611 10.6024 8.36719C10.6024 8.01826 10.8862 7.73438 11.2352 7.73438C11.5841 7.73438 11.868 8.01826 11.868 8.36719C11.868 8.71611 11.5841 9 11.2352 9Z" fill="#EA4436"/>
<path d="M14.5164 7.03125C13.7798 7.03125 13.1805 7.63056 13.1805 8.36719C13.1805 9.10382 13.7798 9.70312 14.5164 9.70312C15.2531 9.70312 15.8524 9.10382 15.8524 8.36719C15.8524 7.63056 15.2531 7.03125 14.5164 7.03125ZM14.5164 9C14.1675 9 13.8836 8.71611 13.8836 8.36719C13.8836 8.01826 14.1675 7.73438 14.5164 7.73438C14.8654 7.73438 15.1493 8.01826 15.1493 8.36719C15.1493 8.71611 14.8654 9 14.5164 9Z" fill="#EA4436"/>
<path d="M7.95392 7.03125C7.21729 7.03125 6.61798 7.63056 6.61798 8.36719C6.61798 9.10382 7.21729 9.70312 7.95392 9.70312C8.69054 9.70312 9.28985 9.10382 9.28985 8.36719C9.28985 7.63056 8.69054 7.03125 7.95392 7.03125ZM7.95392 9C7.60499 9 7.32111 8.71611 7.32111 8.36719C7.32111 8.01826 7.60499 7.73438 7.95392 7.73438C8.30284 7.73438 8.58673 8.01826 8.58673 8.36719C8.58673 8.71611 8.30284 9 7.95392 9Z" fill="#EA4436"/>
<path d="M4.43332 12.3619C4.296 12.2247 4.07346 12.2247 3.9361 12.3619L2.79121 13.5069L2.39995 13.1156C2.26263 12.9783 2.04009 12.9783 1.90274 13.1156C1.76545 13.2529 1.76545 13.4755 1.90274 13.6128L2.54262 14.2526C2.60857 14.3186 2.69797 14.3556 2.79121 14.3556C2.88444 14.3556 2.97384 14.3186 3.0398 14.2526L4.43332 12.8591C4.5706 12.7218 4.5706 12.4992 4.43332 12.3619Z" fill="#EA4436"/>
</svg>
