<svg width="149" height="143" viewBox="0 0 149 143" fill="none" xmlns="http://www.w3.org/2000/svg">
<mask id="mask0" mask-type="alpha" maskUnits="userSpaceOnUse" x="0" y="0" width="149" height="143">
<rect width="149" height="143" rx="8" fill="white"/>
</mask>
<g mask="url(#mask0)">
<circle cx="63" cy="110" r="49" fill="white" fill-opacity="0.45"/>
<circle cx="95.5" cy="66.5" r="28.5" fill="white" fill-opacity="0.45"/>
<circle cx="32" cy="33" r="15" fill="white" fill-opacity="0.45"/>
<path d="M48.0781 33.7949H29.5684C27.6753 33.7949 26.1406 32.2602 26.1406 30.3672C26.1406 28.4742 27.6753 26.9395 29.5684 26.9395H48.0781C49.9711 26.9395 51.5059 28.4742 51.5059 30.3672C51.5059 32.2602 49.9711 33.7949 48.0781 33.7949Z" fill="#5E54AC"/>
<path d="M121.432 61.2168H102.922C101.029 61.2168 99.4941 59.6821 99.4941 57.7891C99.4941 55.896 101.029 54.3613 102.922 54.3613H121.432C123.325 54.3613 124.859 55.896 124.859 57.7891C124.859 59.6821 123.325 61.2168 121.432 61.2168Z" fill="#453D81"/>
<path d="M61.7891 61.2168H29.5684C27.6753 61.2168 26.1406 59.6821 26.1406 57.7891C26.1406 55.896 27.6753 54.3613 29.5684 54.3613H61.7891C63.6821 54.3613 65.2168 55.896 65.2168 57.7891C65.2168 59.6821 63.6821 61.2168 61.7891 61.2168Z" fill="#5E54AC"/>
<path d="M121.432 88.6387H89.2109C87.3179 88.6387 85.7832 87.104 85.7832 85.2109C85.7832 83.3179 87.3179 81.7832 89.2109 81.7832H121.432C123.325 81.7832 124.859 83.3179 124.859 85.2109C124.859 87.104 123.325 88.6387 121.432 88.6387Z" fill="#453D81"/>
<path d="M48.0781 88.6387H29.5684C27.6753 88.6387 26.1406 87.104 26.1406 85.2109C26.1406 83.3179 27.6753 81.7832 29.5684 81.7832H48.0781C49.9711 81.7832 51.5059 83.3179 51.5059 85.2109C51.5059 87.104 49.9711 88.6387 48.0781 88.6387Z" fill="#5E54AC"/>
<path d="M121.432 116.061H102.922C101.029 116.061 99.4941 114.526 99.4941 112.633C99.4941 110.74 101.029 109.205 102.922 109.205H121.432C123.325 109.205 124.859 110.74 124.859 112.633C124.859 114.526 123.325 116.061 121.432 116.061Z" fill="#453D81"/>
<path d="M80.0703 109.205H29.5684C27.6753 109.205 26.1406 110.74 26.1406 112.633C26.1406 114.526 27.6753 116.061 29.5684 116.061H80.0703C81.9633 116.061 83.498 114.526 83.498 112.633C83.498 110.74 81.9633 109.205 80.0703 109.205Z" fill="#5E54AC"/>
<path d="M121.432 26.9395H70.9297C69.0367 26.9395 67.502 28.4742 67.502 30.3672C67.502 32.2602 69.0367 33.7949 70.9297 33.7949H121.432C123.325 33.7949 124.859 32.2602 124.859 30.3672C124.859 28.4742 123.325 26.9395 121.432 26.9395Z" fill="#453D81"/>
<path d="M27.2832 130H20.4277C18.5347 130 17 128.465 17 126.572V16.4277C17 14.5347 18.5347 13 20.4277 13H27.2832C29.1762 13 30.7109 14.5347 30.7109 16.4277V126.572C30.7109 128.465 29.1762 130 27.2832 130Z" fill="#BC8173"/>
<path d="M130.572 130H123.717C121.824 130 120.289 128.465 120.289 126.572V16.4277C120.289 14.5347 121.824 13 123.717 13H130.572C132.465 13 134 14.5347 134 16.4277V126.572C134 128.465 132.465 130 130.572 130Z" fill="#9D5E4A"/>
<path d="M51.5059 93.209C47.0957 93.209 43.5078 89.6211 43.5078 85.2109C43.5078 80.8008 47.0957 77.2129 51.5059 77.2129C55.916 77.2129 59.5039 80.8008 59.5039 85.2109C59.5039 89.6211 55.916 93.209 51.5059 93.209Z" fill="#FF5E82"/>
<path d="M51.5059 77.2129V93.209C55.916 93.209 59.5039 89.6211 59.5039 85.2109C59.5039 80.8008 55.916 77.2129 51.5059 77.2129Z" fill="#B7457D"/>
<path d="M51.5059 120.631C47.0957 120.631 43.5078 117.043 43.5078 112.633C43.5078 108.223 47.0957 104.635 51.5059 104.635C55.916 104.635 59.5039 108.223 59.5039 112.633C59.5039 117.043 55.916 120.631 51.5059 120.631Z" fill="#FFE67A"/>
<path d="M51.5059 104.635V120.631C55.916 120.631 59.5039 117.043 59.5039 112.633C59.5039 108.223 55.916 104.635 51.5059 104.635Z" fill="#FFC336"/>
<path d="M67.502 93.209C63.0918 93.209 59.5039 89.6211 59.5039 85.2109C59.5039 80.8008 63.0918 77.2129 67.502 77.2129C71.9121 77.2129 75.5 80.8008 75.5 85.2109C75.5 89.6211 71.9121 93.209 67.502 93.209Z" fill="#A4E9FF"/>
<path d="M67.502 77.2129V93.209C71.9121 93.209 75.5 89.6211 75.5 85.2109C75.5 80.8008 71.9121 77.2129 67.502 77.2129Z" fill="#91BBFF"/>
<path d="M83.498 120.631C79.0879 120.631 75.5 117.043 75.5 112.633C75.5 108.223 79.0879 104.635 83.498 104.635C87.9082 104.635 91.4961 108.223 91.4961 112.633C91.4961 117.043 87.9082 120.631 83.498 120.631Z" fill="#A4E9FF"/>
<path d="M83.498 104.635V120.631C87.9082 120.631 91.4961 117.043 91.4961 112.633C91.4961 108.223 87.9082 104.635 83.498 104.635Z" fill="#91BBFF"/>
<path d="M99.4941 120.631C95.084 120.631 91.4961 117.043 91.4961 112.633C91.4961 108.223 95.084 104.635 99.4941 104.635C103.904 104.635 107.492 108.223 107.492 112.633C107.492 117.043 103.904 120.631 99.4941 120.631Z" fill="#FF5E82"/>
<path d="M99.4941 104.635V120.631C103.904 120.631 107.492 117.043 107.492 112.633C107.492 108.223 103.904 104.635 99.4941 104.635Z" fill="#B7457D"/>
<path d="M83.498 65.7871C79.0879 65.7871 75.5 62.1992 75.5 57.7891C75.5 53.3789 79.0879 49.791 83.498 49.791C87.9082 49.791 91.4961 53.3789 91.4961 57.7891C91.4961 62.1992 87.9082 65.7871 83.498 65.7871Z" fill="#FF5E82"/>
<path d="M83.498 49.791V65.7871C87.9082 65.7871 91.4961 62.1992 91.4961 57.7891C91.4961 53.3789 87.9082 49.791 83.498 49.791Z" fill="#B7457D"/>
<path d="M99.4941 65.7871C95.084 65.7871 91.4961 62.1992 91.4961 57.7891C91.4961 53.3789 95.084 49.791 99.4941 49.791C103.904 49.791 107.492 53.3789 107.492 57.7891C107.492 62.1992 103.904 65.7871 99.4941 65.7871Z" fill="#A4E9FF"/>
<path d="M99.4941 49.791V65.7871C103.904 65.7871 107.492 62.1992 107.492 57.7891C107.492 53.3789 103.904 49.791 99.4941 49.791Z" fill="#91BBFF"/>
<path d="M99.4941 38.3652C95.084 38.3652 91.4961 34.7773 91.4961 30.3672C91.4961 25.9571 95.084 22.3691 99.4941 22.3691C103.904 22.3691 107.492 25.9571 107.492 30.3672C107.492 34.7773 103.904 38.3652 99.4941 38.3652Z" fill="#FFE67A"/>
<path d="M99.4941 22.3691V38.3652C103.904 38.3652 107.492 34.7773 107.492 30.3672C107.492 25.9571 103.904 22.3691 99.4941 22.3691Z" fill="#FFC336"/>
<path d="M51.5059 38.3652C47.0957 38.3652 43.5078 34.7773 43.5078 30.3672C43.5078 25.9571 47.0957 22.3691 51.5059 22.3691C55.916 22.3691 59.5039 25.9571 59.5039 30.3672C59.5039 34.7773 55.916 38.3652 51.5059 38.3652Z" fill="#FFE67A"/>
<path d="M51.5059 22.3691V38.3652C55.916 38.3652 59.5039 34.7773 59.5039 30.3672C59.5039 25.9571 55.916 22.3691 51.5059 22.3691Z" fill="#FFC336"/>
<path d="M51.5059 38.3652C47.0957 38.3652 43.5078 34.7773 43.5078 30.3672C43.5078 25.9571 47.0957 22.3691 51.5059 22.3691C55.916 22.3691 59.5039 25.9571 59.5039 30.3672C59.5039 34.7773 55.916 38.3652 51.5059 38.3652Z" fill="#A4E9FF"/>
<path d="M51.5059 22.3691V38.3652C55.916 38.3652 59.5039 34.7773 59.5039 30.3672C59.5039 25.9571 55.916 22.3691 51.5059 22.3691Z" fill="#91BBFF"/>
<path d="M67.502 65.7871C63.0918 65.7871 59.5039 62.1992 59.5039 57.7891C59.5039 53.3789 63.0918 49.791 67.502 49.791C71.9121 49.791 75.5 53.3789 75.5 57.7891C75.5 62.1992 71.9121 65.7871 67.502 65.7871Z" fill="#FFE67A"/>
<path d="M67.502 49.791V65.7871C71.9121 65.7871 75.5 62.1992 75.5 57.7891C75.5 53.3789 71.9121 49.791 67.502 49.791Z" fill="#FFC336"/>
<path d="M67.502 38.3652C63.0918 38.3652 59.5039 34.7773 59.5039 30.3672C59.5039 25.9571 63.0918 22.3691 67.502 22.3691C71.9121 22.3691 75.5 25.9571 75.5 30.3672C75.5 34.7773 71.9121 38.3652 67.502 38.3652Z" fill="#FF5E82"/>
<path d="M67.502 22.3691V38.3652C71.9121 38.3652 75.5 34.7773 75.5 30.3672C75.5 25.9571 71.9121 22.3691 67.502 22.3691Z" fill="#B7457D"/>
<path d="M83.498 93.209C79.0879 93.209 75.5 89.6211 75.5 85.2109C75.5 80.8008 79.0879 77.2129 83.498 77.2129C87.9082 77.2129 91.4961 80.8008 91.4961 85.2109C91.4961 89.6211 87.9082 93.209 83.498 93.209Z" fill="#FFE67A"/>
<path d="M83.498 77.2129V93.209C87.9082 93.209 91.4961 89.6211 91.4961 85.2109C91.4961 80.8008 87.9082 77.2129 83.498 77.2129Z" fill="#FFC336"/>
</g>
</svg>
