<svg width="149" height="143" viewBox="0 0 149 143" fill="none" xmlns="http://www.w3.org/2000/svg">
<mask id="mask0" mask-type="alpha" maskUnits="userSpaceOnUse" x="0" y="0" width="149" height="143">
<rect width="149" height="143" rx="8" fill="white"/>
</mask>
<g mask="url(#mask0)">
<circle cx="63" cy="110" r="49" fill="white" fill-opacity="0.45"/>
<circle cx="95.5" cy="66.5" r="28.5" fill="white" fill-opacity="0.45"/>
<circle cx="32" cy="33" r="15" fill="white" fill-opacity="0.45"/>
<path d="M88.5926 22.1366C86.4201 21.898 84.2272 21.7612 81.995 21.8457C64.5916 22.473 49.3453 32.8141 40.8793 42.2858L40.8759 89.0965L43.8295 89.4316C52.7337 90.4471 58.8966 93.2781 62.1522 97.8512C65.7498 102.906 64.7907 108.833 64.4124 110.532C63.152 116.176 66.48 121.922 72.1816 123.021C75.4041 123.638 78.6432 123.943 81.859 123.943C84.1237 123.943 86.3662 123.738 88.5928 123.441C113.767 120.081 133.206 98.665 132.998 72.5924C132.771 44.8681 110.374 24.5265 88.5926 22.1366Z" fill="#FABE2C"/>
<path d="M132.998 72.5926C132.771 44.8681 110.374 24.5265 88.5925 22.1366V123.441C113.767 120.081 133.205 98.6653 132.998 72.5926Z" fill="#FF9100"/>
<path d="M93.8097 60.9903C89.8373 57.0112 89.8373 50.543 93.8063 46.5671C97.7888 42.5912 104.254 42.5912 108.23 46.5671C112.205 50.543 112.205 57.0112 108.23 60.9869V60.9903C104.254 64.9592 97.7859 64.9596 93.8097 60.9903Z" fill="#00C8C8"/>
<path d="M64.9134 49.3746C63.4668 44.0022 66.6218 38.3632 72.1216 36.8928C77.5377 35.4426 83.1498 38.6683 84.6066 44.101C86.0663 49.5357 82.8455 55.1279 77.3984 56.586C71.939 58.0491 66.3665 54.81 64.9134 49.3746Z" fill="#474F54"/>
<path d="M52.8963 75.8118C47.4636 74.3548 44.2311 68.7529 45.6879 63.3268C47.1356 57.9118 52.7019 54.6498 58.1697 56.1186C63.6155 57.5745 66.8442 63.1573 65.3813 68.6036C63.9191 74.0668 58.3163 77.2638 52.8963 75.8118Z" fill="#FF435B"/>
<path d="M105.419 89.8832C99.987 88.4293 96.7445 82.8546 98.2103 77.3982C99.6716 71.939 105.275 68.7359 110.695 70.19C116.128 71.647 119.361 77.2489 117.904 82.675C116.448 88.1212 110.851 91.3445 105.419 89.8832Z" fill="#99341F"/>
<path d="M37.617 15.0018C29.1908 15.0018 27.4219 46.6469 27.4219 73.0009C27.4219 74.1853 27.4368 75.2721 27.4459 76.3993L34.6432 79.7976H37.617H42.4312L47.7898 76.3993C47.7981 75.2717 47.8122 74.2044 47.8122 73.0009C47.8122 46.6466 46.0432 15.0018 37.617 15.0018Z" fill="#B35324"/>
<path d="M47.7895 76.3993C47.7979 75.2717 47.812 74.2044 47.812 73.0009C47.812 46.6469 46.043 15.0018 37.6168 15.0018V79.7976H42.431L47.7895 76.3993Z" fill="#99341F"/>
<path d="M37.6171 76.3993H27.4459C27.5674 91.4278 28.4287 101.301 28.4772 102.209H37.6171H46.7569C46.8462 100.55 47.6774 92.0787 47.7898 76.3993H37.6171Z" fill="#FFF7E6"/>
<path d="M47.7895 76.3993H37.6168V102.209H46.7567C46.8457 100.55 47.6772 92.0785 47.7895 76.3993Z" fill="#FFCCB3"/>
<path d="M37.6169 96.7896C30.1198 96.7896 24.0233 102.886 24.0233 110.383V117.18C24.0233 120.927 20.7468 124.203 17 124.203V131H30.8201C33.2151 131 35.4804 130.509 37.6169 129.748C45.5113 126.933 51.2104 119.232 51.2104 110.383C51.2104 102.886 45.1139 96.7896 37.6169 96.7896Z" fill="#474F54"/>
<path d="M51.2104 110.383C51.2104 102.886 45.1139 96.7896 37.6168 96.7896V129.748C45.5113 126.933 51.2104 119.232 51.2104 110.383Z" fill="#32393F"/>
<path d="M88.5926 110.383C94.2232 110.383 98.7878 105.819 98.7878 100.188C98.7878 94.5573 94.2232 89.9928 88.5926 89.9928C82.962 89.9928 78.3975 94.5573 78.3975 100.188C78.3975 105.819 82.962 110.383 88.5926 110.383Z" fill="#FFF7E6"/>
<path d="M98.7877 100.188C98.7877 94.5573 94.2232 89.9928 88.5925 89.9928V110.383C94.2232 110.383 98.7877 105.819 98.7877 100.188Z" fill="#FFE6CC"/>
</g>
</svg>
