<svg width="120" height="150" viewBox="0 0 120 150" fill="none" xmlns="http://www.w3.org/2000/svg">
<mask id="mask0" mask-type="alpha" maskUnits="userSpaceOnUse" x="0" y="0" width="120" height="150">
<rect width="120" height="150" rx="8" fill="white"/>
</mask>
<g mask="url(#mask0)">
<circle cx="56" cy="115" r="49" fill="white" fill-opacity="0.45"/>
<circle cx="88.5" cy="71.5" r="28.5" fill="white" fill-opacity="0.45"/>
<circle cx="25" cy="38" r="15" fill="white" fill-opacity="0.45"/>
<path fill-rule="evenodd" clip-rule="evenodd" d="M74.9839 45.3352C76.1135 44.7592 77.4404 44.8153 78.5418 45.4436C80.6653 46.6548 81.192 49.5615 80.1372 51.7669C78.4872 55.2168 77.1926 60.4381 80.5789 65.5175C80.8216 65.8815 81.0453 66.234 81.2511 66.5753C84.2375 71.5276 82.2068 83.7542 78.0916 87.8174C77.0091 88.8862 75.4941 89.8133 73.4022 90.471C64.4963 93.3047 52.0312 89.7649 47.7866 88.3816C46.7989 88.0598 45.903 87.5182 45.2806 86.6865C43.3469 84.1024 39.8443 77.4269 45.644 67.951C51.9273 57.6848 69.3291 48.219 74.9839 45.3352Z" fill="#210309"/>
<path fill-rule="evenodd" clip-rule="evenodd" d="M16.3553 68.3362C16.5503 68.3523 16.7439 68.3805 16.9369 68.4123C17.5143 68.5074 18.8503 68.7132 19.948 68.7759C21.3916 68.8171 21.4328 68.8171 21.7628 69.1883C22.0927 69.5183 23.0414 70.9206 23.1651 71.7455C23.2888 72.5705 22.5052 74.0553 21.7215 75.0039C21.0267 75.8084 19.7159 76.6778 19.2264 78.3881C19.0991 78.8326 18.9009 79.2622 18.5684 79.5835C18.1119 80.0249 17.4764 80.2294 16.8482 80.1374L14.3358 79.7692C13.6384 79.667 13.1548 79.005 13.2249 78.3036C13.3487 77.4787 12.2351 76.9012 12.1113 75.8701C11.9876 74.839 12.1526 73.9728 12.3175 72.8179C12.346 72.6187 12.3818 72.368 12.4216 72.0895C12.7244 69.9698 14.0302 68.176 16.1664 68.322C16.2283 68.3262 16.2913 68.331 16.3553 68.3362Z" fill="#EF8871"/>
<path fill-rule="evenodd" clip-rule="evenodd" d="M19.8582 70.0515C19.9454 69.9986 20.0268 69.9369 20.1013 69.8674C20.7164 69.2933 20.7794 68.2115 20.8134 67.3708C20.8186 67.2432 20.8319 67.1067 20.8554 66.9611C21.0204 65.6825 22.464 55.7835 22.629 54.7112C22.794 53.6388 20.278 54.3812 19.6593 57.0209C19.4812 57.7808 19.3373 58.5509 19.2167 59.3047C18.739 62.2914 16.7678 64.7829 13.946 65.872C12.4487 66.4499 11.1185 67.02 10.9153 67.291C10.3791 67.951 10.2966 71.4568 10.544 72.3642C10.9695 74.2363 13.8466 73.7002 15.4878 72.7041L19.8582 70.0515Z" fill="#F4AD85"/>
<path fill-rule="evenodd" clip-rule="evenodd" d="M20.125 69.6334C20.3047 69.6122 20.4727 69.5335 20.6038 69.4088C20.9452 69.0845 20.9673 68.507 20.8676 68.0468C20.8069 67.7664 20.7837 67.4063 20.8555 66.9611L21.1854 64.7751C20.8177 67.2965 19.2123 68.0785 18.0947 68.3139C17.5926 68.4197 17.208 68.971 17.4008 69.4465C17.5167 69.7325 17.8095 69.9058 18.116 69.8697L20.125 69.6334Z" fill="#EF8871"/>
<path fill-rule="evenodd" clip-rule="evenodd" d="M16.3178 71.4501C16.6244 71.7452 17.0948 71.7619 17.4566 71.538C18.0264 71.1852 18.1057 70.3876 17.6165 69.9295L16.7609 69.1286C16.6863 69.0587 16.603 68.9987 16.5132 68.9501C16.0153 68.6804 15.3943 68.8365 15.3793 69.4025C15.3743 69.5914 15.3935 69.8089 15.4524 70.0545C15.5324 70.5875 15.9395 71.0861 16.3178 71.4501Z" fill="#EF8871"/>
<path fill-rule="evenodd" clip-rule="evenodd" d="M16.6058 68.3567C16.6343 68.3609 16.6619 68.3658 16.6903 68.3707C16.9729 68.4197 18.6319 68.7007 19.9481 68.7759C21.3917 68.8171 21.4329 68.8171 21.7629 69.1883C22.0929 69.5183 23.0415 70.9207 23.1653 71.7456C23.289 72.5705 22.5053 74.0553 21.7217 75.004C21.0266 75.8087 19.7152 76.6784 19.226 78.3898C19.0992 78.8333 18.9014 79.2617 18.5698 79.5823L18.044 80.0906C17.9183 80.2121 17.7432 80.2682 17.5703 80.2422C17.2654 80.1965 17.0543 79.9136 17.0973 79.6083L17.4321 77.2312C17.5559 76.4888 16.2773 75.9938 16.5247 74.2203C16.6901 73.035 16.0299 70.796 15.5904 69.6829C15.4704 69.3791 15.467 69.0988 15.4936 68.8996C15.5761 68.3222 15.8648 68.3222 15.906 68.3222C16.1393 68.3222 16.3726 68.3222 16.6058 68.3567Z" fill="#F4AD85"/>
<path fill-rule="evenodd" clip-rule="evenodd" d="M48.7496 87.9867C48.0748 84.5835 44.2849 82.928 41.8906 85.4391C37.6836 89.7286 19.7831 110.805 19.3706 111.094C18.9581 111.382 18.6694 111.135 18.5044 110.805C18.3081 110.491 19.5699 82.136 19.6912 79.4195C19.698 79.2672 19.7264 79.2626 19.6738 79.1195C19.5439 78.7664 18.9784 78.7488 18.611 78.8299C17.7614 79.0174 15.9938 79.222 13.7326 78.47C13.4287 78.3689 13.081 78.3036 12.8494 78.5248C12.7934 78.5784 12.7617 78.6645 12.7468 78.7406C12.3239 80.9049 6.99695 114.933 6.99695 117.817C6.99695 120.786 9.43043 124.045 12.7713 125.818C17.0917 128.106 33.4601 116.3 40.4132 111.442C41.8713 110.423 42.9933 108.986 43.5809 107.307L48.7655 92.4941C49.1255 91.4657 49.2123 90.3613 49.0054 89.2916C48.9223 88.8622 48.8365 88.4247 48.7496 87.9867Z" fill="#B36237"/>
<path fill-rule="evenodd" clip-rule="evenodd" d="M48.7321 87.9903C48.0759 84.5834 44.2847 82.928 41.8905 85.4391C40.3226 87.0435 36.8848 90.9368 33.1733 95.2094C32.2107 96.3175 31.5775 97.6672 31.3236 99.1129C30.1952 105.539 27.8072 117.911 25.8048 119.549C24.749 120.4 25.261 121.489 26.4201 120.786C32.5402 117.07 38.8986 112.427 41.8424 110.424C42.3547 110.076 42.7441 109.58 42.9487 108.995L48.7343 92.4651C49.0879 91.455 49.1794 90.3713 48.9838 89.3191C48.9026 88.882 48.8181 88.4364 48.7321 87.9903ZM13.4143 78.3764C13.9165 78.5639 14.9482 81.4415 14.7423 81.9364C14.7314 81.9626 14.7206 81.989 14.7097 82.0157C13.6374 84.6142 7.36804 113.898 7.36804 113.981C8.6879 103.958 12.6475 78.7985 12.73 78.6335C12.8015 78.5142 12.956 78.4225 13.0734 78.3664C13.1691 78.3207 13.315 78.3392 13.4143 78.3764Z" fill="#8A3D27"/>
<path fill-rule="evenodd" clip-rule="evenodd" d="M79.6052 88.1263C79.5762 86.5696 78.8663 85.046 77.6298 84.0997C77.1351 83.721 76.6086 83.4844 76.0166 83.2902C74.4559 82.778 72.588 82.1672 71.0939 81.6761C69.3544 81.1044 67.419 80.661 65.5904 80.5658C61.8893 80.373 57.5556 80.3924 52.2432 79.8709C49.1086 79.9947 46.8813 81.1908 45.1078 83.0881C41.6844 86.6764 37.1474 94.4718 33.724 99.3388C32.1219 101.639 32.2382 105.372 33.4209 109.028C33.4304 109.058 33.4391 109.085 33.4482 109.115C33.5955 109.596 34.9718 114.185 35.8688 120.58C36.6937 126.396 36.7762 145.534 36.3637 152.339C36.2876 153.366 37.67 154.351 38.6684 154.604C44.2528 156.018 61.5228 159.629 72.8851 153.595C75.7523 152.072 76.435 148.506 75.3685 145.44C68.2227 124.895 72.3739 118.574 77.733 102.803C77.9392 102.185 78.1454 101.525 78.3516 100.865C79.346 96.4063 79.6668 91.4488 79.6052 88.1263Z" fill="#C76D40"/>
<path fill-rule="evenodd" clip-rule="evenodd" d="M35.3738 102.473C34.4853 102.118 32.5169 102.281 32.4692 103.237C32.3796 105.029 32.7061 107.043 33.352 109.029C33.3525 109.031 33.353 109.032 33.3535 109.034C33.3609 109.056 33.4209 109.239 33.5167 109.569C33.657 110.053 34.4189 109.989 34.9201 109.939C35.8687 109.856 59.8736 113.074 62.4721 116.414C65.0705 119.755 68.2877 145.822 65.8542 150.524C64.6623 152.798 60.3284 154.268 56.209 155.175C55.1547 155.408 55.2057 156.984 56.2852 157C61.7818 156.969 67.5327 156.129 72.257 153.632C75.1297 152.113 75.8152 148.545 74.7479 145.476C67.6047 124.936 71.7556 118.614 77.1142 102.845C78.0216 100.122 78.8465 97.0703 79.1352 94.2656C79.3002 92.657 79.4652 91.2547 79.5477 90.0173C79.5477 89.4135 79.2975 88.8296 78.8211 88.4587C76.555 86.695 74.0405 86.0811 72.7009 90.0998C69.8963 98.5139 64.8231 106.309 60.6985 106.557C56.574 106.804 38.3847 103.505 35.3738 102.473Z" fill="#A95635"/>
<path fill-rule="evenodd" clip-rule="evenodd" d="M52.4882 85.9996C52.2115 84.9554 50.9722 84.515 50.0986 85.1504C49.3561 85.7278 48.655 86.3052 48.4487 86.594C48.0826 87.0516 49.9284 95.0478 50.9139 99.1789C51.2328 100.516 52.5912 101.316 53.919 100.961C55.2267 100.612 56.0047 99.2695 55.6579 97.961L52.4882 85.9996Z" fill="#D97B4E"/>
<path fill-rule="evenodd" clip-rule="evenodd" d="M54.5111 91.2431C54.2025 90.1309 52.5656 90.347 52.5561 91.5012L52.5025 98.0118C52.4868 99.9125 54.9554 100.666 56.0044 99.0813L60.5146 92.2659C61.0114 91.5152 60.4313 90.5209 59.5334 90.5839C59.4308 90.5911 59.3297 90.6128 59.2332 90.6485L55.8155 91.9109C55.2691 92.1127 54.6669 91.8044 54.5111 91.2431Z" fill="#F9D8CF"/>
<path fill-rule="evenodd" clip-rule="evenodd" d="M52.6784 95.0244C52.5794 95.202 52.5308 95.4026 52.5286 95.6059L52.5238 96.0427C52.5058 97.6744 53.8975 99.0653 55.4604 98.5964C55.6154 98.5344 56.0035 98.2626 56.5195 97.8863C56.8838 97.6205 57.1962 97.2902 57.4448 96.914L60.5153 92.2676C61.012 91.5159 60.4311 90.5209 59.5323 90.584C59.4304 90.5911 59.3301 90.6126 59.2342 90.6478L55.7752 91.9161C55.7031 91.9425 55.6343 91.9774 55.5704 92.02C54.924 92.451 53.4034 93.8364 52.9916 94.4952C52.8854 94.6651 52.7795 94.8428 52.6784 95.0244Z" fill="white"/>
<path fill-rule="evenodd" clip-rule="evenodd" d="M68.3765 80.7467C68.3994 80.7314 68.3885 80.6958 68.3611 80.6958C68.0236 80.6957 67.7095 80.6939 67.4187 80.673C67.295 80.6641 67.1751 80.7243 67.1121 80.8313C64.157 85.8558 60.3594 89.5738 56.0379 93.9769C47.6238 102.432 45.6028 102.391 47.83 114.847C48.2451 117.268 50.4581 134.509 50.5297 148.792C50.5515 153.132 53.7575 157.005 58.0962 156.887C63.2375 156.748 68.5052 155.854 72.8899 153.519C75.7554 151.992 76.4312 148.425 75.3605 145.36C68.8873 126.831 71.684 119.864 76.2342 107.05C76.2433 107.024 76.2482 106.996 76.2482 106.969V106.928C76.2482 106.827 76.3531 106.76 76.3978 106.67C80.1238 99.1239 79.9954 84.6122 78.9704 84.2842C78.0215 83.9679 69.1146 81.0368 68.3775 80.7943C68.3555 80.787 68.3572 80.7595 68.3765 80.7467Z" fill="#B36237"/>
<path fill-rule="evenodd" clip-rule="evenodd" d="M51.1083 105.52C48.9385 105.16 46.9039 106.078 46.9729 108.276C47.0294 110.075 48.4905 111.969 50.2543 112.328C55.9602 113.489 61.3464 114.937 62.4721 116.414C65.0706 119.755 68.2877 145.822 65.8542 150.524C64.0639 153.983 55.0486 155.555 50.4894 156.151C50.3819 156.165 50.3066 156.269 50.3017 156.377C50.2956 156.515 50.3928 156.643 50.5297 156.657C52.3903 156.846 54.3584 156.959 56.3265 156.959C61.8482 156.928 67.9297 156.08 72.799 153.556C75.6735 152.066 76.3559 148.514 75.2918 145.456C68.1379 124.899 72.2899 118.579 77.6504 102.803C78.5578 100.081 78.8053 97.0291 79.094 94.2244C79.259 92.6158 79.424 91.2134 79.5065 89.9761C79.5065 89.3723 79.2644 88.7683 78.7398 88.4695C77.6873 87.8698 76.6579 87.9208 75.8742 88.1343C74.8869 88.4032 74.2063 89.2215 73.663 90.0885C71.1116 94.1601 63.2675 106.344 60.6573 106.516C58.367 106.641 55.0267 106.17 51.1083 105.52Z" fill="#8A3D27"/>
<path fill-rule="evenodd" clip-rule="evenodd" d="M76.2367 86.2865C77.7279 84.6727 80.2861 84.6973 81.7282 86.355C82.1088 86.7925 82.4806 87.3091 82.8062 87.9138C87.0132 95.7092 92.004 119.054 92.6639 129.118C93.3238 138.852 85.116 139.553 82.1875 131.717C79.9683 125.772 75.3121 109.737 74.9507 108.49C74.9341 108.433 74.9218 108.392 74.9045 108.335C74.5457 107.147 70.3346 92.6737 76.2367 86.2865Z" fill="#B36237"/>
<path fill-rule="evenodd" clip-rule="evenodd" d="M88.5065 125.999C90.5458 125.737 92.512 127.068 92.6638 129.118C93.3238 138.852 85.1159 139.553 82.1875 131.716C79.9165 125.633 75.0936 108.984 74.9324 108.427C74.9273 108.409 74.9276 108.411 74.9222 108.393C74.8341 108.108 73.8188 104.76 73.3467 100.592C73.1544 98.8951 75.3673 99.0153 75.9594 100.617C78.1042 106.433 84.4147 123.302 85.0747 125.488C85.2771 126.172 86.6751 126.234 88.5065 125.999Z" fill="#8A3D27"/>
<path fill-rule="evenodd" clip-rule="evenodd" d="M66.0416 84.4097C65.3816 84.2346 64.684 84.4845 64.2671 85.0253C61.8613 88.1464 59.0836 90.8899 55.9965 93.9769C55.2564 94.726 56.7724 96.5975 57.6727 96.0511C62.2533 93.2713 66.9841 90.4115 67.4215 90.1823C68.0824 89.8519 67.54 87.071 67.1964 85.5844C67.063 85.0068 66.6146 84.5617 66.0416 84.4097Z" fill="#CD7244"/>
<path fill-rule="evenodd" clip-rule="evenodd" d="M61.6123 66.5109C63.5309 66.0938 65.2803 67.6231 65.1968 69.5847C65.1952 69.6229 65.1943 69.6558 65.1941 69.6941C65.1905 70.3814 65.1531 77.661 65.1531 78.8398C65.1531 80.1994 66.1068 81.6301 65.2885 82.7158C62.5353 86.3689 57.2764 92.5931 55.048 92.3271C52.8674 92.0992 52.5102 84.7065 52.4565 81.5979C52.442 80.757 52.9631 80.0458 53.5219 79.4172C53.8931 79.0048 54.1406 78.2623 54.3056 77.3137C54.7593 74.7977 54.4705 71.0031 53.4806 69.7658C52.6838 68.6767 57.8402 67.331 61.6123 66.5109Z" fill="#EF8871"/>
<path fill-rule="evenodd" clip-rule="evenodd" d="M61.6118 66.5091C63.5308 66.0937 65.2802 67.6231 65.1967 69.5847C65.1951 69.6229 65.1942 69.6558 65.194 69.6941C65.1904 70.3814 65.153 77.661 65.153 78.8398C65.153 80.1994 66.1067 81.6301 65.2884 82.7158C62.5352 86.3689 57.2762 92.5931 55.0479 92.3271C54.8977 92.3271 54.7818 92.2588 54.6378 92.1843C54.609 92.1694 54.5647 92.1329 54.5407 92.1111C54.4256 92.007 54.4166 91.8707 54.5147 91.7505C55.7363 90.2543 63.1816 81.0813 62.3483 80.7783C61.7247 80.5444 57.2333 78.874 54.6528 77.8904C54.4067 77.7966 54.2416 77.5279 54.3055 77.2725C54.7592 74.7565 54.4704 70.9619 53.4805 69.7245C52.6837 68.662 57.8397 67.3258 61.6118 66.5091Z" fill="#EB6B5D"/>
<path fill-rule="evenodd" clip-rule="evenodd" d="M75.4234 54.4225C75.6513 54.4225 75.8667 54.5277 76.0836 54.5977C77.9723 55.2065 79.3005 57.0157 79.3005 59.0832C79.2592 61.6404 77.1557 63.7027 74.5572 63.6615C72 63.6202 69.9378 61.5167 69.979 58.9182C69.992 58.451 70.0703 58.0002 70.2062 57.576C70.5351 56.5494 71.6376 57.1551 72.3376 57.9748C72.8105 58.5285 73.5771 57.9549 73.5883 57.2269L73.6086 55.9073C73.6499 54.8349 74.681 54.3812 75.4234 54.4225Z" fill="#E8685B"/>
<path fill-rule="evenodd" clip-rule="evenodd" d="M41.8906 53.2263C41.6691 53.2263 41.4499 53.2832 41.2349 53.3369C39.293 53.8213 37.8421 55.4876 37.7248 57.5984C37.6011 60.1556 39.5396 62.3416 42.0969 62.5066C44.6541 62.6303 46.8401 60.6918 47.0051 58.1345C47.0315 57.6585 46.9859 57.1951 46.8763 56.7553C46.6177 55.7172 45.4666 56.2295 44.7214 56.9971C44.2097 57.5241 43.4568 56.9063 43.5019 56.1732L43.5817 54.8762C43.623 53.7625 42.6331 53.2263 41.8906 53.2263Z" fill="#E8685B"/>
<path fill-rule="evenodd" clip-rule="evenodd" d="M59.4611 30.6238C68.2052 30.9125 75.1344 38.3367 74.8045 47.0808L74.3095 61.5579C74.0208 70.302 66.5966 77.2312 57.8526 76.9012C49.1085 76.6125 42.1793 69.1883 42.5092 60.4443L43.0042 45.9671C43.2929 37.2231 50.7171 30.2938 59.4611 30.6238Z" fill="#F4AD85"/>
<path fill-rule="evenodd" clip-rule="evenodd" d="M67.8685 37.1209C70.3438 37.1805 72.7721 38.3486 73.6909 40.6478C74.4839 42.6322 74.8812 44.8091 74.8046 47.0808L74.3096 61.5579C74.0209 70.302 66.5967 77.2312 57.8527 76.9013C57.1548 76.8813 57.2399 76.089 57.9312 75.9907C68.4059 74.5008 70.2766 65.2628 70.3501 63.8677C70.4326 62.3004 70.5563 59.9494 70.5563 57.9283C70.5563 56.6339 70.2801 55.697 70.0744 55.1787C69.9473 54.8587 69.7493 54.5788 69.5337 54.3103C68.5491 53.0841 65.6042 49.4291 64.9882 48.8131C64.287 48.0707 63.6683 47.6994 63.1321 47.6994C62.607 47.6994 62.1155 47.9324 61.7069 48.2622C59.0729 50.3882 53.5237 51.3703 52.0783 51.3703C50.4697 51.3703 50.016 51.3703 46.8814 51.3703C45.571 51.3703 42.8673 49.6695 42.9122 48.3598L42.9442 47.426C42.9564 47.069 43.0874 46.7285 43.322 46.4592C45.9405 43.4541 51.1348 38.0178 54.6768 37.3881C57.3229 36.9471 62.0338 36.9804 67.8685 37.1209Z" fill="#EF8871"/>
<path fill-rule="evenodd" clip-rule="evenodd" d="M59.915 65.27C59.915 67.5385 58.1002 69.3946 55.8317 69.3946C53.5632 69.3946 51.7072 67.5798 51.7072 65.3113C51.7072 64.9401 52.0371 64.6101 52.4083 64.6101L59.2138 64.5688C59.585 64.5688 59.915 64.8988 59.915 65.27Z" fill="white"/>
<path fill-rule="evenodd" clip-rule="evenodd" d="M46.9226 61.2692C48.0775 61.2692 48.9849 62.2591 48.9849 63.414C48.9849 64.5688 47.995 65.4763 46.8401 65.4763C45.6852 65.4763 44.7778 64.4864 44.7778 63.3315C44.8191 62.1766 45.7677 61.2692 46.9226 61.2692Z" fill="#E8685B"/>
<path fill-rule="evenodd" clip-rule="evenodd" d="M64.9469 61.5579C66.1018 61.5579 67.0092 62.5478 67.0092 63.7027C67.0092 64.8575 66.0193 65.7649 64.8644 65.7649C63.7095 65.7649 62.8021 64.7751 62.8021 63.6202C62.8434 62.4653 63.792 61.5579 64.9469 61.5579Z" fill="#E8685B"/>
<path fill-rule="evenodd" clip-rule="evenodd" d="M62.5134 59.2482C62.5134 58.877 62.6784 58.5058 62.9671 58.2583C63.2558 58.0108 63.627 57.8458 63.9982 57.8871C64.3694 57.8871 64.7406 58.0521 64.9881 58.3408C65.2356 58.6295 65.4006 59.0007 65.3593 59.3719C65.3593 59.7019 65.6068 59.9906 65.9367 59.9906C66.2667 59.9906 66.5554 59.7431 66.5554 59.4132C66.5967 58.712 66.308 58.0108 65.8543 57.5159C65.3593 57.0209 64.6994 56.691 63.9982 56.691C63.297 56.6497 62.5959 56.9384 62.1009 57.3921C61.606 57.8871 61.276 58.547 61.276 59.2482C61.276 59.5781 61.5235 59.8669 61.8534 59.8669C62.2247 59.8669 62.5134 59.6194 62.5134 59.2482Z" fill="#210309"/>
<path fill-rule="evenodd" clip-rule="evenodd" d="M46.0976 58.6707C46.0976 58.2995 46.2626 57.9283 46.5513 57.6808C46.84 57.4334 47.2112 57.2684 47.5824 57.3096C47.9536 57.3096 48.3249 57.4746 48.5723 57.7633C48.8198 58.0521 48.9848 58.4233 48.9435 58.7945C48.9435 59.1244 49.191 59.4132 49.521 59.4132C49.8509 59.4132 50.1397 59.1657 50.1397 58.8357C50.1809 58.1345 49.8922 57.4334 49.4385 56.9384C48.9435 56.4435 48.2836 56.1135 47.5824 56.1135C46.8813 56.0723 46.1801 56.361 45.6851 56.8147C45.1902 57.3096 44.8602 57.9696 44.8602 58.6707C44.8602 59.0007 45.1077 59.2894 45.4377 59.2894C45.8089 59.2894 46.0976 59.0419 46.0976 58.6707Z" fill="#210309"/>
<path fill-rule="evenodd" clip-rule="evenodd" d="M66.0606 54.2162C66.3493 54.3812 66.7205 54.2575 66.8855 53.9688C67.0505 53.68 66.9267 53.3088 66.638 53.1438C65.1119 52.3189 63.1734 52.154 61.6473 52.9789C61.3586 53.1438 61.2348 53.5151 61.3998 53.8038C61.5648 54.0925 61.936 54.2162 62.2247 54.0512C63.3384 53.4326 64.9469 53.5975 66.0606 54.2162Z" fill="#210309"/>
<path fill-rule="evenodd" clip-rule="evenodd" d="M45.7677 53.515C47.005 52.9788 48.4486 52.8551 49.6035 53.6388C49.8922 53.8038 50.2634 53.7213 50.4284 53.4738C50.5934 53.1851 50.5109 52.8139 50.2634 52.6489C48.8198 51.7002 46.7988 51.7415 45.2727 52.4427C44.984 52.5664 44.819 52.9376 44.984 53.2676C45.1077 53.515 45.4789 53.6388 45.7677 53.515Z" fill="#210309"/>
<path fill-rule="evenodd" clip-rule="evenodd" d="M43.7203 53.1107C43.4611 54.1516 42.3648 54.2383 41.369 53.8393C41.0121 53.6963 40.2228 53.4687 39.9915 53.1616C34.3977 45.7347 35.726 34.7102 42.4681 29.139C49.3561 23.4471 63.7508 23.5708 66.2255 24.4782C67.025 24.7714 67.8202 25.4262 68.5305 26.1783C70.113 27.8542 73.2232 27.8915 75.2583 28.974C77.1968 30.0464 83.3836 42.7087 83.2599 45.8434C83.1793 47.8841 80.5116 51.1135 78.6594 53.119C77.5702 54.2984 75.6164 54.5854 74.7366 55.9282C74.6476 56.064 74.5858 56.1898 74.5446 56.2873C74.4904 56.4159 74.472 56.555 74.4668 56.6945C74.4256 57.8075 73.3001 58.6493 72.7927 57.6577C72.5628 57.2085 72.4411 56.662 72.3796 56.1127C72.2658 55.0944 71.8961 54.1086 71.2562 53.3084C70.4926 52.3536 69.5547 50.935 69.2745 49.4556C69.1486 48.7908 69.2947 48.1142 69.4915 47.4668L69.7932 46.474C70.2338 45.0244 70.1684 43.4681 69.6079 42.0606C68.9724 40.4646 67.7463 39.1749 66.1845 38.4594L62.6027 36.8184C61.0701 36.1163 59.3548 35.9163 57.7018 36.2469L47.5101 38.2852C46.0185 38.5835 44.9106 39.8427 44.8048 41.3602L44.6434 43.6737C44.5246 45.376 44.278 49.9486 44.013 51.6343C43.9341 52.1364 43.8378 52.639 43.7203 53.1107Z" fill="#210309"/>
<path fill-rule="evenodd" clip-rule="evenodd" d="M39.3386 46.6841C37.6035 46.2845 36.5559 44.9144 36.4955 43.1349C36.3146 37.8032 38.4142 32.4939 42.4681 29.139C49.3561 23.4471 63.7508 23.5708 66.2255 24.4782C67.025 24.7714 67.8202 25.4262 68.5305 26.1783C70.113 27.8542 73.2232 27.8915 75.2582 28.974C76.2796 29.5485 78.511 33.3829 80.3664 37.3433C81.3715 39.4885 81.4449 42.266 79.5208 43.6479C78.7501 44.2013 77.8579 44.5148 76.8256 44.4411C75.0964 44.3054 73.0049 43.6402 70.9863 42.7892C70.1464 42.435 69.4994 41.7443 69.1563 40.8998C68.8104 40.0483 68.1524 39.3609 67.3168 38.9781L62.6027 36.8184C61.0701 36.1163 59.3548 35.9163 57.7018 36.2469L48.6661 38.054C46.4911 38.489 44.8746 40.3234 44.7165 42.5358L44.7078 42.6576C44.5187 45.3055 41.9255 47.2798 39.3386 46.6841Z" fill="#2D010B"/>
<path fill-rule="evenodd" clip-rule="evenodd" d="M47.5001 51.7827C49.2736 51.824 50.841 52.5664 51.9546 53.7625C52.4665 54.295 52.8768 54.9087 53.1753 55.5836C53.7042 56.7793 54.72 57.8309 56.0269 57.8656C57.3603 57.901 58.4462 56.8622 59.0544 55.6751C59.3803 55.0389 59.8108 54.4656 60.3274 53.9687C61.5235 52.8551 63.0909 52.1539 64.8644 52.1952C66.638 52.2364 68.2053 52.9789 69.3189 54.175C69.9255 54.8058 70.4036 55.5508 70.7113 56.3764C71.0828 57.3732 71.9155 58.2342 72.979 58.2563L74.5465 58.289C74.824 58.2948 75.0426 58.5275 75.031 58.8048C75.0198 59.0741 74.7953 59.2849 74.5259 59.2793L72.9684 59.2469C71.8845 59.2243 70.9994 60.0596 70.5746 61.057C70.2345 61.8556 69.7364 62.5668 69.1127 63.1665C67.9166 64.2801 66.3493 64.9813 64.5757 64.9401C62.8022 64.8988 61.2348 64.1564 60.1212 62.9603C59.6167 62.4355 59.201 61.8318 58.8984 61.1684C58.3523 59.9713 57.3335 58.8913 56.0182 58.8564C54.7022 58.8214 53.6299 59.8457 53.0353 61.0204C52.7078 61.6674 52.2724 62.2501 51.7484 62.754C50.5522 63.8677 48.9849 64.5688 47.2114 64.5276C45.4378 64.4864 43.8705 63.7439 42.7569 62.5478C41.6432 61.3517 40.942 59.7844 40.9833 58.0108C41.0245 56.2373 41.767 54.6699 42.9631 53.5563C44.1592 52.4014 45.7678 51.7415 47.5001 51.7827ZM68.6178 54.7937C67.6691 53.8038 66.3493 53.1438 64.8644 53.1438C63.3796 53.1026 62.0185 53.68 61.0286 54.6287C60.0387 55.5773 59.3788 56.8972 59.3788 58.382C59.3375 59.8669 59.915 61.228 60.8636 62.2178C61.8123 63.2077 63.1321 63.8677 64.617 63.8677C66.1018 63.9089 67.4629 63.3315 68.4528 62.3828C69.4427 61.4342 70.1026 60.1143 70.1026 58.6295C70.1439 57.1447 69.5664 55.7836 68.6178 54.7937ZM51.2534 54.4224C50.3048 53.4326 48.9849 52.7726 47.5001 52.7726C46.0152 52.7314 44.6541 53.3088 43.6643 54.2575C42.6744 55.2061 42.0144 56.526 42.0144 58.0108C41.9732 59.4956 42.5506 60.8567 43.4993 61.8466C44.4479 62.8365 45.7678 63.4965 47.2526 63.4965C48.7374 63.5377 50.0985 62.9603 51.0884 62.0116C52.0783 61.063 52.7383 59.7431 52.7383 58.2583C52.7795 56.7734 52.2021 55.4123 51.2534 54.4224Z" fill="#210309"/>
<path fill-rule="evenodd" clip-rule="evenodd" d="M53.0505 84.5328C53.6584 84.6814 54.1135 85.1869 54.1978 85.807L55.0415 92.0166C55.0701 92.2269 54.9617 92.4321 54.7718 92.527C54.5342 92.6458 54.2455 92.5567 54.1167 92.3244C53.4323 91.0893 51.4243 87.461 50.89 86.4452C50.7975 86.2694 50.6683 86.095 50.7358 85.9082C50.7796 85.787 50.8863 85.6821 50.9762 85.5898C51.1247 85.4374 51.3655 85.1891 51.5945 84.9528C51.971 84.5643 52.525 84.4044 53.0505 84.5328Z" fill="#FDF3F2"/>
<path fill-rule="evenodd" clip-rule="evenodd" d="M53.4542 79.5501C53.6934 79.3421 53.6279 78.8894 53.3144 78.8428C53.2517 78.8335 53.1946 78.831 53.1506 78.8398C52.9443 78.881 52.2019 79.4172 51.9957 79.541C51.8307 79.6647 50.5108 84.0367 50.5521 84.243C50.5933 84.4492 50.7996 84.4904 50.9233 84.4904C52.5088 84.4904 53.8101 83.2718 53.5947 81.701L53.3563 79.9623C53.3306 79.7748 53.3115 79.6743 53.4542 79.5501Z" fill="white"/>
<path fill-rule="evenodd" clip-rule="evenodd" d="M62.3198 85.6202C61.8051 85.6631 61.3215 85.8841 60.9523 86.2452C59.2681 87.8921 60.9723 90.6758 63.2039 89.9217C64.9804 89.3213 66.3231 88.8617 66.3905 88.8212C66.5967 88.6975 66.638 88.615 66.6792 88.285C66.6792 86.5184 64.696 85.4222 62.9355 85.5689L62.3198 85.6202Z" fill="#FDF3F2"/>
<path fill-rule="evenodd" clip-rule="evenodd" d="M66.2464 80.398C65.8162 79.8768 65.782 79.0466 66.4566 79.0065C66.476 79.0054 66.4952 79.0048 66.5141 79.0048C68.2049 79.0048 68.3413 81.7307 68.2836 83.4205C68.2485 84.4455 68.1865 85.5031 68.0765 86.0326C68.0555 86.134 68.0294 86.2437 67.9397 86.2953C67.8902 86.3238 67.8172 86.3465 67.7102 86.3465C65.3543 86.3465 64.512 83.2444 65.8482 81.3041C66.0204 81.0541 66.1491 80.8269 66.2177 80.6345C66.2611 80.5128 66.3287 80.4976 66.2464 80.398Z" fill="white"/>
<path fill-rule="evenodd" clip-rule="evenodd" d="M61.4035 106.41C61.3127 106.368 61.2349 106.321 61.1532 106.264C60.3265 105.679 60.2082 104.493 60.931 103.784C61.2467 103.474 61.5355 103.203 61.6885 103.092C62.1422 102.762 62.7609 102.432 64.2869 102.35C65.8024 102.268 74.5173 102.023 82.232 106.503C82.3396 106.566 82.4458 106.632 82.5485 106.702C82.8415 106.903 83.5041 107.37 84.1272 107.912C84.3745 108.127 84.6742 108.286 84.9922 108.207C85.3221 108.124 86.2295 107.959 86.5183 107.464C86.5595 107.382 86.642 107.093 86.807 106.639C88.2289 101.9 90.6342 96.479 95.8341 94.6155C96.2982 94.4491 96.7997 94.3215 97.2769 94.4456C97.3069 94.4534 97.3366 94.4621 97.3658 94.4718C98.086 94.7119 98.1889 95.6704 97.928 96.3833L94.0278 107.044C93.6186 108.162 92.9649 109.174 92.1194 110.013C90.8607 111.261 89.0848 113.042 88.7455 113.486C88.2093 114.187 84.2498 115.837 80.6202 114.765C77.1823 113.71 62.9026 107.105 61.4035 106.41Z" fill="white"/>
<path fill-rule="evenodd" clip-rule="evenodd" d="M59.9849 104.663C59.09 104.803 57.9675 105.157 58.0177 106.062C58.059 106.845 60.2037 124.705 60.3687 125.571C60.5337 126.437 60.7399 126.891 61.5648 126.85C62.3891 126.808 76.1856 126.726 86.5767 129.894C86.5929 129.899 86.6085 129.904 86.6248 129.909C86.7478 129.943 87.3211 130.085 87.797 129.902C88.3332 129.696 89.8592 128.664 90.0655 128.334C90.2632 128.018 93.1909 121.673 95.6858 120.205C95.8923 120.084 96.1174 119.993 96.2903 119.827C96.4895 119.636 96.7239 119.314 96.7472 118.848C96.7885 118.023 97.1597 113.115 97.4484 109.196C97.7168 105.555 98.2701 98.5641 99.2409 95.5091C99.3754 95.086 99.602 94.4885 99.1807 94.3481C98.8246 94.2294 91.2543 97.1102 88.1274 107.034C87.8667 107.862 88.0227 108.218 87.257 108.625C85.6709 109.47 82.3712 108.715 80.7363 107.969C76.6895 106.122 68.6914 103.303 59.9849 104.663Z" fill="#F7B121"/>
<path fill-rule="evenodd" clip-rule="evenodd" d="M62.1693 124.382C61.328 124.039 60.107 124.689 60.3274 125.571C60.4924 126.437 60.6986 126.891 61.5235 126.85C62.3478 126.808 76.1443 126.726 86.5354 129.894C86.5516 129.899 86.5672 129.904 86.5835 129.909C86.7065 129.943 87.2798 130.085 87.7556 129.902C88.2918 129.695 89.8179 128.664 90.0242 128.334C90.2219 128.018 93.1496 121.673 95.6445 120.205C95.851 120.084 96.0761 119.993 96.249 119.827C96.4482 119.636 96.6826 119.314 96.7059 118.848C96.7657 118.09 96.0469 117.51 95.2978 117.639C91.768 118.246 90.4852 116.762 90.2304 115.342C90.0306 114.286 89.7123 111.195 89.4258 108.175C89.3287 107.152 88.0842 106.958 87.815 107.95C87.7523 108.181 87.6072 108.405 87.3992 108.524C86.7757 108.88 85.3051 109.588 83.692 109.43C83.5424 109.416 83.5795 109.468 83.4493 109.393C82.5468 108.874 81.3406 109.69 81.6226 110.692C82.253 112.933 82.6881 115.253 82.6 117.281C82.3112 123.88 81.0326 125.612 78.2692 125.818C75.5057 126.025 67.8753 125.158 63.957 124.829C63.3104 124.764 62.7146 124.604 62.1693 124.382Z" fill="#F4A317"/>
<path fill-rule="evenodd" clip-rule="evenodd" d="M85.3448 128.398C85.4063 129.114 85.9021 129.672 86.5849 129.896C86.5956 129.9 86.606 129.903 86.6169 129.906C86.7213 129.936 87.31 130.089 87.7967 129.902C89.2672 129.367 89.7863 127.631 89.6683 126.071C89.2499 120.535 88.5329 110.543 88.4979 109.774C88.4854 109.447 88.4154 109.182 88.3241 108.971C88.1141 108.485 87.5136 108.486 87.0371 108.717C86.3967 109.027 85.4116 109.395 84.3187 109.411C84.0545 109.415 83.8372 109.798 83.8372 110.063C83.8021 110.378 84.9869 124.23 85.3448 128.398Z" fill="#EA7E16"/>
<path fill-rule="evenodd" clip-rule="evenodd" d="M89.5712 133.404C89.2823 133.53 88.9633 133.576 88.6488 133.599C88.176 133.634 87.4182 133.597 86.7245 133.16C85.6521 132.459 85.4459 131.552 85.3634 130.52C85.3566 130.462 85.3501 130.404 85.3438 130.348C85.2288 129.32 84.9767 128.304 84.4911 127.39C84.2098 126.861 83.9231 126.363 83.7961 126.272C83.5074 126.025 81.8163 124.87 81.5276 124.457C81.4413 124.334 81.3844 124.166 81.3714 123.993C81.3468 123.665 81.3125 122.658 81.1151 122.395C80.8264 122.065 80.7852 121.323 80.9089 121.034C81.097 120.705 81.4707 120.245 81.2789 119.918C81.2627 119.89 81.2492 119.864 81.2389 119.838C81.0739 119.425 81.1151 118.765 81.2801 118.559C81.4404 118.359 83.7023 118.976 85.7975 119.503C85.9206 119.534 86.0441 119.561 86.1668 119.594C86.5021 119.683 87.2362 119.915 87.8794 120.374C88.1677 120.58 88.523 120.245 88.3161 119.957C88.0053 119.525 87.6767 119.109 87.4257 118.889C86.7658 118.27 84.951 116.786 84.6622 116.332C84.3735 115.878 84.3735 115.136 84.4148 114.93C84.456 114.723 84.6622 114.476 85.2809 114.765C85.8996 115.053 87.6319 116.249 89.2405 117.198C90.8078 118.147 90.9316 118.6 91.5502 119.838C92.1689 121.034 92.9113 123.467 93.2001 124.375C93.4888 125.282 92.6226 127.674 92.0039 129.407C91.4133 130.957 90.7897 132.871 89.5712 133.404Z" fill="#F4AD85"/>
<path fill-rule="evenodd" clip-rule="evenodd" d="M89.1731 133.523C89.1313 133.53 89.0965 133.537 89.055 133.545C88.7871 133.6 87.6933 133.77 86.7244 133.16C85.652 132.459 85.4458 131.552 85.3633 130.52C85.3565 130.462 85.35 130.404 85.3437 130.348C85.2287 129.32 84.9766 128.304 84.491 127.39C84.2097 126.861 83.923 126.363 83.796 126.272C83.5073 126.025 81.8162 124.87 81.5275 124.457C81.2751 124.142 81.771 123.91 82.1208 124.112C82.4243 124.288 82.8039 124.487 83.2598 124.705C85.3633 125.777 86.5594 127.015 86.7244 128.829C86.7778 129.541 87.1923 130.353 87.8618 130.867C88.728 131.532 90.2501 133.343 89.1731 133.523ZM82.0384 123.179C82.0325 123.179 82.0279 123.187 82.0337 123.188C82.8766 123.348 84.4917 123.895 85.6883 124.323C86.0334 124.446 86.1806 124.168 85.8588 123.993C85.7203 123.918 85.5692 123.838 85.4046 123.756C84.5215 123.297 82.6705 122.717 81.4317 122.145C81.2071 122.041 80.9666 122.238 81.115 122.436C81.3291 122.681 81.8152 122.994 82.0523 123.139C82.0576 123.142 82.0446 123.18 82.0384 123.179ZM81.8987 120.951C81.8097 120.951 81.8094 120.891 81.8981 120.897C81.9442 120.901 81.9889 120.905 82.0313 120.909C82.1224 120.917 82.1743 120.789 82.1024 120.732C81.7965 120.491 81.3454 120.104 81.2388 119.838C81.1127 119.523 81.4811 119.295 81.7862 119.444C84.2868 120.664 87.3021 121.351 87.7556 122.106C88.2505 122.972 88.498 123.096 88.2505 123.055C88.003 123.014 83.4248 120.993 81.8987 120.951ZM87.9187 120.373C87.8924 120.36 87.8885 120.366 87.9123 120.383C88.5079 120.819 88.9515 121.166 88.9902 121.197C88.9922 121.198 88.9904 121.199 88.993 121.199C89.0041 121.199 89.0125 121.184 89.0033 121.178C88.7565 121.01 88.3962 120.731 87.9223 120.375C87.9211 120.374 87.92 120.374 87.9187 120.373ZM88.9201 120.838C89.0685 121.064 89.3381 121.184 89.5291 120.993C89.8178 120.704 89.1991 119.467 87.6318 117.941C86.6034 116.973 85.7524 115.827 85.2904 115.139C85.0669 114.806 84.5532 114.499 84.4559 114.888C84.4147 115.095 84.3734 115.837 84.7034 116.291C84.9921 116.744 86.8482 118.27 87.4668 118.848C87.8684 119.249 88.5144 120.221 88.9201 120.838Z" fill="#EF8871"/>
<path fill-rule="evenodd" clip-rule="evenodd" d="M42.112 44.0343C41.3114 45.2342 41.0832 46.7338 41.5328 48.1044C42.1211 49.8979 43.7519 51.1437 45.6369 51.0455C47.224 50.9628 49.2669 50.7666 51.4082 50.3241C55.9815 49.3789 68.8742 51.1228 73.5259 50.7104C81.8988 49.968 72.2885 35.1608 70.9687 34.5421C69.6488 33.8822 57.6464 32.3561 55.9141 32.8511C54.1818 33.346 46.3864 34.2534 45.644 35.6558C44.9015 37.0581 44.8191 38.0892 44.8191 39.2029C44.7936 39.8912 43.2711 42.2971 42.112 44.0343Z" fill="#210309"/>
<path fill-rule="evenodd" clip-rule="evenodd" d="M40.9109 45.5502C40.85 45.7983 40.8596 46.0547 40.9378 46.2979C41.0927 46.7799 41.499 47.1394 41.9989 47.2192C47.2255 48.0534 53.7891 47.9346 58.7123 43.9478C61.5586 41.6429 63.7947 39.3034 67.0485 40.9847C70.7517 42.8983 75.7788 40.4013 73.7763 36.7455C72.8024 34.9676 71.8987 33.6965 71.5461 33.511C70.2263 32.851 57.2752 30.5001 55.5429 30.995C53.8106 31.4899 44.2004 32.5623 43.4579 33.9647C42.7155 35.367 42.633 36.3982 42.633 37.5118C42.633 38.473 41.281 44.0435 40.9109 45.5502Z" fill="#2D010B"/>
<path fill-rule="evenodd" clip-rule="evenodd" d="M41.7256 41.9251C40.1125 41.8534 38.5306 41.6571 37.1422 41.3361C36.8167 41.2609 36.4957 41.4824 36.4898 41.8165C36.4856 42.055 36.6409 42.264 36.8688 42.3342C38.186 42.7398 39.7053 43.102 41.3956 43.3274C41.7256 43.3687 42.0968 43.4099 42.468 43.4511C42.7155 43.4924 43.0042 43.4924 43.2517 43.4924C43.7054 43.5336 44.1591 43.5336 44.654 43.5336C45.1077 43.5336 45.6027 43.5336 46.0564 43.5336C47.7887 43.4511 49.686 43.2449 51.6658 42.7912C55.3366 41.9663 57.8938 39.7391 59.6261 37.0581C59.8736 36.6456 60.1211 36.2332 60.3686 35.8207C60.8635 34.9133 61.276 33.9647 61.6059 33.016C61.7709 32.5211 61.9359 32.0261 62.1009 31.5312C62.1421 31.325 62.2246 31.16 62.2659 30.9538C62.5863 29.8146 62.8222 28.6984 62.9968 27.6583C63.3272 25.6899 62.1262 23.9616 60.131 24.016C58.1882 24.069 56.4561 25.8127 56.4112 27.7557C56.3887 28.7254 56.3256 29.7534 56.2028 30.7888C56.2028 30.83 56.2028 30.83 56.2028 30.8713C56.1203 31.5312 55.9965 32.1499 55.8728 32.8098C55.5428 34.2534 55.0891 35.6558 54.388 36.8931C54.2642 37.1406 54.1405 37.3468 54.0168 37.553C52.8619 39.3678 50.8821 40.5227 48.4899 41.1826C47.2937 41.5126 46.0564 41.7188 44.7365 41.8426C44.3653 41.8838 43.9941 41.8838 43.6229 41.9251C43.5404 41.9251 43.4992 41.9251 43.4167 41.9251C42.8805 41.9663 42.303 41.9663 41.7256 41.9251Z" fill="#3C0212"/>
<path fill-rule="evenodd" clip-rule="evenodd" d="M19.5355 82.3456C19.783 82.2632 19.8242 82.0982 19.8242 81.9744C19.8954 80.5159 19.721 79.5175 19.6718 79.2706C19.6637 79.2303 19.6665 79.2435 19.6576 79.2034C19.5525 78.729 18.8834 78.7712 18.4064 78.8637C17.4915 79.0413 15.7636 79.181 13.5919 78.4364C13.3529 78.3544 13.1276 78.3095 12.9138 78.4441C12.7905 78.5219 12.7044 78.7034 12.6516 78.8393C12.531 79.1501 12.2947 79.7996 12.1138 80.7131C12.0511 81.0296 11.9464 81.4589 12.235 81.6032C13.1837 82.0982 15.9884 83.253 19.5355 82.3456Z" fill="white"/>
<path fill-rule="evenodd" clip-rule="evenodd" d="M14.8573 81.1047C15.0947 80.2176 14.5043 78.7291 13.6344 78.4348C13.4192 78.362 13.1396 78.3256 12.9485 78.4484C12.9378 78.4553 12.9272 78.4624 12.9168 78.4698C12.7973 78.5547 12.7456 78.7037 12.6926 78.8404C12.5718 79.1516 12.3359 79.8007 12.1551 80.7131C12.0924 81.0296 11.9878 81.4589 12.2764 81.6032C12.5492 81.7272 12.9414 81.9109 13.4439 82.0915C14.0492 82.309 14.6612 81.883 14.8174 81.2591C14.8305 81.2065 14.8438 81.1551 14.8573 81.1047Z" fill="#FCE6D7"/>
<path fill-rule="evenodd" clip-rule="evenodd" d="M62.7608 115.383C62.3332 115.383 62.177 115.044 62.1247 114.868C62.1046 114.8 62.0971 114.729 62.0896 114.659L61.4887 109.01C61.4844 108.969 61.48 108.929 61.4811 108.888C61.4848 108.76 61.5253 108.467 61.8122 108.372C62.2152 108.251 71.7563 107.657 80.0814 112.287C80.4696 112.503 80.9913 112.712 80.9913 113.156C80.9913 113.568 81.0326 115.548 81.0326 115.631C81.0326 115.713 81.0326 116.167 81.0326 116.744C81.0326 117.322 81.0326 117.239 81.0326 117.404C81.0326 117.569 80.9501 117.611 80.8263 117.652C80.7026 117.693 70.8037 115.095 62.7608 115.383Z" fill="#EB9703"/>
</g>
</svg>
