<svg width="149" height="143" viewBox="0 0 149 143" fill="none" xmlns="http://www.w3.org/2000/svg">
<mask id="mask0" mask-type="alpha" maskUnits="userSpaceOnUse" x="0" y="0" width="149" height="143">
<rect width="149" height="143" rx="8" fill="white"/>
</mask>
<g mask="url(#mask0)">
<circle cx="63" cy="110" r="49" fill="white" fill-opacity="0.45"/>
<circle cx="95.5" cy="66.5" r="28.5" fill="white" fill-opacity="0.45"/>
<circle cx="32" cy="33" r="15" fill="white" fill-opacity="0.45"/>
<path d="M28.4159 118.442L17.2059 54.7973C17.0976 54.183 17.0302 53.5623 17.0039 52.9391C16.8373 45.7234 22.0185 39.4905 29.143 38.3357L50.7754 34.5183L50.1896 118.442H28.4159Z" fill="#35495E"/>
<path d="M111.673 115.655C111.298 117.212 110.038 118.4 108.461 118.684L44.7966 129.915C40.7838 130.615 36.6636 129.554 33.4888 127.001C30.3139 124.449 28.392 120.653 28.2138 116.584C28.0547 109.685 32.8044 103.64 39.5451 102.162L57.3801 107.171H57.3599L41.3023 110.019C39.5114 110.334 37.956 111.435 37.064 113.02C36.1719 114.604 36.0373 116.505 36.6971 118.2C37.8396 120.929 40.7411 122.481 43.6453 121.916L92.3028 113.332L111.673 115.655Z" fill="#2C3E50"/>
<path d="M57.36 107.171L41.3024 110.019C39.5115 110.334 37.9561 111.435 37.0641 113.02C36.1721 114.604 36.0374 116.505 36.6972 118.2C37.8397 120.929 40.7412 122.481 43.6454 121.916L92.303 113.332L57.36 107.171Z" fill="#F9EAB0"/>
<path d="M42.7687 79.9866L53.9928 16.3338C54.3946 14.1459 56.4794 12.6864 58.6728 13.0577L121.847 24.197C128.976 25.3527 134.162 31.5896 133.996 38.8104C133.969 39.4308 133.901 40.0488 133.794 40.6606L122.57 104.313L42.7687 79.9866Z" fill="#E64C3C"/>
<path d="M108.639 34.1426C108.521 34.1426 108.403 34.1324 108.286 34.1123L62.5347 26.0452C61.5023 25.7905 60.8441 24.779 61.0295 23.7319C61.215 22.6847 62.1805 21.9608 63.2376 22.0762L108.987 30.1333C110.018 30.314 110.741 31.2536 110.65 32.2972C110.56 33.3408 109.687 34.142 108.639 34.1426Z" fill="#3F5C6C"/>
<path d="M98.9279 42.6784C98.8093 42.6785 98.691 42.6677 98.5744 42.6461L68.7376 37.3925C67.6641 37.1748 66.9598 36.1411 67.1499 35.0624C67.34 33.9837 68.3552 33.2531 69.4385 33.4155L99.2773 38.667C100.315 38.8424 101.044 39.7853 100.953 40.8339C100.862 41.8824 99.9804 42.6851 98.9279 42.6784Z" fill="#3F5C6C"/>
<path d="M103.145 51.6998L61.3649 44.3193C60.2661 44.1252 59.218 44.8586 59.0239 45.9574L55.5094 65.8527C55.3153 66.9515 56.0487 67.9996 57.1475 68.1937L98.9276 75.5741C100.026 75.7682 101.074 75.0348 101.269 73.936L104.783 54.0408C104.977 52.942 104.244 51.8939 103.145 51.6998Z" fill="#ECF0F1"/>
<path d="M133.992 38.8003C133.968 39.4237 133.901 40.0446 133.79 40.6586L122.56 104.303L106.987 99.5566L116.016 48.3743L118.157 36.2957L120.338 23.9344L121.853 24.197C128.974 25.3575 134.153 31.5868 133.992 38.8003Z" fill="#C03A2B"/>
<path d="M110.623 87.8417L47.4426 76.7124C47.2091 76.6722 46.9726 76.6519 46.7356 76.6518C44.6421 76.6571 42.8996 78.2609 42.7209 80.3468C42.5423 82.4326 43.9868 84.3093 46.0489 84.6705L109.694 95.8805C111.483 96.2046 113.034 97.3118 113.921 98.899C114.808 100.486 114.94 102.387 114.279 104.081C113.142 106.804 110.245 108.35 107.351 107.777L43.9483 96.6077C43.7148 96.5675 43.4783 96.5472 43.2413 96.5471C41.144 96.5419 39.3915 98.1427 39.2073 100.232C39.0231 102.321 40.4685 104.204 42.5344 104.566L106.199 115.776C110.209 116.479 114.328 115.421 117.502 112.873C120.677 110.324 122.601 106.532 122.782 102.465C122.941 95.2413 117.754 89.0039 110.623 87.8417Z" fill="#802F34"/>
<path d="M114.279 104.081C113.142 106.804 110.245 108.35 107.351 107.777L43.9482 96.6077L46.0489 84.6705L109.694 95.8806C111.483 96.2046 113.034 97.3118 113.921 98.899C114.808 100.486 114.939 102.387 114.279 104.081Z" fill="#F9EAB0"/>
</g>
</svg>
