<svg width="106" height="46" viewBox="0 0 106 46" fill="none" xmlns="http://www.w3.org/2000/svg">
<path d="M103.512 16.1824H98.0854V19.3615H103.512V16.1824Z" fill="#363636"/>
<path d="M105.54 23.1982C105.54 23.9108 104.937 24.5137 104.224 24.5137H101.758C101.045 24.5137 100.442 23.9108 100.442 23.1982V12.3455C100.442 11.633 101.045 11.03 101.758 11.03H104.224C104.937 11.03 105.54 11.633 105.54 12.3455V23.1982Z" fill="#595959"/>
<path d="M0.850252 34.5992C0.850252 34.5992 4.02933 38.0523 7.31803 38.0523C10.6067 38.0523 79.6695 38.0523 82.6841 38.0523C85.6988 38.0523 98.141 36.1339 99.1276 35.531C100.114 34.928 101.101 33.1741 101.265 32.5163C101.43 31.8586 101.759 27.6929 101.704 26.8159C101.649 25.9389 100.114 24.3494 100.114 22.9243C100.114 21.4992 100.114 15.5795 100.114 14.7573C100.114 13.9352 98.9632 13.7707 98.8536 13.387C98.7439 13.0034 94.5782 4.17868 91.8377 1.9314C89.0971 -0.31588 63.0615 -0.261068 54.5109 0.396672C46.0151 1.05441 41.1368 3.13726 35.7105 6.86445C30.2293 10.6465 26.8858 12.9485 26.0636 13.2226C25.2415 13.4967 17.1841 14.4285 12.6348 15.4151C8.08539 16.4017 5.61887 17.2239 4.85151 17.8268C4.13895 18.4297 2.4946 19.6356 1.5628 23.308C1.5628 23.308 0.576193 23.8013 0.356946 24.3494C0.0828879 24.9523 -0.410417 31.0912 0.850252 34.5992Z" fill="#EE3061"/>
<path d="M0.356276 24.2945L0.301464 24.3493C0.0822175 24.8974 -0.465899 31.0911 0.849581 34.5991C0.849581 34.5991 4.02866 38.0522 7.31736 38.0522C10.6061 38.0522 79.6688 38.0522 82.6834 38.0522C85.6981 38.0522 98.1403 36.1338 99.1269 35.5308C100.114 34.9279 101.1 33.1739 101.265 32.5162C101.429 31.8585 101.758 27.6928 101.703 26.8158C101.648 25.9388 100.114 24.3493 100.114 22.9242C100.114 22.0472 100.114 19.5258 100.114 17.4978L0.356276 24.2945Z" fill="url(#paint0_linear)"/>
<path d="M83.8894 24.4043C84.8212 22.3214 86.0818 17.8817 85.9722 15.4151C85.8078 13.0034 80.7103 3.68543 78.4082 2.31514C76.435 1.10928 74.8454 1.05447 70.0768 0.835224C69.2546 0.780413 68.3777 0.780413 67.391 0.725601C60.2655 0.396731 50.8379 1.21891 48.8099 1.49296C47.8233 1.6574 44.2605 2.47958 41.1362 4.34317C37.2994 6.64526 34.1203 8.89254 31.7086 11.0302C28.8036 13.5515 27.9814 14.5381 27.5429 17.2787C27.1044 20.0193 27.4333 29.995 28.0362 35.4214L28.3103 35.3666C27.7074 29.9402 27.3785 19.9645 27.817 17.2787C28.2555 14.593 29.0229 13.6612 31.8731 11.1946C34.2848 9.11179 37.4639 6.86451 41.3007 4.56242C44.3701 2.75363 47.8233 1.93146 48.8099 1.82183C50.1802 1.6574 55.0036 1.16409 60.1559 0.999659C59.9366 2.20552 58.5115 9.93396 57.4701 17.7172C56.3739 26.1582 56.8672 35.7503 56.8672 35.8599H57.1413C57.1413 35.7503 56.7028 26.213 57.7442 17.772C58.7856 9.82434 60.2107 1.98627 60.43 0.999659C62.732 0.944848 65.1438 0.944848 67.3362 1.05447C68.3228 1.10928 69.2546 1.16409 70.022 1.16409C74.7358 1.38334 76.2705 1.43815 78.2438 2.5892C80.491 3.95949 85.5337 13.113 85.6981 15.4699C85.8626 17.8817 84.6019 22.2118 83.6701 24.2946L83.8894 24.4043Z" fill="#C32750"/>
<path d="M14.169 16.8952C14.9364 16.7855 15.7037 16.7307 16.4163 16.6211C17.8414 16.4018 18.9376 16.347 19.6502 16.347C20.3627 16.347 20.8012 16.2922 20.9657 16.1278C21.0205 16.073 21.2945 15.9634 21.5686 15.7989C22.61 15.3056 24.364 14.3738 24.9669 13.3872C24.8573 13.3872 24.7477 13.442 24.5832 13.442C23.8707 14.2642 22.2811 15.0864 21.4042 15.5249C21.0205 15.6893 20.856 15.7989 20.7464 15.8537C20.6368 15.9634 20.1983 15.9634 19.5954 16.0182C18.8828 16.0182 17.7866 16.073 16.3067 16.2922C15.5941 16.4019 14.8268 16.5115 14.0594 16.5663C11.8121 16.8403 9.29077 17.1144 6.87906 17.9366C5.23471 18.4847 4.02885 18.978 3.26149 19.3069C3.15186 19.4713 3.04224 19.5809 2.93262 19.7454C3.64517 19.4165 4.96065 18.8136 6.98868 18.1558C9.4004 17.4981 11.9765 17.1692 14.169 16.8952Z" fill="#C32750"/>
<path d="M87.3424 22.5955C80.0524 22.5955 73.9683 27.967 72.8721 34.9829H27.7621C26.6658 27.967 20.6365 22.5955 13.3466 22.5955C7.53654 22.5955 2.49387 25.9938 0.136963 30.9268C0.246586 32.2423 0.465833 33.503 0.849515 34.5992C0.849515 34.5992 4.02859 38.0524 7.31729 38.0524C8.35872 38.0524 15.9775 38.0524 26.0081 38.0524C26.611 38.0524 27.2687 38.0524 27.8717 38.0524H72.7076C73.3106 38.0524 73.9135 38.0524 74.4616 38.0524C79.0658 38.0524 82.1353 38.0524 82.6834 38.0524C85.698 38.0524 98.1403 36.1339 99.1269 35.531C100.004 34.9829 100.936 33.4482 101.21 32.6808C99.2913 26.816 93.8102 22.5955 87.3424 22.5955Z" fill="#D4D4D4"/>
<path d="M2.54858 36.0791C3.75444 37.0109 5.56323 38.0523 7.37201 38.0523C8.35862 38.0523 15.1005 38.0523 24.1992 38.0523C24.1992 37.7783 24.254 37.5042 24.254 37.2302C24.254 31.2009 19.3758 26.3774 13.4013 26.3774C7.70088 26.3774 3.0967 30.5979 2.54858 36.0791Z" fill="#4D4D4D"/>
<path d="M98.0854 35.8599C97.4277 30.4883 92.8235 26.3774 87.2875 26.3774C81.2582 26.3774 76.4348 31.2557 76.4348 37.2302C76.4348 37.5042 76.4348 37.7783 76.4896 38.0523C79.9428 38.0523 82.2449 38.0523 82.7382 38.0523C85.3143 38.0523 94.8515 36.6272 98.0854 35.8599Z" fill="#4D4D4D"/>
<path d="M13.3468 45.9999C18.1902 45.9999 22.1166 42.0735 22.1166 37.2301C22.1166 32.3866 18.1902 28.4602 13.3468 28.4602C8.50331 28.4602 4.5769 32.3866 4.5769 37.2301C4.5769 42.0735 8.50331 45.9999 13.3468 45.9999Z" fill="#404040"/>
<path d="M19.321 37.2301C19.321 40.5188 16.6352 43.2046 13.3465 43.2046C10.0578 43.2046 7.37207 40.5188 7.37207 37.2301C7.37207 33.9414 10.0578 31.2556 13.3465 31.2556C16.6352 31.2556 19.321 33.9414 19.321 37.2301Z" fill="#EEEEEE"/>
<path d="M87.3424 45.9999C92.1858 45.9999 96.1123 42.0735 96.1123 37.2301C96.1123 32.3866 92.1858 28.4602 87.3424 28.4602C82.4989 28.4602 78.5725 32.3866 78.5725 37.2301C78.5725 42.0735 82.4989 45.9999 87.3424 45.9999Z" fill="#404040"/>
<path d="M93.3169 37.2301C93.3169 40.5188 90.6311 43.2046 87.3424 43.2046C84.0537 43.2046 81.3679 40.5188 81.3679 37.2301C81.3679 33.9414 84.0537 31.2556 87.3424 31.2556C90.6311 31.2556 93.3169 33.9414 93.3169 37.2301Z" fill="#EEEEEE"/>
<path d="M11.7023 16.9497C11.4282 16.9497 6.93366 17.2238 4.02864 19.0874C3.3709 19.9095 2.54873 21.2798 2.05542 23.1982C2.05542 23.1982 3.97383 22.6501 6.38554 21.2798C8.79726 19.9095 12.0311 16.9497 11.7023 16.9497Z" fill="white"/>
<path d="M100.114 14.7573C100.114 13.9351 98.9625 13.7706 98.8529 13.387C98.8529 13.387 98.8529 13.3322 98.7981 13.2773C97.4826 13.2773 95.0709 13.2773 94.6324 13.2773C94.0843 13.2773 93.8102 13.4418 93.9746 14.0447C94.1391 14.5928 98.1403 18.8681 100.059 22.2116C100.114 20.1288 100.114 15.4698 100.114 14.7573Z" fill="#FF8B00"/>
<path d="M46.9461 2.86322C45.0825 3.19209 41.2457 5.22012 38.3407 7.41259C35.4357 9.55024 31.27 13.113 30.7767 13.5515C30.2834 13.99 29.9545 15.4699 31.6537 15.4151C33.3528 15.3603 54.8938 14.0996 55.6612 13.99C56.4285 13.8804 56.4285 13.0582 56.5382 11.9071C56.6478 10.7561 58.0729 4.34313 58.2373 3.41133C58.4018 2.47953 58.4566 2.04104 58.0181 1.93142C57.5796 1.82179 52.0984 1.87661 46.9461 2.86322Z" fill="#545454"/>
<path d="M62.5677 1.9862C63.061 1.9862 74.5166 2.36988 75.7225 2.53432C76.9284 2.69875 78.4083 3.52093 79.4497 5.00084C80.4911 6.48076 82.4643 10.208 82.6836 11.2494C82.9028 12.2908 82.6288 12.9485 81.7518 12.9485C80.8748 12.9485 62.0744 13.8255 61.4715 13.8803C60.8685 13.9351 60.2108 13.7159 60.3204 12.7293C60.43 11.7427 61.6359 3.79499 61.6907 3.19206C61.7455 2.47951 61.8003 1.93139 62.5677 1.9862Z" fill="#545454"/>
<path d="M90.2474 10.3177C90.9051 11.1947 92.1658 11.3043 93.5909 11.4687C94.5775 11.5784 96.8796 11.7976 98.2499 11.9072C97.044 9.4407 94.5227 4.56246 92.4399 2.4248C90.8503 2.4248 86.5202 2.4248 86.0269 2.4248C85.424 2.4248 84.1633 2.58924 85.0951 4.12397C86.0269 5.65869 89.5897 9.4407 90.2474 10.3177Z" fill="#545454"/>
<defs>
<linearGradient id="paint0_linear" x1="50.8634" y1="16.7462" x2="50.8634" y2="27.6563" gradientUnits="userSpaceOnUse">
<stop stop-color="#EE4C76"/>
<stop offset="1" stop-color="#EE3061"/>
</linearGradient>
</defs>
</svg>
