<svg width="464" height="202" viewBox="0 0 464 202" fill="none" xmlns="http://www.w3.org/2000/svg">
<path d="M431.802 84.0222V72.0619H453.631V84.0222H431.802Z" fill="white" stroke="black" stroke-width="2"/>
<path d="M462.536 101.871C462.536 104.448 460.336 106.648 457.76 106.648H446.928C444.352 106.648 442.152 104.448 442.152 101.871V54.2134C442.152 51.6367 444.352 49.4368 446.928 49.4368H457.76C460.336 49.4368 462.536 51.6367 462.536 54.2134V101.871Z" fill="white" stroke="black" stroke-width="2"/>
<path d="M4.68113 151.403C4.68524 151.407 4.68943 151.412 4.69372 151.416C4.79542 151.523 4.9481 151.681 5.14847 151.884C5.54927 152.29 6.14049 152.872 6.89585 153.571C8.40766 154.972 10.5713 156.839 13.1768 158.704C18.4216 162.459 25.3092 166.099 32.2113 166.099H32.2992H32.3937H32.4948H32.6024H32.7165H32.8371H32.9641H33.0976H33.2375H33.3837H33.5363H33.6952H33.8605H34.032H34.2097H34.3937H34.5839H34.7802H34.9827H35.1913H35.406H35.6268H35.8536H36.0865H36.3253H36.5701H36.8208H37.0774H37.3399H37.6083H37.8825H38.1626H38.4484H38.7399H39.0372H39.3402H39.6489H39.9632H40.2832H40.6087H40.9399H41.2766H41.6188H41.9665H42.3197H42.6783H43.0423H43.4118H43.7866H44.1667H44.5522H44.943H45.339H45.7403H46.1467H46.5584H46.9752H47.3972H47.8243H48.2564H48.6937H49.1359H49.5832H50.0354H50.4926H50.9547H51.4217H51.8936H52.3704H52.852H53.3383H53.8295H54.3254H54.826H55.3313H55.8413H56.3559H56.8752H57.399H57.9274H58.4604H58.9979H59.5398H60.0862H60.6371H61.1923H61.752H62.316H62.8843H63.457H64.0339H64.6151H65.2005H65.7901H66.3839H66.9819H67.584H68.1902H68.8004H69.4147H70.033H70.6554H71.2817H71.9119H72.5461H73.1841H73.826H74.4718H75.1214H75.7748H76.4319H77.0928H77.7574H78.4256H79.0976H79.7731H80.4523H81.1351H81.8214H82.5112H83.2046H83.9014H84.6017H85.3054H86.0126H86.723H87.4369H88.1541H88.8745H89.5983H90.3253H91.0555H91.7889H92.5254H93.2652H94.008H94.7539H95.5029H96.2549H97.01H97.768H98.529H99.2929H100.06H100.83H101.602H102.378H103.156H103.937H104.721H105.507H106.296H107.088H107.883H108.68H109.479H110.282H111.087H111.894H112.704H113.516H114.331H115.148H115.968H116.79H117.614H118.441H119.27H120.101H120.934H121.77H122.608H123.448H124.29H125.134H125.981H126.829H127.679H128.532H129.386H130.242H131.101H131.961H132.823H133.687H134.552H135.42H136.289H137.16H138.033H138.908H139.784H140.661H141.541H142.422H143.304H144.188H145.074H145.961H146.849H147.739H148.631H149.523H150.418H151.313H152.21H153.108H154.007H154.908H155.809H156.712H157.616H158.521H159.428H160.335H161.243H162.153H163.063H163.975H164.887H165.8H166.714H167.629H168.545H169.462H170.379H171.297H172.216H173.136H174.056H174.977H175.899H176.821H177.744H178.667H179.591H180.516H181.44H182.366H183.291H184.218H185.144H186.071H186.998H187.926H188.854H189.782H190.71H191.638H192.567H193.495H194.424H195.353H196.282H197.211H198.14H199.069H199.998H200.927H201.856H202.785H203.714H204.642H205.57H206.498H207.426H208.353H209.281H210.207H211.134H212.06H212.986H213.911H214.836H215.76H216.684H217.607H218.53H219.452H220.374H221.295H222.215H223.135H224.054H224.972H225.889H226.806H227.722H228.637H229.551H230.464H231.376H232.287H233.198H234.107H235.015H235.923H236.829H237.734H238.638H239.541H240.442H241.343H242.242H243.14H244.037H244.932H245.826H246.719H247.61H248.5H249.388H250.275H251.161H252.045H252.927H253.808H254.687H255.565H256.441H257.315H258.188H259.059H259.928H260.795H261.661H262.525H263.386H264.247H265.105H265.961H266.815H267.667H268.518H269.366H270.212H271.056H271.898H272.738H273.576H274.411H275.244H276.076H276.904H277.731H278.555H279.377H280.196H281.013H281.828H282.64H283.45H284.257H285.062H285.864H286.664H287.461H288.255H289.047H289.836H290.622H291.406H292.186H292.964H293.74H294.512H295.282H296.048H296.812H297.573H298.331H299.085H299.837H300.586H301.332H302.074H302.814H303.55H304.284H305.014H305.74H306.464H307.184H307.901H308.615H309.325H310.032H310.735H311.435H312.132H312.825H313.515H314.201H314.883H315.562H316.238H316.909H317.577H318.242H318.902H319.559H320.212H320.862H321.507H322.149H322.787H323.421H324.051H324.677H325.299H325.917H326.531H327.141H327.747H328.349H328.946H329.54H330.129H330.714H331.295H331.872H332.444H333.012H333.576H334.135H334.69H335.241H335.787H336.329H336.866H337.399H337.927H338.45H338.969H339.484H339.993H340.498H340.999H341.494H341.985H342.471H342.952H343.429H343.9H344.367H344.829H345.286H345.738H346.185H346.626H347.063H347.495H347.922H348.344H348.76H349.171H349.578H349.979H350.374H350.765H351.15H351.53H351.904H352.273H352.637H352.995H353.348H353.695H354.037H354.373H354.704H355.029H355.349H355.663H355.971H356.274H356.571H356.862H357.147H357.427H357.701H357.969H358.231H358.487H358.738H358.982H359.221H359.453H359.679H359.9H360.114H360.322H360.524H360.72H360.91H361.094H361.271H361.442H361.607H361.766H361.918H362.064H362.203H362.336H362.463H362.583H362.697H362.804H362.904H362.999H363.086H363.167C369.695 166.099 386.585 164.008 402.459 161.568C410.379 160.351 418.014 159.052 423.935 157.893C426.896 157.313 429.419 156.771 431.329 156.293C432.285 156.054 433.077 155.834 433.689 155.636C434.324 155.431 434.692 155.273 434.854 155.174C436.827 153.968 438.894 151.533 440.586 148.951C442.277 146.369 443.471 143.831 443.792 142.547C443.953 141.906 444.172 140.296 444.407 138.095C444.639 135.925 444.879 133.258 445.089 130.557C445.512 125.116 445.805 119.659 445.69 117.819C445.644 117.081 445.268 116.084 444.607 114.8C444.151 113.914 443.605 112.974 443.019 111.963C442.765 111.526 442.504 111.075 442.239 110.61C440.539 107.627 438.708 104.098 438.708 100.668V100.631V100.593V100.556V100.517V100.479V100.439V100.4V100.36V100.319V100.279V100.237V100.196V100.153V100.111V100.068V100.024V99.9805V99.9362V99.8915V99.8464V99.8008V99.7549V99.7085V99.6618V99.6146V99.567V99.519V99.4706V99.4219V99.3727V99.3231V99.2732V99.2228V99.1721V99.1209V99.0694V99.0175V98.9652V98.9126V98.8595V98.8061V98.7523V98.6981V98.6436V98.5887V98.5334V98.4778V98.4218V98.3654V98.3087V98.2516V98.1942V98.1364V98.0782V98.0197V97.9609V97.9017V97.8422V97.7823V97.7221V97.6616V97.6007V97.5394V97.4779V97.416V97.3538V97.2912V97.2284V97.1652V97.1016V97.0378V96.9736V96.9092V96.8444V96.7793V96.7139V96.6482V96.5821V96.5158V96.4492V96.3823V96.315V96.2475V96.1797V96.1115V96.0431V95.9744V95.9055V95.8362V95.7666V95.6968V95.6267V95.5563V95.4856V95.4146V95.3434V95.2719V95.2002V95.1281V95.0558V94.9833V94.9104V94.8374V94.764V94.6904V94.6166V94.5425V94.4681V94.3935V94.3187V94.2436V94.1683V94.0927V94.0169V93.9408V93.8645V93.788V93.7113V93.6343V93.5571V93.4797V93.402V93.3241V93.246V93.1677V93.0892V93.0104V92.9315V92.8523V92.7729V92.6933V92.6135V92.5335V92.4533V92.3729V92.2924V92.2116V92.1306V92.0494V91.968V91.8865V91.8047V91.7228V91.6407V91.5584V91.476V91.3933V91.3105V91.2275V91.1444V91.061V90.9775V90.8939V90.81V90.7261V90.6419V90.5576V90.4731V90.3885V90.3037V90.2188V90.1338V90.0485V89.9632V89.8777V89.792V89.7062V89.6203V89.5343V89.4481V89.3618V89.2753V89.1887V89.102V89.0152V88.9282V88.8412V88.754V88.6667V88.5793V88.4917V88.4041V88.3163V88.2285V88.1405V88.0524V87.9643V87.876V87.7876V87.6992V87.6106V87.5219V87.4332V87.3444V87.2555V87.1665V87.0774V86.9882V86.899V86.8096V86.7203V86.6308V86.5412V86.4516V86.362V86.2722V86.1824V86.0925V86.0026V85.9126V85.8226V85.7325V85.6423V85.5521V85.4619V85.3716V85.2812V85.1909V85.1004V85.01V84.9195V84.8289V84.7384V84.6478V84.5571V84.4665V84.3758V84.2851V84.1943V84.1036V84.0128V83.922V83.8312V83.7404V83.6496V83.5587V83.4679V83.377V83.2862V83.1953V83.1045V83.0136V82.9228V82.8319V82.7411V82.6502V82.5594V82.4686V82.3778V82.2871V82.1963V82.1056V82.0149V81.9242V81.8335V81.7429V81.6523V81.5617V81.4712V81.3807V81.2903V81.1998V81.1095V81.0191V80.9288V80.8386V80.7484V80.6583V80.5682V80.4782V80.3882V80.2983V80.2084V80.1186V80.0289V79.9392V79.8496V79.7601V79.6706V79.5813V79.492V79.4027V79.3136V79.2245V79.1355V79.0466V78.9578V78.8691V78.7804V78.6919V78.6035V78.5151V78.4269V78.3387V78.2506V78.1627V78.0749V77.9871V77.8995V77.812V77.7246V77.6373V77.5501V77.4631V77.3762V77.2894V77.2027V77.1161V77.0297V76.9434V76.8572V76.7712V76.6853V76.5995V76.5139V76.4284V76.3431V76.2579V76.1729V76.088V76.0032V75.9187V75.8342V75.7499V75.6658V75.5819V75.4981V75.4144V75.331V75.2477V75.1645V75.0816V74.9988V74.9162V74.8337V74.7515V74.6694V74.5875V74.5058V74.4243V74.343V74.2618V74.1809V74.1001V74.0196V73.9392V73.8591V73.7791V73.6993V73.6198V73.5405V73.4613V73.3824V73.3037V73.2252V73.1469V73.0689V72.991V72.9134V72.836V72.7588V72.6819V72.6052V72.5287V72.4525V72.3765V72.3007V72.2252V72.1499V72.0748V72V71.9255V71.8512V71.7771V71.7033V71.6298V71.5565V71.4835V71.4107V71.3382V71.2659V71.1939V71.1222V71.0508V70.9796V70.9087V70.8381V70.7677V70.6977V70.6279V70.5584V70.4892V70.4202V70.3516V70.2832V70.2151V70.1474V70.0799V70.0127V69.9458V69.8793V69.813V69.747V69.6814V69.616V69.551V69.4863V69.4218V69.3577V69.294V69.2305V69.1674V69.1046V69.0421V68.9799V68.9181V68.8566V68.7954V68.7346V68.6741V68.614V68.5541V68.4947V68.4355V68.3768V68.3183V68.2603V68.2025V68.1452V68.0882V68.0315V67.9752V67.9193V67.8637V67.8085V67.7536V67.6992V67.6451V67.5914V67.538V67.485V67.4324V67.3802V67.3284V67.2769V67.2259V67.1752V67.1249V67.075V67.0255V66.9764V66.9277V66.8794V66.8315V66.784V66.7369V66.6902V66.6439V66.5981V66.5526V66.5076V66.4629V66.4187V66.3749V66.3316V66.2886V66.2461V66.204V66.1624V66.1211V66.0803V66.04V66.0001V65.9606V65.9215V65.8829V65.8448V65.8071V65.7698V65.733V65.6966V65.6607V65.6253V65.5903V65.5557V65.5217V65.4881V65.4549V65.4222V65.39V65.3583V65.327V65.2963V65.266V65.2361V65.2068V65.1779V65.1495V65.1216V65.0942V65.0673V65.0408V65.0149V64.9895V64.9645V64.9401V64.9161V64.8927V64.8698V64.8473V64.8254V64.804C438.708 63.5608 437.874 62.7382 436.584 61.9169C436.292 61.7314 435.996 61.5575 435.695 61.3803L435.628 61.3409C435.311 61.1547 434.983 60.9605 434.685 60.762C434.15 60.4054 433.441 59.8689 433.21 59.0613L433.21 59.0607C433.208 59.0544 433.192 59.0058 433.147 58.8927C433.102 58.7813 433.04 58.6333 432.961 58.4484C432.801 58.0794 432.578 57.5796 432.295 56.9636C431.729 55.7323 430.932 54.0494 429.949 52.0432C427.984 48.0308 425.284 42.7351 422.224 37.1857C419.163 31.6342 415.75 25.841 412.358 20.8283C408.953 15.795 405.619 11.6249 402.729 9.25464C402.107 8.74508 401.081 8.21421 399.614 7.68918C398.163 7.16958 396.345 6.67848 394.195 6.21779C389.895 5.29652 384.336 4.51212 377.854 3.85377C364.893 2.53749 348.33 1.73347 330.951 1.32755C296.19 0.51566 258.256 1.29824 239.527 2.73893C202.405 5.61289 181.15 14.6945 157.459 30.967C145.427 39.2692 135.731 45.9538 128.593 50.713C125.024 53.0922 122.084 54.9966 119.807 56.3838C117.562 57.7505 115.873 58.6707 114.845 59.0132C114.309 59.1918 113.284 59.3988 111.95 59.6312C110.586 59.8688 108.82 60.1457 106.749 60.4563C104.157 60.8451 101.073 61.2889 97.6829 61.7766C95.6595 62.0677 93.5271 62.3745 91.3254 62.6946C79.5267 64.4103 65.7204 66.5118 55.7706 68.6696C45.7976 70.8324 38.1281 72.8107 32.5423 74.5731C26.9257 76.3452 23.5431 77.8619 22.0116 79.0584C21.8451 79.1992 21.6686 79.3463 21.483 79.501C19.9047 80.8165 17.6678 82.6808 15.3249 85.8567C12.7001 89.4148 9.92432 94.6501 7.9076 102.598L7.795 103.042L4.68113 151.403ZM4.68113 151.403C2.02829 143.884 1.19885 133.538 1.19885 124.647C1.19885 120.178 1.40818 116.109 1.69117 113C1.83274 111.444 1.99197 110.138 2.15091 109.146C2.3173 108.108 2.46715 107.529 2.55339 107.339L2.56293 107.318L2.5715 107.297C2.74132 106.872 3.08885 106.398 3.58369 105.903C4.0705 105.416 4.65235 104.957 5.22517 104.556C5.79545 104.156 6.33989 103.827 6.74245 103.597C6.94313 103.482 7.10706 103.393 7.21942 103.333C7.27557 103.303 7.31874 103.281 7.34706 103.266L7.37816 103.251L7.3849 103.247L7.38552 103.247L7.38579 103.247L7.38595 103.247L4.68113 151.403Z" fill="white" stroke="black" stroke-width="2"/>
<path d="M438.708 77.9092V77.9449V77.998V78.0512V78.1044V78.1577V78.211V78.2644V78.3177V78.3712V78.4246V78.4781V78.5317V78.5852V78.6388V78.6925V78.7462V78.7999V78.8536V78.9074V78.9612V79.0151V79.0689V79.1228V79.1768V79.2308V79.2848V79.3388V79.3929V79.447V79.5011V79.5552V79.6094V79.6636V79.7178V79.7721V79.8264V79.8807V79.935V79.9894V80.0438V80.0982V80.1527V80.2071V80.2616V80.3161V80.3706V80.4252V80.4798V80.5344V80.589V80.6436V80.6983V80.7529V80.8076V80.8623V80.9171V80.9718V81.0266V81.0814V81.1362V81.191V81.2458V81.3006V81.3555V81.4104V81.4653V81.5202V81.5751V81.63V81.6849V81.7399V81.7948V81.8498V81.9048V81.9598V82.0148V82.0698V82.1248V82.1799V82.2349V82.29V82.345V82.4001V82.4551V82.5102V82.5653V82.6204V82.6754V82.7305V82.7856V82.8407V82.8958V82.9509V83.006V83.0612V83.1163V83.1714V83.2265V83.2816V83.3367V83.3918V83.4469V83.502V83.5571V83.6122V83.6673V83.7224V83.7775V83.8326V83.8877V83.9428V83.9979V84.0529V84.108V84.163V84.2181V84.2731V84.3282V84.3832V84.4382V84.4932V84.5482V84.6032V84.6582V84.7131V84.7681V84.823V84.878V84.9329V84.9878V85.0427V85.0976V85.1524V85.2073V85.2621V85.3169V85.3717V85.4265V85.4813V85.536V85.5908V85.6455V85.7002V85.7549V85.8095V85.8642V85.9188V85.9734V86.028V86.0825V86.137V86.1916V86.2461V86.3005V86.355V86.4094V86.4638V86.5182V86.5725V86.6268V86.6811V86.7354V86.7896V86.8438V86.898V86.9522V87.0063V87.0604V87.1145V87.1685V87.2226V87.2765V87.3305V87.3844V87.4383V87.4922V87.546V87.5998V87.6535V87.7072V87.7609V87.8146V87.8682V87.9218V87.9753V88.0288V88.0823V88.1358V88.1892V88.2425V88.2958V88.3491V88.4024V88.4556V88.5087V88.5619V88.6149V88.668V88.721V88.7739V88.8268V88.8797V88.9325V88.9853V89.0381V89.0908V89.1434V89.196V89.2486V89.3011V89.3535V89.4059V89.4583V89.5106V89.5629V89.6151V89.6673V89.7194V89.7715V89.8235V89.8755V89.9274V89.9793V90.0311V90.0828V90.1346V90.1862V90.2378V90.2894V90.3408V90.3923V90.4437V90.495V90.5463V90.5975V90.6486V90.6997V90.7508V90.8017V90.8526V90.9035V90.9543V91.005V91.0557V91.1063V91.1569V91.2074V91.2578V91.3082V91.3585V91.4087V91.4589V91.509V91.5591V91.6091V91.659V91.7088V91.7586V91.8083V91.858V91.9076V91.9571V92.0065V92.0559V92.1052V92.1544V92.2036V92.2527V92.3017V92.3507V92.3995V92.4483V92.4971V92.5457V92.5943V92.6428V92.6913V92.7396V92.7879V92.8361V92.8843V92.9323V92.9803V93.0282V93.076V93.1238V93.1714V93.219V93.2665V93.314V93.3613V93.4086V93.4558V93.5029V93.5499V93.5968V93.6437V93.6905V93.7372V93.7838V93.8303V93.8767V93.9231V93.9693V94.0155V94.0616V94.1076V94.1535V94.1993V94.2451V94.2907V94.3363V94.3818V94.4271V94.4724V94.5176V94.5627V94.6078V94.6527V94.6975V94.7423V94.7869V94.8315V94.8759V94.9203V94.9645V95.0087V95.0528V95.0968V95.1406V95.1844V95.2281V95.2717V95.3152V95.3586V95.4019V95.4451V95.4882V95.5311V95.574V95.6168V95.6595V95.7021V95.7446V95.787V95.8292V95.8714V95.9135V95.9554V95.9973V96.039V96.0807V96.1222V96.1636V96.205V96.2462V96.2873V96.3283V96.3692V96.41V96.4506V96.4912V96.5316V96.572V96.6122V96.6523V96.6923V96.7322V96.772V96.8116V96.8512V96.8906V96.9299V96.9691V97.0082V97.0472V97.0861V97.1248V97.1634V97.2019V97.2403V97.2786V97.3167V97.3547V97.3927V97.4304V97.4681V97.5057V97.5431V97.5804V97.6176V97.6546V97.6915V97.7284V97.765V97.8016V97.838V97.8743V97.9105V97.9466V97.9825V98.0183V98.054V98.0895V98.125V98.1603V98.1954V98.2304V98.2654V98.3001V98.3348V98.3693V98.4037V98.4379V98.472V98.506V98.5398V98.5736V98.6071V98.6406V98.6739V98.7071V98.7401V98.773V98.8058V98.8384V98.8709V98.9032V98.9354V98.9675V98.9995V99.0313V99.0629V99.0944V99.1258V99.157V99.1881V99.2191V99.2499V99.2805V99.3111V99.3414V99.3717V99.4018V99.4317V99.4615V99.4911V99.5207V99.55V99.5792V99.6083V99.6372V99.666V99.6946V99.7231V99.7514V99.7795V99.8076V99.8354V99.8631V99.8907V99.9181V99.9454V99.9725V99.9994V100.026V100.053V100.079V100.106V100.132V100.158V100.184V100.209V100.235V100.26V100.286V100.311V100.336V100.36V100.385V100.409V100.434V100.458V100.482V100.506V100.529V100.553V100.576V100.599V100.622V100.645V100.668C438.708 104.098 440.538 107.627 442.239 110.61C442.504 111.075 442.765 111.526 443.019 111.963C443.605 112.974 444.151 113.914 444.606 114.8C445.267 116.084 445.644 117.081 445.69 117.819C445.805 119.659 445.512 125.116 445.089 130.557C444.879 133.258 444.639 135.925 444.407 138.095C444.172 140.296 443.952 141.906 443.792 142.547C443.471 143.831 442.277 146.369 440.586 148.951C438.894 151.533 436.827 153.968 434.854 155.174C434.692 155.273 434.324 155.431 433.688 155.636C433.077 155.834 432.285 156.054 431.329 156.293C429.418 156.771 426.896 157.313 423.934 157.893C418.014 159.052 410.378 160.351 402.459 161.568C386.584 164.008 369.695 166.099 363.167 166.099H363.086H362.998H362.904H362.804H362.696H362.583H362.463H362.336H362.203H362.063H361.918H361.765H361.607H361.442H361.271H361.094H360.91H360.72H360.524H360.322H360.114H359.9H359.679H359.453H359.22H358.982H358.738H358.487H358.231H357.969H357.701H357.427H357.147H356.862H356.571H356.274H355.971H355.663H355.349H355.029H354.704H354.373H354.037H353.695H353.348H352.995H352.637H352.273H351.904H351.529H351.15H350.764H350.374H349.978H349.577H349.171H348.76H348.343H347.922H347.495H347.063H346.626H346.184H345.737H345.286H344.829H344.367H343.9H343.429H342.952H342.471H341.985H341.494H340.998H340.498H339.993H339.483H338.969H338.45H337.927H337.398H336.866H336.329H335.787H335.241H334.69H334.135H333.576H333.012H332.444H331.872H331.295H330.714H330.129H329.54H328.946H328.348H327.747H327.141H326.531H325.917H325.299H324.677H324.05H323.421H322.787H322.149H321.507H320.862H320.212H319.559H318.902H318.242H317.577H316.909H316.238H315.562H314.883H314.201H313.515H312.825H312.132H311.435H310.735H310.032H309.325H308.615H307.901H307.184H306.464H305.74H305.013H304.283H303.55H302.814H302.074H301.332H300.586H299.837H299.085H298.33H297.573H296.812H296.048H295.281H294.512H293.739H292.964H292.186H291.405H290.622H289.835H289.046H288.255H287.46H286.663H285.864H285.062H284.257H283.45H282.64H281.828H281.013H280.196H279.377H278.555H277.731H276.904H276.075H275.244H274.411H273.576H272.738H271.898H271.056H270.212H269.366H268.517H267.667H266.815H265.961H265.104H264.246H263.386H262.524H261.661H260.795H259.928H259.058H258.188H257.315H256.441H255.565H254.687H253.808H252.927H252.044H251.16H250.275H249.388H248.5H247.61H246.718H245.826H244.932H244.036H243.14H242.242H241.343H240.442H239.54H238.638H237.734H236.829H235.922H235.015H234.107H233.197H232.287H231.376H230.464H229.55H228.636H227.721H226.806H225.889H224.972H224.054H223.135H222.215H221.295H220.374H219.452H218.53H217.607H216.684H215.76H214.836H213.911H212.986H212.06H211.134H210.207H209.28H208.353H207.426H206.498H205.57H204.642H203.713H202.785H201.856H200.927H199.998H199.069H198.14H197.211H196.282H195.353H194.424H193.495H192.567H191.638H190.71H189.781H188.853H187.926H186.998H186.071H185.144H184.217H183.291H182.366H181.44H180.515H179.591H178.667H177.744H176.821H175.899H174.977H174.056H173.136H172.216H171.297H170.379H169.462H168.545H167.629H166.714H165.8H164.887H163.974H163.063H162.153H161.243H160.335H159.428H158.521H157.616H156.712H155.809H154.907H154.007H153.108H152.21H151.313H150.417H149.523H148.631H147.739H146.849H145.961H145.074H144.188H143.304H142.422H141.541H140.661H139.783H138.907H138.033H137.16H136.289H135.42H134.552H133.687H132.823H131.961H131.101H130.242H129.386H128.532H127.679H126.829H125.98H125.134H124.29H123.448H122.608H121.77H120.934H120.101H119.27H118.441H117.614H116.79H115.968H115.148H114.331H113.516H112.704H111.894H111.087H110.282H109.479H108.68H107.882H107.088H106.296H105.507H104.72H103.937H103.156H102.377H101.602H100.829H100.06H99.2928H98.5289H97.7679H97.0098H96.2548H95.5028H94.7538H94.0078H93.265H92.5253H91.7887H91.0553H90.3251H89.5981H88.8744H88.1539H87.4367H86.7229H86.0124H85.3053H84.6016H83.9013H83.2044H82.5111H81.8212H81.1349H80.4522H79.773H79.0974H78.4255H77.7572H77.0926H76.4317H75.7746H75.1212H74.4717H73.8259H73.184H72.5459H71.9118H71.2815H70.6552H70.0329H69.4146H68.8003H68.19H67.5838H66.9818H66.3838H65.79H65.2004H64.615H64.0338H63.4568H62.8842H62.3158H61.7518H61.1922H60.6369H60.0861H59.5397H58.9977H58.4602H57.9273H57.3989H56.875H56.3558H55.8412H55.3312H54.8259H54.3253H53.8294H53.3382H52.8518H52.3703H51.8935H51.4216H50.9546H50.4925H50.0353H49.583H49.1358H48.6935H48.2563H47.8241H47.3971H46.9751H46.5583H46.1466H45.7401H45.3389H44.9428H44.5521H44.1666H43.7864H43.4116H43.0422H42.6781H42.3195H41.9663H41.6186H41.2764H40.9397H40.6086H40.283H39.9631H39.6487H39.3401H39.0371H38.7398H38.4482H38.1624H37.8824H37.6082H37.3398H37.0773H36.8206H36.5699H36.3251H36.0863H35.8535H35.6267H35.4059H35.1912H34.9826H34.7801H34.5838H34.3936H34.2096H34.0318H33.8603H33.6951H33.5362H33.3836H33.2373H33.0974H32.964H32.8369H32.7163H32.6022H32.4946H32.3936H32.2991H32.2111C25.3091 166.099 18.4214 162.459 13.1766 158.704C10.5711 156.839 8.40752 154.972 6.89571 153.571C6.14036 152.872 5.54914 152.289 5.14833 151.884C4.94796 151.681 4.79529 151.523 4.69359 151.416C4.68759 151.41 4.68177 151.404 4.67613 151.398C1.90909 143.885 1.07837 133.483 1.07837 124.557C1.07837 120.073 1.28768 115.995 1.55604 112.894C1.69026 111.343 1.83867 110.043 1.98176 109.063C2.07686 108.412 2.16407 107.945 2.23272 107.647L438.708 77.9092Z" fill="url(#paint0_linear)" stroke="black" stroke-width="2"/>
<mask id="path-5-inside-1" fill="white">
<path d="M368.462 107.166C372.554 98.0198 378.09 78.5235 377.608 67.6922C376.886 57.1016 354.502 16.1835 344.393 10.1661C335.728 4.87084 328.747 4.63014 307.807 3.66736C304.197 3.42667 300.345 3.42667 296.013 3.18597C264.723 1.7418 223.323 5.35223 214.417 6.5557C210.085 7.27779 194.44 10.8882 180.72 19.0718C163.871 29.181 149.911 39.0495 139.32 48.4366C126.564 59.5086 122.953 63.8411 121.028 75.8758C119.102 87.9106 120.546 131.717 123.194 155.546L124.397 155.305C121.75 131.476 120.306 87.6699 122.231 75.8758C124.157 64.0818 127.526 59.99 140.043 49.1587C150.633 40.0123 164.593 30.1438 181.442 20.0346C194.921 12.0917 210.085 8.48126 214.417 7.99987C220.435 7.27779 241.616 5.11153 264.241 4.38945C263.278 9.68474 257.02 43.6227 252.447 77.8014C247.633 114.868 249.799 156.99 249.799 157.471H251.003C251.003 156.99 249.077 115.109 253.651 78.0421C258.224 43.1413 264.482 8.72196 265.445 4.38945C275.554 4.14875 286.144 4.14875 295.772 4.63014C300.105 4.87084 304.197 5.11153 307.566 5.11153C328.266 6.07431 335.005 6.31501 343.67 11.3696C353.539 17.387 375.683 57.583 376.405 67.9329C377.127 78.5235 371.591 97.5384 367.499 106.685L368.462 107.166Z"/>
</mask>
<path d="M368.462 107.166C372.554 98.0198 378.09 78.5235 377.608 67.6922C376.886 57.1016 354.502 16.1835 344.393 10.1661C335.728 4.87084 328.747 4.63014 307.807 3.66736C304.197 3.42667 300.345 3.42667 296.013 3.18597C264.723 1.7418 223.323 5.35223 214.417 6.5557C210.085 7.27779 194.44 10.8882 180.72 19.0718C163.871 29.181 149.911 39.0495 139.32 48.4366C126.564 59.5086 122.953 63.8411 121.028 75.8758C119.102 87.9106 120.546 131.717 123.194 155.546L124.397 155.305C121.75 131.476 120.306 87.6699 122.231 75.8758C124.157 64.0818 127.526 59.99 140.043 49.1587C150.633 40.0123 164.593 30.1438 181.442 20.0346C194.921 12.0917 210.085 8.48126 214.417 7.99987C220.435 7.27779 241.616 5.11153 264.241 4.38945C263.278 9.68474 257.02 43.6227 252.447 77.8014C247.633 114.868 249.799 156.99 249.799 157.471H251.003C251.003 156.99 249.077 115.109 253.651 78.0421C258.224 43.1413 264.482 8.72196 265.445 4.38945C275.554 4.14875 286.144 4.14875 295.772 4.63014C300.105 4.87084 304.197 5.11153 307.566 5.11153C328.266 6.07431 335.005 6.31501 343.67 11.3696C353.539 17.387 375.683 57.583 376.405 67.9329C377.127 78.5235 371.591 97.5384 367.499 106.685L368.462 107.166Z" fill="white"/>
<path d="M368.462 107.166L367.568 108.955L369.435 109.889L370.288 107.983L368.462 107.166ZM377.608 67.6922L379.607 67.6034L379.605 67.5798L379.604 67.5562L377.608 67.6922ZM344.393 10.1661L343.35 11.8727L343.36 11.8788L343.37 11.8847L344.393 10.1661ZM307.807 3.66736L307.674 5.66293L307.695 5.66431L307.715 5.66525L307.807 3.66736ZM296.013 3.18597L296.124 1.18905L296.114 1.18853L296.105 1.1881L296.013 3.18597ZM214.417 6.5557L214.149 4.57372L214.119 4.57785L214.089 4.58292L214.417 6.5557ZM180.72 19.0718L179.695 17.3542L179.691 17.3569L180.72 19.0718ZM139.32 48.4366L140.631 49.9471L140.639 49.9402L140.647 49.9333L139.32 48.4366ZM123.194 155.546L121.206 155.767L121.447 157.935L123.586 157.507L123.194 155.546ZM124.397 155.305L124.79 157.266L126.588 156.907L126.385 155.084L124.397 155.305ZM140.043 49.1587L138.735 47.6451L138.734 47.6464L140.043 49.1587ZM181.442 20.0346L180.427 18.3115L180.42 18.3156L180.413 18.3196L181.442 20.0346ZM214.417 7.99987L214.638 9.98764L214.647 9.98667L214.656 9.98563L214.417 7.99987ZM264.241 4.38945L266.209 4.74722L266.652 2.3115L264.177 2.39047L264.241 4.38945ZM252.447 77.8014L250.465 77.5362L250.464 77.5438L252.447 77.8014ZM249.799 157.471H247.799V159.471H249.799V157.471ZM251.003 157.471V159.471H253.003V157.471H251.003ZM253.651 78.0421L251.668 77.7822L251.667 77.7897L251.666 77.7972L253.651 78.0421ZM265.445 4.38945L265.397 2.39002L263.832 2.42728L263.492 3.95559L265.445 4.38945ZM295.772 4.63014L295.883 2.63319L295.872 2.63264L295.772 4.63014ZM307.566 5.11153L307.659 3.11369L307.613 3.11153H307.566V5.11153ZM343.67 11.3696L344.712 9.66201L344.695 9.65186L344.678 9.64204L343.67 11.3696ZM376.405 67.9329L378.4 67.7969L378.4 67.7937L376.405 67.9329ZM367.499 106.685L365.674 105.868L364.891 107.617L366.605 108.474L367.499 106.685ZM370.288 107.983C372.395 103.273 374.836 95.9946 376.691 88.5442C378.538 81.1274 379.86 73.3168 379.607 67.6034L375.61 67.781C375.838 72.8989 374.633 80.2521 372.809 87.5778C370.994 94.87 368.621 101.913 366.636 106.349L370.288 107.983ZM379.604 67.5562C379.397 64.5193 377.718 59.6809 375.369 54.2841C372.979 48.7892 369.764 42.431 366.262 36.2307C362.761 30.0318 358.951 23.9531 355.362 19.0262C353.568 16.5634 351.813 14.3653 350.163 12.5758C348.534 10.8082 346.925 9.34596 345.416 8.44754L343.37 11.8847C344.388 12.4906 345.689 13.6234 347.222 15.2866C348.735 16.9279 350.392 18.9965 352.129 21.3815C355.603 26.1502 359.33 32.0911 362.779 38.1978C366.227 44.3029 369.376 50.5361 371.702 55.88C374.069 61.322 375.459 65.5698 375.613 67.8283L379.604 67.5562ZM345.435 8.45956C336.241 2.84063 328.671 2.62453 307.899 1.66947L307.715 5.66525C328.824 6.63576 335.214 6.90104 343.35 11.8727L345.435 8.45956ZM307.94 1.67179C306.094 1.54871 304.194 1.48766 302.242 1.42762C300.281 1.36727 298.261 1.30778 296.124 1.18905L295.902 5.18289C298.097 5.30487 300.169 5.36572 302.119 5.42572C304.079 5.48603 305.91 5.54533 307.674 5.66293L307.94 1.67179ZM296.105 1.1881C264.663 -0.263065 223.139 3.35895 214.149 4.57372L214.685 8.53769C223.507 7.34551 264.782 3.74667 295.921 5.18385L296.105 1.1881ZM214.089 4.58292C209.615 5.32858 193.704 8.99811 179.695 17.3542L181.745 20.7895C195.175 12.7783 210.555 9.22699 214.746 8.52849L214.089 4.58292ZM179.691 17.3569C162.777 27.5051 148.706 37.4447 137.994 46.9399L140.647 49.9333C151.116 40.6544 164.965 30.857 181.749 20.7868L179.691 17.3569ZM138.01 46.9262C131.649 52.4465 127.368 56.4506 124.466 60.66C121.503 64.9572 120.044 69.3632 119.053 75.5599L123.003 76.1918C123.937 70.3538 125.246 66.5762 127.759 62.9304C130.333 59.1969 134.235 55.4987 140.631 49.9471L138.01 46.9262ZM119.053 75.5599C118.055 81.7975 117.947 95.9539 118.397 111.347C118.849 126.813 119.874 143.78 121.206 155.767L125.182 155.325C123.866 143.483 122.845 126.632 122.395 111.23C121.942 95.7532 122.075 81.989 123.003 76.1918L119.053 75.5599ZM123.586 157.507L124.79 157.266L124.005 153.344L122.802 153.585L123.586 157.507ZM126.385 155.084C125.069 143.242 124.049 126.391 123.598 111.019C123.146 95.5692 123.279 81.8704 124.205 76.1981L120.257 75.5536C119.258 81.6753 119.15 95.7768 119.6 111.136C120.052 126.573 121.078 143.54 122.41 155.526L126.385 155.084ZM124.205 76.1981C125.141 70.468 126.392 66.8117 128.813 63.2893C131.295 59.6793 135.074 56.1031 141.351 50.671L138.734 47.6464C132.495 53.0456 128.331 56.931 125.517 61.0232C122.644 65.203 121.247 69.4896 120.257 75.5536L124.205 76.1981ZM141.35 50.6724C151.83 41.6216 165.689 31.8186 182.471 21.7496L180.413 18.3196C163.498 28.469 149.437 38.403 138.735 47.6451L141.35 50.6724ZM182.458 21.7577C195.676 13.9681 210.566 10.4401 214.638 9.98764L214.196 6.0121C209.604 6.52242 194.166 10.2153 180.427 18.3115L182.458 21.7577ZM214.656 9.98563C220.631 9.26863 241.752 7.10821 264.305 6.38843L264.177 2.39047C241.48 3.11485 220.239 5.28694 214.179 6.01412L214.656 9.98563ZM262.273 4.03168C261.311 9.32521 255.045 43.3055 250.465 77.5362L254.429 78.0666C258.996 43.94 265.246 10.0443 266.209 4.74722L262.273 4.03168ZM250.464 77.5438C248.042 96.1949 247.378 116.085 247.318 131.348C247.288 138.985 247.409 145.475 247.537 150.088C247.601 152.395 247.667 154.232 247.717 155.509C247.742 156.147 247.763 156.645 247.778 156.99C247.795 157.385 247.799 157.498 247.799 157.471H251.799C251.799 156.838 249.639 114.955 254.43 78.059L250.464 77.5438ZM249.799 159.471H251.003V155.471H249.799V159.471ZM253.003 157.471C253.003 156.857 251.082 115.192 255.636 78.287L251.666 77.7972C249.366 96.4403 248.702 116.264 248.612 131.464C248.567 139.07 248.665 145.529 248.774 150.118C248.829 152.413 248.886 154.24 248.93 155.51C248.952 156.145 248.971 156.64 248.984 156.983C248.999 157.371 249.003 157.492 249.003 157.471H253.003ZM255.634 78.3019C260.203 43.4335 266.452 9.07729 267.397 4.82331L263.492 3.95559C262.512 8.36662 256.245 42.8492 251.668 77.7822L255.634 78.3019ZM265.492 6.38888C275.573 6.14886 286.111 6.14958 295.672 6.62765L295.872 2.63264C286.178 2.14793 275.534 2.14865 265.397 2.39002L265.492 6.38888ZM295.661 6.62706C299.969 6.86636 304.127 7.11153 307.566 7.11153V3.11153C304.266 3.11153 300.241 2.87531 295.883 2.63322L295.661 6.62706ZM307.473 7.10937C328.329 8.0794 334.51 8.34113 342.663 13.0972L344.678 9.64204C335.501 4.28888 328.203 4.06922 307.659 3.11369L307.473 7.10937ZM342.629 13.0772C344.716 14.3497 347.745 17.6779 351.23 22.4674C354.649 27.1665 358.324 33.0112 361.728 39.0132C365.131 45.014 368.243 51.1349 370.542 56.3779C372.884 61.7202 374.257 65.876 374.41 68.0721L378.4 67.7937C378.192 64.8149 376.526 60.065 374.205 54.7716C371.84 49.3788 368.664 43.1341 365.207 37.0399C361.752 30.947 357.995 24.9676 354.464 20.1141C350.999 15.351 347.559 11.3982 344.712 9.66201L342.629 13.0772ZM374.41 68.069C374.749 73.0394 373.611 80.1902 371.817 87.3653C370.034 94.499 367.662 101.424 365.674 105.868L369.325 107.502C371.429 102.799 373.871 95.6435 375.698 88.3355C377.514 81.0689 378.784 73.417 378.4 67.7969L374.41 68.069ZM366.605 108.474L367.568 108.955L369.357 105.377L368.394 104.896L366.605 108.474Z" fill="black" mask="url(#path-5-inside-1)"/>
<mask id="path-7-inside-2" fill="white">
<path d="M62.2984 74.1911C65.6681 73.7097 69.0379 73.469 72.1669 72.9876C78.425 72.0248 83.2389 71.7841 86.3679 71.7841C89.4969 71.7841 91.4225 71.5435 92.1446 70.8214C92.3853 70.5807 93.5887 70.0993 94.7922 69.3772C99.3654 67.2109 107.068 63.1191 109.715 58.7866C109.234 58.7866 108.753 59.0273 108.03 59.0273C104.901 62.6377 97.9212 66.2482 94.0701 68.1737C92.3853 68.8958 91.6632 69.3772 91.1818 69.6179C90.7004 70.0993 88.7748 70.0993 86.1272 70.34C82.9982 70.34 78.1843 70.5807 71.6855 71.5435C68.5565 72.0248 65.1867 72.5062 61.817 72.7469C51.9485 73.9504 40.8765 75.1539 30.286 78.7643C23.0651 81.1713 17.7698 83.3375 14.4001 84.7817C13.9187 85.5038 13.4373 85.9852 12.9559 86.7072C16.085 85.2631 21.8616 82.6154 30.7674 79.7271C41.3579 76.8387 52.6706 75.3946 62.2984 74.1911Z"/>
</mask>
<path d="M62.2984 74.1911C65.6681 73.7097 69.0379 73.469 72.1669 72.9876C78.425 72.0248 83.2389 71.7841 86.3679 71.7841C89.4969 71.7841 91.4225 71.5435 92.1446 70.8214C92.3853 70.5807 93.5887 70.0993 94.7922 69.3772C99.3654 67.2109 107.068 63.1191 109.715 58.7866C109.234 58.7866 108.753 59.0273 108.03 59.0273C104.901 62.6377 97.9212 66.2482 94.0701 68.1737C92.3853 68.8958 91.6632 69.3772 91.1818 69.6179C90.7004 70.0993 88.7748 70.0993 86.1272 70.34C82.9982 70.34 78.1843 70.5807 71.6855 71.5435C68.5565 72.0248 65.1867 72.5062 61.817 72.7469C51.9485 73.9504 40.8765 75.1539 30.286 78.7643C23.0651 81.1713 17.7698 83.3375 14.4001 84.7817C13.9187 85.5038 13.4373 85.9852 12.9559 86.7072C16.085 85.2631 21.8616 82.6154 30.7674 79.7271C41.3579 76.8387 52.6706 75.3946 62.2984 74.1911Z" fill="white"/>
<path d="M62.2984 74.1911L62.5465 76.1757L62.5639 76.1735L62.5812 76.171L62.2984 74.1911ZM92.1446 70.8214L90.7304 69.4072L92.1446 70.8214ZM94.7922 69.3772L93.936 67.5697L93.8474 67.6117L93.7632 67.6622L94.7922 69.3772ZM109.715 58.7866L111.422 59.8295L113.281 56.7866H109.715V58.7866ZM108.03 59.0273V57.0273H107.117L106.519 57.7175L108.03 59.0273ZM94.0701 68.1737L94.858 70.012L94.912 69.9889L94.9646 69.9626L94.0701 68.1737ZM91.1818 69.6179L90.2874 67.829L89.9971 67.9742L89.7676 68.2037L91.1818 69.6179ZM86.1272 70.34V72.34H86.2179L86.3083 72.3318L86.1272 70.34ZM71.6855 71.5435L71.3924 69.565L71.3814 69.5667L71.6855 71.5435ZM61.817 72.7469L61.6745 70.752L61.6246 70.7556L61.5749 70.7616L61.817 72.7469ZM30.286 78.7643L30.9184 80.6617L30.9313 80.6573L30.286 78.7643ZM14.4001 84.7817L13.6123 82.9434L13.0658 83.1776L12.736 83.6723L14.4001 84.7817ZM12.9559 86.7072L11.2918 85.5978L7.36276 91.4914L13.794 88.5232L12.9559 86.7072ZM30.7674 79.7271L30.2411 77.7976L30.1954 77.81L30.1503 77.8246L30.7674 79.7271ZM62.5812 76.171C64.2266 75.9359 65.8759 75.7591 67.5398 75.5776C69.19 75.3975 70.8567 75.2127 72.471 74.9644L71.8628 71.0109C70.348 71.2439 68.7654 71.4201 67.106 71.6012C65.4604 71.7807 63.7399 71.9649 62.0156 72.2112L62.5812 76.171ZM72.471 74.9644C78.6271 74.0173 83.3393 73.7841 86.3679 73.7841V69.7841C83.1384 69.7841 78.2228 70.0324 71.8628 71.0109L72.471 74.9644ZM86.3679 73.7841C87.9618 73.7841 89.3491 73.7243 90.4676 73.5496C91.4882 73.3901 92.7153 73.0791 93.5588 72.2356L90.7304 69.4072C90.8518 69.2857 90.755 69.4561 89.8501 69.5975C89.043 69.7236 87.9031 69.7841 86.3679 69.7841V73.7841ZM93.5588 72.2356C93.4903 72.3041 93.4341 72.3482 93.4088 72.3674C93.3809 72.3885 93.3634 72.3998 93.3623 72.4004C93.3604 72.4017 93.3661 72.3979 93.3822 72.3886C93.3979 72.3794 93.4195 72.3672 93.4483 72.3515C93.5754 72.2822 93.7496 72.1948 94.0018 72.0687C94.4775 71.8308 95.1446 71.4982 95.8212 71.0922L93.7632 67.6622C93.2364 67.9783 92.7 68.2474 92.2129 68.491C91.9837 68.6055 91.7367 68.7287 91.5329 68.8399C91.4033 68.9106 91.0259 69.1116 90.7304 69.4072L93.5588 72.2356ZM95.6484 71.1847C97.9725 70.0838 101.131 68.476 104.065 66.572C106.937 64.7077 109.851 62.3998 111.422 59.8295L108.009 57.7437C106.932 59.5059 104.671 61.4102 101.887 63.2166C99.1648 64.9831 96.1852 66.5043 93.936 67.5697L95.6484 71.1847ZM109.715 56.7866C109.431 56.7866 109.182 56.822 108.993 56.8565C108.818 56.8882 108.63 56.9323 108.529 56.9546C108.291 57.0075 108.165 57.0273 108.03 57.0273V61.0273C108.618 61.0273 109.093 60.9268 109.397 60.8593C109.567 60.8215 109.634 60.8054 109.708 60.792C109.767 60.7813 109.759 60.7866 109.715 60.7866V56.7866ZM106.519 57.7175C105.167 59.2771 102.864 60.9508 100.281 62.5243C97.7376 64.0735 95.0916 65.4269 93.1757 66.3849L94.9646 69.9626C96.8998 68.995 99.6694 67.5804 102.362 65.9404C105.014 64.3247 107.764 62.388 109.542 60.3372L106.519 57.7175ZM93.2823 66.3354C91.5543 67.076 90.5451 67.7002 90.2874 67.829L92.0762 71.4067C92.7813 71.0542 93.2162 70.7156 94.858 70.012L93.2823 66.3354ZM89.7676 68.2037C90.0558 67.9155 90.3072 67.9026 90.0821 67.9582C89.9304 67.9956 89.6729 68.0372 89.261 68.0798C88.3435 68.1747 87.4381 68.2126 85.9461 68.3482L86.3083 72.3318C87.4639 72.2267 88.8451 72.1442 89.6726 72.0586C90.1333 72.0109 90.6129 71.9472 91.0404 71.8417C91.3944 71.7544 92.0671 71.561 92.596 71.0321L89.7676 68.2037ZM86.1272 68.34C82.8966 68.34 77.9847 68.5884 71.3924 69.565L71.9786 73.5219C78.3839 72.5729 83.0998 72.34 86.1272 72.34V68.34ZM71.3814 69.5667C68.2605 70.0469 64.9582 70.5175 61.6745 70.752L61.9595 74.7418C65.4152 74.495 68.8524 74.0028 71.9896 73.5202L71.3814 69.5667ZM61.5749 70.7616C51.7626 71.9583 40.4671 73.1805 29.6406 76.8713L30.9313 80.6573C41.286 77.1273 52.1344 75.9425 62.0591 74.7322L61.5749 70.7616ZM29.6535 76.8669C22.3673 79.2957 17.0189 81.4834 13.6123 82.9434L15.1879 86.62C18.5208 85.1916 23.7629 83.0468 30.9184 80.6617L29.6535 76.8669ZM12.736 83.6723C12.5499 83.9514 12.3612 84.189 12.1163 84.4951C11.8798 84.7907 11.5872 85.1548 11.2918 85.5978L14.62 87.8166C14.8061 87.5375 14.9949 87.2999 15.2398 86.9938C15.4763 86.6982 15.7689 86.3341 16.0642 85.8911L12.736 83.6723ZM13.794 88.5232C16.8906 87.094 22.5864 84.4829 31.3844 81.6295L30.1503 77.8246C21.1369 80.7479 15.2793 83.4322 12.1178 84.8913L13.794 88.5232ZM31.2936 81.6566C41.7264 78.8113 52.9016 77.3813 62.5465 76.1757L62.0503 72.2065C52.4396 73.4079 40.9894 74.8662 30.2411 77.7976L31.2936 81.6566Z" fill="black" mask="url(#path-7-inside-2)"/>
<path d="M320.939 154.62H320.083H121.991H121.135L121.003 153.775C116.263 123.44 90.1949 100.223 58.6879 100.223C33.6688 100.223 11.9388 114.801 1.69986 135.996C2.17737 141.543 3.10471 146.819 4.68414 151.406C4.68734 151.409 4.69059 151.413 4.6939 151.416C4.7956 151.523 4.94828 151.681 5.14864 151.884C5.54945 152.289 6.14067 152.872 6.89603 153.571C8.40784 154.972 10.5714 156.839 13.1769 158.704C18.4217 162.459 25.3094 166.099 32.2115 166.099H32.2386H32.2664H32.2948H32.3239H32.3537H32.3841H32.4152H32.4469H32.4793H32.5123H32.546H32.5804H32.6154H32.651H32.6873H32.7243H32.7619H32.8001H32.839H32.8785H32.9187H32.9595H33.001H33.0431H33.0858H33.1292H33.1732H33.2179H33.2632H33.3092H33.3557H33.4029H33.4508H33.4993H33.5484H33.5981H33.6485H33.6995H33.7512H33.8035H33.8564H33.9099H33.964H34.0188H34.0742H34.1302H34.1869H34.2442H34.3021H34.3606H34.4197H34.4795H34.5399H34.6009H34.6625H34.7247H34.7875H34.851H34.9151H34.9797H35.045H35.111H35.1775H35.2446H35.3123H35.3807H35.4496H35.5192H35.5893H35.6601H35.7315H35.8035H35.876H35.9492H36.023H36.0974H36.1723H36.2479H36.3241H36.4009H36.4782H36.5562H36.6347H36.7139H36.7936H36.8739H36.9549H37.0364H37.1185H37.2012H37.2844H37.3683H37.4527H37.5378H37.6234H37.7096H37.7964H37.8838H37.9717H38.0602H38.1493H38.239H38.3293H38.4201H38.5115H38.6035H38.6961H38.7892H38.8829H38.9772H39.0721H39.1675H39.2635H39.36H39.4572H39.5549H39.6531H39.752H39.8514H39.9513H40.0518H40.1529H40.2546H40.3568H40.4595H40.5629H40.6667H40.7712H40.8762H40.9817H41.0878H41.1945H41.3017H41.4095H41.5178H41.6266H41.7361H41.846H41.9565H42.0676H42.1792H42.2914H42.4041H42.5173H42.6311H42.7454H42.8603H42.9757H43.0916H43.2081H43.3252H43.4427H43.5608H43.6795H43.7986H43.9184H44.0386H44.1594H44.2807H44.4025H44.5249H44.6478H44.7712H44.8952H45.0196H45.1447H45.2702H45.3962H45.5228H45.6499H45.7775H45.9057H46.0344H46.1636H46.2933H46.4235H46.5542H46.6855H46.8173H46.9495H47.0823H47.2157H47.3495H47.4838H47.6187H47.754H47.8899H48.0263H48.1632H48.3005H48.4384H48.5768H48.7157H48.8551H48.9951H49.1355H49.2764H49.4178H49.5597H49.7021H49.845H49.9884H50.1323H50.2767H50.4216H50.567H50.7129H50.8592H51.0061H51.1534H51.3013H51.4496H51.5984H51.7477H51.8975H52.0478H52.1985H52.3498H52.5015H52.6537H52.8064H52.9596H53.1132H53.2673H53.4219H53.577H53.7326H53.8886H54.0451H54.2021H54.3595H54.5175H54.6759H54.8347H54.9941H55.1539H55.3142H55.4749H55.6361H55.7978H55.9599H56.1225H56.2856H56.4491H56.6131H56.7775H56.9425H57.1078H57.2737H57.4399H57.6067H57.7739H57.9415H58.1096H58.2782H58.4472H58.6167H58.7866H58.957H59.1278H59.299H59.4707H59.6429H59.8155H59.9886H60.162H60.336H60.5104H60.6852H60.8604H61.0362H61.2123H61.3889H61.5659H61.7434H61.9212H62.0996H62.2783H62.4575H62.6372H62.8172H62.9977H63.1786H63.36H63.5418H63.724H63.9066H64.0897H64.2732H64.4571H64.6414H64.8262H65.0114H65.197H65.383H65.5694H65.7563H65.9436H66.1313H66.3194H66.5079H66.6969H66.8862H67.076H67.2662H67.4568H67.6478H67.8392H68.031H68.2233H68.4159H68.609H68.8024H68.9963H69.1906H69.3852H69.5803H69.7758H69.9716H70.1679H70.3646H70.5617H70.7591H70.957H71.1553H71.3539H71.553H71.7524H71.9523H72.1525H72.3531H72.5542H72.7556H72.9574H73.1595H73.3621H73.5651H73.7684H73.9721H74.1762H74.3807H74.5856H74.7908H74.9965H75.2025H75.4089H75.6157H75.8228H76.0303H76.2382H76.4465H76.6552H76.8642H77.0736H77.2834H77.4935H77.704H77.9149H78.1261H78.3377H78.5497H78.7621H78.9748H79.1879H79.4013H79.6151H79.8293H80.0438H80.2587H80.4739H80.6895H80.9055H81.1218H81.3385H81.5555H81.7729H81.9906H82.2087H82.4272H82.646H82.8651H83.0846H83.3044H83.5246H83.7451H83.966H84.1873H84.4088H84.6308H84.853H85.0756H85.2986H85.5218H85.7455H85.9694H86.1937H86.4184H86.6433H86.8686H87.0943H87.3203H87.5466H87.7732H88.0002H88.2275H88.4551H88.6831H88.9114H89.14H89.369H89.5982H89.8278H90.0578H90.288H90.5186H90.7495H90.9807H91.2122H91.4441H91.6762H91.9087H92.1415H92.3746H92.6081H92.8418H93.0759H93.3102H93.5449H93.7799H94.0152H94.2509H94.4868H94.723H94.9596H95.1964H95.4336H95.671H95.9088H96.1468H96.3852H96.6239H96.8628H97.1021H97.3417H97.5815H97.8217H98.0622H98.3029H98.544H98.7853H99.0269H99.2689H99.5111H99.7536H99.9964H100.239H100.483H100.727H100.97H101.215H101.459H101.704H101.949H102.194H102.44H102.686H102.932H103.179H103.426H103.673H103.92H104.168H104.415H104.664H104.912H105.161H105.41H105.659H105.908H106.158H106.408H106.659H106.909H107.16H107.411H107.662H107.914H108.166H108.418H108.671H108.923H109.176H109.429H109.683H109.937H110.191H110.445H110.699H110.954H111.209H111.464H111.72H111.976H112.232H112.488H112.744H113.001H113.258H113.515H113.773H114.03H114.288H114.304H114.319H114.335H114.351H114.366H114.382H114.397H114.413H114.428H114.444H114.459H114.475H114.491H114.506H114.522H114.537H114.553H114.569H114.584H114.6H114.615H114.631H114.647H114.662H114.678H114.694H114.709H114.725H114.741H114.756H114.772H114.788H114.803H114.819H114.835H114.85H114.866H114.882H114.897H114.913H114.929H114.945H114.96H114.976H114.992H115.008H115.023H115.039H115.055H115.071H115.086H115.102H115.118H115.134H115.149H115.165H115.181H115.197H115.213H115.228H115.244H115.26H115.276H115.292H115.307H115.323H115.339H115.355H115.371H115.387H115.402H115.418H115.434H115.45H115.466H115.482H115.498H115.514H115.529H115.545H115.561H115.577H115.593H115.609H115.625H115.641H115.657H115.673H115.688H115.704H115.72H115.736H115.752H115.768H115.784H115.8H115.816H115.832H115.848H115.864H115.88H115.896H115.912H115.928H115.944H115.96H115.976H115.992H116.007H116.023H116.039H116.055H116.071H116.087H116.103H116.119H116.135H116.151H116.168H116.184H116.2H116.216H116.232H116.248H116.264H116.28H116.296H116.312H116.328H116.344H116.36H116.376H116.392H116.408H116.424H116.44H116.456H116.472H116.488H116.504H116.521H116.537H116.553H116.569H116.585H116.601H116.617H116.633H116.649H116.665H116.681H116.698H116.714H116.73H116.746H116.762H116.778H116.794H116.81H116.826H116.843H116.859H116.875H116.891H116.907H116.923H116.939H116.955H116.972H116.988H117.004H117.02H117.036H117.052H117.068H117.085H117.101H117.117H117.133H117.149H117.165H117.182H117.198H117.214H117.23H117.246H117.262H117.279H117.295H117.311H117.327H117.343H117.359H117.376H117.392H117.408H117.424H117.44H117.456H117.473H117.489H117.505H117.521H117.537H117.554H117.57H117.586H117.602H117.618H117.635H117.651H117.667H117.683H117.699H117.716H117.732H117.748H117.764H117.78H117.797H117.813H117.829H117.845H117.861H117.878H117.894H117.91H117.926H117.942H117.959H117.975H117.991H118.007H118.023H118.04H118.056H118.072H118.088H118.105H118.121H118.137H118.153H118.169H118.186H118.202H118.218H118.234H118.251H118.267H118.283H118.299H118.315H118.332H118.348H118.364H118.38H118.396H118.413H118.429H118.445H118.461H118.478H118.494H118.51H118.526H118.542H118.559H118.575H118.591H118.607H118.624H118.64H118.656H118.672H118.688H118.705H118.721H118.737H118.753H118.769H118.786H118.802H118.818H118.834H118.851H118.867H118.883H118.899H118.915H118.932H118.948H118.964H118.98H118.996H119.013H119.029H119.045H119.061H119.077H119.094H119.11H119.126H119.142H119.158H119.175H119.191H119.207H119.223H119.239H119.255H119.272H119.288H119.304H119.32H119.336H119.353H119.369H119.385H119.401H119.417H119.433H119.45H119.466H119.482H119.498H119.514H119.53H119.547H119.563H119.579H119.595H119.611H119.627H119.644H119.66H119.676H119.692H119.708H119.724H119.74H119.757H119.773H119.789H119.805H119.821H119.837H119.853H119.87H119.886H119.902H119.918H119.934H119.95H119.966H119.982H119.999H120.015H120.031H120.047H120.063H120.079H120.095H120.111H120.127H120.143H120.16H120.176H120.192H120.208H120.224H120.24H120.256H120.272H120.288H120.304H120.32H120.336H120.352H120.368H120.385H120.401H120.417H120.433H120.449H120.465H120.481H120.497H120.513H120.529H120.545H120.561H120.577H120.593H120.609H120.625H120.641H120.657H120.673H120.689H120.705H120.721H120.737H120.753H120.769H120.785H120.801H120.817H120.833H120.849H120.865H120.881H120.897H120.913H120.929H120.945H120.961H120.976H120.992H121.008H121.024H121.04H121.056H121.072H121.088H121.104H121.12H121.136H121.152H121.168H121.183H121.199H121.215H121.231H121.247H121.263H121.279H121.295H121.31H121.326H121.342H121.358H121.374H121.39H121.406H121.421H121.437H121.453H121.469H121.485H121.5H121.516H121.532H121.548H121.564H121.58H121.595H121.611H121.627H121.643H121.658H121.674H121.69H121.706H121.721H121.737H121.753H121.769H121.784H121.8H121.816H121.832H121.847H121.863H121.879H121.894H121.91H121.926H121.942H121.957H121.973H121.989H122.004H122.02H122.036H122.051H122.067H122.083H122.098H122.114H122.129H122.145H122.161H122.176H122.192H122.208H122.223H122.239H122.254H122.27H122.286H122.301H122.317H122.332H122.348H122.363H122.379H122.394H122.41H122.425H122.441H122.457H122.472H319.361H319.376H319.392H319.407H319.423H319.438H319.454H319.469H319.485H319.5H319.516H319.531H319.547H319.562H319.578H319.593H319.609H319.624H319.64H319.655H319.671H319.686H319.702H319.717H319.733H319.748H319.764H319.779H319.795H319.81H319.826H319.841H319.857H319.872H319.888H319.903H319.919H319.934H319.95H319.965H319.981H319.996H320.012H320.027H320.043H320.059H320.074H320.09H320.105H320.121H320.136H320.152H320.167H320.183H320.198H320.214H320.229H320.245H320.26H320.275H320.291H320.306H320.322H320.337H320.353H320.368H320.384H320.399H320.415H320.43H320.446H320.461H320.477H320.492H320.508H320.523H320.539H320.554H320.57H320.585H320.601H320.616H320.632H320.647H320.663H320.678H320.694H320.709H320.725H320.74H320.755H320.771H320.786H320.802H320.817H320.833H320.848H320.864H320.879H320.895H320.91H320.926H320.941H320.957H320.972H320.987H321.003H321.018H321.034H321.049H321.065H321.08H321.096H321.111H321.126H321.142H321.157H321.173H321.188H321.204H321.219H321.235H321.25H321.265H321.281H321.296H321.312H321.327H321.343H321.358H321.373H321.389H321.404H321.42H321.435H321.45H321.466H321.481H321.497H321.512H321.528H321.543H321.558H321.574H321.589H321.605H321.62H321.635H321.651H321.666H321.682H321.697H321.712H321.728H321.743H321.758H321.774H321.789H321.805H321.82H321.835H321.851H321.866H321.882H321.897H321.912H321.928H321.943H321.958H321.974H321.989H322.004H322.02H322.035H322.05H322.066H322.081H322.097H322.112H322.127H322.143H322.158H322.173H322.189H322.204H322.219H322.235H322.25H322.265H322.281H322.296H322.311H322.326H322.342H322.357H322.372H322.388H322.403H322.418H322.434H322.449H322.464H322.48H322.495H322.51H322.525H322.541H322.556H322.571H322.587H322.602H322.617H322.632H322.648H322.663H322.678H322.693H322.709H322.724H322.739H322.754H322.77H322.785H322.8H322.815H322.831H322.846H322.861H322.876H322.892H322.907H322.922H322.937H322.953H322.968H322.983H322.998H323.013H323.029H323.044H323.059H323.074H323.089H323.105H323.12H323.135H323.15H323.165H323.181H323.196H323.211H323.226H323.241H323.256H323.272H323.287H323.302H323.317H323.332H323.347H323.363H323.378H323.393H323.408H323.423H323.438H323.453H323.469H323.484H323.499H323.514H323.529H323.544H323.559H323.574H323.589H323.605H323.62H323.635H323.65H323.665H323.68H323.695H323.71H323.725H323.74H323.755H323.771H323.786H323.801H323.816H323.831H323.846H323.861H323.876H323.891H323.906H323.921H323.936H323.951H323.966H323.981H323.996H324.011H324.026H324.041H324.056H324.071H324.086H324.101H324.116H324.131H324.146H324.161H324.176H324.191H324.206H324.221H324.236H324.251H324.266H324.281H324.296H324.311H324.326H324.341H324.356H324.371H324.386H324.401H324.416H324.431H324.445H324.46H324.475H324.49H324.505H324.52H324.535H324.55H324.565H324.58H324.594H324.609H324.624H324.639H324.654H324.669H324.684H324.699H324.713H324.728H324.743H324.758H324.773H324.788H324.802H324.817H324.832H324.847H324.862H324.877H324.891H324.906H324.921H324.936H324.951H324.965H324.98H324.995H325.01H325.025H325.039H325.054H325.069H325.084H325.098H325.113H325.128H325.143H325.157H325.172H325.187H325.201H325.216H325.231H325.246H325.26H325.275H325.29H325.304H325.319H325.334H325.349H325.363H325.378H325.393H325.407H325.422H325.437H325.451H325.466H325.48H325.495H325.51H325.524H325.539H325.554H325.568H325.583H325.598H325.612H325.627H325.641H325.656H325.671H325.685H325.7H325.714H325.729H325.743H325.758H325.772H325.787H325.802H325.816H325.831H325.845H325.86H325.874H325.889H325.903H325.918H325.932H325.947H325.961H325.976H325.99H326.005H326.019H326.034H326.048H326.063H326.077H326.092H326.106H326.12H326.135H326.149H326.164H326.178H326.193H326.207H326.221H326.236H326.25H326.265H326.279H326.293H326.308H326.322H326.337H326.351H326.365H326.38H326.394H326.408H326.423H326.437H326.451H326.466H326.48H326.494H326.509H326.523H326.537H326.552H326.566H326.58H326.594H326.609H326.623H326.637H326.652H326.666H326.68H326.694H326.708H326.723H326.737H326.751H326.765H326.78H326.794H326.808H326.822H326.836H326.851H326.865H326.879H326.893H326.907H326.921H326.936H326.95H326.964H326.978H326.992H327.006H327.02H327.035H327.049H327.063L320.939 154.62ZM320.939 154.62L321.071 153.775M320.939 154.62L321.071 153.775M321.071 153.775C325.81 123.445 352.115 100.223 383.626 100.223V99.2234L321.071 153.775ZM363.153 166.099H363.167H363.153ZM363.153 166.099H363.138M363.153 166.099H363.138M363.138 166.099H363.124M363.138 166.099H363.124M363.124 166.099H363.109M363.124 166.099H363.109M363.109 166.099H363.093M363.109 166.099H363.093M363.093 166.099H363.078M363.093 166.099H363.078M363.078 166.099H363.062M363.078 166.099H363.062M363.062 166.099H363.046M363.062 166.099H363.046M363.046 166.099H363.03M363.046 166.099H363.03M363.03 166.099H363.013M363.03 166.099H363.013M363.013 166.099H362.997M363.013 166.099H362.997M362.997 166.099H362.98M362.997 166.099H362.98M362.98 166.099H362.962M362.98 166.099H362.962M362.962 166.099H362.945M362.962 166.099H362.945M362.945 166.099H362.927M362.945 166.099H362.927M362.927 166.099H362.909M362.927 166.099H362.909M362.909 166.099H362.891M362.909 166.099H362.891M362.891 166.099H362.872M362.891 166.099H362.872M362.872 166.099H362.854M362.872 166.099H362.854M362.854 166.099H362.835M362.854 166.099H362.835M362.835 166.099H362.815M362.835 166.099H362.815M362.815 166.099H362.796M362.815 166.099H362.796M362.796 166.099H362.776M362.796 166.099H362.776M362.776 166.099H362.756M362.776 166.099H362.756M362.756 166.099H362.736M362.756 166.099H362.736M362.736 166.099H362.715M362.736 166.099H362.715M362.715 166.099H362.694M362.715 166.099H362.694M362.694 166.099H362.673M362.694 166.099H362.673M362.673 166.099H362.652M362.673 166.099H362.652M362.652 166.099H362.631M362.652 166.099H362.631M362.631 166.099H362.609M362.631 166.099H362.609M362.609 166.099H362.587M362.609 166.099H362.587M362.587 166.099H362.565M362.587 166.099H362.565M362.565 166.099H362.542M362.565 166.099H362.542M362.542 166.099H362.52M362.542 166.099H362.52M362.52 166.099H362.497M362.52 166.099H362.497M362.497 166.099H362.473M362.497 166.099H362.473M362.473 166.099H362.45M362.473 166.099H362.45M362.45 166.099H362.426M362.45 166.099H362.426M362.426 166.099H362.402M362.426 166.099H362.402M362.402 166.099H362.378M362.402 166.099H362.378M362.378 166.099H362.354M362.378 166.099H362.354M362.354 166.099H362.329M362.354 166.099H362.329M362.329 166.099H362.304M362.329 166.099H362.304M362.304 166.099H362.279M362.304 166.099H362.279M362.279 166.099H362.253M362.279 166.099H362.253M362.253 166.099H362.228M362.253 166.099H362.228M362.228 166.099H362.202M362.228 166.099H362.202M362.202 166.099H362.176M362.202 166.099H362.176M362.176 166.099H362.149M362.176 166.099H362.149M362.149 166.099H362.122M362.149 166.099H362.122M362.122 166.099H362.096M362.122 166.099H362.096M362.096 166.099H362.068M362.096 166.099H362.068M362.068 166.099H362.041M362.068 166.099H362.041M362.041 166.099H362.013M362.041 166.099H362.013M362.013 166.099H361.986M362.013 166.099H361.986M361.986 166.099H361.957M361.986 166.099H361.957M361.957 166.099H361.929M361.957 166.099H361.929M361.929 166.099H361.9M361.929 166.099H361.9M361.9 166.099H361.872M361.9 166.099H361.872M361.872 166.099H361.843M361.872 166.099H361.843M361.843 166.099H361.813M361.843 166.099H361.813M361.813 166.099H361.784M361.813 166.099H361.784M361.784 166.099H361.754M361.784 166.099H361.754M361.754 166.099H361.724M361.754 166.099H361.724M361.724 166.099H361.694M361.724 166.099H361.694M361.694 166.099H361.663M361.694 166.099H361.663M361.663 166.099H361.632M361.663 166.099H361.632M361.632 166.099H361.601M361.632 166.099H361.601M361.601 166.099H361.57M361.601 166.099H361.57M361.57 166.099H361.539M361.57 166.099H361.539M361.539 166.099H361.507M361.539 166.099H361.507M361.507 166.099H361.475M361.507 166.099H361.475M361.475 166.099H361.443M361.475 166.099H361.443M361.443 166.099H361.41M361.443 166.099H361.41M361.41 166.099H361.377M361.41 166.099H361.377M361.377 166.099H361.345M361.377 166.099H361.345M361.345 166.099H361.311M361.345 166.099H361.311M361.311 166.099H361.278M361.311 166.099H361.278M361.278 166.099H361.244M361.278 166.099H361.244M361.244 166.099H361.21M361.244 166.099H361.21M361.21 166.099H361.176M361.21 166.099H361.176M361.176 166.099H361.142M361.176 166.099H361.142M361.142 166.099H361.107M361.142 166.099H361.107M361.107 166.099H361.073M361.107 166.099H361.073M361.073 166.099H361.038M361.073 166.099H361.038M361.038 166.099H361.002M361.038 166.099H361.002M361.002 166.099H360.967M361.002 166.099H360.967M360.967 166.099H360.931M360.967 166.099H360.931M360.931 166.099H360.895M360.931 166.099H360.895M360.895 166.099H360.859M360.895 166.099H360.859M360.859 166.099H360.822M360.859 166.099H360.822M360.822 166.099H360.785M360.822 166.099H360.785M360.785 166.099H360.749M360.785 166.099H360.749M360.749 166.099H360.711M360.749 166.099H360.711M360.711 166.099H360.674M360.711 166.099H360.674M360.674 166.099H360.636M360.674 166.099H360.636M360.636 166.099H360.598M360.636 166.099H360.598M360.598 166.099H360.56M360.598 166.099H360.56M360.56 166.099H360.522M360.56 166.099H360.522M360.522 166.099H360.483M360.522 166.099H360.483M360.483 166.099H360.444M360.483 166.099H360.444M360.444 166.099H360.405M360.444 166.099H360.405M360.405 166.099H360.366M360.405 166.099H360.366M360.366 166.099H360.327M360.366 166.099H360.327M360.327 166.099H360.287M360.327 166.099H360.287M360.287 166.099H360.247M360.287 166.099H360.247M360.247 166.099H360.207M360.247 166.099H360.207M360.207 166.099H360.166M360.207 166.099H360.166M360.166 166.099H360.125M360.166 166.099H360.125M360.125 166.099H360.085M360.125 166.099H360.085M360.085 166.099H360.043M360.085 166.099H360.043M360.043 166.099H360.002M360.043 166.099H360.002M360.002 166.099H359.96M360.002 166.099H359.96M359.96 166.099H359.919M359.96 166.099H359.919M359.919 166.099H359.876M359.919 166.099H359.876M359.876 166.099H359.834M359.876 166.099H359.834M359.834 166.099H359.792M359.834 166.099H359.792M359.792 166.099H359.749M359.792 166.099H359.749M359.749 166.099H359.706M359.749 166.099H359.706M359.706 166.099H359.663M359.706 166.099H359.663M359.663 166.099H359.619M359.663 166.099H359.619M359.619 166.099H359.575M359.619 166.099H359.575M359.575 166.099H359.531M359.575 166.099H359.531M359.531 166.099H359.487M359.531 166.099H359.487M359.487 166.099H359.443M359.487 166.099H359.443M359.443 166.099H359.398M359.443 166.099H359.398M359.398 166.099H359.354M359.398 166.099H359.354M359.354 166.099H359.308M359.354 166.099H359.308M359.308 166.099H359.263M359.308 166.099H359.263M359.263 166.099H359.218M359.263 166.099H359.218M359.218 166.099H359.172M359.218 166.099H359.172M359.172 166.099H359.126M359.172 166.099H359.126M359.126 166.099H359.08M359.126 166.099H359.08M359.08 166.099H359.033M359.08 166.099H359.033M359.033 166.099H358.987M359.033 166.099H358.987M358.987 166.099H358.94M358.987 166.099H358.94M358.94 166.099H358.893M358.94 166.099H358.893M358.893 166.099H358.845M358.893 166.099H358.845M358.845 166.099H358.798M358.845 166.099H358.798M358.798 166.099H358.75M358.798 166.099H358.75M358.75 166.099H358.702M358.75 166.099H358.702M358.702 166.099H358.654M358.702 166.099H358.654M358.654 166.099H358.605M358.654 166.099H358.605M358.605 166.099H358.556M358.605 166.099H358.556M358.556 166.099H358.507M358.556 166.099H358.507M358.507 166.099H358.458M358.507 166.099H358.458M358.458 166.099H358.409M358.458 166.099H358.409M358.409 166.099H358.359M358.409 166.099H358.359M358.359 166.099H358.31M358.359 166.099H358.31M358.31 166.099H358.259M358.31 166.099H358.259M358.259 166.099H358.209M358.259 166.099H358.209M358.209 166.099H358.159M358.209 166.099H358.159M358.159 166.099H358.108M358.159 166.099H358.108M358.108 166.099H358.057M358.108 166.099H358.057M358.057 166.099H358.006M358.057 166.099H358.006M358.006 166.099H357.954M358.006 166.099H357.954M357.954 166.099H357.903M357.954 166.099H357.903M357.903 166.099H357.851M357.903 166.099H357.851M357.851 166.099H357.799M357.851 166.099H357.799M357.799 166.099H357.747M357.799 166.099H357.747M357.747 166.099H357.694M357.747 166.099H357.694M357.694 166.099H357.641M357.694 166.099H357.641M357.641 166.099H357.589M357.641 166.099H357.589M357.589 166.099H357.535M357.589 166.099H357.535M357.535 166.099H357.482M357.535 166.099H357.482M357.482 166.099H357.428M357.482 166.099H357.428M357.428 166.099H357.375M357.428 166.099H357.375M357.375 166.099H357.32M357.375 166.099H357.32M357.32 166.099H357.266M357.32 166.099H357.266M357.266 166.099H357.212M357.266 166.099H357.212M357.212 166.099H357.157M357.212 166.099H357.157M357.157 166.099H357.102M357.157 166.099H357.102M357.102 166.099H357.047M357.102 166.099H357.047M357.047 166.099H356.992M357.047 166.099H356.992M356.992 166.099H356.936M356.992 166.099H356.936M356.936 166.099H356.88M356.936 166.099H356.88M356.88 166.099H356.824M356.88 166.099H356.824M356.824 166.099H356.768M356.824 166.099H356.768M356.768 166.099H356.711M356.768 166.099H356.711M356.711 166.099H356.655M356.711 166.099H356.655M356.655 166.099H356.598M356.655 166.099H356.598M356.598 166.099H356.541M356.598 166.099H356.541M356.541 166.099H356.483M356.541 166.099H356.483M356.483 166.099H356.426M356.483 166.099H356.426M356.426 166.099H356.368M356.426 166.099H356.368M356.368 166.099H356.31M356.368 166.099H356.31M356.31 166.099H356.252M356.31 166.099H356.252M356.252 166.099H356.193M356.252 166.099H356.193M356.193 166.099H356.135M356.193 166.099H356.135M356.135 166.099H356.076M356.135 166.099H356.076M356.076 166.099H356.017M356.076 166.099H356.017M356.017 166.099H355.957M356.017 166.099H355.957M355.957 166.099H355.898M355.957 166.099H355.898M355.898 166.099H355.838M355.898 166.099H355.838M355.838 166.099H355.778M355.838 166.099H355.778M355.778 166.099H355.718M355.778 166.099H355.718M355.718 166.099H355.658M355.718 166.099H355.658M355.658 166.099H355.597M355.658 166.099H355.597M355.597 166.099H355.536M355.597 166.099H355.536M355.536 166.099H355.475M355.536 166.099H355.475M355.475 166.099H355.414M355.475 166.099H355.414M355.414 166.099H355.353M355.414 166.099H355.353M355.353 166.099H355.291M355.353 166.099H355.291M355.291 166.099H355.229M355.291 166.099H355.229M355.229 166.099H355.167M355.229 166.099H355.167M355.167 166.099H355.105M355.167 166.099H355.105M355.105 166.099H355.042M355.105 166.099H355.042M355.042 166.099H354.979M355.042 166.099H354.979M354.979 166.099H354.916M354.979 166.099H354.916M354.916 166.099H354.853M354.916 166.099H354.853M354.853 166.099H354.79M354.853 166.099H354.79M354.79 166.099H354.726M354.79 166.099H354.726M354.726 166.099H354.663M354.726 166.099H354.663M354.663 166.099H354.599M354.663 166.099H354.599M354.599 166.099H354.534M354.599 166.099H354.534M354.534 166.099H354.47M354.534 166.099H354.47M354.47 166.099H354.405M354.47 166.099H354.405M354.405 166.099H354.34M354.405 166.099H354.34M354.34 166.099H354.275M354.34 166.099H354.275M354.275 166.099H354.21M354.275 166.099H354.21M354.21 166.099H354.145M354.21 166.099H354.145M354.145 166.099H354.079M354.145 166.099H354.079M354.079 166.099H354.013M354.079 166.099H354.013M354.013 166.099H353.947M354.013 166.099H353.947M353.947 166.099H353.881M353.947 166.099H353.881M353.881 166.099H353.814M353.881 166.099H353.814M353.814 166.099H353.747M353.814 166.099H353.747M353.747 166.099H353.68M353.747 166.099H353.68M353.68 166.099H353.613M353.68 166.099H353.613M353.613 166.099H353.546M353.613 166.099H353.546M353.546 166.099H353.478M353.546 166.099H353.478M353.478 166.099H353.41M353.478 166.099H353.41M353.41 166.099H353.342M353.41 166.099H353.342M353.342 166.099H353.274M353.342 166.099H353.274M353.274 166.099H353.206M353.274 166.099H353.206M353.206 166.099H353.137M353.206 166.099H353.137M353.137 166.099H353.068M353.137 166.099H353.068M353.068 166.099H352.999M353.068 166.099H352.999M352.999 166.099H352.93M352.999 166.099H352.93M352.93 166.099H352.861M352.93 166.099H352.861M352.861 166.099H352.791M352.861 166.099H352.791M352.791 166.099H352.721M352.791 166.099H352.721M352.721 166.099H352.651M352.721 166.099H352.651M352.651 166.099H352.581M352.651 166.099H352.581M352.581 166.099H352.51M352.581 166.099H352.51M352.51 166.099H352.44M352.51 166.099H352.44M352.44 166.099H352.369M352.44 166.099H352.369M352.369 166.099H352.298M352.369 166.099H352.298M352.298 166.099H352.226M352.298 166.099H352.226M352.226 166.099H352.155M352.226 166.099H352.155M352.155 166.099H352.083M352.155 166.099H352.083M352.083 166.099H352.011M352.083 166.099H352.011M352.011 166.099H351.939M352.011 166.099H351.939M351.939 166.099H351.867M351.939 166.099H351.867M351.867 166.099H351.794M351.867 166.099H351.794M351.794 166.099H351.721M351.794 166.099H351.721M351.721 166.099H351.649M351.721 166.099H351.649M351.649 166.099H351.575M351.649 166.099H351.575M351.575 166.099H351.502M351.575 166.099H351.502M351.502 166.099H351.428M351.502 166.099H351.428M351.428 166.099H351.355M351.428 166.099H351.355M351.355 166.099H351.281M351.355 166.099H351.281M351.281 166.099H351.207M351.281 166.099H351.207M351.207 166.099H351.132M351.207 166.099H351.132M351.132 166.099H351.058M351.132 166.099H351.058M351.058 166.099H350.983M351.058 166.099H350.983M350.983 166.099H350.908M350.983 166.099H350.908M350.908 166.099H350.833M350.908 166.099H350.833M350.833 166.099H350.757M350.833 166.099H350.757M350.757 166.099H350.682M350.757 166.099H350.682M350.682 166.099H350.606M350.682 166.099H350.606M350.606 166.099H350.53M350.606 166.099H350.53M350.53 166.099H350.454M350.53 166.099H350.454M350.454 166.099H350.378M350.454 166.099H350.378M350.378 166.099H350.301M350.378 166.099H350.301M350.301 166.099H350.224M350.301 166.099H350.224M350.224 166.099H350.147M350.224 166.099H350.147M350.147 166.099H350.07M350.147 166.099H350.07M350.07 166.099H349.993M350.07 166.099H349.993M349.993 166.099H349.915M349.993 166.099H349.915M349.915 166.099H349.837M349.915 166.099H349.837M349.837 166.099H349.759M349.837 166.099H349.759M349.759 166.099H349.681M349.759 166.099H349.681M349.681 166.099H349.603M349.681 166.099H349.603M349.603 166.099H349.524M349.603 166.099H349.524M349.524 166.099H349.446M349.524 166.099H349.446M349.446 166.099H349.367M349.446 166.099H349.367M349.367 166.099H349.288M349.367 166.099H349.288M349.288 166.099H349.208M349.288 166.099H349.208M349.208 166.099H349.129M349.208 166.099H349.129M349.129 166.099H349.049M349.129 166.099H349.049M349.049 166.099H348.969M349.049 166.099H348.969M348.969 166.099H348.889M348.969 166.099H348.889M348.889 166.099H348.808M348.889 166.099H348.808M348.808 166.099H348.728M348.808 166.099H348.728M348.728 166.099H348.647M348.728 166.099H348.647M348.647 166.099H348.566M348.647 166.099H348.566M348.566 166.099H348.485M348.566 166.099H348.485M348.485 166.099H348.404M348.485 166.099H348.404M348.404 166.099H348.322M348.404 166.099H348.322M348.322 166.099H348.241M348.322 166.099H348.241M348.241 166.099H348.159M348.241 166.099H348.159M348.159 166.099H348.077M348.159 166.099H348.077M348.077 166.099H347.994M348.077 166.099H347.994M347.994 166.099H347.912M347.994 166.099H347.912M347.912 166.099H347.829M347.912 166.099H347.829M347.829 166.099H347.746M347.829 166.099H347.746M347.746 166.099H347.663M347.746 166.099H347.663M347.663 166.099H347.58M347.663 166.099H347.58M347.58 166.099H347.497M347.58 166.099H347.497M347.497 166.099H347.413M347.497 166.099H347.413M347.413 166.099H347.329M347.413 166.099H347.329M347.329 166.099H347.245M347.329 166.099H347.245M347.245 166.099H347.161M347.245 166.099H347.161M347.161 166.099H347.076M347.161 166.099H347.076M347.076 166.099H346.992M347.076 166.099H346.992M346.992 166.099H346.907M346.992 166.099H346.907M346.907 166.099H346.822M346.907 166.099H346.822M346.822 166.099H346.737M346.822 166.099H346.737M346.737 166.099H346.651M346.737 166.099H346.651M346.651 166.099H346.566M346.651 166.099H346.566M346.566 166.099H346.48M346.566 166.099H346.48M346.48 166.099H346.394M346.48 166.099H346.394M346.394 166.099H346.308M346.394 166.099H346.308M346.308 166.099H346.222M346.308 166.099H346.222M346.222 166.099H346.135M346.222 166.099H346.135M346.135 166.099H346.048M346.135 166.099H346.048M346.048 166.099H345.962M346.048 166.099H345.962M345.962 166.099H345.874M345.962 166.099H345.874M345.874 166.099H345.787M345.874 166.099H345.787M345.787 166.099H345.7M345.787 166.099H345.7M345.7 166.099H345.612M345.7 166.099H345.612M345.612 166.099H345.524M345.612 166.099H345.524M345.524 166.099H345.436M345.524 166.099H345.436M345.436 166.099H345.348M345.436 166.099H345.348M345.348 166.099H345.259M345.348 166.099H345.259M345.259 166.099H345.171M345.259 166.099H345.171M345.171 166.099H345.082M345.171 166.099H345.082M345.082 166.099H344.993M345.082 166.099H344.993M344.993 166.099H344.904M344.993 166.099H344.904M344.904 166.099H344.815M344.904 166.099H344.815M344.815 166.099H344.725M344.815 166.099H344.725M344.725 166.099H344.635M344.725 166.099H344.635M344.635 166.099H344.545M344.635 166.099H344.545M344.545 166.099H344.455M344.545 166.099H344.455M344.455 166.099H344.365M344.455 166.099H344.365M344.365 166.099H344.275M344.365 166.099H344.275M344.275 166.099H344.184M344.275 166.099H344.184M344.184 166.099H344.093M344.184 166.099H344.093M344.093 166.099H344.002M344.093 166.099H344.002M344.002 166.099H343.911M344.002 166.099H343.911M343.911 166.099H343.819M343.911 166.099H343.819M343.819 166.099H343.728M343.819 166.099H343.728M343.728 166.099H343.636M343.728 166.099H343.636M343.636 166.099H343.544M343.636 166.099H343.544M343.544 166.099H343.452M343.544 166.099H343.452M343.452 166.099H343.36M343.452 166.099H343.36M343.36 166.099H343.267M343.36 166.099H343.267M343.267 166.099H343.174M343.267 166.099H343.174M343.174 166.099H343.082M343.174 166.099H343.082M343.082 166.099H342.989M343.082 166.099H342.989M342.989 166.099H342.895M342.989 166.099H342.895M342.895 166.099H342.802M342.895 166.099H342.802M342.802 166.099H342.708M342.802 166.099H342.708M342.708 166.099H342.614M342.708 166.099H342.614M342.614 166.099H342.521M342.614 166.099H342.521M342.521 166.099H342.426M342.521 166.099H342.426M342.426 166.099H342.332M342.426 166.099H342.332M342.332 166.099H342.237M342.332 166.099H342.237M342.237 166.099H342.143M342.237 166.099H342.143M342.143 166.099H342.048M342.143 166.099H342.048M342.048 166.099H341.953M342.048 166.099H341.953M341.953 166.099H341.858M341.953 166.099H341.858M341.858 166.099H341.762M341.858 166.099H341.762M341.762 166.099H341.667M341.762 166.099H341.667M341.667 166.099H341.571M341.667 166.099H341.571M341.571 166.099H341.475M341.571 166.099H341.475M341.475 166.099H341.379M341.475 166.099H341.379M341.379 166.099H341.282M341.379 166.099H341.282M341.282 166.099H341.186M341.282 166.099H341.186M341.186 166.099H341.089M341.186 166.099H341.089M341.089 166.099H340.992M341.089 166.099H340.992M340.992 166.099H340.895M340.992 166.099H340.895M340.895 166.099H340.798M340.895 166.099H340.798M340.798 166.099H340.701M340.798 166.099H340.701M340.701 166.099H340.603M340.701 166.099H340.603M340.603 166.099H340.505M340.603 166.099H340.505M340.505 166.099H340.407M340.505 166.099H340.407M340.407 166.099H340.309M340.407 166.099H340.309M340.309 166.099H340.211M340.309 166.099H340.211M340.211 166.099H340.112M340.211 166.099H340.112M340.112 166.099H340.014M340.112 166.099H340.014M340.014 166.099H339.915M340.014 166.099H339.915M339.915 166.099H339.816M339.915 166.099H339.816M339.816 166.099H339.717M339.816 166.099H339.717M339.717 166.099H339.617M339.717 166.099H339.617M339.617 166.099H339.518M339.617 166.099H339.518M339.518 166.099H339.418M339.518 166.099H339.418M339.418 166.099H339.318M339.418 166.099H339.318M339.318 166.099H339.218M339.318 166.099H339.218M339.218 166.099H339.118M339.218 166.099H339.118M339.118 166.099H339.018M339.118 166.099H339.018M339.018 166.099H338.917M339.018 166.099H338.917M338.917 166.099H338.816M338.917 166.099H338.816M338.816 166.099H338.715M338.816 166.099H338.715M338.715 166.099H338.614M338.715 166.099H338.614M338.614 166.099H338.513M338.614 166.099H338.513M338.513 166.099H338.411M338.513 166.099H338.411M338.411 166.099H338.31M338.411 166.099H338.31M338.31 166.099H338.208M338.31 166.099H338.208M338.208 166.099H338.106M338.208 166.099H338.106M338.106 166.099H338.004M338.106 166.099H338.004M338.004 166.099H337.901M338.004 166.099H337.901M337.901 166.099H337.799M337.901 166.099H337.799M337.799 166.099H337.696M337.799 166.099H337.696M337.696 166.099H337.593M337.696 166.099H337.593M337.593 166.099H337.49M337.593 166.099H337.49M337.49 166.099H337.387M337.49 166.099H337.387M337.387 166.099H337.284M337.387 166.099H337.284M337.284 166.099H337.18M337.284 166.099H337.18M337.18 166.099H337.077M337.18 166.099H337.077M337.077 166.099H336.973M337.077 166.099H336.973M336.973 166.099H336.869M336.973 166.099H336.869M336.869 166.099H336.764M336.869 166.099H336.764M336.764 166.099H336.66M336.764 166.099H336.66M336.66 166.099H336.555M336.66 166.099H336.555M336.555 166.099H336.451M336.555 166.099H336.451M336.451 166.099H336.346M336.451 166.099H336.346M336.346 166.099H336.241M336.346 166.099H336.241M336.241 166.099H336.135M336.241 166.099H336.135M336.135 166.099H336.03M336.135 166.099H336.03M336.03 166.099H335.924M336.03 166.099H335.924M335.924 166.099H335.819M335.924 166.099H335.819M335.819 166.099H335.713M335.819 166.099H335.713M335.713 166.099H335.607M335.713 166.099H335.607M335.607 166.099H335.5M335.607 166.099H335.5M335.5 166.099H335.394H335.5Z" fill="white" stroke="black" stroke-width="2"/>
<path d="M32.4515 166.099C25.0586 166.099 17.5547 161.937 12.324 157.981C14.9312 134.696 34.5974 116.831 58.928 116.831C84.6147 116.831 105.586 137.568 105.586 163.489C105.586 164.032 105.531 164.584 105.47 165.195L105.468 165.217C105.44 165.5 105.41 165.796 105.387 166.099H105.177H104.944H104.712H104.48H104.248H104.016H103.784H103.553H103.322H103.091H102.86H102.63H102.4H102.17H101.94H101.711H101.482H101.253H101.024H100.796H100.568H100.34H100.112H99.885H99.6579H99.4311H99.2045H98.9782H98.7521H98.5263H98.3008H98.0755H97.8505H97.6257H97.4012H97.177H96.953H96.7293H96.5058H96.2827H96.0598H95.8371H95.6147H95.3926H95.1708H94.9492H94.7279H94.5069H94.2861H94.0657H93.8454H93.6255H93.4058H93.1864H92.9673H92.7485H92.5299H92.3116H92.0936H91.8759H91.6585H91.4413H91.2244H91.0078H90.7915H90.5755H90.3597H90.1442H89.929H89.7141H89.4995H89.2852H89.0712H88.8574H88.644H88.4308H88.2179H88.0053H87.793H87.581H87.3693H87.1579H86.9467H86.7359H86.5254H86.3151H86.1052H85.8955H85.6862H85.4771H85.2684H85.06H84.8518H84.644H84.4364H84.2292H84.0222H83.8156H83.6093H83.4033H83.1975H82.9921H82.787H82.5822H82.3777H82.1736H81.9697H81.7662H81.5629H81.36H81.1574H80.9551H80.7531H80.5514H80.35H80.149H79.9483H79.7479H79.5478H79.348H79.1486H78.9494H78.7506H78.5521H78.354H78.1561H77.9586H77.7614H77.5645H77.368H77.1718H76.9759H76.7803H76.5851H76.3902H76.1956H76.0014H75.8075H75.6139H75.4206H75.2277H75.0351H74.8429H74.651H74.4594H74.2681H74.0772H73.8867H73.6964H73.5065H73.317H73.1278H72.9389H72.7504H72.5622H72.3743H72.1868H71.9997H71.8129H71.6264H71.4403H71.2545H71.0691H70.884H70.6993H70.5149H70.3309H70.1472H69.9639H69.7809H69.5983H69.416H69.2341H69.0526H68.8714H68.6905H68.51H68.3299H68.1501H67.9707H67.7917H67.613H67.4346H67.2567H67.0791H66.9018H66.7249H66.5484H66.3723H66.1965H66.0211H65.846H65.6713H65.497H65.3231H65.1495H64.9763H64.8034H64.631H64.4589H64.2872H64.1158H63.9448H63.7742H63.604H63.4342H63.2647H63.0956H62.9269H62.7586H62.5906H62.423H62.2559H62.089H61.9226H61.7566H61.5909H61.4256H61.2607H61.0962H60.9321H60.7684H60.605H60.4421H60.2795H60.1173H59.9555H59.7941H59.6331H59.4725H59.3123H59.1525H58.993H58.834H58.6754H58.5171H58.3593H58.2018H58.0448H57.8881H57.7319H57.576H57.4206H57.2655H57.1109H56.9566H56.8028H56.6493H56.4963H56.3437H56.1915H56.0396H55.8882H55.7372H55.5867H55.4365H55.2867H55.1373H54.9884H54.8399H54.6917H54.544H54.3967H54.2499H54.1034H53.9574H53.8117H53.6665H53.5217H53.3774H53.2334H53.0899H52.9468H52.8041H52.6618H52.52H52.3785H52.2375H52.097H51.9568H51.8171H51.6778H51.5389H51.4005H51.2625H51.1249H50.9878H50.8511H50.7148H50.5789H50.4435H50.3085H50.174H50.0398H49.9062H49.7729H49.6401H49.5077H49.3758H49.2443H49.1133H48.9826H48.8525H48.7227H48.5935H48.4646H48.3362H48.2083H48.0807H47.9537H47.8271H47.7009H47.5752H47.4499H47.3251H47.2007H47.0768H46.9533H46.8303H46.7077H46.5856H46.4639H46.3427H46.2219H46.1016H45.9818H45.8624H45.7435H45.625H45.507H45.3894H45.2723H45.1557H45.0395H44.9238H44.8086H44.6938H44.5795H44.4657H44.3523H44.2393H44.1269H44.0149H43.9034H43.7924H43.6818H43.5717H43.462H43.3529H43.2442H43.136H43.0282H42.921H42.8142H42.7078H42.602H42.4966H42.3917H42.2873H42.1834H42.08H41.977H41.8745H41.7725H41.671H41.5699H41.4694H41.3693H41.2697H41.1706H41.072H40.9739H40.8762H40.7791H40.6824H40.5862H40.4905H40.3953H40.3006H40.2064H40.1127H40.0195H39.9268H39.8345H39.7428H39.6516H39.5608H39.4706H39.3808H39.2916H39.2028H39.1146H39.0268H38.9396H38.8528H38.7666H38.6809H38.5956H38.5109H38.4267H38.343H38.2598H38.1771H38.0949H38.0132H37.932H37.8513H37.7712H37.6916H37.6124H37.5338H37.4557H37.3781H37.3011H37.2245H37.1485H37.0729H36.9979H36.9235H36.8495H36.776H36.7031H36.6307H36.5588H36.4875H36.4166H36.3463H36.2765H36.2073H36.1385H36.0703H36.0026H35.9355H35.8688H35.8027H35.7372H35.6721H35.6076H35.5436H35.4802H35.4173H35.3549H35.2931H35.2318H35.171H35.1107H35.051H34.9919H34.9333H34.8752H34.8176H34.7606H34.7042H34.6482H34.5929H34.538H34.4837H34.43H34.3768H34.3241H34.272H34.2205H34.1695H34.119H34.0691H34.0197H33.9709H33.9226H33.8749H33.8277H33.7811H33.7351H33.6896H33.6446H33.6002H33.5564H33.5131H33.4704H33.4283H33.3867H33.3456H33.3051H33.2652H33.2259H33.1871H33.1488H33.1112H33.0741H33.0375H33.0015H32.9661H32.9313H32.897H32.8633H32.8302H32.7976H32.7656H32.7342H32.7034H32.6731H32.6434H32.6142H32.5857H32.5577H32.5303H32.5035H32.4772H32.4515Z" fill="white" stroke="black" stroke-width="2"/>
<path d="M383.385 116.831C406.885 116.831 426.471 134.056 429.691 156.703C422.398 158.364 408.987 160.654 395.877 162.559C382.2 164.548 368.977 166.099 363.407 166.099H363.394H363.381H363.368H363.355H363.341H363.328H363.314H363.3H363.285H363.271H363.256H363.242H363.227H363.212H363.196H363.181H363.165H363.149H363.133H363.117H363.101H363.084H363.067H363.05H363.033H363.016H362.998H362.981H362.963H362.945H362.927H362.908H362.89H362.871H362.852H362.833H362.814H362.795H362.775H362.755H362.735H362.715H362.695H362.674H362.654H362.633H362.612H362.591H362.569H362.548H362.526H362.504H362.482H362.46H362.437H362.415H362.392H362.369H362.346H362.323H362.299H362.276H362.252H362.228H362.204H362.179H362.155H362.13H362.105H362.08H362.055H362.03H362.004H361.979H361.953H361.927H361.9H361.874H361.848H361.821H361.794H361.767H361.74H361.712H361.685H361.657H361.629H361.601H361.572H361.544H361.515H361.487H361.458H361.429H361.399H361.37H361.34H361.31H361.28H361.25H361.22H361.189H361.159H361.128H361.097H361.066H361.034H361.003H360.971H360.94H360.908H360.875H360.843H360.811H360.778H360.745H360.712H360.679H360.646H360.612H360.578H360.545H360.511H360.476H360.442H360.408H360.373H360.338H360.303H360.268H360.233H360.197H360.162H360.126H360.09H360.054H360.017H359.981H359.944H359.907H359.87H359.833H359.796H359.759H359.721H359.683H359.645H359.607H359.569H359.53H359.492H359.453H359.414H359.375H359.336H359.296H359.257H359.217H359.177H359.137H359.097H359.057H359.016H358.975H358.935H358.894H358.852H358.811H358.77H358.728H358.686H358.644H358.602H358.56H358.517H358.475H358.432H358.389H358.346H358.303H358.259H358.216H358.172H358.128H358.084H358.04H357.995H357.951H357.906H357.861H357.816H357.771H357.726H357.681H357.635H357.589H357.543H357.497H357.451H357.405H357.358H357.311H357.264H357.217H357.17H357.123H357.075H357.028H356.98H356.932H356.884H356.836H356.787H356.739H356.69H356.641H356.592H356.543H356.494H356.444H356.394H356.345H356.295H356.245H356.194H356.144H356.093H356.043H355.992H355.941H355.89H355.838H355.787H355.735H355.683H355.632H355.579H355.527H355.475H355.422H355.37H355.317H355.264H355.211H355.157H355.104H355.05H354.997H354.943H354.889H354.835H354.78H354.726H354.671H354.616H354.561H354.506H354.451H354.396H354.34H354.285H354.229H354.173H354.117H354.06H354.004H353.947H353.891H353.834H353.777H353.72H353.662H353.605H353.547H353.49H353.432H353.374H353.316H353.257H353.199H353.14H353.081H353.023H352.964H352.904H352.845H352.786H352.726H352.666H352.606H352.546H352.486H352.426H352.365H352.304H352.244H352.183H352.122H352.061H351.999H351.938H351.876H351.814H351.752H351.69H351.628H351.566H351.503H351.441H351.378H351.315H351.252H351.189H351.125H351.062H350.998H350.934H350.871H350.806H350.742H350.678H350.613H350.549H350.484H350.419H350.354H350.289H350.224H350.158H350.093H350.027H349.961H349.895H349.829H349.763H349.696H349.63H349.563H349.496H349.429H349.362H349.295H349.227H349.16H349.092H349.024H348.957H348.888H348.82H348.752H348.683H348.615H348.546H348.477H348.408H348.339H348.27H348.2H348.131H348.061H347.991H347.921H347.851H347.781H347.71H347.64H347.569H347.498H347.428H347.356H347.285H347.214H347.143H347.071H346.999H346.927H346.855H346.783H346.711H346.639H346.566H346.493H346.421H346.348H346.275H346.201H346.128H346.055H345.981H345.907H345.834H345.76H345.686H345.611H345.537H345.462H345.388H345.313H345.238H345.163H345.088H345.013H344.937H344.862H344.786H344.71H344.634H344.558H344.482H344.406H344.329H344.253H344.176H344.099H344.022H343.945H343.868H343.791H343.713H343.636H343.558H343.48H343.402H343.324H343.246H343.167H343.089H343.01H342.932H342.853H342.774H342.695H342.615H342.536H342.456H342.377H342.297H342.217H342.137H342.057H341.977H341.896H341.816H341.735H341.655H341.574H341.493H341.412H341.33H341.249H341.168H341.086H341.004H340.922H340.84H340.758H340.676H340.594H340.511H340.429H340.346H340.263H340.18H340.097H340.014H339.93H339.847H339.763H339.68H339.596H339.512H339.428H339.344H339.259H339.175H339.09H339.006H338.921H338.836H338.751H338.666H338.581H338.495H338.41H338.324H338.238H338.153H338.067H337.98H337.894H337.808H337.721H337.635H337.548H337.461H337.374H337.287H337.2H337.113H337.026H336.938H336.85H336.824C336.729 165.266 336.727 164.41 336.727 163.489C336.727 137.802 357.464 116.831 383.385 116.831Z" fill="white" stroke="black" stroke-width="2"/>
<path d="M96.1989 163.489C96.1989 184.206 79.4046 201 58.6877 201C37.9708 201 21.1765 184.206 21.1765 163.489C21.1765 142.772 37.9708 125.978 58.6877 125.978C79.4046 125.978 96.1989 142.772 96.1989 163.489Z" fill="white" stroke="black" stroke-width="2"/>
<path d="M83.9234 163.489C83.9234 177.378 72.5771 188.724 58.6877 188.724C44.7982 188.724 33.4519 177.378 33.4519 163.489C33.4519 149.599 44.7982 138.253 58.6877 138.253C72.5771 138.253 83.9234 149.599 83.9234 163.489Z" fill="white" stroke="black" stroke-width="2"/>
<path d="M421.137 163.489C421.137 184.206 404.343 201 383.626 201C362.909 201 346.115 184.206 346.115 163.489C346.115 142.772 362.909 125.978 383.626 125.978C404.343 125.978 421.137 142.772 421.137 163.489Z" fill="white" stroke="black" stroke-width="2"/>
<path d="M408.861 163.489C408.861 177.378 397.515 188.724 383.626 188.724C369.736 188.724 358.39 177.378 358.39 163.489C358.39 149.599 369.736 138.253 383.626 138.253C397.515 138.253 408.861 149.599 408.861 163.489Z" fill="white" stroke="black" stroke-width="2"/>
<path d="M14.2734 98.9852C12.743 99.5893 11.4807 100.041 10.5582 100.355C12.6836 93.0968 15.8628 87.8367 18.4482 84.5721C24.6505 80.6344 32.5612 78.3423 39.1452 77.0374C43.5524 76.1639 47.3141 75.7422 49.4946 75.5576C49.4033 75.6525 49.3069 75.7516 49.2053 75.8547C47.9387 77.1396 45.9913 78.932 43.6575 80.9217C38.9839 84.9062 32.8412 89.6138 27.6255 92.5772C22.3785 95.5585 17.6684 97.6451 14.2734 98.9852Z" fill="white" stroke="black" stroke-width="2"/>
<path d="M433.268 59.3053H433.297C433.587 59.9789 434.206 60.4426 434.685 60.762C434.983 60.9605 435.311 61.1547 435.628 61.341C435.65 61.3539 435.672 61.3668 435.693 61.3797C435.995 61.5571 436.291 61.7312 436.583 61.9169C437.874 62.7383 438.707 63.5609 438.707 64.8041C438.707 67.5886 438.707 84.0223 438.539 94.061C434.37 87.4305 428.803 80.3027 423.997 74.3738C422.538 72.574 421.169 70.9093 419.924 69.3945C418.777 67.9988 417.734 66.7305 416.822 65.6011C415.884 64.4392 415.117 63.4662 414.566 62.7138C414.29 62.3371 414.076 62.0274 413.925 61.784C413.849 61.6627 413.794 61.5659 413.756 61.4915C413.725 61.4323 413.712 61.4001 413.709 61.3902C413.383 60.181 413.611 59.8205 413.728 59.7044C413.927 59.5051 414.445 59.3053 415.638 59.3053H415.649H415.661H415.673H415.685H415.697H415.709H415.722H415.735H415.747H415.761H415.774H415.787H415.801H415.815H415.829H415.843H415.858H415.873H415.887H415.902H415.918H415.933H415.949H415.964H415.98H415.997H416.013H416.029H416.046H416.063H416.08H416.097H416.115H416.132H416.15H416.168H416.186H416.204H416.223H416.242H416.26H416.279H416.299H416.318H416.337H416.357H416.377H416.397H416.417H416.437H416.458H416.479H416.5H416.521H416.542H416.563H416.585H416.606H416.628H416.65H416.672H416.695H416.717H416.74H416.763H416.786H416.809H416.832H416.856H416.879H416.903H416.927H416.951H416.975H417H417.024H417.049H417.074H417.099H417.124H417.149H417.175H417.2H417.226H417.252H417.278H417.304H417.33H417.357H417.383H417.41H417.437H417.464H417.491H417.519H417.546H417.574H417.602H417.629H417.657H417.686H417.714H417.742H417.771H417.8H417.829H417.858H417.887H417.916H417.945H417.975H418.004H418.034H418.064H418.094H418.124H418.155H418.185H418.216H418.246H418.277H418.308H418.339H418.37H418.402H418.433H418.465H418.496H418.528H418.56H418.592H418.624H418.656H418.689H418.721H418.754H418.787H418.82H418.852H418.886H418.919H418.952H418.986H419.019H419.053H419.086H419.12H419.154H419.188H419.223H419.257H419.291H419.326H419.36H419.395H419.43H419.465H419.5H419.535H419.57H419.606H419.641H419.677H419.712H419.748H419.784H419.82H419.856H419.892H419.928H419.965H420.001H420.038H420.074H420.111H420.148H420.185H420.222H420.259H420.296H420.333H420.371H420.408H420.446H420.483H420.521H420.559H420.597H420.635H420.673H420.711H420.749H420.787H420.826H420.864H420.903H420.941H420.98H421.019H421.058H421.097H421.136H421.175H421.214H421.253H421.292H421.332H421.371H421.411H421.45H421.49H421.53H421.57H421.61H421.649H421.69H421.73H421.77H421.81H421.85H421.891H421.931H421.972H422.012H422.053H422.093H422.134H422.175H422.216H422.257H422.298H422.339H422.38H422.421H422.462H422.504H422.545H422.586H422.628H422.669H422.711H422.752H422.794H422.836H422.878H422.919H422.961H423.003H423.045H423.087H423.129H423.171H423.213H423.256H423.298H423.34H423.383H423.425H423.467H423.51H423.552H423.595H423.637H423.68H423.723H423.765H423.808H423.851H423.894H423.937H423.979H424.022H424.065H424.108H424.151H424.194H424.238H424.281H424.324H424.367H424.41H424.453H424.497H424.54H424.583H424.627H424.67H424.713H424.757H424.8H424.844H424.887H424.931H424.974H425.018H425.061H425.105H425.149H425.192H425.236H425.28H425.323H425.367H425.411H425.454H425.498H425.542H425.586H425.63H425.673H425.717H425.761H425.805H425.849H425.893H425.936H425.98H426.024H426.068H426.112H426.156H426.2H426.244H426.288H426.332H426.375H426.419H426.463H426.507H426.551H426.595H426.639H426.683H426.727H426.771H426.815H426.859H426.902H426.946H426.99H427.034H427.078H427.122H427.166H427.21H427.253H427.297H427.341H427.385H427.429H427.472H427.516H427.56H427.604H427.647H427.691H427.735H427.778H427.822H427.866H427.909H427.953H427.997H428.04H428.084H428.127H428.171H428.214H428.258H428.301H428.345H428.388H428.431H428.475H428.518H428.561H428.604H428.648H428.691H428.734H428.777H428.82H428.863H428.906H428.949H428.992H429.035H429.078H429.121H429.164H429.207H429.249H429.292H429.335H429.377H429.42H429.462H429.505H429.547H429.59H429.632H429.675H429.717H429.759H429.801H429.844H429.886H429.928H429.97H430.012H430.054H430.096H430.137H430.179H430.221H430.263H430.304H430.346H430.387H430.429H430.47H430.511H430.553H430.594H430.635H430.676H430.717H430.758H430.799H430.84H430.881H430.922H430.963H431.003H431.044H431.084H431.125H431.165H431.205H431.246H431.286H431.326H431.366H431.406H431.446H431.486H431.526H431.565H431.605H431.644H431.684H431.723H431.763H431.802H431.841H431.88H431.919H431.958H431.997H432.036H432.075H432.113H432.152H432.19H432.229H432.267H432.305H432.343H432.381H432.419H432.457H432.495H432.533H432.571H432.608H432.646H432.683H432.72H432.757H432.795H432.832H432.868H432.905H432.942H432.979H433.015H433.052H433.088H433.124H433.161H433.197H433.233H433.268Z" fill="white" stroke="black" stroke-width="2"/>
<path d="M206.407 13.5582L206.414 13.5569L206.421 13.5555C217.679 11.3999 229.307 10.2604 238.365 9.72048C242.893 9.45061 246.772 9.33094 249.634 9.30853C251.066 9.29731 252.237 9.31048 253.105 9.34085C253.539 9.35605 253.891 9.37534 254.157 9.39722C254.29 9.40816 254.397 9.41932 254.478 9.43008C254.519 9.43542 254.551 9.44032 254.575 9.4445C254.586 9.44657 254.595 9.44831 254.602 9.44965C254.608 9.45101 254.611 9.45174 254.611 9.4517C254.928 9.5309 255.054 9.63986 255.121 9.72926C255.202 9.83559 255.295 10.0409 255.332 10.4624C255.408 11.3557 255.201 12.7123 254.832 14.8065C254.595 16.1454 253.756 20.1079 252.717 25.0119C252.185 27.5255 251.6 30.2864 251.017 33.068C249.31 41.2131 247.607 49.5941 247.359 52.1932C247.315 52.6625 247.274 53.1123 247.236 53.5431C247.06 55.5109 246.919 57.0813 246.555 58.2872C246.341 58.9952 246.075 59.481 245.75 59.8087C245.44 60.1204 245.017 60.3509 244.362 60.4445C243.572 60.5574 237.095 60.9905 227.597 61.5834C218.14 62.1738 205.768 62.9184 193.267 63.6555C168.254 65.1304 142.761 66.5732 139.047 66.693C137.315 66.7489 136.24 66.408 135.592 65.9623C134.965 65.5311 134.643 64.9372 134.53 64.2513C134.414 63.5424 134.527 62.7346 134.805 61.98C135.086 61.22 135.501 60.6045 135.893 60.2563C138.048 58.3408 156.315 42.718 169.037 33.3565L169.037 33.3565L169.047 33.3492C175.379 28.57 182.735 23.9648 189.521 20.3774C196.336 16.775 202.478 14.2515 206.407 13.5582Z" fill="white" stroke="black" stroke-width="2"/>
<path d="M274.761 9.71938L274.796 9.72192H274.832C275.891 9.72192 288.982 10.1419 302.504 10.6539C316.055 11.1669 329.88 11.7673 332.464 12.1197C337.46 12.801 343.721 16.2439 348.148 22.5356C350.397 25.7313 353.683 31.4023 356.534 36.8646C357.957 39.5906 359.264 42.2494 360.272 44.5048C361.293 46.7874 361.973 48.579 362.189 49.6054C362.653 51.8108 362.543 53.4 362.036 54.3896C361.584 55.273 360.719 55.8609 359.075 55.8609C355.193 55.8609 272.604 59.7135 269.928 59.9568C268.716 60.067 267.629 59.8791 266.921 59.3433C266.287 58.863 265.744 57.9345 265.958 56.0086C266.196 53.8657 267.635 44.0864 269.052 34.4716L269.129 33.9469C270.512 24.562 271.855 15.4435 271.977 14.1077L271.977 14.1078L271.978 14.0939C272.039 13.3054 272.096 12.6109 272.197 11.9985C272.298 11.3838 272.434 10.9186 272.616 10.5751C272.788 10.2514 272.997 10.0432 273.276 9.90884C273.572 9.76649 274.031 9.66724 274.761 9.71938Z" fill="white" stroke="black" stroke-width="2"/>
<path d="M411.177 49.3687C410.924 49.3395 410.674 49.3108 410.425 49.2824C407.561 48.9545 404.965 48.6574 402.724 48.044C400.309 47.3827 398.442 46.3865 397.183 44.7078C396.163 43.3484 393.605 40.4524 390.554 36.9981C389.195 35.4587 387.737 33.8084 386.274 32.1337C381.47 26.6343 376.603 20.8696 374.612 17.5903C373.634 15.9794 373.309 14.8495 373.298 14.0854C373.287 13.3773 373.542 12.937 373.923 12.6131C374.345 12.2546 374.973 12.0012 375.722 11.8447C376.458 11.6908 377.226 11.6477 377.849 11.6477H377.862H377.875H377.889H377.903H377.917H377.932H377.947H377.963H377.979H377.995H378.012H378.029H378.046H378.064H378.082H378.101H378.119H378.139H378.158H378.178H378.199H378.219H378.24H378.262H378.284H378.306H378.328H378.351H378.374H378.398H378.421H378.446H378.47H378.495H378.52H378.546H378.572H378.598H378.625H378.651H378.679H378.706H378.734H378.762H378.791H378.82H378.849H378.879H378.909H378.939H378.969H379H379.031H379.063H379.095H379.127H379.159H379.192H379.225H379.258H379.292H379.326H379.36H379.395H379.43H379.465H379.5H379.536H379.572H379.609H379.645H379.682H379.719H379.757H379.795H379.833H379.871H379.91H379.949H379.988H380.028H380.068H380.108H380.148H380.189H380.23H380.271H380.313H380.354H380.396H380.439H380.481H380.524H380.567H380.611H380.654H380.698H380.742H380.787H380.831H380.876H380.921H380.967H381.013H381.058H381.105H381.151H381.198H381.245H381.292H381.339H381.387H381.435H381.483H381.531H381.58H381.629H381.678H381.727H381.777H381.827H381.877H381.927H381.977H382.028H382.079H382.13H382.182H382.233H382.285H382.337H382.389H382.442H382.494H382.547H382.6H382.654H382.707H382.761H382.815H382.869H382.923H382.978H383.033H383.087H383.143H383.198H383.253H383.309H383.365H383.421H383.477H383.534H383.591H383.648H383.705H383.762H383.819H383.877H383.935H383.993H384.051H384.109H384.167H384.226H384.285H384.344H384.403H384.462H384.522H384.582H384.642H384.702H384.762H384.822H384.883H384.943H385.004H385.065H385.126H385.187H385.249H385.31H385.372H385.434H385.496H385.558H385.62H385.683H385.745H385.808H385.871H385.934H385.997H386.06H386.124H386.187H386.251H386.315H386.379H386.443H386.507H386.571H386.636H386.7H386.765H386.83H386.895H386.96H387.025H387.09H387.156H387.221H387.287H387.352H387.418H387.484H387.55H387.616H387.682H387.749H387.815H387.882H387.948H388.015H388.082H388.149H388.216H388.283H388.35H388.417H388.485H388.552H388.62H388.687H388.755H388.823H388.891H388.959H389.027H389.095H389.163H389.231H389.3H389.368H389.436H389.505H389.574H389.642H389.711H389.78H389.849H389.917H389.986H390.055H390.125H390.194H390.263H390.332H390.401H390.471H390.54H390.61H390.679H390.749H390.818H390.888H390.957H391.027H391.097H391.167H391.236H391.306H391.376H391.446H391.516H391.586H391.656H391.726H391.796H391.866H391.936H392.006H392.076H392.146H392.217H392.287H392.357H392.427H392.497H392.568H392.638H392.708H392.778H392.849H392.919H392.989H393.06H393.13H393.2H393.27H393.341H393.411H393.481H393.552H393.622H393.692H393.762H393.832H393.903H393.973H394.043H394.113H394.183H394.253H394.324H394.394H394.464H394.534H394.604H394.674H394.744H394.814H394.883H394.953H395.023H395.093H395.163H395.232H395.302H395.372H395.441H395.511H395.58H395.65H395.719H395.788H395.858H395.927H395.996H396.065H396.134H396.203H396.272H396.341H396.41H396.479H396.548H396.616H396.685H396.754H396.822H396.891H396.959H397.027H397.095H397.163H397.232H397.299H397.367H397.435H397.503H397.571H397.638H397.706H397.773H397.84H397.908H397.975H398.042H398.109H398.176H398.242H398.309H398.376H398.442H398.508H398.575H398.641H398.707H398.773H398.839H398.904H398.97H399.036H399.101H399.166H399.231H399.297H399.362H399.426H399.491H399.556H399.62H399.684H399.749H399.813H399.877H399.941H400.004H400.068H400.131H400.195H400.258H400.321H400.384H400.447H400.509H400.572H400.634H400.696H400.758H400.82H400.882H400.944H401.005H401.066H401.128H401.189H401.249H401.31H401.371H401.431H401.491H401.551H401.611H401.671H401.731H401.79H401.849H401.908H401.967H402.026H402.084H402.143H402.201H402.259H402.317H402.375H402.432H402.489H402.546H402.603H402.66H402.717H402.773H402.829H402.885H402.941H402.996H403.052H403.107H403.162H403.217H403.272H403.326H403.38H403.434H403.488H403.541H403.595H403.648H403.701H403.754H403.806H403.859H403.911H403.963H404.014H404.066H404.117H404.168H404.219H404.269H404.319H404.37H404.419H404.469H404.518H404.568H404.617H404.665H404.714H404.762H404.81H404.858H404.905H404.952H404.999H405.046H405.093H405.139H405.185H405.231H405.276H405.322H405.367H405.411H405.456H405.5H405.544H405.585C409.991 16.2727 414.876 23.7228 419.346 31.4281C423.478 38.5491 427.217 45.8228 429.849 51.147C423.786 50.6376 415.101 49.8046 411.177 49.3687Z" fill="white" stroke="black" stroke-width="2"/>
<defs>
<linearGradient id="paint0_linear" x1="223.435" y1="73.5383" x2="223.435" y2="121.448" gradientUnits="userSpaceOnUse">
<stop stop-color="white"/>
<stop offset="1" stop-color="white"/>
</linearGradient>
</defs>
</svg>
