<svg width="113" height="49" viewBox="0 0 113 49" fill="none" xmlns="http://www.w3.org/2000/svg">
<path d="M107.016 20.4558C107.016 20.4558 111.373 22.7216 111.432 23.0702C111.49 23.4188 109.282 23.8836 108.236 23.9417L107.016 20.4558Z" fill="#6AB068"/>
<path d="M5.86794 26.3817C5.86794 27.3693 5.11267 28.1246 4.12501 28.1246H2.26588C1.27822 28.1246 0.522949 27.3693 0.522949 26.3817V23.3025C0.522949 22.3148 1.27822 21.5596 2.26588 21.5596H4.1831C5.17076 21.5596 5.92603 22.3148 5.92603 23.3025V26.3817H5.86794Z" fill="#D4D4D4"/>
<path d="M28.4678 17.028C28.4678 17.028 28.2354 16.0984 26.9573 16.2146C25.6791 16.2727 18.1845 17.1442 15.3958 17.609C12.6072 18.0738 5.34494 19.41 4.64777 19.5262C3.8925 19.7005 3.31152 20.4558 3.31152 20.4558L28.4678 17.028Z" fill="#545454"/>
<path d="M4.24116 20.1071C3.71828 20.2233 1.97535 20.63 1.91725 22.0824C1.85915 23.5349 1.74296 26.8465 1.91725 27.7179C2.09154 28.5313 2.32393 28.357 2.32393 29.7513C2.32393 31.0876 2.32393 32.7724 2.32393 33.121C2.32393 33.5277 2.78871 33.7601 2.84681 34.3992C2.90491 35.0382 2.84681 37.3621 2.84681 37.9431C2.84681 38.5241 3.36969 40.267 4.29925 40.267C5.22882 40.267 20.218 40.267 21.2057 40.267C22.1933 40.267 24.5753 42.4747 28.0612 42.4747C31.5471 42.4747 86.4494 42.4747 88.2504 42.4747C90.0514 42.4747 102.484 39.686 103.356 39.686C104.227 39.686 109.921 37.304 110.85 32.7724C111.78 28.2408 108.759 20.8043 104.227 15.7498C99.6376 10.6372 94.1764 3.43309 93.8859 3.31689H39.3322C38.8093 3.31689 38.2283 3.54929 37.7635 4.18836C37.4149 4.82743 30.1527 14.704 29.1651 15.6917C28.8746 15.9822 28.3517 16.5632 27.6545 16.7375C27.0154 16.9698 18.9399 17.3184 4.24116 20.1071Z" fill="#7DCF7A"/>
<path d="M1.85912 27.66C2.03342 28.4733 2.26581 28.299 2.26581 29.6934C2.26581 31.0296 2.26581 32.7145 2.26581 33.063C2.26581 33.4697 2.73059 33.7021 2.78869 34.3412C2.84678 34.9803 2.78869 37.3042 2.78869 37.8852C2.78869 38.4661 3.31157 40.2091 4.24113 40.2091C5.17069 40.2091 20.1599 40.2091 21.1476 40.2091C22.1352 40.2091 24.5172 42.4168 28.0031 42.4168C31.4889 42.4168 86.3913 42.4168 88.1923 42.4168C89.9933 42.4168 102.426 39.6281 103.298 39.6281C104.169 39.6281 109.863 37.2461 110.792 32.7145C111.141 30.9134 110.908 28.6476 110.153 26.2075H1.80103C1.80103 26.9047 1.80103 27.4276 1.85912 27.66Z" fill="url(#paint0_linear)"/>
<path d="M103.588 24.3483L103.414 23.9997C102.542 22.2568 101.264 20.9205 100.044 19.7586C99.2309 19.0033 98.5918 18.3062 98.2433 17.6671C97.3137 15.9822 91.3296 5.93134 90.7486 4.94368C90.0515 3.83983 89.1219 3.72363 88.0181 3.72363H43.9219H43.8057C43.2247 3.72363 42.0047 3.72363 40.9589 5.00178C40.0294 6.22183 32.2443 17.4347 31.3728 19.1195C30.5594 20.8044 30.5014 22.7216 30.4433 25.8589C30.4433 26.2655 30.4433 26.7884 30.4433 27.4275C30.3852 31.1457 30.2109 38.0013 31.7214 41.0804L31.9538 40.9643C30.4433 37.9432 30.6175 31.0876 30.7337 27.4275C30.7337 26.8465 30.7337 26.2655 30.7337 25.8589C30.7337 22.7216 30.7918 20.8625 31.6052 19.2357C32.4767 17.5509 40.2618 6.39613 41.2494 5.17607C42.179 4.01412 43.2828 4.01412 43.8638 4.01412H65.36V17.3766C65.36 17.7252 65.6504 18.3062 66.0571 19.0614C66.58 19.991 67.2191 21.211 67.2191 21.9082V41.0804H67.5096V21.9082C67.5096 21.0948 66.8705 19.9329 66.3476 18.9452C65.999 18.3062 65.6505 17.6671 65.6505 17.4347V4.07222H88.0181C89.0638 4.07222 89.8772 4.13032 90.5163 5.17607C91.0972 6.16374 97.1394 16.2727 98.0109 17.8995C98.3594 18.5966 99.0566 19.2357 99.87 20.0491C101.032 21.211 102.31 22.4892 103.182 24.2321L103.356 24.5807C104.808 27.5437 108.178 34.5154 105.273 37.3622L105.447 37.5946C108.527 34.5154 105.215 27.6599 103.588 24.3483Z" fill="#64A662"/>
<path d="M38.8093 3.37505C38.8093 3.37505 40.7265 1.28353 46.1877 0.876851C51.6489 0.470167 72.2736 -0.575592 82.5569 0.412069C91.9106 1.28353 93.1307 2.44549 93.944 3.37505C93.944 3.37505 93.6535 3.49125 93.0145 3.49125C92.3754 3.49125 40.0294 3.49125 39.5646 3.49125C39.0998 3.49125 38.8093 3.37505 38.8093 3.37505Z" fill="#D4D4D4"/>
<path d="M103.298 39.6863C103.646 39.6863 104.634 39.3377 105.854 38.6405C105.331 33.005 100.625 28.6477 94.8735 28.6477C88.7733 28.6477 83.835 33.586 83.835 39.6863C83.835 40.6739 83.9512 41.5454 84.1835 42.475C86.4494 42.475 87.9018 42.475 88.1923 42.475C89.9933 42.475 102.426 39.6863 103.298 39.6863Z" fill="#64A662"/>
<path d="M27.1316 42.4169C27.364 41.5454 27.4802 40.6158 27.4802 39.6863C27.4802 33.586 22.5419 28.6477 16.4416 28.6477C10.3414 28.6477 5.40308 33.586 5.40308 39.6863C5.40308 39.8606 5.40308 40.0349 5.40308 40.2091C9.17943 40.2091 20.2761 40.2091 21.1476 40.2091C22.0771 40.2672 24.1105 42.0683 27.1316 42.4169Z" fill="#64A662"/>
<path d="M16.4416 48.9816C21.5755 48.9816 25.7373 44.8198 25.7373 39.686C25.7373 34.5522 21.5755 30.3904 16.4416 30.3904C11.3078 30.3904 7.146 34.5522 7.146 39.686C7.146 44.8198 11.3078 48.9816 16.4416 48.9816Z" fill="#404040"/>
<path d="M16.4415 46.0188C19.939 46.0188 22.7742 43.1836 22.7742 39.6862C22.7742 36.1887 19.939 33.3535 16.4415 33.3535C12.9441 33.3535 10.1089 36.1887 10.1089 39.6862C10.1089 43.1836 12.9441 46.0188 16.4415 46.0188Z" fill="#EEEEEE"/>
<path d="M94.8735 48.9816C100.007 48.9816 104.169 44.8198 104.169 39.686C104.169 34.5522 100.007 30.3904 94.8735 30.3904C89.7397 30.3904 85.5779 34.5522 85.5779 39.686C85.5779 44.8198 89.7397 48.9816 94.8735 48.9816Z" fill="#404040"/>
<path d="M94.8734 46.0188C98.3708 46.0188 101.206 43.1836 101.206 39.6862C101.206 36.1887 98.3708 33.3535 94.8734 33.3535C91.376 33.3535 88.5408 36.1887 88.5408 39.6862C88.5408 43.1836 91.376 46.0188 94.8734 46.0188Z" fill="#EEEEEE"/>
<path d="M81.4532 39.6863H30.8501C29.8624 39.6863 29.1072 40.4415 29.1072 41.4292V42.475C36.0208 42.475 70.2403 42.475 83.2542 42.475V41.4292C83.1961 40.4996 82.4408 39.6863 81.4532 39.6863Z" fill="#404040"/>
<path d="M44.6771 4.30457C43.8637 4.30457 42.4112 4.24647 41.4817 5.58272C40.5521 6.91897 34.51 15.5755 34.1033 16.2727C33.6966 16.9699 33.4642 17.7832 35.0328 17.7832C36.6015 17.7832 61.9902 17.7832 63.094 17.7832C64.1979 17.7832 64.7208 17.667 64.7208 16.8537C64.7208 16.0403 64.7208 7.09326 64.7208 6.39609C64.7208 5.69892 64.3141 4.36267 63.094 4.36267C61.874 4.36267 44.6771 4.30457 44.6771 4.30457Z" fill="#545454"/>
<path d="M66.3476 16.6795C66.3476 17.2024 66.58 17.7834 67.5096 17.7834C68.4973 17.7834 91.0973 17.7834 91.9687 17.7834C92.8402 17.7834 94.4669 17.0281 94.3507 15.4595C94.2345 13.8908 90.1096 7.20958 89.5867 6.45431C89.0638 5.69904 88.1924 4.36279 86.2752 4.36279C84.3579 4.36279 69.0201 4.36279 68.323 4.36279C67.6258 4.36279 66.2896 4.65328 66.2896 6.04763C66.2896 7.44197 66.3476 16.6795 66.3476 16.6795Z" fill="#545454"/>
<path d="M104.75 16.4471C104.576 16.2147 104.343 15.9824 104.169 15.75C100.741 11.9155 96.7325 6.86102 94.8734 4.53711C94.2343 4.7114 94.1181 5.40857 94.6991 6.22194L100.451 14.7042C101.09 15.6919 102.426 16.4471 103.356 16.4471H104.75Z" fill="#545454"/>
<path d="M39.1 4.07227C38.7514 4.07227 38.3447 4.07227 37.8799 4.07227C37.8799 4.13036 37.8218 4.13036 37.8218 4.18846C37.4151 4.82754 30.1529 14.7041 29.1653 15.6918C29.1653 15.6918 29.1653 15.6918 29.1072 15.7499C29.4558 16.0404 29.8044 16.2728 30.0367 16.4471C30.3272 16.6795 30.7339 16.6214 30.9082 16.3309L39.2743 5.00183C39.4486 4.71134 39.4486 4.07227 39.1 4.07227Z" fill="#545454"/>
<path d="M6.97172 36.7232C6.97172 37.7108 6.15835 38.4661 5.22879 38.4661H1.74293C0.75527 38.4661 0 37.6527 0 36.7232C0 35.7355 0.813368 34.9802 1.74293 34.9802H5.17069C6.15835 34.9802 6.97172 35.7355 6.97172 36.7232Z" fill="#404040"/>
<path d="M113 37.5364C113 38.524 112.187 39.2793 111.257 39.2793H106.9C105.912 39.2793 105.157 38.466 105.157 37.5364C105.157 36.5487 105.97 35.7935 106.9 35.7935H111.199C112.187 35.7354 113 36.5487 113 37.5364Z" fill="#404040"/>
<path d="M110.037 27.9503C110.211 28.7055 109.805 29.4608 109.049 29.6351C108.294 29.8094 107.539 29.4027 107.365 28.6474L106.784 26.4978C106.609 25.7425 107.016 24.9873 107.771 24.813C108.527 24.6387 109.282 25.0454 109.456 25.8006L110.037 27.9503Z" fill="#FF8B00"/>
<path d="M61.5835 23.9997C62.7386 23.9997 63.675 23.0633 63.675 21.9082C63.675 20.7531 62.7386 19.8167 61.5835 19.8167C60.4283 19.8167 59.4919 20.7531 59.4919 21.9082C59.4919 23.0633 60.4283 23.9997 61.5835 23.9997Z" fill="#64A662"/>
<path d="M61.5837 22.5472C63.6373 22.5472 65.302 22.2611 65.302 21.9081C65.302 21.5552 63.6373 21.269 61.5837 21.269C59.5302 21.269 57.8655 21.5552 57.8655 21.9081C57.8655 22.2611 59.5302 22.5472 61.5837 22.5472Z" fill="#8AE486"/>
<defs>
<linearGradient id="paint0_linear" x1="56.3753" y1="23.9287" x2="56.3753" y2="35.4775" gradientUnits="userSpaceOnUse">
<stop stop-color="#8EEB8A"/>
<stop offset="1" stop-color="#7DCF7A"/>
</linearGradient>
</defs>
</svg>
