<svg width="25" height="25" viewBox="0 0 25 25" fill="none" xmlns="http://www.w3.org/2000/svg">
<g clip-path="url(#clip0)">
<path d="M12.4999 22.9166C18.2529 22.9166 22.9166 18.2529 22.9166 12.4999C22.9166 6.74695 18.2529 2.08325 12.4999 2.08325C6.74695 2.08325 2.08325 6.74695 2.08325 12.4999C2.08325 18.2529 6.74695 22.9166 12.4999 22.9166Z" stroke="#BDBDBD" stroke-width="2" stroke-linecap="round" stroke-linejoin="round"/>
<path d="M12.9663 14.7261H11.2085L10.9595 7.33594H13.2153L12.9663 14.7261ZM12.0874 15.8833C12.4438 15.8833 12.7295 15.9883 12.9443 16.1982C13.1641 16.4082 13.2739 16.6768 13.2739 17.0039C13.2739 17.3262 13.1641 17.5923 12.9443 17.8022C12.7295 18.0122 12.4438 18.1172 12.0874 18.1172C11.7358 18.1172 11.4502 18.0122 11.2305 17.8022C11.0156 17.5923 10.9082 17.3262 10.9082 17.0039C10.9082 16.6816 11.0156 16.4155 11.2305 16.2056C11.4502 15.9907 11.7358 15.8833 12.0874 15.8833Z" fill="#BDBDBD"/>
</g>
<defs>
<clipPath id="clip0">
<rect width="25" height="25" fill="white"/>
</clipPath>
</defs>
</svg>
