<svg width="26" height="26" viewBox="0 0 26 26" fill="none" xmlns="http://www.w3.org/2000/svg">
<circle cx="13" cy="13" r="11.75" stroke="#C4C4C4" stroke-width="2.5"/>
<path d="M17.1667 11.6875H16.3333V9.25C16.3333 7.4625 14.8333 6 13 6C11.1667 6 9.66667 7.4625 9.66667 9.25V11.6875H8.83333C8.41667 11.6875 8 12.0938 8 12.5V18.1875C8 18.5938 8.41667 19 8.83333 19H17.1667C17.5833 19 18 18.5938 18 18.1875V12.5C18 12.0938 17.5833 11.6875 17.1667 11.6875ZM13.8333 17.375H12.1667L12.5 15.5875C12.0833 15.425 11.75 14.9375 11.75 14.5312C11.75 13.8812 12.3333 13.3125 13 13.3125C13.6667 13.3125 14.25 13.8812 14.25 14.5312C14.25 15.0188 14 15.425 13.5 15.5875L13.8333 17.375ZM14.6667 11.6875H11.3333V9.25C11.3333 8.35625 12.0833 7.625 13 7.625C13.9167 7.625 14.6667 8.35625 14.6667 9.25V11.6875Z" fill="#C4C4C4"/>
</svg>
