<svg width="1202" height="673" viewBox="0 0 1202 673" fill="none" xmlns="http://www.w3.org/2000/svg">
<path d="M292.266 209.364L270.79 229.778L270.843 229.833L270.896 229.889L292.266 209.364ZM292.266 458.165L270.896 437.641L270.843 437.696L270.79 437.752L292.266 458.165ZM33.474 508.625H3.84396V538.255H33.474V508.625ZM33.474 158.905V129.275H3.84396V158.905H33.474ZM246.303 412.701L267.785 433.109L267.869 433.02L267.953 432.931L246.303 412.701ZM246.303 255.328L224.654 275.557L224.737 275.647L224.822 275.735L246.303 255.328ZM102.419 224.852V195.222H72.7887V224.852H102.419ZM102.419 442.677H72.7887V472.307H102.419V442.677ZM172.363 188.535C212.51 188.535 244.616 202.241 270.79 229.778L313.743 188.951C275.968 149.209 228.138 129.275 172.363 129.275V188.535ZM270.896 229.889C297.58 257.673 311.098 291.642 311.098 333.765H370.358C370.358 277.3 351.568 228.335 313.637 188.84L270.896 229.889ZM311.098 333.765C311.098 375.888 297.58 409.857 270.896 437.641L313.637 478.689C351.568 439.194 370.358 390.229 370.358 333.765H311.098ZM270.79 437.752C244.616 465.289 212.51 478.995 172.363 478.995V538.255C228.138 538.255 275.968 518.321 313.743 478.578L270.79 437.752ZM172.363 478.995H33.474V538.255H172.363V478.995ZM63.104 508.625V158.905H3.84396V508.625H63.104ZM33.474 188.535H172.363V129.275H33.474V188.535ZM172.363 472.307C209.898 472.307 242.618 459.601 267.785 433.109L224.822 392.294C212.019 405.77 195.446 413.047 172.363 413.047V472.307ZM267.953 432.931C292.89 406.244 304.41 372.282 304.41 333.765H245.15C245.15 359.862 237.687 378.525 224.654 392.472L267.953 432.931ZM304.41 333.765C304.41 295.26 292.891 261.347 267.785 234.92L224.822 275.735C237.685 289.276 245.15 307.655 245.15 333.765H304.41ZM267.953 235.098C242.827 208.209 210.056 195.222 172.363 195.222V254.482C195.287 254.482 211.81 261.812 224.654 275.557L267.953 235.098ZM172.363 195.222H102.419V254.482H172.363V195.222ZM72.7887 224.852V442.677H132.049V224.852H72.7887ZM102.419 472.307H172.363V413.047H102.419V472.307Z" fill="#FFA522" fill-opacity="0.26"/>
<path d="M532.567 223.2V193.57H511.151L504.433 213.906L532.567 223.2ZM601.512 223.2L629.355 233.335L643.829 193.57H601.512V223.2ZM510.585 473L482.742 462.865L482.729 462.901L482.716 462.936L510.585 473ZM458.627 550.938L441.025 527.102L440.818 527.255L440.614 527.411L458.627 550.938ZM378.691 572.92H349.061V601.047L377.15 602.51L378.691 572.92ZM378.691 512.968L379.261 483.343L349.061 482.763V512.968H378.691ZM419.658 501.977L402.003 478.181L401.815 478.32L401.63 478.462L419.658 501.977ZM444.138 465.006L472.079 474.868L475.904 464.032L471.422 453.45L444.138 465.006ZM341.72 223.2V193.57H296.992L314.437 234.756L341.72 223.2ZM412.164 223.2L439.798 212.509L432.47 193.57H412.164V223.2ZM477.112 391.066L449.478 401.757L479.312 478.865L505.246 400.36L477.112 391.066ZM532.567 252.83H601.512V193.57H532.567V252.83ZM573.669 213.066L482.742 462.865L538.428 483.135L629.355 233.335L573.669 213.066ZM482.716 462.936C470.913 495.624 456.372 515.769 441.025 527.102L476.228 574.773C504.18 554.132 524.278 522.319 538.454 483.064L482.716 462.936ZM440.614 527.411C425.922 538.66 406.594 544.703 380.232 543.33L377.15 602.51C414.737 604.467 448.699 595.855 476.639 574.464L440.614 527.411ZM408.321 572.92V512.968H349.061V572.92H408.321ZM378.121 542.592C399.657 543.007 420.675 538.533 437.686 525.491L401.63 478.462C398.657 480.741 392.364 483.595 379.261 483.343L378.121 542.592ZM437.313 525.773C453.928 513.445 464.879 495.268 472.079 474.868L416.198 455.145C411.407 468.718 406.038 475.187 402.003 478.181L437.313 525.773ZM471.422 453.45L369.004 211.644L314.437 234.756L416.855 476.562L471.422 453.45ZM341.72 252.83H412.164V193.57H341.72V252.83ZM384.53 233.892L449.478 401.757L504.746 380.374L439.798 212.509L384.53 233.892ZM505.246 400.36L560.702 232.495L504.433 213.906L448.977 381.771L505.246 400.36ZM838.517 243.684L817.181 264.244L817.278 264.344L817.374 264.442L838.517 243.684ZM865.496 473V502.63H895.126V473H865.496ZM801.047 473H771.417V502.63H801.047V473ZM787.558 289.647L766.607 310.599L766.804 310.796L767.006 310.99L787.558 289.647ZM711.619 291.645L732.911 312.251V312.251L711.619 291.645ZM696.631 473V502.63H726.261V473H696.631ZM632.183 473H602.553V502.63H632.183V473ZM632.183 223.2V193.57H602.553V223.2H632.183ZM696.631 223.2H726.261V193.57H696.631V223.2ZM696.631 251.178H667.001V348.462L721.231 267.695L696.631 251.178ZM771.071 245.836C790.993 245.836 805.555 252.179 817.181 264.244L859.853 223.124C836.175 198.552 805.773 186.576 771.071 186.576V245.836ZM817.374 264.442C828.603 275.879 835.866 292.971 835.866 319.623H895.126C895.126 281.66 884.403 248.126 859.66 222.925L817.374 264.442ZM835.866 319.623V473H895.126V319.623H835.866ZM865.496 443.37H801.047V502.63H865.496V443.37ZM830.677 473V327.617H771.417V473H830.677ZM830.677 327.617C830.677 305.705 824.648 284.229 808.111 268.304L767.006 310.99C768.454 312.385 771.417 316.222 771.417 327.617H830.677ZM808.51 268.695C792.977 253.162 772.923 246.528 751.587 246.528V305.788C760.227 305.788 764.154 308.146 766.607 310.599L808.51 268.695ZM751.587 246.528C728.295 246.528 706.798 254.02 690.327 271.04L732.911 312.251C736.424 308.621 741.572 305.788 751.587 305.788V246.528ZM690.327 271.04C673.034 288.91 667.001 313.13 667.001 338.108H726.261C726.261 321.786 730.221 315.031 732.911 312.251L690.327 271.04ZM667.001 338.108V473H726.261V338.108H667.001ZM696.631 443.37H632.183V502.63H696.631V443.37ZM661.813 473V223.2H602.553V473H661.813ZM632.183 252.83H696.631V193.57H632.183V252.83ZM667.001 223.2V251.178H726.261V223.2H667.001ZM721.231 267.695C730.18 254.365 744.601 245.836 771.071 245.836V186.576C729.596 186.576 694.39 201.361 672.032 234.661L721.231 267.695ZM1133.36 442.025L1154.17 463.113L1154.24 463.045L1154.31 462.976L1133.36 442.025ZM945.506 442.025L924.418 462.839L924.554 462.977L924.692 463.113L945.506 442.025ZM945.506 254.675L966.457 275.627V275.627L945.506 254.675ZM1133.36 254.675L1112.4 275.627L1112.47 275.695L1112.54 275.763L1133.36 254.675ZM990.969 397.56L969.747 418.238L969.882 418.376L970.018 418.512L990.969 397.56ZM990.969 298.64L970.018 277.688L969.882 277.824L969.747 277.962L990.969 298.64ZM1112.54 420.937C1092.6 440.62 1068.84 450.364 1039.43 450.364V509.624C1083.97 509.624 1122.82 494.056 1154.17 463.113L1112.54 420.937ZM1039.43 450.364C1010.03 450.364 986.262 440.62 966.32 420.937L924.692 463.113C956.042 494.056 994.895 509.624 1039.43 509.624V450.364ZM966.594 421.211C946.911 401.269 937.166 377.505 937.166 348.1H877.906C877.906 392.636 893.475 431.489 924.418 462.839L966.594 421.211ZM937.166 348.1C937.166 318.701 946.901 295.183 966.457 275.627L924.554 233.724C893.484 264.793 877.906 303.559 877.906 348.1H937.166ZM966.457 275.627C986.427 255.657 1010.15 245.836 1039.43 245.836V186.576C994.772 186.576 955.876 202.401 924.554 233.724L966.457 275.627ZM1039.43 245.836C1068.71 245.836 1092.43 255.657 1112.4 275.627L1154.31 233.724C1122.98 202.401 1084.09 186.576 1039.43 186.576V245.836ZM1112.54 275.763C1132.38 295.349 1142.19 318.824 1142.19 348.1H1201.45C1201.45 303.435 1185.62 264.628 1154.17 233.587L1112.54 275.763ZM1142.19 348.1C1142.19 377.383 1132.37 401.103 1112.4 421.073L1154.31 462.976C1185.63 431.654 1201.45 392.758 1201.45 348.1H1142.19ZM970.018 418.512C988.875 437.369 1012.71 446.675 1039.43 446.675V387.415C1027.52 387.415 1019.04 383.731 1011.92 376.609L970.018 418.512ZM1039.43 446.675C1066.16 446.675 1089.99 437.369 1108.84 418.512L1066.94 376.609C1059.82 383.731 1051.34 387.415 1039.43 387.415V446.675ZM1108.84 418.512C1127.91 399.45 1137.01 375.182 1137.01 348.1H1077.75C1077.75 360.987 1073.86 369.692 1066.94 376.609L1108.84 418.512ZM1137.01 348.1C1137.01 321.019 1127.91 296.75 1108.84 277.688L1066.94 319.591C1073.86 326.508 1077.75 335.214 1077.75 348.1H1137.01ZM1108.84 277.688C1089.99 258.831 1066.16 249.525 1039.43 249.525V308.785C1051.34 308.785 1059.82 312.47 1066.94 319.591L1108.84 277.688ZM1039.43 249.525C1012.71 249.525 988.875 258.831 970.018 277.688L1011.92 319.591C1019.04 312.47 1027.52 308.785 1039.43 308.785V249.525ZM969.747 277.962C951.128 297.072 942.355 321.252 942.355 348.1H1001.61C1001.61 334.98 1005.5 326.187 1012.19 319.318L969.747 277.962ZM942.355 348.1C942.355 374.948 951.128 399.128 969.747 418.238L1012.19 376.883C1005.5 370.014 1001.61 361.22 1001.61 348.1H942.355Z" fill="#FFA522" fill-opacity="0.26"/>
<path d="M796.768 204.906C759.493 204.906 716.598 204.906 685.194 184.857C679.821 181.427 682.929 173.14 689.248 173.984C714.116 177.304 735.005 170.974 746.916 160.719L796.768 204.906Z" fill="#EA4436"/>
<path opacity="0.1" d="M732.857 169.179C733.273 181.083 735.099 192.965 742.437 202.845C760.608 204.907 779.305 204.907 796.768 204.907L746.917 160.72C743.1 164.007 738.355 166.887 732.857 169.179Z" fill="black"/>
<path d="M780.081 241.266C779.765 241.266 779.447 241.254 779.126 241.229C772.359 240.708 767.295 234.801 767.816 228.034C768.288 221.893 767.782 201.413 766.901 196.877C764.879 190.789 767.902 184.092 773.929 181.635C780.214 179.074 787.385 182.092 789.947 188.377C793.26 196.508 792.472 227.951 792.32 229.918C791.824 236.365 786.439 241.265 780.081 241.266ZM767.181 197.64C767.183 197.644 767.185 197.649 767.187 197.653C767.185 197.649 767.183 197.645 767.181 197.64Z" fill="#DE4133"/>
<path d="M824.647 241.266C824.33 241.266 824.012 241.254 823.691 241.229C816.925 240.709 811.861 234.801 812.381 228.034C812.854 221.893 812.347 201.413 811.466 196.877C809.444 190.789 812.468 184.091 818.495 181.635C824.782 179.074 831.952 182.093 834.512 188.378C837.825 196.51 837.036 227.951 836.885 229.918C836.389 236.365 831.005 241.265 824.647 241.266ZM811.747 197.639C811.748 197.643 811.751 197.648 811.752 197.653C811.751 197.648 811.749 197.644 811.747 197.639Z" fill="#DE4133"/>
<path opacity="0.1" d="M773.929 181.636C767.902 184.093 764.879 190.789 766.901 196.878C767.517 200.048 767.949 211.002 767.993 219.41C774.964 221.426 783.091 222.635 792.487 223.083C792.601 212.87 792.379 194.347 789.947 188.378C787.385 182.094 780.214 179.075 773.929 181.636Z" fill="black"/>
<path opacity="0.1" d="M837.075 218.531C837.066 208.086 836.615 193.539 834.513 188.378C831.952 182.093 824.782 179.074 818.496 181.635C812.468 184.091 809.444 190.788 811.467 196.877C812.173 200.514 812.638 214.399 812.551 222.926C822.038 222.303 830.167 220.853 837.075 218.531Z" fill="black"/>
<path d="M857.238 161.55C857.238 190.238 853.341 210.996 801.134 210.996C748.928 210.996 745.031 190.238 745.031 161.55C745.031 132.861 770.149 109.605 801.134 109.605C832.12 109.605 857.238 132.861 857.238 161.55Z" fill="#EA4436"/>
<path d="M857.238 161.55C857.238 161.321 857.232 161.094 857.229 160.866C845.543 157.867 822.365 156.995 806.236 174.136C794.482 186.628 792.781 200.107 794.042 210.857C796.301 210.949 798.664 210.996 801.135 210.996C853.341 210.996 857.238 190.238 857.238 161.55Z" fill="#FFBFBA"/>
<path opacity="0.05" d="M790.483 110.545C764.593 115.152 745.031 136.234 745.031 161.551C745.031 188.114 748.378 207.876 790.319 210.658C767.033 187.021 771.536 138.218 790.483 110.545Z" fill="black"/>
<path d="M856.179 36.6745C847.899 21.4069 832.51 11.3129 815.207 9.79938L793.938 7.93841C763.699 5.29285 737.041 27.6614 734.396 57.9008L732.194 83.0739C729.819 110.212 749.895 134.138 777.034 136.512L889.782 146.377C910.112 148.155 928.035 133.116 929.814 112.785L931.313 95.6528C933.091 75.3223 918.052 57.3995 897.721 55.6209L883.115 54.343C871.74 53.3477 861.624 46.7117 856.179 36.6745Z" fill="#EA4436"/>
<g opacity="0.1">
<path opacity="0.1" d="M760.887 101.422C762.975 101.422 764.669 99.729 764.669 97.6402C764.669 95.5513 762.975 93.858 760.887 93.858C758.798 93.858 757.104 95.5513 757.104 97.6402C757.104 99.729 758.798 101.422 760.887 101.422Z" fill="black"/>
<path opacity="0.1" d="M787.172 109.513C789.261 109.513 790.954 107.82 790.954 105.731C790.954 103.642 789.261 101.949 787.172 101.949C785.083 101.949 783.39 103.642 783.39 105.731C783.39 107.82 785.083 109.513 787.172 109.513Z" fill="black"/>
<path opacity="0.1" d="M770.72 121.026C772.808 121.026 774.502 119.333 774.502 117.244C774.502 115.155 772.808 113.462 770.72 113.462C768.631 113.462 766.938 115.155 766.938 117.244C766.938 119.333 768.631 121.026 770.72 121.026Z" fill="black"/>
</g>
<path d="M791.808 53.2221C792.044 50.5312 787.982 47.9776 782.737 47.5184C777.491 47.0593 773.048 48.8685 772.812 51.5593C772.577 54.2502 776.638 56.8039 781.884 57.263C787.129 57.7222 791.573 55.913 791.808 53.2221Z" fill="#FFA8CB"/>
<path d="M836.581 57.1292C836.346 59.8201 840.407 62.3737 845.653 62.8329C850.899 63.292 855.342 61.4829 855.577 58.792C855.813 56.1011 851.752 53.5475 846.506 53.0883C841.26 52.6291 836.817 54.4383 836.581 57.1292Z" fill="#FFA8CB"/>
<path d="M795.214 48.0372C795.089 48.0372 794.964 48.0321 794.837 48.0213C792.495 47.8164 790.762 45.751 790.967 43.408L791.381 38.6756C791.586 36.3332 793.654 34.5994 795.994 34.8054C798.337 35.0104 800.069 37.0757 799.864 39.4187L799.451 44.1512C799.257 46.367 797.397 48.0372 795.214 48.0372Z" fill="#495059"/>
<path d="M834.878 51.5075C834.753 51.5075 834.628 51.5024 834.501 51.4916C832.159 51.2867 830.426 49.2213 830.631 46.8784L831.046 42.1459C831.251 39.8035 833.322 38.0697 835.659 38.2758C838.001 38.4807 839.735 40.5461 839.529 42.889L839.115 47.6215C838.921 49.8368 837.062 51.5075 834.878 51.5075Z" fill="#495059"/>
<path d="M885.744 122.873C885.331 122.873 884.917 122.855 884.501 122.818C880.395 122.459 876.645 120.339 874.214 117.002C872.829 115.101 873.247 112.438 875.148 111.054C877.047 109.669 879.712 110.086 881.097 111.988C882.078 113.335 883.59 114.191 885.244 114.336C886.902 114.484 888.534 113.9 889.734 112.744C891.427 111.113 894.123 111.163 895.754 112.856C897.386 114.549 897.336 117.244 895.643 118.876C892.97 121.451 889.418 122.873 885.744 122.873Z" fill="#495059"/>
<path d="M876.75 76.9416C878.839 76.9416 880.532 75.2483 880.532 73.1594C880.532 71.0706 878.839 69.3773 876.75 69.3773C874.661 69.3773 872.968 71.0706 872.968 73.1594C872.968 75.2483 874.661 76.9416 876.75 76.9416Z" fill="#495059"/>
<path d="M900.759 79.0425C902.847 79.0425 904.541 77.3492 904.541 75.2604C904.541 73.1716 902.847 71.4783 900.759 71.4783C898.67 71.4783 896.977 73.1716 896.977 75.2604C896.977 77.3492 898.67 79.0425 900.759 79.0425Z" fill="#495059"/>
<path opacity="0.05" d="M781.655 8.2323C756.787 11.6306 736.675 31.8419 734.396 57.9006L732.194 83.0737C729.819 110.212 749.895 134.138 777.034 136.512L806.852 139.121C765.636 110.054 764.352 39.9563 781.655 8.2323Z" fill="black"/>
<path d="M891.412 201.334L906.312 160.394L778.033 113.707L763.133 154.647L891.412 201.334Z" fill="#FAE17C"/>
<path d="M763.133 154.648L778.033 113.707L753.759 104.873L738.859 145.813L763.133 154.648Z" fill="#E5E5E5"/>
<path d="M753.763 104.877L738.861 145.817L719.162 138.647C713.047 136.422 709.895 129.66 712.12 123.545L718.961 104.749C721.186 98.634 727.947 95.4814 734.063 97.7069L753.763 104.877Z" fill="#CD5B5B"/>
<path d="M923.273 178.164L906.314 160.4L891.413 201.341L915.823 198.634L923.273 178.164Z" fill="#FFA8CB"/>
<path d="M915.822 198.634L931.323 196.915C934.972 196.51 936.577 192.1 934.042 189.444L923.272 178.164L915.822 198.634Z" fill="#495059"/>
<path opacity="0.1" d="M769.132 138.181L897.412 184.868L900.324 176.865L772.045 130.178L769.132 138.181Z" fill="black"/>
<path opacity="0.1" d="M724.935 98.1626C722.258 99.4485 720.059 101.736 718.963 104.748L712.122 123.545C709.896 129.659 713.049 136.421 719.164 138.646L825.084 177.198C784.526 151.757 729.812 129.764 724.935 98.1626Z" fill="black"/>
<path d="M801.583 180.58C799.08 180.58 796.616 179.407 795.059 177.21C792.508 173.61 793.359 168.625 796.958 166.075C798.907 164.694 800.586 163.183 801.951 161.585C804.813 158.23 809.856 157.83 813.211 160.694C816.567 163.557 816.966 168.599 814.103 171.955C811.882 174.558 809.221 176.966 806.194 179.11C804.791 180.102 803.179 180.58 801.583 180.58Z" fill="#DE4133"/>
<path d="M171.363 158.905C219.324 158.905 259.292 175.725 291.266 209.364C323.574 243.004 339.728 284.471 339.728 333.765C339.728 383.059 323.574 424.525 291.266 458.165C259.292 491.805 219.324 508.625 171.363 508.625H32.474V158.905H171.363ZM171.363 442.677C201.672 442.677 226.319 432.685 245.303 412.701C264.288 392.384 273.78 366.072 273.78 333.765C273.78 301.457 264.288 275.312 245.303 255.328C226.319 235.011 201.672 224.852 171.363 224.852H101.419V442.677H171.363Z" fill="#EA4436"/>
<path d="M531.567 223.2H600.512L509.585 473C496.595 508.971 479.276 534.95 457.627 550.937C436.31 567.258 409.665 574.585 377.691 572.92V512.968C395.01 513.301 408.666 509.637 418.658 501.977C428.983 494.316 437.143 481.993 443.138 465.006L340.72 223.2H411.164L476.112 391.066L531.567 223.2ZM770.071 216.206C797.383 216.206 819.865 225.365 837.517 243.684C855.503 262.003 864.496 287.316 864.496 319.623V473H800.047V327.617C800.047 310.963 795.551 298.307 786.558 289.647C777.565 280.654 765.575 276.158 750.587 276.158C733.934 276.158 720.611 281.32 710.619 291.645C700.627 301.97 695.631 317.458 695.631 338.108V473H631.183V223.2H695.631V251.178C711.285 227.863 736.099 216.206 770.071 216.206ZM1132.36 442.025C1106.71 467.338 1075.4 479.994 1038.43 479.994C1001.46 479.994 970.152 467.338 944.506 442.025C919.193 416.379 906.536 385.071 906.536 348.1C906.536 311.13 919.193 279.988 944.506 254.675C970.152 229.029 1001.46 216.206 1038.43 216.206C1075.4 216.206 1106.71 229.029 1132.36 254.675C1158 279.988 1170.82 311.13 1170.82 348.1C1170.82 385.071 1158 416.379 1132.36 442.025ZM989.969 397.56C1002.96 410.55 1019.11 417.045 1038.43 417.045C1057.75 417.045 1073.9 410.55 1086.89 397.56C1099.88 384.571 1106.38 368.084 1106.38 348.1C1106.38 328.116 1099.88 311.629 1086.89 298.64C1073.9 285.65 1057.75 279.155 1038.43 279.155C1019.11 279.155 1002.96 285.65 989.969 298.64C977.313 311.629 970.985 328.116 970.985 348.1C970.985 368.084 977.313 384.571 989.969 397.56Z" fill="#EA4436"/>
<path d="M716.74 633.509C703.777 633.509 692.993 629.207 684.388 620.603C675.784 611.884 671.482 601.1 671.482 588.251C671.482 575.402 675.784 564.675 684.388 556.071C692.993 547.352 703.777 542.993 716.74 542.993C725.23 542.993 732.859 545.058 739.627 549.188C746.396 553.203 751.444 558.652 754.771 565.536L742.209 572.763C740.029 568.174 736.645 564.503 732.056 561.75C727.582 558.996 722.476 557.62 716.74 557.62C708.136 557.62 700.908 560.545 695.058 566.396C689.321 572.247 686.453 579.532 686.453 588.251C686.453 596.855 689.321 604.082 695.058 609.933C700.908 615.784 708.136 618.71 716.74 618.71C722.476 618.71 727.639 617.39 732.228 614.752C736.817 611.998 740.316 608.327 742.725 603.738L755.459 611.138C751.788 617.907 746.511 623.356 739.627 627.486C732.744 631.501 725.115 633.509 716.74 633.509ZM841.684 620.43C832.85 629.149 822.124 633.509 809.504 633.509C796.885 633.509 786.158 629.149 777.325 620.43C768.606 611.711 764.246 600.985 764.246 588.251C764.246 575.516 768.606 564.79 777.325 556.071C786.158 547.352 796.885 542.993 809.504 542.993C822.124 542.993 832.85 547.352 841.684 556.071C850.518 564.79 854.935 575.516 854.935 588.251C854.935 600.985 850.518 611.711 841.684 620.43ZM809.504 618.882C818.109 618.882 825.336 615.956 831.187 610.105C837.038 604.255 839.963 596.97 839.963 588.251C839.963 579.532 837.038 572.247 831.187 566.396C825.336 560.545 818.109 557.62 809.504 557.62C801.015 557.62 793.845 560.545 787.994 566.396C782.143 572.247 779.218 579.532 779.218 588.251C779.218 596.97 782.143 604.255 787.994 610.105C793.845 615.956 801.015 618.882 809.504 618.882ZM931.953 545.23H946.924V631.272H931.953V618.882C925.873 628.633 916.58 633.509 904.075 633.509C893.98 633.509 885.892 630.354 879.812 624.044C873.731 617.62 870.691 608.958 870.691 598.059V545.23H885.662V597.199C885.662 604.197 887.555 609.646 891.341 613.547C895.127 617.333 900.347 619.226 907.001 619.226C914.458 619.226 920.481 616.931 925.07 612.342C929.659 607.639 931.953 600.469 931.953 590.832V545.23ZM984.689 559.685C989.622 549.015 998.57 543.681 1011.53 543.681V559.341C1004.19 558.996 997.882 560.947 992.605 565.191C987.327 569.436 984.689 576.262 984.689 585.669V631.272H969.717V545.23H984.689V559.685ZM1035.9 568.461C1035.9 571.788 1037.56 574.484 1040.89 576.549C1044.21 578.499 1048.23 580.105 1052.93 581.367C1057.64 582.515 1062.34 583.891 1067.04 585.497C1071.75 586.989 1075.76 589.627 1079.09 593.413C1082.42 597.084 1084.08 601.845 1084.08 607.696C1084.08 615.497 1081.04 621.75 1074.96 626.453C1068.99 631.157 1061.31 633.509 1051.9 633.509C1043.52 633.509 1036.35 631.673 1030.39 628.002C1024.42 624.331 1020.18 619.455 1017.65 613.375L1030.56 605.975C1031.94 610.105 1034.52 613.375 1038.31 615.784C1042.09 618.193 1046.62 619.398 1051.9 619.398C1056.83 619.398 1060.91 618.48 1064.12 616.645C1067.33 614.694 1068.94 611.711 1068.94 607.696C1068.94 604.369 1067.27 601.731 1063.95 599.78C1060.62 597.715 1056.6 596.109 1051.9 594.962C1047.2 593.7 1042.49 592.266 1037.79 590.66C1033.09 589.054 1029.07 586.415 1025.74 582.744C1022.42 579.073 1020.75 574.369 1020.75 568.633C1020.75 561.176 1023.62 555.038 1029.36 550.22C1035.21 545.402 1042.49 542.993 1051.21 542.993C1058.21 542.993 1064.4 544.599 1069.8 547.811C1075.3 550.908 1079.43 555.268 1082.19 560.889L1069.62 567.945C1066.53 560.602 1060.39 556.931 1051.21 556.931C1046.97 556.931 1043.35 557.964 1040.37 560.029C1037.39 561.979 1035.9 564.79 1035.9 568.461ZM1109.95 595.134C1111.44 602.82 1114.94 608.786 1120.45 613.031C1126.07 617.276 1132.95 619.398 1141.1 619.398C1152.45 619.398 1160.71 615.211 1165.88 606.836L1178.61 614.063C1170.24 627.027 1157.62 633.509 1140.75 633.509C1127.1 633.509 1115.97 629.264 1107.37 620.775C1098.88 612.17 1094.63 601.329 1094.63 588.251C1094.63 575.287 1098.82 564.503 1107.2 555.899C1115.57 547.295 1126.41 542.993 1139.72 542.993C1152.34 542.993 1162.61 547.467 1170.52 556.415C1178.55 565.249 1182.57 575.918 1182.57 588.423C1182.57 590.602 1182.4 592.84 1182.05 595.134H1109.95ZM1139.72 557.103C1131.69 557.103 1125.04 559.398 1119.76 563.987C1114.48 568.461 1111.21 574.484 1109.95 582.056H1167.43C1166.16 573.91 1162.95 567.715 1157.79 563.471C1152.63 559.226 1146.6 557.103 1139.72 557.103Z" fill="#FFA522"/>
<circle cx="971.086" cy="214.819" r="35.4097" fill="#EA4436"/>
<circle cx="1121.31" cy="214.819" r="35.4097" fill="#EA4436"/>
<circle cx="972.159" cy="215.892" r="12.8763" fill="#FFA522"/>
<circle cx="1122.38" cy="215.892" r="12.8763" fill="#FFA522"/>
<rect x="856.272" y="660.124" width="326.199" height="12.8763" fill="#EA4436"/>
</svg>
