<svg width="113" height="113" viewBox="0 0 113 113" fill="none" xmlns="http://www.w3.org/2000/svg">
<circle cx="56.5" cy="56.5" r="55" fill="#EA4436" stroke="black" stroke-width="3"/>
<path d="M30.6992 62.6328H38.4453V65H27.7344V47.9375H30.6992V62.6328ZM53.5859 56.9141C53.5859 58.5859 53.2969 60.0547 52.7188 61.3203C52.1406 62.5781 51.3125 63.5469 50.2344 64.2266C49.1641 64.8984 47.9297 65.2344 46.5312 65.2344C45.1484 65.2344 43.9141 64.8984 42.8281 64.2266C41.75 63.5469 40.9141 62.582 40.3203 61.332C39.7344 60.082 39.4375 58.6406 39.4297 57.0078V56.0469C39.4297 54.3828 39.7227 52.9141 40.3086 51.6406C40.9023 50.3672 41.7344 49.3945 42.8047 48.7227C43.8828 48.043 45.1172 47.7031 46.5078 47.7031C47.8984 47.7031 49.1289 48.0391 50.1992 48.7109C51.2773 49.375 52.1094 50.3359 52.6953 51.5938C53.2812 52.8438 53.5781 54.3008 53.5859 55.9648V56.9141ZM50.6211 56.0234C50.6211 54.1328 50.2617 52.6836 49.543 51.6758C48.832 50.668 47.8203 50.1641 46.5078 50.1641C45.2266 50.1641 44.2227 50.668 43.4961 51.6758C42.7773 52.6758 42.4102 54.0938 42.3945 55.9297V56.9141C42.3945 58.7891 42.7578 60.2383 43.4844 61.2617C44.2188 62.2852 45.2344 62.7969 46.5312 62.7969C47.8438 62.7969 48.8516 62.2969 49.5547 61.2969C50.2656 60.2969 50.6211 58.8359 50.6211 56.9141V56.0234ZM69.6172 62.7852C69 63.5898 68.1445 64.1992 67.0508 64.6133C65.957 65.0273 64.7148 65.2344 63.3242 65.2344C61.8945 65.2344 60.6289 64.9102 59.5273 64.2617C58.4258 63.6133 57.5742 62.6875 56.9727 61.4844C56.3789 60.2734 56.0703 58.8633 56.0469 57.2539V55.918C56.0469 53.3398 56.6641 51.3281 57.8984 49.8828C59.1328 48.4297 60.8555 47.7031 63.0664 47.7031C64.9648 47.7031 66.4727 48.1719 67.5898 49.1094C68.707 50.0469 69.3789 51.3984 69.6055 53.1641H66.6992C66.3711 51.1094 65.1797 50.082 63.125 50.082C61.7969 50.082 60.7852 50.5625 60.0898 51.5234C59.4023 52.4766 59.0469 53.8789 59.0234 55.7305V57.043C59.0234 58.8867 59.4102 60.3203 60.1836 61.3438C60.9648 62.3594 62.0469 62.8672 63.4297 62.8672C64.9453 62.8672 66.0234 62.5234 66.6641 61.8359V58.4961H63.1484V56.2461H69.6172V62.7852ZM86.4922 56.9141C86.4922 58.5859 86.2031 60.0547 85.625 61.3203C85.0469 62.5781 84.2188 63.5469 83.1406 64.2266C82.0703 64.8984 80.8359 65.2344 79.4375 65.2344C78.0547 65.2344 76.8203 64.8984 75.7344 64.2266C74.6562 63.5469 73.8203 62.582 73.2266 61.332C72.6406 60.082 72.3438 58.6406 72.3359 57.0078V56.0469C72.3359 54.3828 72.6289 52.9141 73.2148 51.6406C73.8086 50.3672 74.6406 49.3945 75.7109 48.7227C76.7891 48.043 78.0234 47.7031 79.4141 47.7031C80.8047 47.7031 82.0352 48.0391 83.1055 48.7109C84.1836 49.375 85.0156 50.3359 85.6016 51.5938C86.1875 52.8438 86.4844 54.3008 86.4922 55.9648V56.9141ZM83.5273 56.0234C83.5273 54.1328 83.168 52.6836 82.4492 51.6758C81.7383 50.668 80.7266 50.1641 79.4141 50.1641C78.1328 50.1641 77.1289 50.668 76.4023 51.6758C75.6836 52.6758 75.3164 54.0938 75.3008 55.9297V56.9141C75.3008 58.7891 75.6641 60.2383 76.3906 61.2617C77.125 62.2852 78.1406 62.7969 79.4375 62.7969C80.75 62.7969 81.7578 62.2969 82.4609 61.2969C83.1719 60.2969 83.5273 58.8359 83.5273 56.9141V56.0234Z" fill="white"/>
</svg>
