<svg width="360" height="160" viewBox="0 0 360 160" fill="none" xmlns="http://www.w3.org/2000/svg">
<rect width="159" height="159" fill="#11564F"/>
<rect x="159" width="201" height="160" fill="#29733E"/>
<mask id="mask0" mask-type="alpha" maskUnits="userSpaceOnUse" x="0" y="0" width="159" height="160">
<rect width="159" height="160" fill="white"/>
</mask>
<g mask="url(#mask0)">
<rect x="-57" y="97.6101" width="149" height="110.692" rx="24" fill="#EA4436"/>
<ellipse cx="138" cy="22.1383" rx="58" ry="58.3648" fill="#EA4436"/>
</g>
<mask id="mask1" mask-type="alpha" maskUnits="userSpaceOnUse" x="159" y="0" width="201" height="160">
<rect x="159" width="201" height="160" fill="white"/>
</mask>
<g mask="url(#mask1)">
<path fill-rule="evenodd" clip-rule="evenodd" d="M365.44 226.435C358.176 188.588 336.42 153.579 302.003 130.55C272.401 110.743 238.302 103.056 205.485 106.319C212.75 144.166 234.505 179.175 268.923 202.204C298.525 222.011 332.623 229.698 365.44 226.435Z" fill="#239B55"/>
<path fill-rule="evenodd" clip-rule="evenodd" d="M168.025 -95.9797C167.727 -57.4344 182.19 -18.7947 211.416 10.6151C236.553 35.9099 268.475 50.2157 301.286 53.5325C301.585 14.9872 287.121 -23.6525 257.895 -53.0623C232.759 -78.3572 200.837 -92.663 168.025 -95.9797Z" fill="#FFA522"/>
<path fill-rule="evenodd" clip-rule="evenodd" d="M353.256 251.74C363.796 214.682 360.138 173.557 339.802 137.348C322.311 106.206 295.359 83.8236 264.627 71.79C254.086 108.848 257.744 149.974 278.081 186.183C295.572 217.325 322.524 239.707 353.256 251.74Z" fill="#459B97"/>
<path fill-rule="evenodd" clip-rule="evenodd" d="M184.931 -118.369C167.332 -84.1316 162.854 -43.0882 175.692 -3.55346C186.733 30.4495 208.767 57.7425 236.535 75.6411C254.135 41.4039 258.612 0.360453 245.775 -39.1743C234.733 -73.1773 212.7 -100.47 184.931 -118.369Z" fill="#459B97"/>
<path fill-rule="evenodd" clip-rule="evenodd" d="M318.371 252.579C347.311 227.325 366.562 190.862 369.172 149.353C371.417 113.652 360.983 80.0925 341.767 53.1251C312.828 78.3793 293.576 114.843 290.966 156.351C288.721 192.052 299.155 225.612 318.371 252.579Z" fill="#FFA522"/>
<path fill-rule="evenodd" clip-rule="evenodd" d="M219.294 -112.265C185.972 -93.253 159.95 -61.3286 149.253 -21.154C140.052 13.3993 143.701 48.371 157.252 78.6236C190.574 59.6114 216.596 27.6869 227.294 -12.4876C236.494 -47.0409 232.845 -82.0127 219.294 -112.265Z" fill="#F07203"/>
</g>
</svg>
