<svg width="141" height="143" viewBox="0 0 141 143" fill="none" xmlns="http://www.w3.org/2000/svg">
<mask id="mask0" mask-type="alpha" maskUnits="userSpaceOnUse" x="0" y="0" width="141" height="143">
<rect width="141" height="143" rx="8" fill="white"/>
</mask>
<g mask="url(#mask0)">
<circle cx="63" cy="110" r="49" fill="white" fill-opacity="0.45"/>
<circle cx="95.5" cy="66.5" r="28.5" fill="white" fill-opacity="0.45"/>
<circle cx="32" cy="33" r="15" fill="white" fill-opacity="0.45"/>
<path d="M109.227 108.937C108.955 107.662 109.578 106.369 110.741 105.781C121.033 100.58 127.84 91.5624 127.84 81.3081C127.84 68.5441 117.293 57.698 102.606 53.7416C83.7984 54.612 68.8909 66.743 68.8909 81.5827C68.8909 96.9875 84.9547 109.476 104.77 109.476C104.819 109.476 104.868 109.476 104.916 109.475C105.894 109.472 106.802 109.984 107.29 110.831C107.718 111.572 108.145 112.19 108.67 112.833L109.957 111.625C109.632 110.542 109.359 109.558 109.227 108.937Z" fill="#FFE07D"/>
<path d="M124.3 104.984C134.141 100.011 140.65 91.388 140.65 81.5827C140.65 66.1779 124.586 53.6897 104.77 53.6897C102.079 53.6897 99.4576 53.9218 96.9353 54.3587C112.983 57.1377 124.98 68.2703 124.98 81.5827C124.98 91.388 118.471 100.011 108.63 104.984C107.518 105.546 106.923 106.782 107.182 108.001C107.54 109.682 108.069 111.315 108.67 112.833C113.85 119.245 123.371 120.999 127.321 121.459C128.029 121.542 128.515 120.768 128.13 120.168C126.662 117.881 123.949 113.16 122.852 108.001C122.593 106.782 123.188 105.546 124.3 104.984Z" fill="#FFD064"/>
<path d="M56.3021 39.5069C33.9756 42.3929 17 57.4693 17 75.6448C17 84.274 20.8373 92.2065 27.2569 98.4675C28.0116 99.2036 28.3014 100.298 28.0239 101.315C26.0294 108.632 21.712 115.244 19.1115 118.776C19.9748 119.639 21.2599 119.93 22.4097 119.519C28.9349 117.188 31.8887 114.691 36.7352 109.531C37.9768 108.21 39.9233 107.838 41.5713 108.594C42.6716 109.099 43.8011 109.569 44.9567 110.004C46.3691 110.535 47.8874 110.791 49.3883 110.636C49.7122 110.603 50.044 110.623 50.3708 110.7C52.3422 111.168 54.2469 111.516 56.3188 111.781L65.2923 111.491C84.1953 106.264 97.7304 92.2362 97.7304 75.7475C97.7304 58.7446 83.3385 44.3575 63.5091 39.5405L56.3021 39.5069Z" fill="#95D6A4"/>
<path d="M35.3475 108.142C30.0516 113.78 27.0156 116.239 19.1114 118.776C18.7695 119.24 18.456 119.653 18.1829 120.006C17.7148 120.609 18.157 121.484 18.9202 121.465C24.1364 121.335 38.7699 120.167 47.6302 111.456C48.3515 110.746 49.3866 110.466 50.371 110.7C50.3688 110.696 50.3662 110.691 50.364 110.687C46.7668 109.836 43.3524 108.66 40.1766 107.202C38.531 106.447 36.5872 106.822 35.3475 108.142Z" fill="#78C2A4"/>
<path d="M64.137 39C61.4672 39 58.8505 39.1753 56.3021 39.5067C78.6055 42.4079 95.604 57.4818 95.604 75.6446C95.604 93.8028 78.614 108.874 56.319 111.78C58.8626 112.111 61.4725 112.289 64.137 112.289C90.1702 112.289 111.274 95.8831 111.274 75.6449C111.274 55.4066 90.1702 39 64.137 39Z" fill="#78C2A4"/>
<path d="M35.1016 80.0385C37.6426 80.0385 39.7025 77.9786 39.7025 75.4376C39.7025 72.8966 37.6426 70.8367 35.1016 70.8367C32.5606 70.8367 30.5007 72.8966 30.5007 75.4376C30.5007 77.9786 32.5606 80.0385 35.1016 80.0385Z" fill="#F0F7FF"/>
<path d="M53.5505 80.0385C56.0915 80.0385 58.1514 77.9786 58.1514 75.4376C58.1514 72.8966 56.0915 70.8367 53.5505 70.8367C51.0095 70.8367 48.9496 72.8966 48.9496 75.4376C48.9496 77.9786 51.0095 80.0385 53.5505 80.0385Z" fill="#F0F7FF"/>
<path d="M71.9991 80.0385C74.5401 80.0385 76.6 77.9786 76.6 75.4376C76.6 72.8966 74.5401 70.8367 71.9991 70.8367C69.4581 70.8367 67.3982 72.8966 67.3982 75.4376C67.3982 77.9786 69.4581 80.0385 71.9991 80.0385Z" fill="#F0F7FF"/>
<path d="M90.4476 80.0385C92.9886 80.0385 95.0485 77.9786 95.0485 75.4376C95.0485 72.8966 92.9886 70.8367 90.4476 70.8367C87.9066 70.8367 85.8467 72.8966 85.8467 75.4376C85.8467 77.9786 87.9066 80.0385 90.4476 80.0385Z" fill="#F0F7FF"/>
</g>
</svg>
