<svg width="141" height="143" viewBox="0 0 141 143" fill="none" xmlns="http://www.w3.org/2000/svg">
<mask id="mask0" mask-type="alpha" maskUnits="userSpaceOnUse" x="0" y="0" width="141" height="143">
<rect width="141" height="143" rx="8" fill="white"/>
</mask>
<g mask="url(#mask0)">
<circle cx="63" cy="110" r="49" fill="white" fill-opacity="0.45"/>
<circle cx="95.5" cy="66.5" r="28.5" fill="white" fill-opacity="0.45"/>
<circle cx="32" cy="33" r="15" fill="white" fill-opacity="0.45"/>
<path d="M67.9982 80.6586L72.6592 75.9975C73.1165 75.5402 73.1165 74.7984 72.6592 74.3411L69.3782 71.0601C68.9869 70.6688 68.926 70.0588 69.2258 69.5937C70.9028 66.9923 72.0573 64.1523 72.6902 61.222C72.8071 60.6806 73.2814 60.2917 73.8354 60.2917H78.4788C79.1256 60.2917 79.65 59.7673 79.65 59.1205V52.5289C79.65 51.8821 79.1256 51.3577 78.4788 51.3577H73.8354C73.2814 51.3577 72.8073 50.9688 72.6902 50.4274C72.0573 47.4971 70.9028 44.6571 69.2258 42.0557C68.926 41.5906 68.9869 40.9807 69.3782 40.5893L72.6592 37.3084C73.1165 36.851 73.1165 36.1092 72.6592 35.6519L67.9982 30.9908C67.5408 30.5335 66.799 30.5335 66.3417 30.9908L63.0607 34.2718C62.6694 34.6631 62.0594 34.724 61.5943 34.4242C58.993 32.7472 56.1529 31.5928 53.2226 30.9599C52.6812 30.843 52.2923 30.3686 52.2923 29.8146V25.1713C52.2923 24.5244 51.7679 24 51.1211 24H44.5296C43.8827 24 43.3583 24.5244 43.3583 25.1713V29.8146C43.3583 30.3686 42.9695 30.8428 42.428 30.9599C39.4977 31.593 36.6575 32.7472 34.0563 34.4242C33.5912 34.724 32.9813 34.6631 32.59 34.2718L29.3083 30.9902C28.851 30.5329 28.1092 30.5329 27.6519 30.9902L22.9908 35.6512C22.5335 36.1086 22.5335 36.8504 22.9908 37.3077L26.2718 40.5887C26.6631 40.98 26.724 41.59 26.4242 42.0551C24.7472 44.6564 23.5928 47.4965 22.9599 50.4268C22.843 50.9682 22.3686 51.3571 21.8146 51.3571H17.1713C16.5244 51.3571 16 51.8815 16 52.5283V59.1198C16 59.7667 16.5244 60.2911 17.1713 60.2911H21.8146C22.3686 60.2911 22.8428 60.6799 22.9599 61.2214C23.593 64.1517 24.7472 66.9917 26.4242 69.5931C26.724 70.0582 26.6631 70.6681 26.2718 71.0594L22.9908 74.3404C22.5335 74.7978 22.5335 75.5396 22.9908 75.9969L27.6519 80.658C28.1092 81.1153 28.851 81.1153 29.3083 80.658L32.5893 77.377C32.9807 76.9857 33.5906 76.9247 34.0557 77.2246C36.6571 78.9016 39.4971 80.056 42.4274 80.6889C42.9688 80.8058 43.3577 81.2802 43.3577 81.8341V86.4775C43.3577 87.1244 43.8821 87.6488 44.5289 87.6488H51.1205C51.7673 87.6488 52.2917 87.1244 52.2917 86.4775V81.8341C52.2917 81.2802 52.6806 80.806 53.222 80.6889C56.1523 80.0558 58.9925 78.9016 61.5937 77.2246C62.0588 76.9247 62.6687 76.9857 63.0601 77.377L66.341 80.658C66.799 81.1159 67.5408 81.1159 67.9982 80.6586Z" fill="#596C76"/>
<path d="M58.2449 77.3052L59.313 78.5313C57.366 79.5176 55.3176 80.2376 53.223 80.6894C52.6803 80.8055 52.2917 81.2806 52.2917 81.8339V86.4775C52.2917 87.1237 51.7679 87.6496 51.1197 87.6496H47.2343C47.4264 87.4406 47.5425 87.1617 47.5425 86.8555V80.9615C47.5425 80.3998 47.9352 79.9205 48.4822 79.8022C51.447 79.1624 54.1315 78.8468 56.7626 77.151C57.2335 76.847 57.8502 76.9104 58.2449 77.3052Z" fill="#465A61"/>
<path d="M73.6053 51.3332H69.3313C68.7696 51.3332 68.2903 50.9405 68.172 50.3935C67.5321 47.4287 66.3644 44.557 64.6688 41.9258C64.3647 41.457 64.426 40.8383 64.8231 40.4435L68.1404 37.1261C68.6029 36.6616 68.6029 35.9119 68.1404 35.4494L65.0109 32.3199L66.3413 30.9896C66.7994 30.5335 67.5408 30.5335 67.9989 30.9896L72.6593 35.652C73.1154 36.1081 73.1154 36.8493 72.6593 37.3076L69.3779 40.5891C68.9872 40.9798 68.9259 41.5901 69.2259 42.0546C70.9026 44.6562 72.0576 47.4964 72.6891 50.4253C72.7902 50.8898 73.1534 51.2423 73.6053 51.3332Z" fill="#465A61"/>
<path d="M47.8235 66.243C53.5783 66.243 58.2436 61.5778 58.2436 55.8229C58.2436 50.0681 53.5783 45.4029 47.8235 45.4029C42.0687 45.4029 37.4034 50.0681 37.4034 55.8229C37.4034 61.5778 42.0687 66.243 47.8235 66.243Z" fill="#80C783"/>
<path d="M55.193 63.193C51.2885 67.0975 45.0592 67.2558 40.9646 63.6659C44.4911 64.6816 48.444 63.799 51.221 61.022C55.2902 56.9528 55.2902 50.3561 51.221 46.2846C51.0563 46.1199 50.8853 45.9616 50.712 45.8117C52.3528 46.2826 53.9006 47.1632 55.193 48.4554C59.2621 52.5248 59.2621 59.1238 55.193 63.193Z" fill="#80C783"/>
<path d="M106.583 120.354L112.35 114.587C112.916 114.021 112.916 113.104 112.35 112.538L108.29 108.478C107.806 107.994 107.731 107.239 108.102 106.664C110.177 103.445 111.605 99.9307 112.388 96.3051C112.533 95.6351 113.12 95.1542 113.805 95.1542H119.551C120.351 95.1542 121 94.5053 121 93.7048V85.5489C121 84.7484 120.351 84.0995 119.551 84.0995H113.805C113.12 84.0995 112.533 83.6184 112.388 82.9486C111.605 79.3228 110.177 75.8087 108.102 72.5902C107.731 72.0147 107.806 71.26 108.29 70.7758L112.35 66.7161C112.916 66.1501 112.916 65.2325 112.35 64.6664L106.583 58.8994C106.017 58.3333 105.099 58.3333 104.533 58.8994L100.474 62.9591C99.9893 63.4433 99.2346 63.5186 98.6591 63.1476C95.4405 61.0725 91.9263 59.6443 88.3007 58.861C87.6307 58.7162 87.1498 58.1295 87.1498 57.4441V51.6987C87.1498 50.8983 86.5009 50.2494 85.7004 50.2494H77.5445C76.744 50.2494 76.0951 50.8983 76.0951 51.6987V57.4441C76.0951 58.1295 75.614 58.7162 74.9442 58.861C71.3184 59.6443 67.8043 61.0725 64.5858 63.1476C64.0103 63.5186 63.2556 63.4433 62.7714 62.9591L58.7117 58.8994C58.1457 58.3333 57.2281 58.3333 56.6621 58.8994L50.895 64.6664C50.3289 65.2325 50.3289 66.1501 50.895 66.7161L54.9547 70.7758C55.4389 71.26 55.5142 72.0147 55.1432 72.5902C53.0681 75.8089 51.6399 79.323 50.8566 82.9488C50.7118 83.6188 50.1251 84.0997 49.4397 84.0997H43.6943C42.8939 84.0997 42.245 84.7486 42.245 85.5491V93.705C42.245 94.5055 42.8939 95.1544 43.6943 95.1544H49.4397C50.1251 95.1544 50.7118 95.6355 50.8566 96.3053C51.6399 99.9311 53.0681 103.445 55.1432 106.664C55.5142 107.239 55.4389 107.994 54.9547 108.478L50.895 112.538C50.3289 113.104 50.3289 114.021 50.895 114.587L56.6621 120.355C57.2281 120.921 58.1457 120.921 58.7117 120.355L62.7714 116.295C63.2556 115.811 64.0103 115.735 64.5858 116.106C67.8045 118.181 71.3187 119.61 74.9442 120.393C75.6142 120.538 76.0951 121.124 76.0951 121.81V127.555C76.0951 128.356 76.744 129.005 77.5445 129.005H85.7004C86.5009 129.005 87.1498 128.356 87.1498 127.555V121.81C87.1498 121.124 87.6309 120.538 88.3007 120.393C91.9265 119.61 95.4407 118.181 98.6593 116.106C99.2348 115.735 99.9895 115.811 100.474 116.295L104.533 120.355C105.099 120.92 106.017 120.92 106.583 120.354Z" fill="#9FACBA"/>
<path d="M108.101 106.664C107.731 107.238 107.805 107.994 108.291 108.478L112.35 112.537C112.916 113.103 112.916 114.021 112.35 114.587L106.583 120.355C106.016 120.92 105.098 120.92 104.532 120.355L103.136 118.959L107.774 114.319C108.34 113.753 108.34 112.835 107.774 112.269L103.715 108.21C103.231 107.724 103.155 106.97 103.527 106.394C105.601 103.176 107.03 100.339 107.812 96.7135C107.957 96.0441 108.545 95.5625 109.229 95.5625H112.8C112.597 95.759 112.451 96.0143 112.388 96.306C111.605 99.9317 110.177 103.446 108.101 106.664Z" fill="#8D9CA8"/>
<path d="M112.969 83.8294H109.229C108.545 83.8294 107.958 83.3502 107.812 82.6785C107.031 79.0525 105.601 75.5386 103.527 72.3203C103.156 71.7459 103.231 70.9899 103.715 70.5063L107.774 66.4454C108.34 65.8795 108.34 64.963 107.774 64.397L103.405 60.0278L104.532 58.898C105.098 58.3319 106.017 58.3319 106.583 58.898L112.35 64.6652C112.916 65.2311 112.916 66.1497 112.35 66.7157L108.291 70.7744C107.806 71.26 107.732 72.0139 108.101 72.5904C110.177 75.8087 111.605 79.3226 112.388 82.9486C112.468 83.3163 112.679 83.6246 112.969 83.8294Z" fill="#8D9CA8"/>
<path d="M120.999 85.5484V93.7036C120.999 94.504 120.351 95.1543 119.551 95.1543H115.98C116.255 94.8924 116.423 94.5229 116.423 94.1131V85.2802C116.423 84.7946 116.183 84.3616 115.815 84.0998H119.551C120.351 84.0998 120.999 84.748 120.999 85.5484Z" fill="#8D9CA8"/>
<path d="M81.6213 108.372C91.9744 108.372 100.367 99.9788 100.367 89.6258C100.367 79.2727 91.9744 70.8799 81.6213 70.8799C71.2683 70.8799 62.8755 79.2727 62.8755 89.6258C62.8755 99.9788 71.2683 108.372 81.6213 108.372Z" fill="#596C76"/>
<path d="M94.8775 102.882C89.1314 108.628 80.5831 109.865 73.6312 106.59C79.6454 107.884 86.173 106.195 90.8463 101.522C98.1677 94.2003 98.1677 82.3323 90.8463 75.0109C89.271 73.4356 87.4865 72.1981 85.5796 71.3027C88.988 72.0334 92.2296 73.7227 94.8777 76.3708C102.199 83.6922 102.199 95.5603 94.8775 102.882Z" fill="#465A61"/>
<path d="M81.6219 100.391C87.5671 100.391 92.3867 95.5714 92.3867 89.6262C92.3867 83.681 87.5671 78.8614 81.6219 78.8614C75.6766 78.8614 70.8571 83.681 70.8571 89.6262C70.8571 95.5714 75.6766 100.391 81.6219 100.391Z" fill="#D4F9A3"/>
<path d="M89.2343 97.2384C85.03 101.443 78.2135 101.443 74.0113 97.2384C73.8782 97.1053 73.7516 96.9722 73.627 96.835C77.5842 98.6066 82.3924 97.8696 85.6403 94.6199C89.7115 90.5487 89.8403 84.0298 86.0266 79.8023C87.1903 80.3239 88.2798 81.0609 89.2343 82.0153C93.4386 86.2176 93.4386 93.034 89.2343 97.2384Z" fill="#D4F9A3"/>
</g>
</svg>
