<svg width="134" height="150" viewBox="0 0 134 150" fill="none" xmlns="http://www.w3.org/2000/svg">
<mask id="mask0" mask-type="alpha" maskUnits="userSpaceOnUse" x="0" y="0" width="134" height="150">
<rect width="134" height="150" rx="10" fill="white"/>
</mask>
<g mask="url(#mask0)">
<circle cx="67" cy="115" r="49" fill="white" fill-opacity="0.45"/>
<circle cx="99.5" cy="71.5" r="28.5" fill="white" fill-opacity="0.45"/>
<circle cx="36" cy="38" r="15" fill="white" fill-opacity="0.45"/>
<path d="M10.7839 119.221C15.1758 115.843 39.1623 87.1268 47.2704 81.5524C53.8582 79.6943 51.1555 92.0254 51.1555 95.9105C51.3244 104.188 47.4393 113.816 41.5271 119.052C37.642 122.6 28.0136 130.539 17.2028 134.931C16.5272 132.735 10.7839 119.221 10.7839 119.221Z" fill="#EF8871"/>
<path d="M87.3039 90.843L46.4256 84.9308C38.3175 97.9376 24.1284 105.37 26.4932 119.728C27.8446 128.512 38.1486 132.904 38.1486 132.904C38.1486 132.904 36.4594 135.269 31.5608 147.262C25.3108 162.802 19.2297 176.991 19.2297 176.991C19.2297 176.991 28.6892 193.714 55.0405 193.208C81.3918 192.701 92.2026 185.437 92.2026 185.437C92.2026 185.437 93.7229 172.093 86.1215 156.721C78.0134 140.336 74.4661 135.944 74.4661 135.944C74.4661 135.944 94.5675 101.823 87.3039 90.843Z" fill="#202D4F"/>
<path d="M86.4634 90.9796C77.9268 87.8323 74 92.0905 74 106.346C74 120.602 92.439 158 92.439 158L102 149.669C102 149.669 101.829 145.966 99.7805 125.045C97.3903 98.2001 86.4634 90.9796 86.4634 90.9796Z" fill="#F4AD85"/>
<path d="M77.0002 122.938C77.0002 122.938 91.0204 115.336 99.1285 115.505C99.1285 115.505 98.9596 93.3767 82.7434 88.8159C66.5273 84.2551 77.0002 122.938 77.0002 122.938Z" fill="#202D4F"/>
<path d="M31.5607 107.735C31.5607 107.735 27.6755 102.667 24.635 102.498C24.635 102.498 36.4593 83.7484 43.2161 82.5659C49.9728 81.3835 45.9188 97.4308 45.9188 97.4308L31.5607 107.735Z" fill="#202D4F"/>
<path d="M97.2699 73.7822C95.7496 71.7552 95.2429 71.7552 95.9186 69.0525C96.5942 66.6876 97.6077 65.1674 97.7767 62.8025C98.1145 55.539 92.7091 55.3701 88.9929 50.9782C85.9524 47.4309 86.628 46.5863 85.1078 42.3633C83.9253 38.985 82.2362 35.7755 79.7024 32.735C79.3645 32.2282 78.8578 31.7215 78.5199 31.2147C76.9997 29.5255 75.1416 28.0052 72.9456 26.8228C66.1889 22.262 60.6146 23.2755 56.8984 24.9647C55.3781 25.4715 54.0267 26.485 52.8443 27.6674C52.5065 28.0052 52.3376 28.1742 52.3376 28.1742C46.7632 25.3026 43.047 31.3836 40.8511 35.9444C40.1754 37.4647 39.4997 39.1539 39.1619 40.8431C38.6552 42.0255 38.4862 43.2079 38.4862 44.5593C38.1484 46.4174 38.1484 48.1066 37.9795 49.9647C37.6416 51.4849 36.6281 52.8363 34.77 53.6809C33.0808 54.3566 31.3917 54.5255 30.716 56.3836C29.7025 58.7484 31.0538 60.7755 31.5606 62.8025C33.0808 68.5457 29.5335 69.3903 25.8173 72.4309C22.7768 74.7957 22.7768 78.0052 24.8038 81.0457C26.3241 83.4106 29.0268 86.4511 32.2362 87.4646C36.1214 90.1673 46.5943 92.7011 53.0132 88.1403C55.2092 80.2011 57.574 75.1336 54.8713 63.1403C52.8443 54.5255 55.8849 54.0187 59.77 56.0457C59.4321 58.2417 59.2632 60.4376 59.0943 62.4647L70.2429 66.5187C61.1213 87.4646 67.3713 94.3903 67.3713 94.3903C81.2226 95.2349 88.6551 91.8565 92.2024 89.1538C94.3983 87.9714 96.4253 85.9443 97.9456 83.7484C100.479 80.2011 99.8037 77.3295 97.2699 73.7822Z" fill="#33103B"/>
<path d="M69.5675 64.4917C69.5675 64.4917 67.3715 74.4579 71.7634 81.5524C75.9864 88.3092 68.7229 95.4038 62.8107 96.5862C57.5742 97.7686 50.1418 94.897 51.9999 88.1403C54.1959 79.8632 56.7296 74.9646 53.858 63.1403C49.804 44.3903 69.5675 64.4917 69.5675 64.4917Z" fill="#EB6B5D"/>
<path d="M73.4523 57.566C73.4523 57.566 76.6617 54.6944 78.0131 57.7349C79.3644 60.7755 77.8441 67.0255 71.0874 66.6876L73.4523 57.566Z" fill="#EF8871"/>
<path d="M40.0065 54.8633C37.9795 67.3633 43.7227 78.6808 52.8443 80.2011C61.966 81.7214 70.9186 72.5998 72.9457 60.0998L73.7903 54.6944C75.3105 45.5728 69.0605 36.9579 59.9389 35.6066C50.9862 34.0863 42.3714 40.1674 40.8511 49.4579L40.0065 54.8633Z" fill="#F4AD85"/>
<path d="M73.9591 54.6944L73.1145 60.0998C71.2564 72.2619 62.6416 81.0457 53.6889 80.2011C57.7429 78.0051 61.4591 74.9646 63.9929 70.9106C67.7091 65.1673 69.0605 57.566 66.6956 50.9782C64.4997 44.3903 58.4186 39.1539 51.6619 38.1403C52.3375 37.2958 53.0132 36.4512 53.6889 35.6066C55.7159 35.0998 57.9119 35.0998 60.1078 35.4376C69.2294 36.9579 75.4794 45.5728 73.9591 54.6944Z" fill="#EF8871"/>
<path d="M53.1825 66.6876C52.5068 66.3498 51.8311 66.0119 51.3244 65.5052C50.6487 64.8295 50.4798 63.9849 50.8176 63.1403C51.1555 62.4646 51.6622 61.9579 52.6757 61.62C52.8446 61.4511 53.3514 60.6065 53.6892 58.9173C53.8581 57.566 54.0271 54.6944 52.3379 52.3295C52.169 52.1606 49.1284 48.4444 45.0744 51.6538L44.5676 50.9782C49.2973 47.4309 52.8446 51.8228 52.8446 51.8228C54.8717 54.6944 54.7027 58.0728 53.8582 60.4376C53.6892 61.1133 53.1825 62.1268 52.6757 62.2957C51.8311 62.6336 51.4933 62.9714 51.3244 63.3092C51.1555 63.816 51.4933 64.4917 51.6622 64.8295C52.169 65.3363 52.6757 65.6741 53.3514 65.843L53.1825 66.6876Z" fill="#1A2440"/>
<path d="M62.6415 57.566C61.6279 58.0728 61.2901 59.4241 61.9658 60.4376C62.4725 61.4512 63.8239 61.789 64.8374 61.1133C65.8509 60.6066 66.1887 59.2552 65.5131 58.2417C64.8374 57.3971 63.4861 57.0593 62.6415 57.566Z" fill="#1A2440"/>
<path d="M46.2567 54.6944C45.2432 55.2011 44.9053 56.5525 45.581 57.566C46.0878 58.5795 47.4391 58.9174 48.4526 58.2417C49.4661 57.7349 49.804 56.3836 49.1283 55.3701C48.4526 54.3566 47.2702 54.0187 46.2567 54.6944Z" fill="#1A2440"/>
<path d="M68.3847 56.8903C67.5401 55.0322 66.3577 54.0187 64.8374 53.6809C62.8104 53.1741 60.7834 54.5255 60.7834 54.5255L60.4456 53.8498C60.6145 53.8498 62.6415 52.3295 65.0064 52.8363C66.6955 53.1741 68.0469 54.5255 69.0604 56.5525L68.3847 56.8903Z" fill="#1A2440"/>
<path d="M64.6686 58.4106C64.4997 58.5795 64.3307 58.9174 64.4997 59.0863C64.6686 59.2552 65.0064 59.4241 65.1753 59.2552C65.3443 59.0863 65.5132 58.7484 65.3442 58.5795C65.1753 58.2417 64.8375 58.2417 64.6686 58.4106Z" fill="white"/>
<path d="M48.2836 55.3701C48.1146 55.539 47.9457 55.8768 48.1146 56.0457C48.2836 56.2146 48.6214 56.3836 48.7903 56.2146C48.9592 56.0457 49.1282 55.7079 48.9592 55.539C48.7903 55.3701 48.6214 55.3701 48.2836 55.3701Z" fill="white"/>
<path d="M71.0878 38.3093C68.2161 34.9309 64.1621 32.7349 59.7702 32.0593C55.3783 31.3836 50.8175 32.2282 47.1013 34.4241C47.777 39.4917 50.9864 44.2214 55.5472 46.5863C59.0945 48.6133 63.3175 49.12 67.3716 49.9646C71.4256 50.8092 75.4796 52.3295 78.1823 55.539C76.6621 49.6268 75.1418 43.2079 71.0878 38.3093Z" fill="#33103B"/>
<path d="M38.1486 59.0863H37.4729C37.9797 55.2011 39.8378 51.8228 41.6959 48.4444C42.0337 47.7687 42.5405 46.9241 42.8783 46.2485C45.2432 41.8566 47.2702 37.2958 46.2567 33.2417C46.2567 33.0728 46.2567 32.9039 46.0877 32.9039L46.7634 32.735C46.7634 32.9039 46.9323 33.0728 46.9323 33.0728C49.2972 41.012 51.9999 47.5998 58.9256 50.4714C62.3039 51.8228 65.3445 51.4849 68.7228 51.1471H69.2296C72.1012 50.8093 75.8174 51.6539 77.3377 54.3566L76.662 54.6944C75.3107 52.3295 71.7634 51.6539 69.2296 51.9917H68.7228C65.1756 52.3295 62.135 52.6674 58.5877 51.316C51.831 48.6133 48.9594 42.5323 47.1013 36.6201C46.7634 39.9985 45.2432 43.3768 43.3851 46.7552C43.0472 47.4309 42.5405 48.2755 42.2026 48.9512C40.5134 51.9917 38.6553 55.3701 38.1486 59.0863Z" fill="#33103B"/>
<path d="M49.9727 69.2214C49.9727 69.2214 54.0267 71.7552 61.4591 69.0525C61.4591 69.0525 60.4456 73.1065 56.0537 73.7822C51.6618 74.6268 49.9727 69.2214 49.9727 69.2214Z" fill="white"/>
<path d="M2.00529 126.316C1.83637 111.451 17.208 88.4781 17.208 88.4781L20.2485 84.593L27.512 74.6268L36.4647 70.7416L44.9106 75.4714C44.9106 75.4714 44.2349 78.0051 40.1809 76.8227L36.4647 75.4714L30.5525 78.8497C30.5525 78.8497 30.5525 79.0187 30.7215 79.0187L37.4782 76.8227L43.5593 79.0187C43.5593 79.0187 44.2349 81.2146 41.3633 81.2146C38.4917 81.2146 36.9714 80.5389 36.9714 80.5389L32.5796 82.397C32.7485 82.7349 32.9174 83.0727 32.9174 83.2416L36.6336 82.9038L41.0255 82.2281C41.0255 82.2281 41.7012 83.4105 40.6877 84.593C39.8431 85.6065 37.6471 86.2822 36.2958 86.4511C35.4512 86.4511 34.4377 86.7889 33.4241 87.1267C32.9174 91.0119 28.0188 94.2213 23.9647 93.5457C23.9647 93.5457 20.4174 130.877 16.8701 135.1C12.8161 138.816 2.17421 141.012 2.00529 126.316Z" fill="#F4AD85"/>
<path d="M32.4108 84.9308C31.2284 86.9578 25.823 90.674 18.2216 87.1267L17.2081 88.4781C17.2081 88.4781 1.66759 111.451 2.00543 126.316C2.17435 141.181 12.9851 138.985 16.5324 134.762C20.0797 130.539 23.627 93.2078 23.627 93.2078C27.6811 93.8835 32.5797 90.674 33.0865 86.7889C34.1 86.4511 35.2824 86.1132 35.9581 86.1132C37.3094 85.9443 39.5054 85.2686 40.35 84.2551C41.1946 83.2416 40.6878 81.8903 40.6878 81.8903C41.1946 85.0997 32.4108 84.9308 32.4108 84.9308Z" fill="#F4AD85"/>
<path d="M36.9714 78.8497L32.4106 82.0592L36.8025 80.2011C36.8025 80.2011 38.3228 80.8767 41.1944 80.8767C44.066 80.8767 43.3904 78.6808 43.3904 78.6808C43.3904 78.6808 38.8296 80.37 36.9714 78.8497Z" fill="#F4AD85"/>
<path d="M35.4513 73.6132L30.3838 78.5119L36.2959 75.1335L40.0122 76.6538C44.0662 78.0051 44.7419 75.3024 44.7419 75.3024C43.0527 76.147 35.4513 73.6132 35.4513 73.6132Z" fill="#F4AD85"/>
</g>
</svg>
