<svg width="141" height="143" viewBox="0 0 141 143" fill="none" xmlns="http://www.w3.org/2000/svg">
<mask id="mask0" mask-type="alpha" maskUnits="userSpaceOnUse" x="0" y="0" width="141" height="143">
<rect width="141" height="143" rx="8" fill="white"/>
</mask>
<g mask="url(#mask0)">
<circle cx="63" cy="110" r="49" fill="white" fill-opacity="0.45"/>
<circle cx="95.5" cy="66.5" r="28.5" fill="white" fill-opacity="0.45"/>
<circle cx="32" cy="33" r="15" fill="white" fill-opacity="0.45"/>
<path d="M110.817 104.275L108.477 103.146C100.326 99.2124 91.3918 97.1695 82.3412 97.1695H48.6588C39.6081 97.1695 30.6741 99.2124 22.5228 103.146L20.1832 104.275C17.6649 105.49 16.0645 108.039 16.0645 110.836C16.0645 114.859 19.3258 118.12 23.3491 118.12H107.651C111.674 118.12 114.936 114.859 114.936 110.836C114.936 108.04 113.335 105.49 110.817 104.275Z" fill="#C1D5E4"/>
<path d="M110.817 104.275L108.477 103.146C100.326 99.2124 91.3918 97.1695 82.3412 97.1695H71.516C80.5667 97.1695 89.5007 99.2124 97.6522 103.146L99.9918 104.275C102.51 105.49 104.111 108.039 104.111 110.836C104.111 114.859 100.849 118.12 96.8259 118.12H107.651C111.674 118.12 114.936 114.859 114.936 110.836C114.936 108.04 113.335 105.49 110.817 104.275Z" fill="#98B9D3"/>
<path d="M16.0645 110.836C16.0645 108.04 17.6649 105.49 20.1832 104.275L22.2438 103.281L32.1413 102.747C36.3824 102.518 40.6348 102.878 44.7769 103.818L67.4251 108.955V118.121H23.3491C19.3258 118.12 16.0645 114.859 16.0645 110.836Z" fill="#DAE7EF"/>
<path d="M16.3711 108.749C16.1716 109.416 16.0645 110.118 16.0645 110.836C16.0645 114.859 19.3258 118.12 23.3491 118.12H67.4251V113.941H23.3491C20.0536 113.941 17.2706 111.752 16.3711 108.749Z" fill="#C1D5E4"/>
<path d="M35.4158 119.443L39.5837 115.448C40.424 114.643 41.4244 114.024 42.52 113.631L48.8574 111.359C49.4573 111.144 49.9968 110.788 50.4303 110.32L53.0529 107.492C54.3489 106.095 56.4552 105.814 58.0721 106.824L60.5484 108.37C61.1382 108.739 61.7722 109.03 62.4356 109.238L67.3717 110.786L68.132 117.227L46.9087 119.016C45.3489 119.147 43.8242 119.552 42.4055 120.214L36.7237 122.863C35.8903 123.252 34.91 122.778 34.6969 121.883C34.4865 121 34.7599 120.071 35.4158 119.443Z" fill="#FFCBBE"/>
<path d="M67.7181 113.721L46.5969 115.502C45.0371 115.632 43.5125 116.038 42.0938 116.699L36.4119 119.348C36.0869 119.5 35.7398 119.519 35.4243 119.434L35.4156 119.443C34.7599 120.071 34.4863 121 34.6968 121.883C34.9099 122.778 35.8903 123.252 36.7236 122.863L42.4055 120.214C43.8242 119.552 45.3486 119.147 46.9086 119.016L68.1319 117.227L67.7181 113.721Z" fill="#EAAC9D"/>
<path d="M114.936 110.836C114.936 108.04 113.335 105.49 110.817 104.275L108.756 103.281L98.8588 102.747C94.6176 102.518 90.3653 102.878 86.2231 103.818L64.4986 108.745C63.9584 108.868 63.575 109.348 63.575 109.902V116.934C63.575 117.589 64.1059 118.12 64.761 118.12H107.651C111.674 118.12 114.936 114.859 114.936 110.836Z" fill="#DAE7EF"/>
<path d="M110.817 104.275L110.393 104.07C110.702 104.883 110.869 105.756 110.869 106.656C110.869 110.679 107.608 113.941 103.585 113.941H63.575V116.934C63.575 117.589 64.1059 118.12 64.761 118.12H107.651C111.674 118.12 114.936 114.859 114.936 110.836C114.936 108.04 113.335 105.49 110.817 104.275Z" fill="#C1D5E4"/>
<path d="M114.967 105.839L113.128 98.8096C112.882 97.8693 112.088 97.1742 111.123 97.0555L104.568 96.249C104.057 96.1859 103.584 95.9435 103.235 95.5645L93.2639 84.7462C92.918 84.3709 92.6916 83.9009 92.6138 83.3964L89.5089 63.2638C89.1061 60.6523 87.6762 58.31 85.5375 56.7582L84.7217 56.1664C83.031 54.9395 80.9955 54.279 78.9064 54.279L77.1989 61.9374L85.3797 89.8265C85.6113 90.6164 86.1098 91.3015 86.79 91.7652L100.995 101.447C101.694 101.923 102.44 102.328 103.221 102.654L113.629 107.001C114.384 107.316 115.173 106.63 114.967 105.839Z" fill="#FFCBBE"/>
<path d="M16.0335 105.839L17.8718 98.8096C18.1177 97.8693 18.9122 97.1742 19.8771 97.0555L26.4318 96.249C26.9432 96.1859 27.4158 95.9435 27.7652 95.5645L37.7361 84.7462C38.082 84.3709 38.3085 83.9009 38.3862 83.3964L41.4912 63.2638C41.8939 60.6523 43.3238 58.31 45.4626 56.7582L46.2783 56.1664C47.9691 54.9395 50.0046 54.279 52.0936 54.279L53.8012 61.9374L45.6203 89.8265C45.3887 90.6164 44.8902 91.3015 44.21 91.7652L30.005 101.447C29.3059 101.923 28.5601 102.328 27.7793 102.654L17.3708 107.001C16.6159 107.316 15.8266 106.63 16.0335 105.839Z" fill="#FFCBBE"/>
<path d="M43.0133 87.4285C42.7816 88.2184 42.2832 88.9034 41.6029 89.3671L27.3982 99.0488C26.699 99.5254 25.9532 99.9299 25.1724 100.256L16.5519 103.856L16.0335 105.839C15.8266 106.63 16.6157 107.316 17.3706 107.001L27.7793 102.654C28.5601 102.328 29.3059 101.923 30.005 101.447L44.2098 91.765C44.89 91.3013 45.3885 90.6162 45.6202 89.8263L53.801 61.9372L52.3216 55.3024L43.0133 87.4285Z" fill="#EAAC9D"/>
<path d="M114.966 105.839L113.128 98.8096C112.882 97.8693 112.088 97.1742 111.123 97.0555L104.568 96.249C104.057 96.1859 103.584 95.9435 103.235 95.5645L93.264 84.7462C92.9181 84.3709 92.6917 83.9009 92.6139 83.3964L89.509 63.2638C89.1062 60.6523 87.6763 58.31 85.5376 56.7581L84.7218 56.1662C83.0311 54.9393 80.9956 54.2788 78.9065 54.2788L78.4297 56.4168C79.7279 56.7118 80.9611 57.2658 82.0509 58.0565L82.8667 58.6483C85.0055 60.2002 86.4353 62.5424 86.8381 65.1541L89.9431 85.2867C90.021 85.7911 90.2472 86.2612 90.5931 86.6365L100.564 97.4548C100.913 97.8337 101.386 98.0762 101.898 98.1392L108.452 98.9457C109.417 99.0645 110.212 99.7596 110.457 100.7L111.918 106.286L113.629 107.001C114.384 107.316 115.173 106.63 114.966 105.839Z" fill="#EAAC9D"/>
<path d="M78.0098 98.9728L80.7789 98.576C81.4398 98.4813 81.7894 97.7427 81.4439 97.1715L80.4632 95.5507C78.318 92.0057 77.184 87.9413 77.184 83.7978V80.6004C77.184 77.9462 77.8967 75.3406 79.2477 73.0559C80.2725 71.323 80.8131 69.3467 80.8131 67.3333V56.749C80.8131 54.64 79.1035 52.9305 76.9947 52.9305H54.0056C51.8967 52.9305 50.1872 54.6402 50.1872 56.749V67.3333C50.1872 69.3465 50.7278 71.3228 51.7526 73.0559C53.1036 75.3406 53.8163 77.9462 53.8163 80.6004V83.7976C53.8163 87.9411 52.6823 92.0057 50.5372 95.5505L49.5564 97.1713C49.2109 97.7425 49.5605 98.4811 50.2214 98.5758L52.9905 98.9726C61.2877 100.162 69.7124 100.162 78.0098 98.9728Z" fill="#86F1A7"/>
<path d="M81.4438 97.1717L80.4631 95.5509C78.318 92.0059 77.1839 87.9415 77.1839 83.798V80.6006C77.1839 77.9464 77.8966 75.3408 79.2476 73.0561C80.2724 71.3232 80.8131 69.3469 80.8131 67.3336V56.7494C80.8131 54.6404 79.1034 52.9309 76.9946 52.9309H75.3773V67.8559C75.3773 69.9423 74.8172 71.9901 73.7553 73.786C72.3553 76.1535 71.6167 78.8536 71.6167 81.6041V84.9173C71.6167 89.2111 72.7919 93.423 75.0148 97.0967L76.2883 99.201C76.8627 99.1302 77.4366 99.055 78.0099 98.9728L80.779 98.576C81.4397 98.4815 81.7893 97.7429 81.4438 97.1717Z" fill="#78D090"/>
<path d="M68.0105 57.3356H62.9894C61.0672 57.3356 59.5089 55.7773 59.5089 53.8552V44.6464H71.491V53.8552C71.491 55.7773 69.9327 57.3356 68.0105 57.3356Z" fill="#EAAC9D"/>
<path d="M68.1069 44.6464V53.6958C68.1069 55.7062 66.4773 57.3358 64.4669 57.3358H68.0106C69.9328 57.3358 71.4911 55.7775 71.4911 53.8553V44.6466H68.1069V44.6464Z" fill="#DF9380"/>
<path d="M68.7349 25.7833H62.3434C59.3533 25.7833 56.9293 28.2072 56.9293 31.1973V35.0345L57.316 35.5904H73.7622L74.1489 35.0345V31.1973C74.1489 28.2072 71.725 25.7833 68.7349 25.7833Z" fill="#BE694F"/>
<path d="M68.7348 25.7833H62.9106C65.9916 25.7833 68.4891 28.2809 68.4891 31.3617V35.5904H73.7622L74.1489 35.0345V31.1973C74.1489 28.2072 71.7249 25.7833 68.7348 25.7833Z" fill="#BE694F"/>
<path d="M76.1752 37.2966C75.571 36.9809 74.8489 37.0225 74.148 37.3407L74.149 37.3371V34.2611C74.149 33.5259 73.5531 32.93 72.8181 32.93H58.2605C57.5253 32.93 56.9296 33.5259 56.9296 34.2611V37.3773C56.2047 37.0259 55.4515 36.9693 54.8249 37.2966C53.5094 37.984 53.2509 40.0872 54.2475 41.9945C55.0159 43.4652 56.3056 44.3858 57.459 44.4169C57.9167 45.6774 58.6598 46.8298 59.6482 47.7754L61.6499 49.69C62.0118 50.0363 62.4086 50.325 62.8286 50.5561L65.3248 50.9909L68.1071 50.632C68.5799 50.3894 69.0257 50.0756 69.4285 49.6902L71.4302 47.7755C72.4186 46.83 73.1629 45.6778 73.6203 44.4173V44.4165C74.7532 44.3461 76.002 43.4313 76.7528 41.9945C77.7491 40.0872 77.4906 37.984 76.1752 37.2966Z" fill="#FFCBBE"/>
<path d="M76.1753 37.2966C75.5713 36.9811 74.8496 37.0225 74.1489 37.3403V34.2611C74.1489 33.5259 73.553 32.93 72.818 32.93H70.3685V40.8195C70.3685 43.2225 69.3863 45.5214 67.6497 47.1823L65.6481 49.097C64.8389 49.871 63.8562 50.3565 62.8295 50.5547C64.9324 51.7118 67.6153 51.4244 69.4286 49.69L71.4303 47.7754C72.4189 46.8296 73.162 45.677 73.6197 44.4163C74.7528 44.3463 76.0019 43.4315 76.7529 41.9943C77.7493 40.0872 77.4907 37.984 76.1753 37.2966Z" fill="#EAAC9D"/>
</g>
</svg>
