<svg width="18" height="18" viewBox="0 0 18 18" fill="none" xmlns="http://www.w3.org/2000/svg">
<circle cx="9" cy="9" r="9" fill="white"/>
<path d="M6.7739 12.9999C11.3025 12.9999 13.7789 9.53768 13.7789 6.53549C13.7789 6.43714 13.7767 6.33922 13.7719 6.2418C14.2526 5.92109 14.6704 5.52087 15 5.06531C14.5589 5.24628 14.0841 5.36803 13.5862 5.42303C14.0945 5.14169 14.4847 4.69677 14.6688 4.16636C14.1931 4.42658 13.6663 4.61566 13.1054 4.71781C12.6562 4.27619 12.0165 4 11.3082 4C9.94867 4 8.8461 5.01749 8.8461 6.27171C8.8461 6.45007 8.86771 6.62344 8.90991 6.78979C6.86371 6.69474 5.04922 5.79072 3.83505 4.41593C3.62366 4.75169 3.50171 5.14177 3.50171 5.55796C3.50171 6.34615 3.9364 7.04208 4.59732 7.44914C4.19339 7.43765 3.814 7.33533 3.4823 7.16501C3.48193 7.17455 3.48193 7.18385 3.48193 7.19398C3.48193 8.29436 4.33054 9.21308 5.45718 9.42126C5.25027 9.47322 5.03256 9.50118 4.80798 9.50118C4.6496 9.50118 4.49524 9.48682 4.34518 9.46021C4.65866 10.363 5.5676 11.0199 6.64517 11.0383C5.80252 11.6478 4.74097 12.0108 3.58731 12.0108C3.38882 12.0108 3.19272 12.0003 3 11.9794C4.08957 12.6239 5.38348 13 6.77399 13" fill="#53D0EC"/>
</svg>
