<svg width="33" height="42" viewBox="0 0 33 42" fill="none" xmlns="http://www.w3.org/2000/svg">
<path d="M6.58247 42H6.06138C2.71914 42 0 39.2809 0 35.9386C0 32.5964 2.71914 29.8772 6.06138 29.8772H10.1754V25.9637H12.6438V29.8772H21.6399C23.9973 29.8772 25.9534 28.4168 26.5073 26.2433L28.8993 26.8528C28.062 30.1383 25.1447 32.3457 21.6399 32.3457H12.6438V35.9386C12.6438 39.2809 9.92471 42 6.58247 42ZM6.0613 32.3457C4.08014 32.3457 2.46834 33.9575 2.46834 35.9386C2.46834 37.9198 4.08014 39.5316 6.0613 39.5316H6.58238C8.56354 39.5316 10.1753 37.9198 10.1753 35.9386V32.3457H6.0613Z" fill="#3C3F41"/>
<path d="M26.5073 26.2433C25.9534 28.4168 23.9973 29.8772 21.6398 29.8772H12.6438V25.9637H11.3547V39.6688C12.1611 38.6394 12.6438 37.3446 12.6438 35.9385V32.3456H21.6398C25.1446 32.3456 28.062 30.1382 28.8993 26.8528L26.5073 26.2433Z" fill="black"/>
<path d="M27.948 26.5586C29.6445 26.5586 31.0198 25.1833 31.0198 23.4868C31.0198 21.7903 29.6445 20.415 27.948 20.415C26.2515 20.415 24.8762 21.7903 24.8762 23.4868C24.8762 25.1833 26.2515 26.5586 27.948 26.5586Z" fill="black"/>
<path d="M27.948 27.7928C25.5737 27.7928 23.642 25.8611 23.642 23.4868C23.642 21.1124 25.5737 19.1807 27.948 19.1807C30.3224 19.1807 32.254 21.1124 32.254 23.4868C32.2541 25.8612 30.3224 27.7928 27.948 27.7928ZM27.948 21.6491C26.9348 21.6491 26.1104 22.4735 26.1104 23.4868C26.1104 24.5 26.9348 25.3244 27.948 25.3244C28.9613 25.3244 29.7856 24.5 29.7856 23.4868C29.7857 22.4735 28.9613 21.6491 27.948 21.6491Z" fill="#8A8AA9"/>
<path d="M11.3548 27.198C5.2752 27.198 0.329132 22.2519 0.329132 16.1724V5.31872C0.329132 3.13457 2.10607 1.35764 4.29013 1.35764H5.48765V3.82606H4.29013C3.46716 3.82606 2.79756 4.49566 2.79756 5.31872V16.1724C2.79756 20.8909 6.63629 24.7296 11.3548 24.7296C16.0732 24.7296 19.912 20.8909 19.912 16.1724V5.46764C19.912 4.64467 19.2424 3.97507 18.4194 3.97507H17.199V1.50665H18.4194C20.6035 1.50665 22.3804 3.28358 22.3804 5.46764V16.1724C22.3804 22.2519 17.4342 27.198 11.3548 27.198Z" fill="#BDBDD2"/>
<path d="M18.4193 1.50673H17.1989V3.97515H18.4193C19.2423 3.97515 19.9119 4.64476 19.9119 5.46773V16.1725C19.9119 20.8909 16.0732 24.7297 11.3547 24.7297V27.1981C17.4342 27.1981 22.3803 22.252 22.3803 16.1725V5.46773C22.3804 3.28358 20.6035 1.50673 18.4193 1.50673Z" fill="#ABABC5"/>
<path d="M15.2791 0C13.8499 0 12.6872 1.16271 12.6872 2.59185C12.6872 4.02098 13.8499 5.18369 15.2791 5.18369H17.816V0H15.2791Z" fill="black"/>
<path d="M7.40749 0H4.87053V5.18369H7.40749C8.83663 5.18369 9.99934 4.02098 9.99934 2.59185C9.99934 1.16271 8.83671 0 7.40749 0Z" fill="#3C3F41"/>
</svg>
