<svg width="28" height="41" viewBox="0 0 28 41" fill="none" xmlns="http://www.w3.org/2000/svg">
<path d="M19.8049 11.8374V0H8.87805V11.8374C8.02926 12.4854 7.34039 13.3263 6.86619 14.2933C6.39198 15.2603 6.14551 16.3268 6.14634 17.4079V25.7638C6.14634 26.3178 6.36219 26.8491 6.74642 27.2409C7.13064 27.6326 7.65175 27.8527 8.19512 27.8527C8.73849 27.8527 9.25961 27.6326 9.64383 27.2409C10.028 26.8491 10.2439 26.3178 10.2439 25.7638V31.3343C10.2439 31.8883 10.4598 32.4196 10.844 32.8114C11.2282 33.2032 11.7493 33.4232 12.2927 33.4232C12.8361 33.4232 13.3572 33.2032 13.7414 32.8114C14.1256 32.4196 14.3415 31.8883 14.3415 31.3343V33.4232C14.3415 33.9773 14.5573 34.5086 14.9415 34.9004C15.3258 35.2921 15.8469 35.5122 16.3902 35.5122C16.9336 35.5122 17.4547 35.2921 17.8389 34.9004C18.2232 34.5086 18.439 33.9773 18.439 33.4232V28.549C18.439 29.103 18.6549 29.6344 19.0391 30.0261C19.4233 30.4179 19.9444 30.638 20.4878 30.638C21.0312 30.638 21.5523 30.4179 21.9365 30.0261C22.3207 29.6344 22.5366 29.103 22.5366 28.549V17.4079C22.5374 16.3268 22.2909 15.2603 21.8167 14.2933C21.3425 13.3263 20.6537 12.4854 19.8049 11.8374Z" fill="#F0C6A4"/>
<path d="M18.5079 30.203C18.3216 30.203 18.143 30.129 18.0112 29.9973C17.8795 29.8656 17.8055 29.6869 17.8055 29.5006V21.7743C17.8055 21.588 17.8795 21.4093 18.0112 21.2776C18.143 21.1459 18.3216 21.0719 18.5079 21.0719C18.6942 21.0719 18.8729 21.1459 19.0046 21.2776C19.1363 21.4093 19.2103 21.588 19.2103 21.7743V29.5006C19.2103 29.6869 19.1363 29.8656 19.0046 29.9973C18.8729 30.129 18.6942 30.203 18.5079 30.203Z" fill="#E0B999"/>
<path d="M14.2935 32.3102C14.1072 32.3102 13.9286 32.2362 13.7969 32.1045C13.6651 31.9728 13.5911 31.7941 13.5911 31.6078V21.0719C13.5911 20.8856 13.6651 20.7069 13.7969 20.5752C13.9286 20.4435 14.1072 20.3695 14.2935 20.3695C14.4798 20.3695 14.6585 20.4435 14.7902 20.5752C14.9219 20.7069 14.9959 20.8856 14.9959 21.0719V31.6078C14.9959 31.7941 14.9219 31.9728 14.7902 32.1045C14.6585 32.2362 14.4798 32.3102 14.2935 32.3102Z" fill="#E0B999"/>
<path d="M10.0792 26.691C9.89287 26.691 9.71421 26.617 9.58249 26.4853C9.45076 26.3536 9.37676 26.1749 9.37676 25.9886V20.3695C9.37676 20.1832 9.45076 20.0045 9.58249 19.8728C9.71421 19.7411 9.89287 19.6671 10.0792 19.6671C10.2654 19.6671 10.4441 19.7411 10.5758 19.8728C10.7076 20.0045 10.7816 20.1832 10.7816 20.3695V25.9886C10.7816 26.1749 10.7076 26.3536 10.5758 26.4853C10.4441 26.617 10.2654 26.691 10.0792 26.691Z" fill="#E0B999"/>
<path d="M5.85366 19.0374C5.85366 18.4737 6.08493 17.9331 6.49659 17.5345C6.90826 17.1359 7.4666 16.9119 8.04878 16.9119C8.63096 16.9119 9.1893 17.1359 9.60097 17.5345C10.0126 17.9331 10.2439 18.4737 10.2439 19.0374V26.1225C10.2439 27.2456 10.0155 28.3578 9.57159 29.3954C9.12772 30.433 8.47712 31.3758 7.65695 32.17L7.31707 32.4991V40.2927H0V19.7065C2.51486e-05 19.2665 0.105803 18.8326 0.308963 18.439L5.31823 8.73822C5.47098 8.44242 5.69012 8.18344 5.95959 7.98024C6.22907 7.77704 6.54206 7.63477 6.87565 7.56383C7.20925 7.49289 7.55501 7.49509 7.88762 7.57026C8.22022 7.64543 8.53126 7.79167 8.79796 7.99827C9.20724 8.31531 9.49184 8.75867 9.60428 9.25437C9.71672 9.75006 9.65019 10.2681 9.41579 10.722L5.85366 17.6204V23.997" fill="#EFB78E"/>
<path d="M22.5366 19.0374C22.5366 18.4737 22.3207 17.9331 21.9365 17.5345C21.5523 17.1359 21.0312 16.9119 20.4878 16.9119C19.9444 16.9119 19.4233 17.1359 19.0391 17.5345C18.6549 17.9331 18.439 18.4737 18.439 19.0374V26.1225C18.439 27.2456 18.6522 28.3578 19.0665 29.3954C19.4808 30.433 20.088 31.3758 20.8535 32.17L21.1707 32.4991V40.2927H28V19.7065C28 19.2665 27.9013 18.8326 27.7116 18.439L23.0363 8.73822C22.8937 8.44242 22.6892 8.18344 22.4377 7.98024C22.1862 7.77704 21.8941 7.63477 21.5827 7.56383C21.2714 7.49289 20.9487 7.49509 20.6382 7.57026C20.3278 7.64543 20.0375 7.79167 19.7886 7.99827C19.4066 8.31531 19.1409 8.75867 19.036 9.25437C18.9311 9.75006 18.9932 10.2681 19.2119 10.722L22.5366 17.6204V23.997" fill="#EFB78E"/>
<path d="M6.14634 25.2683C5.96522 25.2683 5.79151 25.1963 5.66344 25.0683C5.53537 24.9402 5.46342 24.7665 5.46342 24.5854V19.8049C5.46342 19.6238 5.53537 19.45 5.66344 19.322C5.79151 19.1939 5.96522 19.1219 6.14634 19.1219C6.32747 19.1219 6.50117 19.1939 6.62925 19.322C6.75732 19.45 6.82927 19.6238 6.82927 19.8049V24.5854C6.82927 24.7665 6.75732 24.9402 6.62925 25.0683C6.50117 25.1963 6.32747 25.2683 6.14634 25.2683Z" fill="#DEAA84"/>
<path d="M22.5366 25.2683C22.3555 25.2683 22.1818 25.1963 22.0537 25.0683C21.9256 24.9402 21.8537 24.7665 21.8537 24.5854V19.8049C21.8537 19.6238 21.9256 19.45 22.0537 19.322C22.1818 19.1939 22.3555 19.1219 22.5366 19.1219C22.7177 19.1219 22.8914 19.1939 23.0195 19.322C23.1476 19.45 23.2195 19.6238 23.2195 19.8049V24.5854C23.2195 24.7665 23.1476 24.9402 23.0195 25.0683C22.8914 25.1963 22.7177 25.2683 22.5366 25.2683Z" fill="#DEAA84"/>
</svg>
